<svg viewBox="0 0 26 26" fill="none" xmlns="http://www.w3.org/2000/svg">
<path d="M22.4541 3.64551L22.0254 3.58398C21.2795 3.47742 20.2472 3.42676 18.9414 3.42676C17.3024 3.42676 15.9399 3.91309 14.9092 4.9248C13.8692 5.94587 13.3799 7.3643 13.3799 9.10645V11.501H9.99512V16.4287H13.3799V25.5H4.875C3.66535 25.5 2.64441 25.0761 1.78418 24.2158C0.923945 23.3556 0.5 22.3346 0.5 21.125V4.875C0.5 3.66535 0.923944 2.64441 1.78418 1.78418C2.64441 0.923944 3.66535 0.5 4.875 0.5H21.125C22.3346 0.5 23.3556 0.923945 24.2158 1.78418C25.0761 2.64441 25.5 3.66535 25.5 4.875V21.125C25.5 22.3346 25.0761 23.3556 24.2158 24.2158C23.3556 25.0761 22.3346 25.5 21.125 25.5H18.4424V16.4287H21.751L21.8066 15.9922L22.3145 12.0654L22.3877 11.501H18.4424V9.49609C18.4424 8.92194 18.5652 8.58433 18.7236 8.39551C18.8381 8.2593 19.1529 8.10059 19.8896 8.10059H19.8936L21.959 8.08301L22.4541 8.0791V3.64551Z" stroke="#C2A568"/>
</svg>
