<svg width="50" height="40" viewBox="0 0 50 40" fill="none" xmlns="http://www.w3.org/2000/svg">
<path d="M25.0001 7.625V27.4167M25.0001 7.625C25.0001 5.9674 24.3416 4.37769 23.1695 3.20558C21.9974 2.03348 20.4077 1.375 18.7501 1.375H4.16675V3.63542C4.16665 13.2106 3.11875 22.757 1.04175 32.1042V32.625H18.7501C20.4077 32.625 21.9974 33.2835 23.1695 34.4556C24.3416 35.6277 25.0001 37.2174 25.0001 38.875M25.0001 7.625C25.0001 5.9674 25.6586 4.37769 26.8307 3.20558C28.0028 2.03348 29.5925 1.375 31.2501 1.375H45.8334V3.63542C45.8334 13.2104 46.8813 22.7583 48.9584 32.1042V32.625H31.2501C29.5925 32.625 28.0028 33.2835 26.8307 34.4556C25.6586 35.6277 25.0001 37.2174 25.0001 38.875M25.0001 38.875V39.9167" stroke="#1B3C25"/>
</svg>
