<svg width="104" height="115" viewBox="0 0 104 115" fill="none" xmlns="http://www.w3.org/2000/svg">
<path d="M53.7864 66.1085C53.7864 66.0906 53.7819 66.0705 53.7796 66.0527C53.7594 65.8406 53.7325 65.6263 53.6966 65.4164C53.3375 63.1884 52.3254 61.2439 52.0022 61.2439C51.6791 61.2439 50.667 63.1884 50.3079 65.4164C50.2742 65.6285 50.245 65.845 50.2248 66.0594C50.2248 66.075 50.2204 66.0928 50.2204 66.1085C50.1014 67.3832 50.4134 69.3635 52.0045 69.3635C53.5956 69.3635 53.9053 67.381 53.7886 66.1085" fill="#C2A568"/>
<path d="M52.4084 14.4665C53.2186 13.1851 54.5763 10.5798 54.5763 7.53465C54.5763 3.6077 52.2671 0.361663 52 0C51.7285 0.366128 49.4259 3.57422 49.4259 7.53465C49.4259 10.5798 50.7836 13.1851 51.5938 14.4665C51.5938 14.4665 51.596 14.471 51.6005 14.4688C51.6005 14.2165 51.6073 13.9709 51.6095 13.7722C51.6095 13.6695 51.614 13.578 51.614 13.5043C51.6207 11.7429 51.7127 9.12642 51.8968 7.54581C51.899 7.52126 51.9237 7.46098 52.0022 7.46098C52.0763 7.46098 52.1032 7.51679 52.1055 7.54581C52.2873 9.12642 52.3793 11.7429 52.3882 13.5043C52.3882 13.5802 52.3882 13.6718 52.3927 13.7745C52.3972 13.9709 52.4017 14.2187 52.3972 14.4643L52.4354 14.4844L52.4084 14.4665Z" fill="#C2A568"/>
<path d="M55.1306 13.1806C55.4852 12.9909 57.882 11.638 59.3789 9.19339C60.8825 6.73542 60.9835 3.98053 60.988 3.60101C60.6401 3.72156 58.1962 4.65028 56.5333 7.4967C55.0858 9.97476 55.1172 12.7765 55.1306 13.1828" fill="#C2A568"/>
<path d="M63.0593 8.3004C62.2941 9.99709 62.6913 11.8835 62.7609 12.176C63.0279 12.0331 64.7088 11.0754 65.4741 9.37869C66.2393 7.682 65.8421 5.79554 65.7726 5.50309C65.5055 5.64597 63.8246 6.6037 63.0593 8.3004Z" fill="#C2A568"/>
<path d="M79.2018 29.393C77.2291 29.7725 75.822 31.2415 75.6111 31.4736C75.9006 31.6076 77.7947 32.4448 79.7673 32.0675C81.7399 31.688 83.1448 30.219 83.358 29.9868C83.0685 29.8506 81.1744 29.0134 79.2018 29.393Z" fill="#C2A568"/>
<path d="M78.3961 43.3304C80.0456 43.3304 81.428 42.3682 81.6569 42.1985C81.428 42.0311 80.0456 41.0689 78.3961 41.0689C76.7466 41.0689 75.3642 42.0333 75.1353 42.2008C75.3642 42.3682 76.7466 43.3304 78.3939 43.3304H78.3961Z" fill="#C2A568"/>
<path d="M80.0366 34.2375C78.2457 33.5432 76.2776 34.0566 75.9814 34.1415C76.134 34.4027 77.164 36.077 78.9527 36.7713C80.7435 37.4679 82.7117 36.9522 83.0079 36.8673C82.8575 36.6061 81.8252 34.9318 80.0366 34.2375Z" fill="#C2A568"/>
<path d="M71.199 8.60178C70.8915 8.68662 68.8246 9.30055 67.5836 10.9504C66.3426 12.6002 66.3336 14.7478 66.3381 15.0648C66.6455 14.98 68.7124 14.3661 69.9535 12.7163C71.1945 11.0665 71.2035 8.9188 71.199 8.60178Z" fill="#C2A568"/>
<path d="M72.256 29.6207C70.9454 30.3775 70.2968 31.7884 70.1914 32.0385C70.4607 32.0697 72.0136 32.2104 73.3242 31.4535C74.6348 30.6967 75.2834 29.2858 75.3889 29.0358C75.1196 29.0045 73.5666 28.8639 72.256 29.6229" fill="#C2A568"/>
<path d="M74.1232 39.5173C73.1043 40.2496 72.6779 41.4618 72.6061 41.694C72.8507 41.694 74.1434 41.6806 75.1622 40.9483C76.1811 40.2161 76.6052 39.0038 76.6793 38.7694C76.4347 38.7649 75.142 38.785 74.1232 39.5151" fill="#C2A568"/>
<path d="M68.9144 42.069C69.168 42.0199 70.5594 41.7141 71.493 40.6961C72.4266 39.678 72.6061 38.2716 72.6308 38.0148C72.3772 38.0639 70.9858 38.3698 70.0522 39.3878C69.1186 40.4058 68.9391 41.8123 68.9144 42.069Z" fill="#C2A568"/>
<path d="M66.1608 40.0598C65.3933 41.2073 65.4292 42.6227 65.4449 42.8794C65.6895 42.7924 67.0158 42.2811 67.7833 41.1359C68.5509 39.9884 68.515 38.573 68.4992 38.3162C68.2569 38.4033 66.9283 38.9145 66.1608 40.0598Z" fill="#C2A568"/>
<path d="M72.5455 43.1272C72.6667 43.3393 73.3444 44.4332 74.4979 44.9311C75.6515 45.4289 76.9172 45.17 77.1551 45.1141C77.0316 44.9021 76.3561 43.8081 75.2026 43.3125C74.0491 42.8169 72.7834 43.0737 72.5455 43.1295" fill="#C2A568"/>
<path d="M68.7192 43.768C68.8471 44.0024 69.5675 45.2302 70.8399 45.8754C72.1124 46.5206 73.533 46.3755 73.8 46.3398C73.6698 46.1054 72.9517 44.8775 71.6793 44.2345C70.4068 43.5894 68.9862 43.7345 68.7192 43.768Z" fill="#C2A568"/>
<path d="M71.3897 50.0948C70.0926 49.3291 68.5464 49.4541 68.2771 49.4809C68.3803 49.7287 69.0109 51.1396 70.3081 51.9054C71.6052 52.6711 73.1514 52.5483 73.4207 52.5193C73.3175 52.2693 72.6869 50.8606 71.3897 50.0948Z" fill="#C2A568"/>
<path d="M67.229 46.8756C68.3264 47.6034 69.6797 47.5721 69.931 47.5587C69.8457 47.3221 69.3565 46.0674 68.2614 45.3396C67.164 44.6118 65.8107 44.6431 65.5594 44.6565C65.6446 44.8931 66.1339 46.1478 67.229 46.8756Z" fill="#C2A568"/>
<path d="M67.449 21.5056C67.7003 21.5569 68.9862 21.7779 70.1958 21.2779C71.4055 20.7778 72.1528 19.7151 72.2942 19.5008C72.0428 19.4494 70.7569 19.2284 69.5473 19.7285C68.3377 20.2286 67.5903 21.2913 67.449 21.5033" fill="#C2A568"/>
<path d="M63.9727 48.7085C63.8942 48.925 63.5284 50.0279 63.8538 51.1106C64.1792 52.1956 65.0903 52.9167 65.2766 53.0574C65.3551 52.8408 65.7209 51.7379 65.3955 50.6552C65.0701 49.5702 64.159 48.8469 63.9727 48.7085Z" fill="#C2A568"/>
<path d="M66.7376 49.6126C66.668 49.8202 66.365 50.8182 66.677 51.7871C66.9911 52.7582 67.8215 53.3922 68.001 53.5195C68.0706 53.3119 68.3736 52.3139 68.0616 51.345C67.7474 50.3761 66.9171 49.7399 66.7398 49.6126" fill="#C2A568"/>
<path d="M73.4297 34.8268C72.0989 34.3513 70.6985 34.7353 70.4494 34.8134C70.5931 35.03 71.4279 36.2132 72.7587 36.6887C74.0895 37.1643 75.4899 36.778 75.739 36.7044C75.5954 36.4878 74.7605 35.3046 73.4297 34.8291" fill="#C2A568"/>
<path d="M75.9432 18.5587C73.993 19.1905 72.8126 21.0993 72.66 21.3627C72.9405 21.4855 75.0231 22.3383 76.9733 21.7065C78.9235 21.0747 80.1017 19.1659 80.2565 18.9047C79.976 18.7819 77.8934 17.9291 75.9432 18.5609" fill="#C2A568"/>
<path d="M78.0752 23.8519H78.0595C75.8848 23.8586 74.0671 25.1557 73.8045 25.3544C74.0693 25.5508 75.8848 26.8323 78.0527 26.8323H78.0684C80.2431 26.8256 82.0608 25.5285 82.3234 25.3298C82.0586 25.1334 80.2431 23.8519 78.0752 23.8519Z" fill="#C2A568"/>
<path d="M77.6084 32.9538C76.9464 32.8198 76.2372 32.7328 75.5011 32.697C75.1645 32.6792 74.8323 32.6725 74.5069 32.6725C72.8395 32.6725 71.3359 32.8913 70.023 33.3288C68.0953 33.9696 66.5782 35.1639 64.9557 37.3161C64.9243 37.3585 64.9355 37.3897 64.9557 37.4076C64.9804 37.4277 65.0252 37.4299 65.0611 37.3897C66.4503 35.8516 68.212 34.6728 70.1554 33.9763C70.234 33.9495 70.3103 33.9204 70.3888 33.8937C72.449 33.1882 74.875 32.898 77.5994 33.0341C77.5994 33.0341 77.5994 33.0341 77.6017 33.0341C77.6331 33.0341 77.6398 33.0051 77.6398 32.9984C77.6398 32.9917 77.6421 32.9605 77.6084 32.9538Z" fill="#C2A568"/>
<path d="M69.7672 17.8354V17.8465L69.7537 17.8532C69.7178 17.8778 69.6797 17.909 69.6438 17.9403C69.6101 17.9693 69.5765 17.9961 69.545 18.0184C69.4418 18.0899 69.3453 18.1568 69.2555 18.2171C68.9907 18.3979 68.7641 18.5565 68.4611 18.7819C67.1954 19.7263 66.163 20.9586 65.4045 21.9275C65.0634 22.3628 64.7963 22.7558 64.5831 23.1286C64.5203 23.238 64.4507 23.401 64.4373 23.526C64.4171 23.7358 64.5113 23.8787 64.6886 23.91C64.9826 23.9635 65.2115 23.5684 65.3507 23.3362L65.3798 23.2871C65.4606 23.1531 65.5369 23.0147 65.611 22.883C65.7187 22.6888 65.8309 22.4901 65.9521 22.3003C67.0562 20.5813 68.3646 19.1369 69.8413 18.0073L69.8502 18.0006H69.8615C70.4449 18.0229 72.4692 17.9961 73.9885 16.8263C75.6492 15.5493 76.1362 13.3257 76.1945 13.0199C76.1407 13.0176 76.0262 13.0109 75.8669 13.0109C75.1084 13.0109 73.3085 13.1337 71.9373 14.1875C70.4337 15.3439 69.8951 17.2728 69.765 17.8354" fill="#C2A568"/>
<path d="M73.8808 42.3325C73.8808 42.3213 73.8741 42.2834 73.8247 42.2834C73.5621 42.2767 73.2996 42.2744 73.0437 42.2744C69.1949 42.2744 66.0149 42.9464 63.5777 44.2725C60.7142 45.833 58.7415 48.0655 56.9798 51.7379C55.5862 54.6446 54.8344 57.3839 54.6863 60.1098C54.4215 64.9342 56.2056 67.3564 57.7474 68.5397C58.2545 68.9281 58.9031 69.2183 59.527 69.3344C60.1554 69.4528 60.7703 69.4617 61.347 69.4617H64.3049C64.3834 69.4617 64.4238 69.4059 64.4283 69.3501C64.4328 69.2943 64.4036 69.2295 64.3251 69.2161C63.9189 69.1424 63.5935 69.0732 63.3286 69.0085C62.4153 68.783 61.6904 68.5531 61.0418 68.2807C59.7312 67.7315 58.6697 66.8184 57.9695 65.6419C56.7532 63.5925 56.7577 61.1233 56.8676 59.4423C56.9911 57.5625 57.3434 55.6627 57.9179 53.7918C58.6203 51.5058 59.536 49.9497 60.7164 49.0366C61.4009 48.5075 62.2357 48.2061 63.2681 48.1124C63.304 48.1101 63.3376 48.1057 63.3735 48.1035C63.4319 48.099 63.4902 48.0945 63.5508 48.0923C63.6092 48.0901 63.6675 48.0878 63.7259 48.0856C63.8403 48.0834 63.957 48.0811 64.0715 48.0856C64.1298 48.0856 64.1859 48.0901 64.2443 48.0923C64.3004 48.0945 64.3587 48.099 64.4148 48.1035C64.4709 48.1079 64.5293 48.1124 64.5854 48.1191C64.6415 48.1258 64.6976 48.1302 64.7537 48.1392C64.8098 48.1459 64.8659 48.1548 64.922 48.1615C64.9781 48.1704 65.0342 48.1794 65.0881 48.1883C65.1442 48.1995 65.198 48.2084 65.2542 48.2195C65.3103 48.2307 65.3641 48.2419 65.4202 48.2553C65.4763 48.2687 65.5302 48.2798 65.584 48.2954C65.6379 48.3088 65.694 48.3245 65.7479 48.3379C65.8017 48.3535 65.8578 48.3691 65.9117 48.3847C65.9656 48.4004 66.0217 48.4182 66.0755 48.4361C66.1294 48.454 66.1832 48.4718 66.2371 48.4919C66.291 48.5098 66.3448 48.5299 66.3987 48.5499C66.4525 48.57 66.5064 48.5901 66.5603 48.6125C66.6141 48.6348 66.668 48.6571 66.7218 48.6794C66.7757 48.7018 66.8296 48.7263 66.8834 48.7486C66.9373 48.7732 66.9911 48.7978 67.045 48.8223C67.0989 48.8469 67.1527 48.8737 67.2043 48.9005C67.2582 48.9272 67.3121 48.954 67.3637 48.9808C67.4175 49.0076 67.4714 49.0366 67.523 49.0657C67.5769 49.0947 67.6307 49.1237 67.6824 49.155C67.7093 49.1706 67.7362 49.184 67.7632 49.1996C67.7744 49.2063 67.7789 49.2085 67.7833 49.2108C67.7923 49.2108 67.7991 49.2108 67.8058 49.2108C67.8148 49.2063 67.8237 49.1996 67.8305 49.1907C67.8417 49.175 67.8439 49.1505 67.8282 49.1371C66.7016 48.2307 65.3551 47.4002 63.1312 47.4694C62.3188 47.4962 61.4413 47.7195 60.6603 48.1035L60.5391 48.1637L60.6222 48.0566C61.9283 46.3509 63.5194 45.0472 65.2227 44.2881C67.5746 43.2389 70.3866 42.6249 73.8202 42.4061C73.8606 42.4017 73.8763 42.3682 73.8763 42.3414" fill="#C2A568"/>
<path d="M43.0165 3.60101C43.0233 3.98053 43.122 6.73542 44.6256 9.19339C46.1225 11.6402 48.5193 12.9909 48.8738 13.1806C48.8873 12.7743 48.9165 9.97253 47.4712 7.49447C45.8083 4.64804 43.3644 3.71933 43.0165 3.59877" fill="#C2A568"/>
<path d="M38.2319 5.50309C38.1624 5.79554 37.7651 7.682 38.5304 9.37869C39.2957 11.0754 40.9766 12.0331 41.2436 12.176C41.3132 11.8835 41.7104 9.99709 40.9451 8.3004C40.1799 6.6037 38.499 5.64597 38.2319 5.50309Z" fill="#C2A568"/>
<path d="M24.8027 29.393C22.8301 29.0134 20.9338 29.8506 20.6465 29.9868C20.8597 30.219 22.2668 31.688 24.2372 32.0675C26.2098 32.4448 28.1062 31.6098 28.3934 31.4736C28.1802 31.2415 26.7731 29.7725 24.8027 29.393Z" fill="#C2A568"/>
<path d="M25.6061 41.0689C23.9589 41.0689 22.5765 42.0289 22.3453 42.1985C22.5743 42.3682 23.9567 43.3304 25.6061 43.3304H25.6084C27.2556 43.3304 28.638 42.3704 28.8692 42.2008C28.6403 42.0311 27.2579 41.0689 25.6084 41.0689H25.6061Z" fill="#C2A568"/>
<path d="M23.9679 34.2375C22.1793 34.9318 21.1492 36.6084 20.9966 36.8673C21.2928 36.9522 23.261 37.4679 25.0518 36.7713C26.8404 36.077 27.8705 34.4004 28.0231 34.1415C27.7269 34.0566 25.7588 33.5409 23.9679 34.2375Z" fill="#C2A568"/>
<path d="M38.6 21.9275C37.8414 20.9586 36.8069 19.7263 35.5434 18.7819C35.2427 18.5565 35.0138 18.4002 34.749 18.2193C34.6592 18.1568 34.5649 18.0921 34.4595 18.0207C34.428 17.9983 34.3944 17.9715 34.3607 17.9425C34.3248 17.9113 34.2866 17.88 34.2507 17.8555L34.2395 17.8488V17.8376C34.1071 17.275 33.5663 15.3461 32.0627 14.1897C30.402 12.9127 28.1174 13.002 27.8054 13.0221C27.866 13.3257 28.353 15.5515 30.0115 16.8263C31.5308 17.9961 33.555 18.0207 34.1385 18.0006H34.1498L34.1587 18.0073C35.6354 19.1369 36.946 20.5813 38.0479 22.3003C38.1691 22.4901 38.2813 22.691 38.389 22.8853C38.4631 23.0192 38.5416 23.1554 38.6202 23.2893L38.6493 23.3384C38.7862 23.5729 39.0174 23.9635 39.3114 23.9122C39.4887 23.8809 39.5829 23.7381 39.5627 23.5282C39.5515 23.4032 39.4797 23.2402 39.4169 23.1308C39.2037 22.758 38.9366 22.3651 38.5955 21.9297" fill="#C2A568"/>
<path d="M32.8055 8.60178C32.7988 8.9188 32.81 11.0665 34.0488 12.7163C35.2898 14.3661 37.3567 14.9822 37.6641 15.0648C37.6709 14.7478 37.6597 12.6024 36.4186 10.9504C35.1776 9.30055 33.1107 8.68438 32.8032 8.60178" fill="#C2A568"/>
<path d="M31.7485 29.6207C30.4379 28.8639 28.8849 29.0023 28.6156 29.0335C28.7211 29.2813 29.3696 30.6923 30.6802 31.4513C31.9909 32.2081 33.5438 32.0697 33.8131 32.0362C33.7076 31.7884 33.0591 30.3775 31.7485 29.6184" fill="#C2A568"/>
<path d="M45.8397 29.0715C45.916 29.3371 46.3828 30.7838 47.5632 31.7304C48.7459 32.6792 50.2652 32.8243 50.5413 32.8422C50.465 32.5787 49.9982 31.1298 48.8177 30.1833C47.6351 29.2345 46.1157 29.0893 45.8397 29.0715Z" fill="#C2A568"/>
<path d="M29.8791 39.5173C28.8602 38.785 27.5676 38.7649 27.3229 38.7716C27.397 39.0038 27.8212 40.2183 28.84 40.9506C29.8611 41.6828 31.1515 41.7007 31.3961 41.6962C31.3221 41.464 30.8979 40.2496 29.8791 39.5195" fill="#C2A568"/>
<path d="M31.3737 38.0148C31.3984 38.2716 31.5779 39.6758 32.5115 40.6961C33.4451 41.7141 34.8365 42.0199 35.0901 42.069C35.0654 41.8123 34.8858 40.4081 33.9523 39.3878C33.0187 38.3698 31.6273 38.0639 31.3737 38.0148Z" fill="#C2A568"/>
<path d="M35.503 38.3162C35.4895 38.573 35.4514 39.9884 36.2189 41.1359C36.9864 42.2834 38.315 42.7946 38.5573 42.8794C38.5708 42.6227 38.6089 41.2073 37.8414 40.0598C37.0739 38.9123 35.7454 38.4011 35.503 38.3162Z" fill="#C2A568"/>
<path d="M28.7996 43.3103C27.6461 43.8081 26.9684 44.9021 26.8472 45.1119C27.0851 45.1677 28.3508 45.4267 29.5043 44.9289C30.6578 44.431 31.3333 43.3371 31.4567 43.125C31.2188 43.0692 29.9531 42.8102 28.7996 43.3081" fill="#C2A568"/>
<path d="M32.3252 44.2345C31.0528 44.8797 30.3324 46.1054 30.2045 46.342C30.4715 46.3755 31.8921 46.5206 33.1646 45.8754C34.437 45.2325 35.1574 44.0046 35.2853 43.7702C35.0183 43.7345 33.5977 43.5916 32.3252 44.2345Z" fill="#C2A568"/>
<path d="M32.6147 50.0948C31.3176 50.8606 30.687 52.2715 30.5837 52.5193C30.853 52.5483 32.3993 52.6711 33.6964 51.9054C34.9936 51.1396 35.6242 49.7287 35.7274 49.4809C35.4581 49.4519 33.9119 49.3291 32.6147 50.0948Z" fill="#C2A568"/>
<path d="M34.0735 47.5587C34.3248 47.5721 35.678 47.6034 36.7754 46.8756C37.8729 46.1478 38.3621 44.8909 38.4451 44.6565C38.1938 44.6431 36.8405 44.6118 35.7431 45.3396C34.6457 46.0674 34.1565 47.3243 34.0735 47.5587Z" fill="#C2A568"/>
<path d="M33.8086 21.2779C35.016 21.7779 36.3019 21.5569 36.5555 21.5056C36.4141 21.2913 35.6646 20.2308 34.4572 19.7307C33.2498 19.2307 31.9639 19.4517 31.7103 19.503C31.8517 19.7173 32.6013 20.7778 33.8086 21.2779Z" fill="#C2A568"/>
<path d="M40.0318 48.7085C39.8455 48.8469 38.9344 49.5702 38.6089 50.6552C38.2835 51.7402 38.6493 52.8408 38.7279 53.0574C38.9142 52.9189 39.8253 52.1956 40.1507 51.1106C40.4761 50.0256 40.1103 48.925 40.0318 48.7085Z" fill="#C2A568"/>
<path d="M37.2669 49.6126C37.0896 49.7399 36.257 50.3761 35.9429 51.345C35.6287 52.3139 35.9339 53.3141 36.0034 53.5195C36.1807 53.3922 37.0133 52.756 37.3275 51.7871C37.6417 50.8182 37.3365 49.818 37.2669 49.6126Z" fill="#C2A568"/>
<path d="M30.5748 34.8268C29.244 35.3024 28.4091 36.4856 28.2655 36.7021C28.5146 36.778 29.9172 37.1643 31.2458 36.6865C32.5766 36.211 33.4092 35.0278 33.555 34.8112C33.3059 34.7353 31.9033 34.3513 30.5748 34.8246" fill="#C2A568"/>
<path d="M28.059 18.5587C26.1088 17.9269 24.0262 18.7797 23.7457 18.9025C23.9006 19.1659 25.0788 21.0747 27.029 21.7043C28.9792 22.3361 31.0618 21.4832 31.3423 21.3605C31.1874 21.097 30.0092 19.1882 28.059 18.5565" fill="#C2A568"/>
<path d="M25.9293 23.8519C23.7614 23.8519 21.9459 25.1356 21.6811 25.3298C21.9436 25.5285 23.7614 26.8256 25.936 26.8323H25.9517C28.1196 26.8323 29.9352 25.5486 30.2 25.3544C29.9374 25.1557 28.1196 23.8586 25.945 23.8519H25.9293Z" fill="#C2A568"/>
<path d="M33.9814 33.3266C32.4128 32.8042 30.5703 32.5921 28.5034 32.6948C27.7673 32.7305 27.0581 32.8176 26.3961 32.9538C26.3624 32.9605 26.3647 32.9917 26.3647 32.9984C26.3647 33.0051 26.3714 33.0386 26.4051 33.0319C26.8427 33.0096 27.2736 32.9984 27.6955 32.9984C29.8993 32.9984 31.8876 33.2976 33.6156 33.8892C33.6942 33.916 33.7705 33.9428 33.849 33.9718C35.7903 34.6683 37.5519 35.8493 38.9433 37.3853C38.9792 37.4255 39.0241 37.4255 39.0488 37.4031C39.069 37.3853 39.0802 37.354 39.0488 37.3116C37.4263 35.1572 35.9092 33.9651 33.9814 33.3221" fill="#C2A568"/>
<path d="M53.4587 32.8444C53.7348 32.8265 55.2563 32.6792 56.4367 31.7326C57.6194 30.7838 58.084 29.3371 58.1603 29.0737C57.8843 29.0938 56.3627 29.2389 55.1823 30.1855C53.9996 31.1343 53.535 32.581 53.4587 32.8444Z" fill="#C2A568"/>
<path d="M39.7019 69.4617H42.6597C43.2365 69.4617 43.8491 69.4528 44.4797 69.3344C45.1036 69.2161 45.7522 68.9281 46.2594 68.5397C47.8011 67.3564 49.583 64.9364 49.3182 60.1098C49.1678 57.3817 48.4183 54.6446 47.0246 51.7379C45.263 48.0655 43.2881 45.833 40.4245 44.2725C37.8257 42.8571 34.3787 42.1874 30.1775 42.2834C30.1282 42.2834 30.1237 42.3213 30.1237 42.3325C30.1237 42.3615 30.1394 42.3927 30.182 42.3972C33.6156 42.616 36.4276 43.2322 38.7773 44.2814C40.4806 45.0405 42.0717 46.3442 43.3778 48.0499L43.4609 48.157L43.3397 48.0968C42.5587 47.7128 41.6812 47.4895 40.8688 47.4627C38.6471 47.3913 37.2983 48.2218 36.1718 49.1304C36.1538 49.1438 36.1583 49.1684 36.1673 49.184C36.174 49.1929 36.183 49.2018 36.192 49.2041C36.1987 49.2063 36.2054 49.2085 36.2099 49.2085C36.2189 49.2041 36.2234 49.2018 36.2301 49.1996C36.2638 49.1817 36.2885 49.1661 36.3154 49.1505C36.3693 49.1215 36.4209 49.0924 36.4747 49.0634C36.5286 49.0344 36.5802 49.0076 36.6341 48.9786C36.6879 48.9518 36.7395 48.925 36.7934 48.8982C36.8473 48.8714 36.8989 48.8469 36.9527 48.8201C37.0066 48.7955 37.0605 48.771 37.1143 48.7464C37.1682 48.7219 37.222 48.6995 37.2759 48.6772C37.3298 48.6549 37.3836 48.6326 37.4375 48.6102C37.4913 48.5879 37.5452 48.5678 37.5991 48.5477C37.6529 48.5276 37.7068 48.5075 37.7606 48.4897C37.8145 48.4718 37.8684 48.4517 37.9222 48.4339C37.9761 48.416 38.03 48.3981 38.0861 48.3825C38.1399 48.3669 38.1938 48.3513 38.2499 48.3356C38.3037 48.32 38.3598 48.3066 38.4137 48.2932C38.4676 48.2798 38.5237 48.2664 38.5775 48.253C38.6314 48.2419 38.6875 48.2285 38.7436 48.2173C38.7997 48.2061 38.8536 48.1972 38.9097 48.1861C38.9658 48.1771 39.0219 48.1682 39.0757 48.1593C39.1318 48.1503 39.1879 48.1436 39.2441 48.1369C39.3002 48.1302 39.3563 48.1235 39.4124 48.1168C39.4685 48.1124 39.5268 48.1057 39.5829 48.1012C39.639 48.0968 39.6974 48.0945 39.7535 48.0901C39.8118 48.0878 39.8679 48.0856 39.9263 48.0834C39.9846 48.0834 40.0407 48.0834 40.0991 48.0834C40.1574 48.0834 40.2158 48.0834 40.2719 48.0856C40.3302 48.0856 40.3886 48.0901 40.4469 48.0923C40.5053 48.0968 40.5636 48.099 40.6242 48.1035C40.6601 48.1057 40.6938 48.1079 40.7275 48.1124C41.762 48.2039 42.5969 48.5075 43.2813 49.0366C44.4618 49.9497 45.3774 51.5058 46.0798 53.7918C46.6544 55.6627 47.0089 57.5625 47.1301 59.4423C47.359 62.9495 46.6117 64.6596 46.0282 65.6419C45.3303 66.8206 44.2665 67.7315 42.9559 68.2807C42.3096 68.5508 41.5825 68.783 40.6691 69.0085C40.4043 69.0732 40.0789 69.1424 39.6727 69.2161C39.5941 69.2295 39.565 69.2943 39.5717 69.3501C39.5762 69.4059 39.6166 69.4617 39.6951 69.4617" fill="#C2A568"/>
<path d="M59.7671 25.4281V25.533L61.0441 25.9772C61.5153 26.1402 61.8991 26.4952 62.0966 26.9484C62.2963 27.4038 62.2941 27.924 62.0943 28.3772L52 51.2245L51.9708 51.1575L41.9057 28.3772C41.7059 27.924 41.7037 27.4038 41.9034 26.9484C42.1031 26.4952 42.4847 26.1402 42.9559 25.9772L44.2329 25.533V25.4281H32.525V25.533L33.8939 25.917C34.8836 26.2228 35.7701 26.7943 36.459 27.5668C36.771 27.9173 37.038 28.3057 37.2535 28.7232L51.9978 57.2142L66.742 28.7232C66.9148 28.3906 67.1213 28.0736 67.357 27.7811C68.0661 26.8993 69.0154 26.2541 70.1016 25.917L71.4728 25.533V25.4281H59.7649H59.7671Z" fill="#C2A568"/>
<path d="M41.0955 17.3375C39.7669 16.9022 38.3958 17.3197 38.1489 17.4023C38.297 17.6143 39.1543 18.7596 40.4806 19.1949C41.8092 19.6303 43.1804 19.2128 43.4272 19.1302C43.2791 18.9181 42.4218 17.7706 41.0955 17.3375Z" fill="#C2A568"/>
<path d="M46.6925 18.7127C46.4883 19.9763 47.0673 21.1573 47.1817 21.3761C47.359 21.2042 48.2791 20.2621 48.4834 18.9985C48.6876 17.7349 48.1086 16.5539 47.9941 16.3351C47.8168 16.507 46.8967 17.4491 46.6925 18.7127Z" fill="#C2A568"/>
<path d="M40.0654 21.1484C40.236 21.3337 41.1898 22.316 42.5004 22.5682C43.8132 22.8183 45.0632 22.2579 45.2921 22.1485C45.1216 21.961 44.1678 20.9809 42.8549 20.7287C41.5421 20.4786 40.2921 21.039 40.0632 21.1484" fill="#C2A568"/>
<path d="M42.6014 13.1181C42.5924 14.3504 43.2926 15.393 43.4339 15.5917C43.5798 15.3952 44.2935 14.3638 44.3024 13.1315C44.3114 11.8992 43.6112 10.8566 43.4699 10.6579C43.324 10.8544 42.6103 11.8858 42.6014 13.1181Z" fill="#C2A568"/>
<path d="M44.7064 15.9623C44.5246 17.1835 45.0946 18.3176 45.2113 18.5319C45.3841 18.36 46.2594 17.438 46.4389 16.2168C46.6207 14.9956 46.0484 13.8615 45.934 13.6472C45.7612 13.8191 44.8859 14.7389 44.7064 15.9623Z" fill="#C2A568"/>
<path d="M40.8127 14.2076C39.9061 13.5244 38.7414 13.4753 38.5102 13.4731C38.5753 13.6941 38.9344 14.7992 39.841 15.4823C40.7454 16.1655 41.9124 16.2146 42.1435 16.2168C42.0785 15.9958 41.7194 14.8907 40.8127 14.2076Z" fill="#C2A568"/>
<path d="M62.909 17.3375C61.5804 17.7729 60.7254 18.9181 60.5773 19.1302C60.8241 19.2128 62.1976 19.628 63.5239 19.1949C64.8524 18.7596 65.7075 17.6143 65.8556 17.4023C65.6087 17.3197 64.2353 16.9044 62.909 17.3375Z" fill="#C2A568"/>
<path d="M56.0104 16.3374C55.8959 16.5561 55.3169 17.7371 55.5211 19.0007C55.7253 20.2643 56.6432 21.2064 56.8228 21.3783C56.9372 21.1595 57.514 19.9785 57.312 18.715C57.1078 17.4536 56.1899 16.5093 56.0104 16.3374Z" fill="#C2A568"/>
<path d="M61.1473 20.7287C59.8344 20.9787 58.8829 21.961 58.7101 22.1485C58.939 22.2579 60.189 22.8205 61.5019 22.5682C62.8147 22.3182 63.7663 21.3359 63.9391 21.1484C63.7102 21.039 62.4601 20.4786 61.1473 20.7287Z" fill="#C2A568"/>
<path d="M60.5683 15.5895C60.7097 15.3908 61.4099 14.3482 61.4009 13.1159C61.3919 11.8835 60.6783 10.8521 60.5324 10.6557C60.391 10.8544 59.6908 11.8969 59.6998 13.1293C59.7088 14.3616 60.4224 15.393 60.5683 15.5895Z" fill="#C2A568"/>
<path d="M58.0683 13.6472C57.9538 13.8615 57.3816 14.9934 57.5633 16.2168C57.7451 17.438 58.6203 18.36 58.7909 18.5319C58.9054 18.3176 59.4776 17.1857 59.2958 15.9623C59.1141 14.7411 58.2388 13.8191 58.0683 13.6472Z" fill="#C2A568"/>
<path d="M61.8609 16.2168C62.0921 16.2146 63.2591 16.1655 64.1635 15.4823C65.0701 14.7992 65.4292 13.6941 65.4943 13.4731C65.2631 13.4753 64.0962 13.5244 63.1917 14.2076C62.2851 14.8907 61.926 15.9958 61.8609 16.2168Z" fill="#C2A568"/>
<path d="M52.2244 40.5688L52.2491 40.0442C52.2917 39.1579 52.3321 38.2716 52.3725 37.3853C52.4421 35.8292 52.5206 34.1683 52.6463 32.4894C52.6553 32.3845 52.662 32.2796 52.671 32.1746C52.8281 30.3953 53.167 29.0358 53.7348 27.8994C54.3541 26.6626 55.2451 25.5241 56.1091 24.4234L56.1764 24.3386C56.3627 24.0997 56.5512 23.8631 56.7375 23.6264C56.9103 23.4099 57.0808 23.1911 57.2514 22.9746C57.9336 22.1061 58.6518 21.1618 59.2734 20.1571C60.5301 18.1256 61.5445 15.8618 62.2873 13.4329V13.4284C62.2873 13.4284 62.2828 13.4106 62.2739 13.4039C62.2627 13.3972 62.2492 13.3972 62.2402 13.4016C62.2357 13.4016 62.2335 13.4061 62.2335 13.4083C60.8645 16.4646 59.5113 18.8333 57.9718 20.8648C57.404 21.615 56.7666 22.3316 56.1495 23.0259C55.0476 24.2672 53.9098 25.5486 53.1288 27.06C52.9695 27.3703 52.8259 27.6851 52.7024 27.9954C52.6194 28.2075 52.5431 28.4241 52.4601 28.6741L52.3995 28.8549L52.3905 28.1874C52.368 26.3389 52.3456 24.4301 52.4264 22.662C52.4623 21.8516 52.5027 21.2488 52.5566 20.7063C52.5655 20.6193 52.5745 20.5322 52.5835 20.4474C52.6014 20.2755 52.6239 20.1058 52.6463 19.9406C52.6575 19.858 52.6688 19.7754 52.6822 19.6928C52.7338 19.3512 52.7944 19.0387 52.864 18.7351C52.9179 18.4984 52.9807 18.2685 53.048 18.0497C53.3891 16.9424 53.8986 15.9913 54.6571 15.0514C54.6571 15.0514 54.6616 15.0425 54.6638 15.0336C54.6638 15.0224 54.6638 15.0135 54.6526 15.0046C54.6504 15.0023 54.6459 15.0001 54.6437 14.9979C54.6392 14.9956 54.6347 14.9934 54.6279 14.9956C54.6145 14.9956 54.601 15.0068 54.5965 15.009C54.3115 15.201 54.0377 15.4444 53.7751 15.7391C53.7325 15.7859 53.6921 15.8328 53.6517 15.8797C53.4969 16.065 53.3465 16.2682 53.2051 16.4825C53.0413 16.7303 52.8887 16.9937 52.7496 17.2705C52.3972 17.9693 52.1661 18.7484 52.0247 19.7173L51.9933 19.9339L51.9618 19.7173C51.8945 19.2597 51.8092 18.8511 51.7015 18.4739C51.6723 18.3712 51.6409 18.2685 51.6073 18.168C51.504 17.8555 51.3784 17.5518 51.237 17.2705C51.0978 16.9959 50.9452 16.7303 50.7814 16.4825C50.64 16.2682 50.4897 16.065 50.3348 15.8797C50.2944 15.8328 50.254 15.7837 50.2136 15.7391C49.9511 15.4444 49.675 15.201 49.3945 15.0113C49.3878 15.0068 49.3743 14.9956 49.3608 14.9956C49.3563 14.9956 49.3519 14.9956 49.3474 14.9979C49.3451 14.9979 49.3406 15.0023 49.3384 15.0046C49.3339 15.009 49.3204 15.0202 49.3317 15.047C50.0902 15.9891 50.6019 16.9424 50.9407 18.0474C51.0081 18.2662 51.0709 18.4984 51.1248 18.7328C51.1943 19.0364 51.2549 19.349 51.3065 19.6906C51.32 19.7732 51.3312 19.8558 51.3425 19.9384C51.3649 20.1013 51.3851 20.271 51.4053 20.4451C51.4143 20.5322 51.4232 20.617 51.4322 20.7041C51.4838 21.2466 51.5242 21.8494 51.5624 22.6598C51.6432 24.4279 51.6207 26.3389 51.5983 28.1852L51.5916 28.8527L51.531 28.6719C51.4479 28.4218 51.3716 28.2053 51.2886 27.9932C51.1652 27.6806 51.0238 27.3659 50.8622 27.0578C50.0812 25.5464 48.9412 24.2649 47.8415 23.0237C47.2266 22.3294 46.5893 21.6127 46.0215 20.8626C44.482 18.831 43.1287 16.4601 41.7598 13.4061C41.7598 13.4039 41.7553 13.4016 41.7531 13.3994C41.7441 13.3949 41.7306 13.3949 41.7194 13.4016C41.7104 13.4083 41.7014 13.4173 41.7037 13.4262V13.4307C42.4487 15.8618 43.4631 18.1234 44.7199 20.1571C45.3415 21.1618 46.0596 22.1061 46.7419 22.9746C46.9147 23.1933 47.0875 23.4121 47.2603 23.6309C47.4465 23.8675 47.6351 24.102 47.8191 24.3386L47.8864 24.4234C48.7504 25.5241 49.6414 26.6626 50.2608 27.8994C50.8285 29.0358 51.1674 30.3953 51.3245 32.1746C51.3335 32.2796 51.3425 32.3845 51.3492 32.4894C51.4771 34.1683 51.5556 35.827 51.623 37.3853C51.6634 38.2716 51.7038 39.1579 51.7464 40.0442L51.7711 40.5688C51.7958 41.0934 51.8429 42.4195 51.8743 43.2969C51.8855 43.6251 51.8945 43.8885 51.899 44.0225V44.0537C51.899 44.0783 51.9035 44.1006 51.9057 44.1229L51.8743 44.1319H51.9057C51.9102 44.1497 51.9147 44.1631 51.9215 44.172V44.1765C51.9417 44.2011 51.9529 44.21 51.9596 44.2145C51.9641 44.2145 51.9663 44.2167 51.9686 44.2167L51.982 44.2122L52 44.2167C52 44.2167 52.0112 44.2167 52.0157 44.2167C52.0247 44.2122 52.0381 44.2011 52.0539 44.1743C52.0539 44.1743 52.0651 44.1519 52.0696 44.1363L52.0741 44.1252C52.0763 44.1028 52.0785 44.0805 52.0808 44.0537C52.0853 43.9332 52.0965 43.6519 52.1077 43.2991C52.1391 42.4218 52.1863 41.0957 52.2109 40.5688" fill="#C2A568"/>
<path d="M27.8279 112.81L27.1614 112.616C26.9773 112.558 26.8382 112.473 26.7507 112.366C26.6609 112.259 26.616 112.133 26.616 111.995C26.616 111.877 26.6452 111.774 26.7013 111.689C26.7574 111.604 26.8382 111.537 26.9437 111.491C27.0492 111.444 27.1726 111.421 27.3117 111.421C27.5384 111.421 27.7359 111.477 27.9042 111.589C28.0703 111.7 28.1982 111.866 28.2812 112.08L28.2879 112.1L28.7727 111.901L28.766 111.883C28.7009 111.7 28.5999 111.533 28.463 111.39C28.3261 111.247 28.1578 111.131 27.9625 111.046C27.7673 110.961 27.5451 110.919 27.3072 110.919C27.0694 110.919 26.8494 110.966 26.6609 111.06C26.4724 111.153 26.322 111.285 26.2166 111.45C26.1111 111.616 26.055 111.81 26.055 112.026C26.055 112.274 26.1335 112.497 26.2884 112.689C26.4432 112.881 26.6699 113.022 26.9594 113.111L27.691 113.332C27.8683 113.381 28.0052 113.453 28.0949 113.544C28.1847 113.636 28.2296 113.763 28.2296 113.922C28.2296 114.036 28.1982 114.136 28.1353 114.223C28.0725 114.31 27.9827 114.377 27.8683 114.424C27.7538 114.471 27.6192 114.495 27.4643 114.495C27.213 114.495 26.993 114.428 26.8068 114.297C26.6205 114.165 26.4791 113.973 26.3849 113.725L26.3781 113.707L25.8889 113.906L25.8956 113.924C25.9607 114.125 26.0684 114.31 26.2143 114.473C26.3624 114.636 26.5442 114.766 26.7552 114.859C26.9661 114.953 27.2018 115 27.4576 115C27.7134 115 27.9536 114.953 28.1511 114.859C28.3508 114.766 28.5101 114.634 28.6223 114.466C28.7368 114.299 28.7929 114.105 28.7929 113.888C28.7929 113.625 28.7099 113.402 28.5483 113.223C28.3867 113.047 28.1443 112.908 27.8301 112.812" fill="#C2A568"/>
<path d="M32.6843 110.982L31.2548 114.908L31.2458 114.935H31.8495L32.1749 114.015H33.8423L34.1677 114.935H34.7714L33.3374 110.995L33.3329 110.982H32.6843ZM32.3522 113.502L33.0075 111.645L33.6628 113.502H32.3522Z" fill="#C2A568"/>
<path d="M39.8769 113.828L37.828 110.988L37.8212 110.982H37.3545V114.933H37.9177V112.046L39.9712 114.926L39.9779 114.933H40.4447V110.982H39.8769V113.828Z" fill="#C2A568"/>
<path d="M45.8038 113.585C45.8038 113.759 45.7634 113.915 45.6871 114.051C45.6086 114.185 45.5008 114.292 45.3639 114.366C45.2271 114.442 45.0655 114.48 44.8859 114.48C44.7064 114.48 44.5448 114.442 44.4079 114.366C44.271 114.29 44.1633 114.185 44.0848 114.051C44.0062 113.917 43.9681 113.761 43.9681 113.585V110.979H43.4003V113.594C43.4003 113.861 43.4631 114.105 43.5866 114.315C43.71 114.524 43.8873 114.694 44.1117 114.812C44.3361 114.933 44.5964 114.993 44.8859 114.993C45.1754 114.993 45.4402 114.933 45.6647 114.812C45.8868 114.692 46.0641 114.524 46.1876 114.315C46.311 114.105 46.3738 113.861 46.3738 113.594V110.979H45.806V113.585H45.8038Z" fill="#C2A568"/>
<path d="M51.8766 112.924C52.0202 112.73 52.0943 112.488 52.0943 112.207C52.0943 111.959 52.0359 111.741 51.9237 111.555C51.8115 111.372 51.6499 111.227 51.4479 111.127C51.246 111.028 51.0103 110.977 50.7455 110.977H49.3227V114.931H49.886V113.433H50.732L51.5826 114.92L51.5871 114.931H52.2424L51.3133 113.335C51.5467 113.25 51.7374 113.109 51.8766 112.922M51.5265 112.209C51.5265 112.352 51.4951 112.48 51.43 112.589C51.3671 112.698 51.2774 112.781 51.1629 112.839C51.0485 112.897 50.9138 112.926 50.7612 112.926H49.886V111.495H50.7612C50.9138 111.495 51.0485 111.524 51.1629 111.582C51.2774 111.64 51.3671 111.723 51.43 111.83C51.4928 111.937 51.5265 112.064 51.5265 112.212" fill="#C2A568"/>
<path d="M63.7057 112.953C63.6451 112.897 63.5777 112.848 63.5014 112.803C63.5957 112.734 63.6742 112.651 63.7371 112.558C63.8403 112.399 63.8919 112.221 63.8919 112.024C63.8919 111.812 63.8426 111.624 63.7483 111.47C63.6518 111.316 63.5149 111.194 63.3399 111.109C63.1648 111.024 62.9561 110.982 62.716 110.982H61.0261V114.935H62.7205C63.1289 114.935 63.4566 114.83 63.6944 114.62C63.9323 114.411 64.0535 114.12 64.0535 113.754C64.0535 113.602 64.0243 113.455 63.966 113.319C63.9076 113.183 63.8201 113.06 63.7079 112.955M61.5872 113.089H62.7407C62.9651 113.089 63.1469 113.149 63.2815 113.27C63.4162 113.39 63.4835 113.553 63.4835 113.757C63.4835 113.96 63.4162 114.123 63.2815 114.241C63.1469 114.359 62.9651 114.42 62.7407 114.42H61.5872V113.089ZM63.1536 112.428C63.0414 112.535 62.8888 112.589 62.7025 112.589H61.5872V111.488H62.7025C62.8888 111.488 63.0414 111.535 63.1536 111.624C63.2658 111.714 63.3219 111.848 63.3219 112.02C63.3219 112.192 63.2636 112.321 63.1513 112.428" fill="#C2A568"/>
<path d="M68.5419 110.982H67.8956L66.466 114.908L66.457 114.935H67.0585L67.3839 114.015H69.0513L69.3767 114.935H69.9804L68.5464 110.995L68.5419 110.982ZM67.5634 113.502L68.2187 111.645L68.874 113.502H67.5634Z" fill="#C2A568"/>
<path d="M73.129 110.982H72.5657V114.933H74.8727V114.422H73.129V110.982Z" fill="#C2A568"/>
<path d="M78.1156 110.982H77.5523V114.935H78.1156V110.982Z" fill="#C2A568"/>
<path d="M9.51983 79.4476H9.87666C10.2537 79.4476 10.5028 79.5347 10.6419 79.7133C10.8372 79.9633 10.8417 80.4187 10.6599 81.0907L7.56739 89.8867L3.92508 81.0215C3.68495 80.4053 3.65802 79.9588 3.84653 79.6954C3.96547 79.5302 4.17418 79.4454 4.46368 79.4454H4.76889V78.9118H0V79.4454H0.224418C0.736093 79.4454 1.13556 79.8606 1.6001 80.8742L6.28596 92.3045L6.33982 92.434H7.50006L11.5418 80.901C11.865 80.0013 12.2129 79.4454 12.9355 79.4454H13.2811V78.9118H9.51759V79.4454L9.51983 79.4476Z" fill="#C2A568"/>
<path d="M25.0541 89.7238C25.0541 89.7238 24.8229 90.2417 24.8139 90.264C24.2955 91.3088 23.4585 91.7375 21.9212 91.7375H19.2551V85.4619H20.9495C22.3453 85.4619 22.9939 85.77 23.3463 86.5983L23.445 86.8215H23.9342V83.5554H23.445L23.3485 83.7608C23.0006 84.4774 22.3274 84.7565 20.9495 84.7565H19.2551V79.6128H21.5105C23.1914 79.6128 24.1183 80.1285 24.6165 81.3385L24.6703 81.468H25.1618V78.914H15.8395V79.4476H16.1132C16.3713 79.4476 16.5598 79.5124 16.708 79.653C16.9436 79.8807 17.0513 80.2915 17.0513 80.9501V90.398C17.0513 91.0566 16.9436 91.4696 16.7124 91.6973C16.5643 91.8357 16.3668 91.9049 16.1088 91.9049H15.8417V92.4385H25.5815V89.6456H25.0922L25.0563 89.726L25.0541 89.7238Z" fill="#C2A568"/>
<path d="M39.2665 90.5699L39.2283 90.5252C38.7414 89.9559 38.2925 89.3219 37.8975 88.7616L37.2781 87.8998C37.1861 87.7703 37.0874 87.6453 36.9774 87.5203C36.5443 87.0046 36.091 86.6094 35.5928 86.3103C35.5613 86.2902 35.5165 86.2634 35.4604 86.2254L35.3975 86.1875C35.3975 86.1875 35.3841 86.1786 35.3773 86.1741C37.9851 85.8549 39.4775 84.5131 39.4775 82.4793C39.4775 80.2156 37.7247 78.9163 34.6659 78.9163H28.6537V79.4498H28.9298C29.1789 79.4498 29.3719 79.519 29.52 79.6575C29.7534 79.8829 29.8611 80.296 29.8611 80.9568V90.4024C29.8611 91.0632 29.7534 91.4763 29.5222 91.7017C29.3674 91.8469 29.1609 91.9116 28.8647 91.9049H28.656V92.4385H33.279V91.9049H33.003C32.7382 91.9049 32.5497 91.8402 32.4105 91.7017C32.1771 91.4718 32.0694 91.0588 32.0694 90.398V86.2455H33.3688C33.4114 86.2701 33.4563 86.2969 33.49 86.317L33.5438 86.3505C33.5618 86.3639 33.5775 86.3728 33.591 86.3795C33.8019 86.5 33.9972 86.6385 34.17 86.788C34.5986 87.1497 34.9644 87.6074 35.2606 88.1498C35.4716 88.5316 35.6534 88.891 35.88 89.342L35.898 89.38C36.7485 91.0833 37.4195 92.4295 39.4438 92.4295H39.7423C40.1305 92.434 41.0798 92.434 41.0798 92.434H41.2144V91.9205L41.0439 91.8915C40.2764 91.7553 39.6458 91.0097 39.2687 90.5654M37.1659 82.4816C37.1659 84.4015 36.0394 85.549 34.1542 85.549H32.0649V79.6217H34.6659C36.2772 79.6217 37.1659 80.6375 37.1659 82.4838" fill="#C2A568"/>
<path d="M48.9524 78.914H43.8042V79.4476H44.0758C44.3339 79.4476 44.5269 79.5146 44.6705 79.653C44.8994 79.8718 45.0116 80.296 45.0116 80.9501V90.398C45.0116 91.0566 44.9039 91.4718 44.6705 91.6973C44.5224 91.8379 44.3361 91.9027 44.0803 91.9027H43.8042V92.4362H49.6885C53.8784 92.4362 56.2797 89.9716 56.2797 85.674C56.2797 81.3765 53.6091 78.914 48.9501 78.914M54.0714 85.674C54.0691 89.5273 52.4713 91.7375 49.6907 91.7375H47.2221V79.615H48.9569C52.2087 79.615 54.0736 81.823 54.0736 85.674" fill="#C2A568"/>
<path d="M71.5962 91.8692C71.5603 91.8647 71.5289 91.858 71.4975 91.8491C70.9768 91.7129 70.5706 91.2776 70.1824 90.4449L65.2003 79.0368L65.1442 78.9118H64.1725L59.8793 90.4359C59.4731 91.4495 58.9951 91.9004 58.3308 91.9004H58.0773V92.434H61.8116V91.9004H61.5355C61.1406 91.9004 60.8937 91.8134 60.7546 91.6258C60.5683 91.378 60.584 90.9338 60.7994 90.2729L61.8542 87.3841H66.4548L67.8372 90.6592C68.0167 91.1414 68.0347 91.4718 67.8933 91.666C67.8013 91.791 67.6487 91.8647 67.4265 91.8937C67.3839 91.8982 67.1729 91.9004 67.036 91.9004H66.9014V92.434H72.0451V91.9116L71.9216 91.9004C71.9216 91.9004 71.668 91.8781 71.594 91.8669M66.163 86.6853H62.119L63.9907 81.5573L66.1608 86.6853H66.163Z" fill="#C2A568"/>
<path d="M84.0268 79.4476H84.3005C84.5631 79.4476 84.7516 79.5124 84.893 79.653C85.1264 79.8807 85.2341 80.2915 85.2341 80.9478L85.2409 89.0853L77.8463 78.9989L77.7834 78.9163H74.6461V79.4498H74.9176C75.1779 79.4498 75.3664 79.5146 75.5123 79.653C75.7457 79.8807 75.8534 80.2937 75.8534 80.9545V90.4024C75.8534 91.0521 75.7412 91.4785 75.5123 91.7017C75.3597 91.8469 75.151 91.9071 74.857 91.9071H74.6483V92.4407H77.8597V91.9071H77.5904C77.3413 91.9071 77.1461 91.8357 76.9957 91.6928C76.7601 91.4651 76.6524 91.0566 76.6524 90.4091V80.9322L84.2736 91.2686L85.104 92.4429H86.0398V80.9523C86.0555 80.3272 86.1812 79.8294 86.3719 79.6508C86.5133 79.5168 86.7041 79.4543 86.9734 79.4543H87.2494V78.9207H84.0312V79.4543L84.0268 79.4476Z" fill="#C2A568"/>
<path d="M103.881 91.9027C103.881 91.9027 103.627 91.8803 103.553 91.8692C103.517 91.8647 103.486 91.858 103.455 91.8491C102.934 91.7129 102.528 91.2776 102.14 90.4449L97.1575 79.0368L97.1014 78.9118H96.1296L91.8365 90.4359C91.4303 91.4495 90.9523 91.9004 90.288 91.9004H90.0344V92.434H93.7688V91.9004H93.4927C93.0977 91.9004 92.8509 91.8134 92.7117 91.6258C92.5255 91.378 92.5412 90.9338 92.7566 90.2729L93.8114 87.3841H98.412L99.7944 90.6592C99.9739 91.1414 99.9919 91.4718 99.8505 91.666C99.7585 91.791 99.6059 91.8647 99.3837 91.8937C99.3411 91.8982 99.1301 91.9004 98.9932 91.9004H98.8563V92.434H104V91.9116L103.877 91.9004L103.881 91.9027ZM98.1202 86.6853H94.0785L95.9501 81.5573L98.1202 86.6853Z" fill="#C2A568"/>
<path d="M20.651 103.945L20.6353 103.925C20.4266 103.681 20.2358 103.411 20.0675 103.172L19.8027 102.804C19.7623 102.746 19.7197 102.692 19.6725 102.641C19.4863 102.42 19.291 102.248 19.0756 102.119C19.0643 102.112 19.0509 102.103 19.0329 102.092C20.1236 101.94 20.7475 101.364 20.7475 100.498C20.7475 99.5155 19.989 98.9529 18.6671 98.9529H16.0728V99.2252H16.212C16.3152 99.2252 16.3893 99.252 16.4499 99.3078C16.5441 99.3994 16.589 99.5757 16.589 99.8481V103.887C16.589 104.163 16.5441 104.335 16.4499 104.427C16.387 104.485 16.304 104.512 16.1851 104.507H16.0728V104.78H18.0949V104.507H17.9557C17.848 104.507 17.7739 104.483 17.7178 104.427C17.6236 104.333 17.5787 104.157 17.5787 103.884V102.132H18.1083C18.124 102.141 18.1397 102.15 18.1532 102.159L18.2071 102.194H18.2116C18.2946 102.244 18.3731 102.297 18.4427 102.36C18.6245 102.514 18.7793 102.708 18.905 102.936C18.9948 103.099 19.0733 103.25 19.1698 103.447L19.1766 103.463C19.5446 104.197 19.8341 104.777 20.7116 104.777H20.8395C21.0056 104.78 21.4118 104.78 21.4118 104.78H21.4926V104.521L21.4005 104.505C21.0796 104.449 20.8148 104.134 20.6555 103.945M19.7129 100.5C19.7129 101.308 19.2394 101.79 18.4472 101.79H17.5765V99.2989H18.6671C19.3516 99.2989 19.7152 99.7141 19.7152 100.5" fill="#C2A568"/>
<path d="M28.2386 103.59C28.2386 103.59 28.1398 103.811 28.1353 103.82C27.9177 104.257 27.5653 104.438 26.9167 104.438H25.7991V101.797H26.5016C27.0873 101.797 27.3611 101.924 27.507 102.27L27.5563 102.38H27.801V100.94H27.5563L27.5092 101.04C27.3633 101.342 27.0896 101.453 26.5038 101.453H25.8014V99.2967H26.7439C27.4621 99.2967 27.8414 99.5065 28.0523 100.022L28.0815 100.089H28.3283V98.9529H24.2978V99.2252H24.4369C24.5424 99.2252 24.6165 99.252 24.6748 99.3078C24.7691 99.3994 24.8162 99.5757 24.8162 99.8459V103.887C24.8162 104.157 24.7713 104.335 24.6771 104.427C24.6187 104.483 24.5379 104.51 24.4347 104.51H24.2978V104.782H28.5056V103.543H28.261L28.2408 103.59H28.2386Z" fill="#C2A568"/>
<path d="M34.1004 101.319L33.959 101.272C33.5797 101.143 32.6933 100.842 32.6933 100.134C32.6933 99.6673 33.086 99.3614 33.4496 99.2721C33.665 99.2208 33.9007 99.2185 34.17 99.2676C34.446 99.319 34.6816 99.4396 34.8342 99.607C35.0407 99.8325 35.2831 100.299 35.3594 100.522L35.3863 100.596H35.6354V99.0957H35.4132L35.3661 99.1069L35.3414 99.1359C35.3414 99.1359 35.301 99.1694 35.1843 99.1359C34.7557 98.9752 34.2777 98.8859 33.8311 98.8859C33.3643 98.8859 32.9581 98.9819 32.626 99.1717C32.4487 99.2721 32.2759 99.415 32.1435 99.5713C31.7283 100.065 31.6946 100.826 32.0649 101.304C32.4554 101.806 33.1354 102.043 33.7368 102.255L33.9927 102.346C34.2171 102.424 34.4707 102.511 34.6951 102.659C35.099 102.92 35.3818 103.409 35.1035 103.913C34.8387 104.387 34.1901 104.545 33.665 104.494C33.4855 104.476 33.3037 104.429 33.1376 104.355C32.6596 104.143 32.3185 103.679 32.0963 102.936L32.0716 102.857H31.8248V104.487H32.0829L32.1053 104.46C32.1053 104.46 32.139 104.425 32.2085 104.434C32.2175 104.434 32.2489 104.443 32.2602 104.449C32.3926 104.505 32.7426 104.65 33.1466 104.753C33.3912 104.815 33.6471 104.849 33.9074 104.849C34.3338 104.849 34.749 104.757 35.1058 104.588C35.3526 104.467 35.7947 104.199 35.9922 103.75C36.0842 103.541 36.1269 103.34 36.1269 103.132C36.1269 102.75 35.9765 102.404 35.6915 102.13C35.2472 101.703 34.6614 101.509 34.0937 101.322" fill="#C2A568"/>
<path d="M39.2081 99.2252H39.345C39.4505 99.2252 39.5268 99.252 39.5829 99.3056C39.6772 99.3971 39.7221 99.5735 39.7221 99.8459V103.887C39.7221 104.159 39.6772 104.338 39.5829 104.427C39.5246 104.483 39.4438 104.507 39.3181 104.507H39.2059V104.78H41.2234V104.507H41.0843C40.9766 104.507 40.9025 104.483 40.8464 104.427C40.7521 104.335 40.7073 104.163 40.7073 103.887V99.8459C40.7073 99.5735 40.7521 99.3971 40.8464 99.3056C40.9025 99.252 40.9833 99.223 41.082 99.223H41.2234V98.9506H39.2059V99.223L39.2081 99.2252Z" fill="#C2A568"/>
<path d="M46.3581 98.9529H44.1341V99.223H44.271C44.3765 99.223 44.4528 99.2498 44.5112 99.3056C44.6054 99.3949 44.6503 99.5713 44.6503 99.8436V103.884C44.6503 104.161 44.6054 104.333 44.5112 104.425C44.4528 104.481 44.3765 104.507 44.2733 104.507H44.1341V104.78H46.6723C48.4766 104.78 49.5134 103.717 49.5134 101.866C49.5134 100.016 48.3622 98.9529 46.3581 98.9529ZM48.526 101.866C48.526 103.5 47.8505 104.438 46.6745 104.438H45.64V99.2967H46.3604C47.7383 99.2967 48.526 100.234 48.526 101.866Z" fill="#C2A568"/>
<path d="M56.2931 103.59C56.2931 103.59 56.1944 103.811 56.1899 103.82C55.9722 104.257 55.6199 104.438 54.9713 104.438H53.8537V101.797H54.5561C55.1419 101.797 55.4156 101.924 55.5615 102.27L55.6109 102.38H55.8555V100.94H55.6109L55.5638 101.04C55.4179 101.342 55.1441 101.453 54.5584 101.453H53.8559V99.2967H54.7985C55.5166 99.2967 55.8959 99.5065 56.1069 100.022L56.136 100.089H56.3829V98.9529H52.3523V99.2252H52.4915C52.597 99.2252 52.671 99.252 52.7294 99.3078C52.8236 99.3994 52.8707 99.5757 52.8707 99.8459V103.887C52.8707 104.157 52.8259 104.335 52.7316 104.427C52.6733 104.483 52.5925 104.51 52.4892 104.51H52.3523V104.782H56.5624V103.543H56.3178L56.2976 103.59H56.2931Z" fill="#C2A568"/>
<path d="M63.7236 99.2252C63.8291 99.2252 63.9054 99.252 63.9615 99.3078C64.0558 99.4016 64.1006 99.5713 64.1006 99.8459V103.259L60.9812 98.9998L60.9476 98.9551H59.5741V99.2275H59.711C59.8165 99.2275 59.8928 99.2542 59.9489 99.3078C60.0432 99.4016 60.088 99.5735 60.088 99.8481V103.889C60.088 104.161 60.0432 104.338 59.9489 104.429C59.8883 104.487 59.8098 104.512 59.6841 104.512H59.5719V104.784H60.988V104.512H60.8511C60.7501 104.512 60.6715 104.483 60.6132 104.425C60.5167 104.333 60.4718 104.163 60.4718 103.891V99.9039L63.69 104.271L64.0513 104.782H64.4844V99.8459C64.4911 99.5891 64.5427 99.3748 64.619 99.3034C64.6752 99.2498 64.7514 99.2252 64.8614 99.2252H65.0006V98.9529H63.58V99.2252H63.7236Z" fill="#C2A568"/>
<path d="M72.8866 103.543C72.8283 103.648 72.7654 103.742 72.7004 103.822C72.5769 103.978 72.4445 104.103 72.3099 104.195C72.1483 104.302 71.9979 104.373 71.8521 104.414C71.3965 104.536 70.8669 104.514 70.4405 104.355C70.317 104.309 70.2003 104.248 70.0881 104.179C69.7627 103.976 69.4979 103.654 69.2982 103.219C69.1209 102.835 69.0087 102.295 68.9952 101.777C68.9728 100.962 69.2129 100.234 69.6572 99.7789C70.0096 99.4172 70.4741 99.2342 71.0329 99.2342C71.3583 99.2342 71.6972 99.3279 71.9912 99.4954C72.3099 99.6807 72.5253 100.076 72.6959 100.437L72.7026 100.453C72.725 100.5 72.7452 100.545 72.7632 100.592L72.7901 100.665H73.0392V99.1248H72.8417L72.7946 99.1359L72.7699 99.165C72.7452 99.194 72.6734 99.1962 72.5724 99.1672C72.541 99.1583 72.5096 99.1516 72.4804 99.1426L72.3907 99.1181C72.2627 99.0824 72.1303 99.0444 72.0047 99.0176C71.7713 98.9618 71.5311 98.9216 71.2865 98.8993C71.1676 98.8904 71.0509 98.8837 70.9409 98.8837C70.5325 98.8837 69.9423 98.9462 69.4351 99.2453C68.5329 99.7811 67.9741 100.728 67.9404 101.775C67.9157 102.507 68.1469 103.25 68.5576 103.768C68.7842 104.052 69.0625 104.286 69.361 104.447C69.9737 104.775 70.7053 104.844 71.2125 104.844C71.2865 104.844 71.3606 104.844 71.4279 104.84C71.7713 104.824 72.0989 104.751 72.4355 104.668C72.5365 104.643 72.7206 104.583 72.9023 104.516L72.9607 104.498L73.2075 103.512L73.2322 103.407L72.9854 103.34L72.8844 103.536L72.8866 103.543Z" fill="#C2A568"/>
<path d="M80.0321 103.59C80.0321 103.59 79.9334 103.811 79.9289 103.82C79.7112 104.257 79.3589 104.438 78.7103 104.438H77.5927V101.797H78.2951C78.8808 101.797 79.1546 101.924 79.3005 102.27L79.3499 102.38H79.5945V100.94H79.3499L79.3027 101.04C79.1569 101.342 78.8831 101.453 78.2974 101.453H77.5949V99.2967H78.5375C79.2556 99.2967 79.6349 99.5065 79.8458 100.022L79.875 100.089H80.1219V98.9529H76.0913V99.2252H76.2305C76.3359 99.2252 76.41 99.252 76.4683 99.3078C76.5626 99.3994 76.6097 99.5757 76.6097 99.8459V103.887C76.6097 104.157 76.5648 104.335 76.4706 104.427C76.4122 104.483 76.3315 104.51 76.2282 104.51H76.0913V104.782H80.2992V103.543H80.0546L80.0344 103.59H80.0321Z" fill="#C2A568"/>
<path d="M87.494 102.127C87.0497 101.701 86.4639 101.507 85.8962 101.319L85.7548 101.272C85.3755 101.143 84.4891 100.842 84.4891 100.134C84.4891 99.6673 84.8818 99.3614 85.2453 99.2721C85.4608 99.2208 85.6964 99.2185 85.9657 99.2676C86.2418 99.319 86.4774 99.4396 86.63 99.6092C86.8365 99.8347 87.0788 100.301 87.1551 100.525L87.1821 100.598H87.4312V99.098H87.209L87.1619 99.1091L87.1372 99.1382C87.1372 99.1382 87.0968 99.1717 86.9801 99.1382C86.5515 98.9774 86.0734 98.8881 85.6269 98.8881C85.1601 98.8881 84.7539 98.9841 84.424 99.1739C84.2467 99.2744 84.0761 99.4172 83.9415 99.5735C83.5263 100.067 83.4926 100.828 83.8629 101.306C84.2534 101.808 84.9334 102.045 85.5349 102.257L85.7907 102.348C86.0151 102.427 86.2687 102.514 86.4931 102.661C86.8971 102.922 87.1798 103.411 86.9016 103.916C86.6367 104.389 85.9882 104.547 85.463 104.496C85.2835 104.478 85.1017 104.431 84.9356 104.358C84.4576 104.146 84.1165 103.681 83.8943 102.938L83.8697 102.86H83.6228V104.489H83.8809L83.9033 104.463C83.9033 104.463 83.937 104.429 84.0066 104.436C84.0155 104.436 84.047 104.445 84.0582 104.451C84.1906 104.507 84.5407 104.652 84.9446 104.755C85.1892 104.818 85.4451 104.851 85.7054 104.851C86.1318 104.851 86.547 104.76 86.9038 104.588C87.1507 104.467 87.5928 104.199 87.7903 103.75C87.8823 103.541 87.9249 103.34 87.9249 103.132C87.9249 102.75 87.7745 102.404 87.4895 102.13" fill="#C2A568"/>
</svg>
