<svg viewBox="0 0 27 27" fill="none" xmlns="http://www.w3.org/2000/svg">
<path d="M13.3048 1.1084C16.3286 1.05879 19.267 2.11271 21.5675 4.0752C23.8202 5.99777 25.3117 8.66238 25.7726 11.5879C26.2334 14.5134 25.6328 17.5073 24.0802 20.0293C22.5275 22.5513 20.1245 24.4358 17.3048 25.3418C14.4852 26.2477 11.4343 26.1154 8.70325 24.9697H8.70227L8.42297 24.8467L8.2843 24.7852L8.13391 24.8125L2.01282 25.9043L1.90149 25.916C1.87773 25.9172 1.85397 25.917 1.8302 25.916L1.74524 25.9053L1.66125 25.8867L1.57727 25.8574L1.49524 25.8193L1.4259 25.7754L1.39954 25.7559L1.39465 25.7529L1.33606 25.7041L1.26965 25.6338L1.2179 25.5664L1.17493 25.4951L1.15051 25.4443L1.11731 25.3525L1.09387 25.2471L1.08508 25.167V25.0713L1.09485 24.9941L1.11145 24.9121L1.1593 24.7842L3.00012 20.542L3.10657 20.2969L2.96204 20.0732L2.95032 20.0547C1.46071 17.6463 0.839055 14.8006 1.1886 11.9902C1.53833 9.17925 2.83806 6.57176 4.87317 4.60156L4.87415 4.60254L5.15149 4.33984L5.15051 4.33887C7.38457 2.30572 10.2843 1.15804 13.3048 1.1084ZM10.2706 7.1875C9.62417 7.1875 9.00412 7.44425 8.547 7.90137C8.08988 8.35849 7.83313 8.97854 7.83313 9.625V10.917C7.83323 13.1048 8.70223 15.2029 10.2491 16.75C11.7963 18.2972 13.8951 19.167 16.0831 19.167H17.3751C18.0214 19.1669 18.6417 18.9102 19.0988 18.4531C19.5558 17.9961 19.8125 17.3758 19.8126 16.7295C19.8126 16.0832 19.5556 15.4629 19.0988 15.0059C18.6417 14.5488 18.0214 14.2921 17.3751 14.292H16.0587L15.8732 14.3008L15.8497 14.3027C15.4779 14.3384 15.1187 14.459 14.8009 14.6553C14.5714 14.7971 14.3676 14.9761 14.1974 15.1836C13.6717 14.9506 13.1914 14.6239 12.7833 14.2158C12.3752 13.8077 12.0485 13.3276 11.8156 12.8018C12.0534 12.6068 12.2536 12.3684 12.4034 12.0977C12.5784 11.7814 12.6805 11.4307 12.7032 11.0713L12.7081 10.916V9.625C12.7081 8.97856 12.4514 8.35848 11.9943 7.90137C11.5372 7.44426 10.9171 7.18752 10.2706 7.1875Z" stroke="#C2A568"/>
</svg>
