<svg width="28" height="28" viewBox="0 0 28 28" fill="none" xmlns="http://www.w3.org/2000/svg">
<rect width="28" height="28" rx="14" fill="#A98C47"/>
<g clip-path="url(#clip0_602_269)">
<path d="M10.5449 7.5835C10.5449 7.5835 10.0513 11.0386 10.0513 11.5322C10.0513 12.0258 11.1618 13.013 11.1618 13.013L11.0384 19.5994C11.0384 20.1444 11.4807 20.4168 12.0256 20.4168C12.5706 20.4168 13.0128 20.1444 13.0128 19.5994L12.8894 13.013C12.8894 13.013 14 12.0051 14 11.5322C14 11.0594 13.5064 7.5835 13.5064 7.5835H13.0128V10.7918C13.0128 10.8573 12.9868 10.9201 12.9405 10.9663C12.8942 11.0126 12.8315 11.0386 12.766 11.0386C12.7006 11.0386 12.6378 11.0126 12.5915 10.9663C12.5452 10.9201 12.5192 10.8573 12.5192 10.7918C12.5192 10.7459 12.3494 7.5835 12.3494 7.5835H11.7018C11.7018 7.5835 11.532 10.7459 11.532 10.7918C11.532 10.8573 11.506 10.9201 11.4598 10.9663C11.4135 11.0126 11.3507 11.0386 11.2852 11.0386C11.2198 11.0386 11.157 11.0126 11.1107 10.9663C11.0645 10.9201 11.0384 10.8573 11.0384 10.7918V7.5835H10.5449ZM15.8356 7.61459C15.5449 7.68419 15.4808 7.99564 15.4808 8.33869V19.599C15.4808 20.1439 15.923 20.4163 16.4679 20.4163C17.0129 20.4163 17.4398 20.1434 17.4398 19.599C17.4398 17.0881 16.9462 15.7494 16.9462 14.4933C16.9462 13.9266 17.9487 13.1971 17.9487 10.5598C17.9487 8.94679 16.5193 7.6141 15.9743 7.6141C15.923 7.6141 15.8771 7.60423 15.8356 7.6141V7.61459Z" fill="#002611"/>
</g>
<defs>
<clipPath id="clip0_602_269">
<rect width="12.8333" height="12.8333" fill="white" transform="translate(7.58331 7.5835)"/>
</clipPath>
</defs>
</svg>
