<svg width="28" height="28" viewBox="0 0 28 28" fill="none" xmlns="http://www.w3.org/2000/svg">
<rect width="28" height="28" rx="14" fill="#A98C47"/>
<g clip-path="url(#clip0_602_231)">
<path d="M13.6111 8.94434C13.1444 8.94434 12.8333 9.25545 12.8333 9.72211V12.8332H9.72222C9.25555 12.8332 8.94444 13.1443 8.94444 13.611V14.3888C8.94444 14.8554 9.25555 15.1666 9.72222 15.1666H12.8333V18.2777C12.8333 18.7443 13.1444 19.0554 13.6111 19.0554H14.3889C14.8556 19.0554 15.1667 18.7443 15.1667 18.2777V15.1666H18.2778C18.7444 15.1666 19.0556 14.8554 19.0556 14.3888V13.611C19.0556 13.1443 18.7444 12.8332 18.2778 12.8332H15.1667V9.72211C15.1667 9.25545 14.8556 8.94434 14.3889 8.94434H13.6111Z" fill="#002611"/>
</g>
<defs>
<clipPath id="clip0_602_231">
<rect width="11.6667" height="11.6667" fill="white" transform="translate(8.16667 8.1665)"/>
</clipPath>
</defs>
</svg>
