<svg width="28" height="28" viewBox="0 0 28 28" fill="none" xmlns="http://www.w3.org/2000/svg">
<rect width="28" height="28" rx="14" fill="#A98C47"/>
<g clip-path="url(#clip0_602_224)">
<path d="M9.91668 14.6886V16.3277C9.91668 16.7536 10.15 17.1502 10.5234 17.3544L13.44 18.9469C13.79 19.1394 14.21 19.1394 14.56 18.9469L17.4767 17.3544C17.85 17.1502 18.0833 16.7536 18.0833 16.3277V14.6886L14.56 16.6136C14.21 16.8061 13.79 16.8061 13.44 16.6136L9.91668 14.6886ZM13.44 9.05357L8.52252 11.7369C8.12002 11.9586 8.12002 12.5419 8.52252 12.7636L13.44 15.4469C13.79 15.6394 14.21 15.6394 14.56 15.4469L19.25 12.8861V16.3336C19.25 16.6544 19.5125 16.9169 19.8333 16.9169C20.1542 16.9169 20.4167 16.6544 20.4167 16.3336V12.5944C20.4167 12.3786 20.3 12.1861 20.1133 12.0811L14.56 9.05357C14.3877 8.96166 14.1953 8.91357 14 8.91357C13.8047 8.91357 13.6124 8.96166 13.44 9.05357Z" fill="#002611"/>
</g>
<defs>
<clipPath id="clip0_602_224">
<rect width="14" height="14" fill="white" transform="translate(7 7)"/>
</clipPath>
</defs>
</svg>
