<svg width="28" height="28" viewBox="0 0 28 28" fill="none" xmlns="http://www.w3.org/2000/svg">
<rect width="28" height="28" rx="14" fill="#A98C47"/>
<path d="M10.7188 18.8125C10.438 18.8125 10.1978 18.7126 9.99806 18.5129C9.79832 18.3131 9.69828 18.0727 9.69794 17.7917V11.6667C9.69794 11.3859 9.79798 11.1457 9.99806 10.946C10.1981 10.7462 10.4384 10.6462 10.7188 10.6458H11.7396C11.7396 9.93976 11.9885 9.33798 12.4863 8.84049C12.9842 8.343 13.586 8.09409 14.2917 8.09375C14.9974 8.09341 15.5994 8.34232 16.0975 8.84049C16.5957 9.33866 16.8445 9.94044 16.8438 10.6458H17.8646C18.1453 10.6458 18.3857 10.7459 18.5858 10.946C18.7859 11.146 18.8858 11.3863 18.8854 11.6667V17.7917C18.8854 18.0724 18.7856 18.3128 18.5858 18.5129C18.3861 18.713 18.1457 18.8128 17.8646 18.8125H10.7188ZM12.7604 10.6458H15.8229C15.8229 10.2205 15.6741 9.85894 15.3763 9.5612C15.0786 9.26346 14.717 9.11458 14.2917 9.11458C13.8663 9.11458 13.5048 9.26346 13.2071 9.5612C12.9093 9.85894 12.7604 10.2205 12.7604 10.6458ZM14.2789 14.7292C14.9084 14.7292 15.4784 14.5207 15.9888 14.1039C16.4992 13.6871 16.7502 13.2192 16.7417 12.7003C16.7417 12.5556 16.6949 12.4323 16.6013 12.3302C16.5077 12.2281 16.3886 12.1771 16.244 12.1771C16.1249 12.1771 16.0186 12.2154 15.925 12.2919C15.8314 12.3685 15.7634 12.4833 15.7209 12.6365C15.6273 12.9597 15.4444 13.2192 15.1722 13.4148C14.8999 13.6105 14.6022 13.7083 14.2789 13.7083C13.9557 13.7083 13.6559 13.6105 13.3796 13.4148C13.1033 13.2192 12.9224 12.9597 12.837 12.6365C12.7945 12.4748 12.7307 12.3579 12.6456 12.2858C12.5605 12.2137 12.4584 12.1774 12.3393 12.1771C12.1947 12.1771 12.0736 12.2281 11.9759 12.3302C11.8783 12.4323 11.8293 12.5556 11.8289 12.7003C11.8289 13.2192 12.0799 13.6871 12.5818 14.1039C13.0837 14.5207 13.6494 14.7292 14.2789 14.7292Z" fill="#002611"/>
</svg>
