<svg width="28" height="28" viewBox="0 0 28 28" fill="none" xmlns="http://www.w3.org/2000/svg">
<rect width="28" height="28" rx="14" fill="#A98C47"/>
<g clip-path="url(#clip0_602_259)">
<path d="M18.9526 14.5787C18.8316 14.9212 18.4338 15.0504 18.1098 14.8884L14.4553 13.0611L14.4225 13.1268L12.6014 16.771H18.5937C18.9567 16.771 19.25 17.0643 19.25 17.4272C19.25 17.7902 18.9567 18.0835 18.5937 18.0835H9.40625C9.04326 18.0835 8.75 17.7902 8.75 17.4272C8.75 17.0643 9.04326 16.771 9.40625 16.771H11.133L13.2494 12.5402L13.2822 12.4746L9.89023 10.7786C9.56621 10.6166 9.43086 10.2187 9.63389 9.91728C10.5752 8.51045 12.1789 7.5835 14 7.5835C16.8998 7.5835 19.25 9.93369 19.25 12.8335C19.25 13.4446 19.1454 14.0332 18.9526 14.5787Z" fill="#002611"/>
</g>
<defs>
<clipPath id="clip0_602_259">
<rect width="10.5" height="10.5" fill="white" transform="translate(8.75 7.5835)"/>
</clipPath>
</defs>
</svg>
