<?xml version="1.0" standalone="no"?>
<!DOCTYPE svg PUBLIC "-//W3C//DTD SVG 1.1//EN" "http://www.w3.org/Graphics/SVG/1.1/DTD/svg11.dtd" >
<svg xmlns="http://www.w3.org/2000/svg" xmlns:xlink="http://www.w3.org/1999/xlink" version="1.1">
<metadata>
Created by FontForge 20230101 at Thu Apr 10 06:22:29 2014
 By Unknown
A(c)2011 by Robert E. Leuschke. All rights reserved.
</metadata>
<defs>
<font id="MonteCarloScriptB" horiz-adv-x="807" >
  <font-face 
    font-family="MonteCarlo Script B"
    font-weight="400"
    font-stretch="normal"
    units-per-em="1000"
    panose-1="0 0 0 0 0 0 0 0 0 0"
    ascent="581"
    descent="-419"
    x-height="320"
    cap-height="812"
    bbox="-487 -689 1850.33 947.161"
    underline-thickness="50"
    underline-position="-150"
    unicode-range="U+0020-FB02"
  />
<missing-glyph horiz-adv-x="175" 
 />
    <glyph glyph-name=".notdef" horiz-adv-x="175" 
 />
    <glyph glyph-name=".null" horiz-adv-x="0" 
 />
    <glyph glyph-name="nonmarkingreturn" horiz-adv-x="175" 
 />
    <glyph glyph-name="space" unicode=" " horiz-adv-x="169" 
 />
    <glyph glyph-name="space" unicode="&#xa0;" horiz-adv-x="169" 
 />
    <glyph glyph-name="space" unicode="&#xa0;" horiz-adv-x="169" 
 />
    <glyph glyph-name="exclam" unicode="!" horiz-adv-x="371" 
d="M501 581v-1q-2 -2 -15 -22q-18 -28 -34 -52l-48 -72l-54 -81q-129 -195 -145 -219l-17 -1l224 427q2 3 12 6t24 6q18 4 28 6q15 3 25 3zM178 25h-2q-1 -12 -11 -22q-9 -9 -22 -10t-21 8t-6 21q1 13 12 22q10 8 24 10q12 2 20 -8q8 -9 6 -21z" />
    <glyph glyph-name="quotedbl" unicode="&#x22;" horiz-adv-x="305" 
d="M325 498l1 -4q-3 -6 -10 -30q-12 -39 -13 -42q-5 -15 -15 -43q-12 -33 -13 -36q-1 -4 -10 -3t-7 12q6 19 8 34l6 39q2 13 6 41q3 23 6 38q2 9 9 12q8 3 15 2q9 -2 14 -7q6 -6 3 -13zM223 494l1 -4q-3 -6 -10 -30q-12 -39 -13 -42q-5 -15 -15 -43q-12 -33 -13 -36
q-1 -4 -10 -3t-7 12q6 19 8 34l6 39q2 13 6 41q3 23 6 38q2 9 9 12q8 3 15 2q9 -2 14 -7q6 -6 3 -13z" />
    <glyph glyph-name="numbersign" unicode="#" horiz-adv-x="606" 
d="M606 422l-8 -22h-187l-44 -108h184l-10 -23h-182l-73 -183h-24l73 183h-115l-73 -183h-24l74 183h-190l8 23h191l43 108h-187l9 22h187l65 164h24l-66 -164h115l66 164h22l-65 -164h187zM387 400h-115l-43 -108h115z" />
    <glyph glyph-name="dollar" unicode="$" horiz-adv-x="423" 
d="M501 558l1 -2q-1 -14 -9 -25t-16 -15t-16 -4t-11 6q10 34 -3 52q-13 17 -33 25l-83 -198q7 -7 21 -19t18 -16q26 -28 37 -60q10 -31 6 -61q-5 -31 -22 -57q-18 -27 -45 -48t-61 -33q-35 -12 -75 -12h-8l-37 -89h-28l37 91q-18 3 -36 9q-17 6 -31 15q-13 9 -21 24
q-7 15 -6 34q1 16 12 28q11 13 30 17q11 5 20 0q10 -5 14 -9q-3 -1 -7 -5l-3 -3l-1 -2q-21 -32 -8 -57q13 -26 45 -36l102 245l-25 26q-19 19 -30 42t-9 53q1 25 14 50q12 23 35 42q23 20 56 32t65 15l25 61h29l-24 -59q35 -2 59 -15t22 -42zM386 597v-1q-26 -1 -52 -15
t-42 -34q-16 -21 -21 -45q-5 -25 10 -48q12 -18 31 -37zM340 275v-1q-10 25 -35 53l-94 -228h3q30 0 59 15t48 39q20 25 26 56q6 32 -7 66z" />
    <glyph glyph-name="percent" unicode="%" horiz-adv-x="478" 
d="M37 69l-35 1l371 444q-17 -10 -42 -21q-23 -7 -47 -4q-22 3 -42 15q2 -17 -1 -30q-3 -12 -8 -29q-13 -31 -36 -54t-62 -23q-18 0 -31 8q-12 7 -18 20q-6 12 -6 27t3 29q11 49 39 74q29 26 63 26q19 0 31 -6q11 -5 19 -17q7 -7 15 -9q22 -10 39 -13q14 -3 38 2q23 4 42 17
q18 12 32 29q7 9 18 12q14 4 21 5t21 1h15zM389 189q-13 -31 -36 -54t-61 -23q-18 0 -31 8q-12 7 -18 20q-6 12 -6 27t3 30q11 48 38 74q28 26 62 26q26 0 39 -12q14 -12 18 -28q5 -18 2 -35q-3 -20 -10 -33zM199 454l-1 -2q3 8 6 21t3 27q0 15 -4 23q-5 9 -18 9
q-19 0 -39 -21q-19 -20 -28 -54q-9 -31 -3 -48t21 -17q12 0 22 6t18 15q5 6 13 20q4 7 10 21zM356 196l2 -1q3 7 6 21t3 27q0 15 -4 23q-5 9 -18 9q-19 0 -39 -21t-30 -55q-9 -34 -2 -50q8 -17 21 -17q12 0 21 6q10 7 17 15q6 7 13 21q4 8 10 22z" />
    <glyph glyph-name="ampersand" unicode="&#x26;" horiz-adv-x="985" 
d="M680 118l-8 -9q-25 0 -45 4q-26 5 -44 13q-39 -17 -82 -25q-40 -7 -84 -1q-52 7 -79 36q-26 28 -34 66q-7 37 5 77q12 39 38 71q23 27 54 48q34 23 66 38q9 36 28 66q20 33 46 57q28 26 59 41q32 15 66 15q22 0 39 -9t17 -31q0 -18 -11 -34q-10 -14 -27 -25t-34 -18
q-7 -3 -18 -8t-13 -6q-15 -7 -47 -21t-47 -22q-5 -28 -5 -53q0 -19 2 -53q6 -59 30 -103q24 -43 59 -66q56 32 90 82q35 52 35 112q0 23 -6 44t-23 21q-5 0 -7.5 1.5t-1.5 3.5q2 5 12 5q32 0 47 -24t15 -51q0 -50 -25 -90t-57 -69q-10 -9 -30 -25q-12 -9 -29 -19
q31 -16 69 -16q56 0 99 23q42 22 69 60q27 37 39 86t8 99q-5 51 -24 99q-20 50 -55 86q-36 38 -88 60q-54 23 -121 23q-89 0 -162 -30q-72 -29 -127 -80q-52 -48 -88 -113q-34 -62 -46 -129q-12 -65 -1 -129q10 -63 47 -113t99 -80q63 -30 154 -30q62 0 114 13q54 14 99 36
t78 51t51 60q3 5 8 3t2 -8q-17 -32 -45 -63t-72 -57t-102 -42q-57 -16 -133 -16q-102 0 -174 33t-115 85t-58 120t-3 138t48 138q36 67 98 120q60 51 146 85q84 33 191 33q84 0 143 -25q60 -25 99 -66t57 -93q18 -54 17 -108q-2 -56 -21 -108t-54 -93t-84 -66t-113 -25z
M698 557l3 -3q9 26 -4 36t-33 10q-26 0 -48 -15t-39 -36q-18 -23 -29 -46q-13 -28 -17 -45q26 10 38 14q16 5 35 14q11 6 21 11q15 7 29 15q15 9 27 21q13 13 17 24zM571 130v-5q-18 13 -37 33q-17 18 -33 44q-14 22 -25 54q-10 30 -12 65q-3 35 2 75q-12 -9 -34 -27
q-16 -13 -30 -30q-22 -27 -33 -63t-6 -69q4 -32 26 -58q20 -25 62 -31q24 -4 59 -1q34 3 61 13z" />
    <glyph glyph-name="quotesingle" unicode="'" horiz-adv-x="162" 
d="M222 498l1 -4q-3 -6 -10 -30q-12 -39 -13 -42q-5 -15 -15 -43q-12 -33 -13 -36q-1 -4 -10 -3t-7 12q6 19 8 34l6 39q2 13 6 41q3 23 6 38q1 9 9 12t15 2q9 -2 14 -7q6 -6 3 -13z" />
    <glyph glyph-name="parenleft" unicode="(" horiz-adv-x="307" 
d="M549 725l-5 1q-95 0 -173 -38q-76 -37 -135 -101t-99 -145t-61 -171q-17 -76 -19 -150q-1 -71 23 -126q24 -54 75 -87t135 -33q4 0 7 -3q4 -4 5 -6q2 -3 0 -6q-1 -2 -9 -4q-85 -9 -146 20q-60 29 -95 83q-35 55 -44 129q-9 76 7 157q23 109 72 201q49 91 119 156t155 101
t179 36q8 -2 12 -7q4 -6 -3 -7z" />
    <glyph glyph-name="parenright" unicode=")" horiz-adv-x="465" 
d="M457 326l2 -3q-23 -109 -72 -201q-49 -91 -119 -156t-155 -101t-178 -36q-8 2 -12 7q-4 6 3 7q95 0 173 38q76 37 135 101q58 62 99 146q40 81 61 171q17 76 19 150q2 73 -22 126q-24 54 -75 87t-135 33q-4 0 -7 3q-2 2 -4 6q-2 3 0 6q1 2 9 4q87 9 146 -19
q60 -29 95 -83q35 -55 44 -129q9 -76 -7 -157z" />
    <glyph glyph-name="asterisk" unicode="*" horiz-adv-x="523" 
d="M471 379h-3q-1 -7 -9 -7l-149 -12l32 -132q2 -3 0 -6q-1 -2 -3 -4q-8 -2 -9 4l-56 119l-111 -121q-5 -7 -11 -2q-6 4 -1 12l94 131l-142 12q-5 0 -6 3t0 6q1 4 8 6l150 11l-32 133q-3 8 4 9q2 2 5 2q4 0 5 -4l55 -120l112 121q5 7 11 2q6 -4 1 -12l-94 -131l142 -11
q9 -1 7 -9z" />
    <glyph glyph-name="plus" unicode="+" horiz-adv-x="383" 
d="M383 176h-125l-26 -126h-23l26 126h-123v19h128l27 126h23l-27 -126h120v-19z" />
    <glyph glyph-name="comma" unicode="," horiz-adv-x="208" 
d="M195 34l1 -4q0 -12 -9 -30t-24 -36t-36 -33q-20 -14 -46 -19q-10 0 -12 8q-1 4 2 6t9 2q16 3 30 12q12 8 24 20q11 11 18 22l12 20h-5q-13 0 -21 9q-7 9 -6 22q2 14 12 23t24 9q13 0 21 -8t6 -23z" />
    <glyph glyph-name="hyphen" unicode="-" horiz-adv-x="317" 
d="M309 176h-180v19h180v-19z" />
    <glyph glyph-name="period" unicode="." horiz-adv-x="191" 
d="M186 26h-1q-1 -13 -12 -22q-10 -8 -24 -10q-11 -1 -19 8t-6 21q1 13 12 22q10 8 24 10q12 2 20 -8q8 -9 6 -21z" />
    <glyph glyph-name="slash" unicode="/" horiz-adv-x="529" 
d="M529 566l-497 -647h-27l496 647h28z" />
    <glyph glyph-name="zero" unicode="0" horiz-adv-x="598" 
d="M649 439l2 -1q5 -30 2 -60q-3 -31 -12 -61q-17 -59 -54 -117q-38 -60 -88 -105q-50 -46 -112 -76q-60 -29 -126 -31q-45 -1 -79 9q-34 11 -57 30t-36 45t-18 54q-5 30 0 62q5 33 12 62q17 58 54 117q38 60 88 105q51 46 111 75q60 28 125 30q45 1 78 -9q34 -11 56 -30
q23 -20 36 -45t18 -54zM582 452h-3q-4 20 -12 40q-7 20 -21 33q-14 14 -34 21q-22 8 -51 8q-46 0 -89 -20q-42 -20 -78 -51t-64 -70q-27 -36 -49 -78q-12 -23 -21 -49q-9 -27 -15 -57q-5 -27 -7 -60q-2 -30 3 -57q5 -22 13 -40q9 -19 24 -34q14 -14 37 -22q24 -8 51 -8
q48 2 90 21q43 20 77 51q37 34 62 70q29 42 47 78q12 26 20 51q9 29 15 57q7 31 8 59q1 30 -3 57z" />
    <glyph glyph-name="one" unicode="1" horiz-adv-x="327" 
d="M417 556l-209 -479q-15 -34 -13 -48q1 -13 30 -13h59q5 0 5 -3q0 -4 -1 -6q-2 -4 -4 -6q-3 -3 -6 -3h-266q-8 0 -6 11t9 11h55q29 0 46 16q19 17 32 48l193 426l-147 -111q-8 -7 -24 -15q-18 -8 -39 -8l219 180h67z" />
    <glyph glyph-name="two" unicode="2" horiz-adv-x="541" 
d="M569 453l7 -8q2 -49 -19 -87t-56 -69q-31 -25 -72 -48q-36 -20 -82 -43q-28 -14 -84 -40q-48 -22 -77 -40q-11 -7 -24 -16q-17 -13 -27 -25q-10 -13 -10 -25t26 -18q23 -5 38 -9q11 -3 33 -7q11 -2 35 -4q16 -1 41 -3q18 0 44 3q24 3 51 14t47 27q22 17 29 42q5 13 3 27
t-15 26q-5 5 -3 8q2 4 8 2q7 -2 14 -9q34 -27 28 -72q-4 -31 -21 -52t-40 -33q-22 -11 -53 -16q-29 -5 -59 -3q-29 1 -58 6q-27 4 -49 9l-36 9q-26 6 -39 8q-19 3 -37 3t-33 -6q-5 -1 -13 -6q-6 -4 -10 -11q-10 4 -10 15q0 12 4 23t11 23q6 10 11 17q14 18 44 42
q28 23 57 39q28 17 69 37q38 18 75 39t72 45q36 25 59 54q18 23 30 51q13 30 14 63q2 28 -7 46q-9 19 -24 33q-16 14 -35 20q-21 7 -41 8q-24 2 -46 -4q-21 -5 -46 -17q-31 -16 -51 -44q-19 -26 -25 -62q-3 -14 0 -32t11 -29q2 -2 1 -3t-5 0q-8 1 -12 3q-16 4 -27 26
q-10 21 -9 40q4 45 36 75q32 31 71 47q31 14 66 18q35 5 65 3q27 -1 57 -8q28 -6 48 -19q22 -14 35 -34q14 -21 15 -49z" />
    <glyph glyph-name="three" unicode="3" horiz-adv-x="541" 
d="M529 432l-5 -3q-6 -24 -22 -41q-17 -19 -37 -33q-18 -13 -44 -25q-19 -9 -42 -16q53 -5 81 -25q29 -22 38 -49q9 -29 5 -58t-18 -55q-24 -47 -64 -78q-41 -31 -90 -48q-48 -16 -103 -19q-54 -3 -104 9q-43 11 -63 34q-21 24 -12 60q3 9 14 24q11 13 33 12q-2 -6 -4 -16
q-1 -6 -3 -16q-4 -25 8 -43q11 -17 33 -28q21 -10 48 -15q25 -4 53 -1q35 4 73 20q34 14 64 41q28 25 45 60q17 36 17 77q0 30 -12 50q-12 19 -31 31q-21 13 -43 17q-27 5 -48 5q-24 0 -39 -1t-36 -1q-8 0 -11 3t-1 8q1 4 8 9q5 4 18 4q14 0 58 2q34 2 62 12q22 8 41 21
q20 14 35 32t24 41t6 47q-3 27 -27 42q-25 16 -63 17q-35 0 -65 -12t-55 -34q-19 -19 -27 -42t0 -41q-15 -1 -25 5q-9 6 -12 15q-3 10 -2 21q1 12 9 24q12 23 35 38q22 15 50 24q30 10 55 14q32 5 52 5q22 0 45 -3q21 -3 42 -11q19 -7 34 -21q14 -13 22 -33q9 -26 0 -56z
" />
    <glyph glyph-name="four" unicode="4" horiz-adv-x="477" 
d="M371 220l84 -7q-9 -16 -27 -25t-31 -9h-40l-47 -104q-15 -34 -13 -48q1 -13 30 -13h59q4 0 6 -3t0 -6q-2 -4 -4 -6q-3 -3 -6 -3h-266q-8 0 -6 11t9 11h56q25 0 44 17q18 17 32 47l46 101h-207h-36q-13 0 -16 4t9 16q3 3 41 37l338 290l9 9q5 5 14 8q8 3 26 6q17 3 47 3z
M444 503l-341 -290h210z" />
    <glyph glyph-name="five" unicode="5" horiz-adv-x="478" 
d="M506 556l-6 -7q-10 -25 -22 -41q-14 -18 -36 -15q-27 3 -57 6q-19 2 -57 4q-18 1 -48 1q-22 0 -29 -3l-69 -181q15 2 33 3q24 2 35 3q25 1 60 -2q29 -3 58 -14q26 -10 45 -32q18 -21 21 -57q4 -60 -21 -108q-26 -49 -67 -81q-42 -33 -95 -48q-54 -15 -102 -11
q-31 3 -63 15t-51 37q-13 17 -18 39t6 51q5 11 12 21q8 12 18 20q14 12 21 17q10 7 21 12q4 2 7 3q6 2 7 2h5q2 0 0 -2q-17 -14 -30 -34q-14 -21 -18 -37q-10 -30 -6 -54q4 -23 18 -40q13 -16 35 -24q21 -8 47 -6q46 1 84 21q39 20 65 49q27 30 42 66t15 69q0 34 -16 60
q-16 27 -49 40q-24 10 -55 10q-33 2 -63 -6q-32 -8 -59 -18l117 272h265z" />
    <glyph glyph-name="six" unicode="6" horiz-adv-x="449" 
d="M524 468l-8 4q-4 -8 -14 -15q-8 -6 -22 -4q6 20 -1 39q-11 26 -33 36q-21 10 -51 10q-41 0 -75 -15t-63 -39q-29 -25 -51 -55q-22 -31 -39 -63q-15 -28 -28 -63q-12 -31 -18 -57q23 29 61 51q41 24 82 35q43 12 85 9q43 -3 72 -25q29 -21 36 -54q8 -34 2 -69
q-6 -37 -25 -70q-20 -36 -45 -62q-35 -35 -82 -54t-99 -22q-19 -1 -40 0q-22 2 -40 7q-21 6 -36 16q-17 11 -29 27q-21 31 -24 75t9 92q12 49 36 98q23 47 56 93q22 31 53 63q29 30 62 53q35 24 72 38q40 16 82 17q23 2 45 -3t42 -15q26 -14 33 -34q7 -21 -5 -44zM384 161
l-3 3q12 38 7 69t-22 50q-18 20 -46 27q-28 8 -63 0q-68 -14 -108 -55q-40 -42 -48 -113q-3 -22 2 -48q4 -22 17 -43q11 -18 32 -31q20 -12 47 -12q32 0 62 12t54 33q23 20 42 50q18 29 27 58z" />
    <glyph glyph-name="seven" unicode="7" horiz-adv-x="375" 
d="M504 572l-5 -2q19 0 21 -18q1 -18 -24 -37q-2 -1 -6 -3.5t-6 -3.5q-5 -3 -15 -7t-14 -6l-5 -2.5t-4 -1.5q-27 -31 -54 -67q-23 -31 -58 -84q-30 -45 -60 -93t-57 -93q-3 -5 -51 -86q-35 -59 -43 -72q-7 -1 -21 -1q-7 0 -19 -2l-21 -3q-12 -3 -12 6t14 29l347 465
q-27 -2 -47 1q-30 4 -44 6q-23 3 -27 4q-21 4 -36 5q-26 2 -42 2q-23 0 -47 -3q-66 -9 -95 -68q-1 -5 -6 -6q-3 -1 -9 -1q-3 0 -7 2q-3 1 -1 5q12 22 18 32q12 20 19 29q9 12 24 25q14 13 33 20q30 13 57 14q29 1 54 -3t46 -12q14 -5 35 -12q22 -9 47 -15q26 -6 44 -5
q11 13 14 18q7 10 17 20t21 17t25 7z" />
    <glyph glyph-name="eight" unicode="8" horiz-adv-x="492" 
d="M536 435l3 1q-12 -40 -48 -73t-83 -48q51 -19 75 -60t8 -95q-11 -35 -36 -65q-26 -31 -61 -54t-78 -37q-40 -13 -85 -13q-43 0 -78 12q-33 12 -55 35t-29 53t3 66q8 29 27 54q21 27 45 47q26 21 57 36q33 16 66 23q-31 16 -45 47q-14 30 -3 68q7 28 27 52q19 23 47 42
t59 29q33 11 65 11q33 0 57 -10q26 -11 42 -28t22 -42q6 -23 -2 -51zM481 436l-2 -4q6 23 3 44q-3 22 -13 36q-11 15 -27 24t-37 9t-42 -9t-39 -24t-30 -36q-13 -23 -17 -43q-11 -47 12 -78q23 -32 64 -32q21 0 42 9q22 9 38 24q17 15 30 36t18 44zM425 151l-1 2q8 30 3 57
q-5 28 -19 47q-15 19 -39 30q-25 11 -54 11q-31 0 -59 -12t-54 -33q-24 -20 -43 -48q-17 -26 -25 -57q-8 -30 -3 -57q5 -28 19 -47q15 -19 38 -30q24 -11 53 -11q30 0 60 12q28 11 55 32q24 18 43 47q19 28 26 57z" />
    <glyph glyph-name="nine" unicode="9" horiz-adv-x="482" 
d="M504 512l4 -7q21 -31 24 -75t-9 -92q-12 -49 -36 -98q-23 -47 -56 -93q-26 -35 -52 -63t-62 -52q-31 -21 -71 -37q-36 -14 -81 -16q-20 -1 -45 2q-21 3 -42 14q-26 14 -33 34q-8 21 3 44q12 21 37 20q-4 -11 -4 -21q0 -9 3 -18q10 -27 34 -37q23 -10 51 -10q41 0 75 15
t63 39q29 25 51 55q23 33 39 64q19 39 29 64q12 32 18 57q-23 -29 -61 -51t-82 -34q-43 -12 -85 -9q-43 3 -72 25q-28 22 -37 55q-9 32 -1 68q8 35 27 69t45 60q34 34 82 55q49 22 99 23q19 1 40 0q22 -2 40 -7q21 -6 36 -16q17 -11 29 -27zM461 404l-3 -3q3 26 -1 48
q-5 25 -16 42q-12 19 -31 30q-20 12 -46 12q-31 0 -61 -12t-54 -33q-25 -22 -42 -49q-18 -29 -27 -60q-11 -38 -6 -68q5 -31 22 -50q18 -20 46 -27q27 -7 63 -1q67 13 108 57t48 114z" />
    <glyph glyph-name="colon" unicode=":" horiz-adv-x="140" 
d="M219 213l-1 -1q-1 -13 -12 -22q-10 -8 -24 -10q-12 0 -19 9t-6 22q1 12 12 21q10 8 24 10q12 0 20 -8q7 -8 6 -21zM143 25q-1 -13 -12 -22q-10 -8 -24 -10q-12 -2 -20 8q-7 9 -6 21q1 13 12 22q10 8 24 10q12 2 20 -8q7 -9 6 -21z" />
    <glyph glyph-name="semicolon" unicode=";" horiz-adv-x="145" 
d="M219 213l-1 -1q-1 -13 -12 -22q-10 -8 -24 -10q-12 0 -19 9t-6 22q1 12 12 21q10 8 24 10q12 0 20 -8q7 -8 6 -21zM138 33l1 -4q0 -12 -9 -30t-24 -36t-36 -33q-20 -14 -46 -19q-10 0 -12 8q-1 4 2 6t9 2q17 3 30 12q12 8 24 20q11 11 18 22l12 20h-5q-14 0 -21 9t-6 22
q2 14 12 23q11 9 24 9t21 -8t6 -23z" />
    <glyph glyph-name="less" unicode="&#x3c;" horiz-adv-x="423" 
d="M276 64q3 -3 3 -6t-3 -6q-2 -2 -7 -4q-4 -1 -7 0l-202 130q-11 8 -11 21t17 30l198 196q6 6 12 -3t0 -15l-180 -200z" />
    <glyph glyph-name="equal" unicode="=" horiz-adv-x="370" 
d="M370 241h-218v20h218v-20zM331 151h-217v21h217v-21z" />
    <glyph glyph-name="greater" unicode="&#x3e;" horiz-adv-x="423" 
d="M365 294l1 -3q11 -8 11 -21q0 -14 -15 -29l-199 -196q-6 -6 -12 3t0 15l180 200l-181 144q-3 1 -3 6q0 4 3 7q4 4 6 5q3 1 6 0z" />
    <glyph glyph-name="question" unicode="?" horiz-adv-x="371" 
d="M178 26h-2q-1 -12 -11 -22q-9 -8 -22 -10q-13 -1 -21 8t-6 21q1 13 12 22q10 8 24 10q12 2 20 -8q8 -9 6 -21zM190 206l1 2q21 21 48 42t57 42q31 22 58 43q30 24 51 46q22 23 36 50q14 26 14 56q0 41 -25 63q-26 23 -69 23q-35 0 -63 -9q-29 -9 -49 -25q-21 -16 -33 -41
q-12 -24 -12 -54q0 -12 1 -18q2 -10 4 -15q1 -3 -3 -4t-9 0q-14 5 -20 18t-6 30q0 35 18 59t47 39q26 14 62 22q31 7 63 7q30 0 57 -6q28 -6 47 -18q20 -12 32 -32t12 -48q0 -41 -22 -69q-23 -29 -55 -51q-35 -24 -70 -42t-67 -39q-12 -9 -34 -25q-15 -11 -28 -27
q-11 -14 -19 -33q-8 -18 -6 -42q-7 -11 -18 -13q-10 -1 -15 0q-16 10 -10 30t25 39z" />
    <glyph glyph-name="at" unicode="@" horiz-adv-x="826" 
d="M878 241l-9 -8q-68 -147 -187 -225q-120 -78 -281 -78q-65 0 -120 18t-96 51q-40 33 -63 83q-22 48 -22 111q0 42 10 81t29 80q17 37 44 72q25 33 57 60q36 31 75 53q43 24 84 38q46 16 89 23q48 8 87 8q85 0 142 -24t87 -63t36 -90t-12 -103t-57 -102q-40 -50 -97 -87
q-38 -24 -76 -39q-39 -15 -68 -12q-28 3 -42 30t0 87v9q-12 -19 -33 -43t-40 -39q-31 -23 -56 -25q-24 -1 -39 14q-14 14 -19 44q-4 27 5 61q32 113 129 182q16 12 44 22q25 9 54 12q26 3 55 -2q26 -4 46 -20l-9 -5q-21 11 -45 13q-22 2 -45 -6q-21 -7 -43 -21
q-21 -13 -39 -33q-35 -37 -60 -80q-24 -42 -33 -74q-2 -9 -4 -25q-2 -13 0 -24t6 -18t15 -7q21 0 45 21q21 18 46 50q20 25 40 57q26 41 28 44q2 4 9.5 14.5t10.5 16.5q8 13 20 27q11 13 24 20q14 8 33 12l22 5q-18 -23 -23 -30q-14 -19 -23 -36q-7 -13 -21 -37
q-10 -18 -18 -33q-5 -12 -9 -25q-6 -20 -9 -31t-7 -33q-2 -11 -4 -31q-1 -19 12 -24q13 -4 32 -1t38 12q14 7 33 17q44 29 77 72t51 93q18 51 17 99q-1 49 -24 90q-22 40 -71 66t-125 26q-39 0 -81 -9q-38 -8 -82 -26q-40 -16 -78 -42q-39 -26 -69 -58q-23 -24 -42 -54
q-19 -29 -34 -64q-15 -34 -24 -72t-9 -73q0 -59 21 -104q21 -44 57 -76q35 -31 84 -46q48 -15 102 -15q70 0 133 21t116 59q54 38 95 90t70 115q3 8 10 9q8 2 14 0q7 -2 11 -6q5 -4 3 -9z" />
    <glyph glyph-name="A" unicode="A" horiz-adv-x="804" 
d="M837 684l-2 -2q-51 -51 -96 -111t-90 -126q-19 -27 -43 -66q-14 -23 -42 -71h22h61q39 0 71 4q20 52 42 105q21 50 48 100q26 49 52 88q26 38 53 69q-13 1 -41 5zM-70 -259l-18 -17q62 0 111 18q47 17 91 50q41 30 79 75q35 41 75 95q55 72 104 152q46 76 105 163
q-13 0 -23 1q-15 2 -33 3q-12 1 -38 3q-13 1 -36 1q-58 0 -105 -10q-51 -11 -90 -37q-15 -10 -31 -32q-15 -21 -21 -45q-6 -25 -2 -48q4 -24 25 -40q2 -3 -1 -6t-6 -1q-27 19 -40 47q-12 26 -10 56q1 27 14 54q12 25 33 42q37 26 82 35q49 9 97 8q66 -2 99 -4q66 -4 99 -5
q5 8 47 66q23 31 42 57q57 72 96 119q52 63 105 116l17 16q-46 7 -72 13q-31 7 -59 12q-48 10 -113 21q-76 13 -131 20q-68 9 -135 15t-126 6q-88 0 -144 -29t-83 -72t-27 -94q0 -50 23 -94q22 -43 66 -72t104 -29q6 0 6 -7t-16 -7q-63 0 -111 33t-75 82t-30 107
q-3 57 26 107q28 48 92 82q63 33 167 33q65 0 129 -6q58 -5 126 -17q48 -8 122 -23q98 -20 116 -23q56 -12 74 -16q34 -8 93 -19l8 7q87 78 186 125q102 49 227 50q48 2 92 -12t78 -43q20 -19 29 -42q9 -24 6 -53q-3 -27 -17 -60q-13 -30 -39 -61q-3 -4 -7 -1t0 7
q24 29 33 57q9 27 7 54q-2 26 -13 46q-13 22 -28 36q-30 27 -69 39q-41 12 -83 11q-122 -2 -215 -45q-94 -44 -170 -117q13 -3 39 -7q12 -2 38 -4h1q21 17 48 29q28 12 51 15q26 3 35 -4q9 -8 5 -16q-3 -8 -13 -15q-11 -8 -28 -12q-20 -4 -45 -6t-51 0q-23 -27 -46 -69
q-22 -41 -42 -87q-24 -57 -38 -97q-18 -51 -33 -102q23 5 42 9t33 12q11 5 11 -1t-7 -10q-28 -17 -85 -26q-11 -43 -14 -55l-12 -54q-2 -8 -10 -45q-5 -25 -12 -62q-6 -33 -9 -69t0 -66q3 -32 13 -53q11 -23 33 -30q22 -9 48 5t42 39q5 9 15 29q7 14 12 32q3 8 6 9q3 2 6 -1
q3 -2 4 -7t0 -9q-7 -25 -16 -45q-12 -25 -25 -41q-20 -24 -48 -33t-57 -1q-36 9 -57 30t-30 51t-9 64q0 35 6 69q5 27 14 66q7 32 15 57q5 19 17 57t19 57q-28 -2 -82 -4q-28 -1 -77 -1q-92 -152 -121 -198q-58 -94 -126 -174q-36 -41 -78 -79q-40 -36 -87 -63t-99 -42
t-112 -15q-73 0 -120 22t-73 57q-25 34 -31 77q-6 42 6 83q12 40 41 75t72 53q20 8 50 13q27 5 54 3q25 -1 51 -11q24 -9 39 -27q3 -3 3 -9q0 -5 -4 -1q-13 18 -38 27q-24 9 -51 9q-29 0 -54 -7q-27 -7 -48 -21q-41 -26 -63 -58t-28 -69q-6 -36 3 -72q9 -35 35 -63
q26 -27 65 -44q40 -17 93 -17z" />
    <glyph glyph-name="B" unicode="B" horiz-adv-x="828" 
d="M155 -95l-6 -7q-55 25 -90 62q-35 36 -51 75t-15 78q2 40 18 71t47 54q30 22 74 27q30 4 63 -5q32 -9 42 -25q5 -9 2 -12t-7 2q-13 16 -45 19q-30 3 -57 -5q-46 -15 -73 -54q-27 -38 -25 -87q1 -47 32 -97q29 -48 98 -85l11 -6l26 36q45 63 83 126q35 59 78 134
q14 24 37.5 66.5t32.5 58.5q33 59 60 99q15 23 44.5 66.5t38.5 57.5q42 63 92 119q5 6 6 9q2 4 3 5q-50 23 -105 39q-56 17 -109 27q-62 12 -103 17q-49 6 -88 6q-130 0 -208 -30t-114 -75t-36 -96q0 -50 26 -96q25 -45 69 -75t96 -30q11 0 5 -6t-12 -6q-46 0 -85 19
q-40 19 -70 51t-48 72t-18 82q0 43 19 82q19 40 63 72t112 51q67 19 170 19q68 0 129 -10q66 -11 122 -27q59 -17 107 -36q57 -22 86 -37l12 13q38 41 84 79t94 62q36 18 73 29q41 12 82 15q42 3 83 -6t72 -37q20 -17 30 -40t10 -51q0 -26 -9 -58t-27 -63q-4 -4 -9 -1
q-4 3 -1 8q18 28 24 57q6 30 2 54q-5 27 -16 47q-11 19 -29 34q-28 22 -63 29q-38 8 -73 5q-40 -3 -75 -13q-40 -11 -69 -25q-53 -25 -95 -61q-46 -39 -84 -82q57 -29 90 -63t45 -72t5 -73q-8 -36 -30 -66t-61 -52q-38 -22 -90 -31q35 -3 65 -15q32 -13 53 -31
q23 -20 36 -48q13 -27 13 -64q0 -57 -21 -102q-21 -46 -57 -80q-35 -34 -83 -60q-46 -25 -98 -42q-51 -16 -102 -24q-48 -7 -96 -7q-78 0 -150 20q-25 -26 -46 -45q-23 -20 -49 -37q-23 -15 -54 -28q-28 -12 -63 -18q-15 -3 -36 -3t-40 3q-17 3 -37 11q-18 8 -27 21
q-10 14 -7 36q3 20 17 33q10 10 13 6q-8 -27 1 -46t27 -31q17 -11 42 -16q23 -4 47 -1q23 3 48 21t48 39q16 15 40 41q9 9 25 29zM761 190l-1 -3q0 53 -30 86q-29 32 -84 43q-3 -2 -18 -7q-10 -3 -30 -7q-37 -7 -57 -1q-19 6 -24 17q-5 10 8 23q12 12 37 15q20 2 42 -3
q18 -3 40 -11q30 2 56 19q28 18 48 46q21 29 33 64t7 72t-28 71q-24 34 -72 60q-42 -49 -81 -110q-34 -52 -73 -123q-36 -65 -72 -135q-24 -47 -72 -143q-35 -69 -77 -143q-41 -70 -87 -132q35 -10 66 -14q38 -5 71 -5q67 0 138 21q73 22 128 61q57 41 95 101q37 59 37 138z
" />
    <glyph glyph-name="C" unicode="C" horiz-adv-x="958" 
d="M923 728h-5q62 0 104 -17q41 -17 59 -42t15 -55t-28 -55q-26 -25 -72 -42q-48 -17 -114 -17q-70 0 -150 30q-78 29 -161 74q-66 -41 -126 -98q-59 -56 -102 -120t-69 -137q-25 -71 -25 -147q0 -48 15 -92t51 -75q32 68 84 133q50 64 116 114q65 50 138 81t153 36
q89 5 129 -25t40 -78q0 -47 -38 -105q-38 -57 -104 -107q-67 -50 -158 -83t-201 -33q-42 0 -80 6q-35 6 -72 20q-15 -39 -21 -84q-6 -46 1 -82q8 -38 30 -63t68 -25q6 0 2 -4t-10 -4q-53 0 -78 28q-26 29 -33 70q-8 42 0 89q7 44 23 84q-63 35 -90 87t-27 116q0 86 27 162
q27 77 75 143q49 67 112 120q66 55 138 95l-99 54q-47 26 -98 48q-45 20 -96 34q-46 13 -93 13q-46 0 -86 -13q-42 -14 -75 -39t-54 -63t-21 -87q0 -34 14 -70q13 -34 39 -61q24 -26 62 -43q35 -16 83 -16q5 0 7.5 -2t1.5 -6q-2 -8 -15 -8q-50 0 -93 20q-41 19 -70 51
t-44 72t-15 83q0 55 23 96q22 41 60 66t84 39q45 13 95 13q51 0 104 -15t105 -39t105 -54q35 -20 103 -60q86 43 177 66q94 23 180 23zM819 277l-1 -2q-51 1 -118 -21q-65 -22 -136 -68q-68 -44 -132 -113q-62 -67 -103 -154q58 -40 141 -40q89 0 168 29q78 28 138 72t98 95
q38 52 47 96q9 45 -15 75q-24 29 -87 31zM914 711l-1 -2q-79 0 -162 -24t-159 -69q76 -45 153 -75t146 -30q50 0 86 15q37 16 56 37q20 23 23 48q3 26 -10 48q-13 21 -47 37q-33 15 -85 15z" />
    <glyph glyph-name="D" unicode="D" horiz-adv-x="939" 
d="M222 -117l-9 -7q-25 -26 -46 -45q-23 -20 -49 -37q-23 -15 -54 -28q-28 -12 -63 -18q-15 -3 -36 -3t-40 3q-17 3 -37 11q-18 7 -27 21q-10 14 -7 36q3 20 17 33q10 10 13 6q-8 -27 1 -46t27 -31q17 -11 42 -16q23 -4 47 -1q23 3 48 21t48 39q16 15 40 41q9 9 25 29l-11 5
q-55 25 -90 62q-35 36 -51 75t-15 78q2 40 18 71t47 54q30 22 74 27q30 4 63 -5q32 -9 42 -25q5 -9 2 -12t-7 2q-13 16 -45 19q-30 3 -57 -5q-46 -15 -73 -54q-27 -38 -25 -87q1 -47 32 -97q29 -48 98 -85l11 -6l26 36q45 63 83 126q35 59 78 134q14 24 37.5 66.5t32.5 58.5
q33 59 60 99q15 23 44.5 66.5t38.5 57.5q42 63 92 119q5 6 6 9q2 4 3 5q-50 23 -105 39q-56 17 -109 27q-62 12 -103 17q-49 6 -88 6q-131 0 -211 -30t-117 -73t-37 -96q0 -52 26 -96q25 -43 72 -73q46 -30 103 -30q7 0 8 -9t-12 -9q-45 0 -87 20q-41 20 -71 51t-48 72
t-18 83q0 44 19 83q20 41 63 72t113 51q71 20 170 20q68 0 129 -10q66 -11 122 -27q59 -17 107 -36q57 -22 86 -37l12 13q38 41 84 79t94 62q36 18 73 29q41 12 82 15q42 3 83 -6t72 -37q20 -17 30 -40t10 -51q0 -26 -9 -58t-27 -63q-4 -4 -9 -1q-4 3 -1 8q18 28 24 57
q6 30 2 54q-5 27 -16 47q-11 19 -29 34q-28 22 -63 29q-38 8 -73 5q-40 -3 -75 -13q-40 -11 -69 -25q-53 -25 -95 -61q-46 -39 -84 -82q89 -47 147 -106q59 -60 87 -127q29 -69 29 -138q0 -72 -25 -137q-26 -66 -75 -126q-48 -58 -122 -103q-72 -44 -166 -69
q-96 -26 -207 -26q-78 0 -150 20zM684 674l2 -1q-42 -49 -81 -110q-34 -52 -73 -123q-36 -64 -72 -135q-24 -47 -72 -143q-35 -69 -77 -143q-41 -71 -87 -132q35 -10 66 -14q38 -5 71 -5q93 0 177 26q82 26 147 69t111 102t72 123q25 64 30 134q4 69 -18 133q-23 65 -70 121
q-49 58 -126 98z" />
    <glyph glyph-name="E" unicode="E" horiz-adv-x="879" 
d="M850 105l-8 4q-32 -48 -86 -91q-52 -41 -116 -72q-61 -29 -132 -46q-67 -16 -135 -16q-44 0 -84 8q-36 7 -69 23q-12 -36 -14 -43q-7 -23 -8 -43q-5 -40 4 -69q9 -30 27 -48q17 -17 44 -22q26 -5 56 6q7 2 8 -4t-4 -7q-33 -13 -64 -10q-29 3 -52 21t-33 51t-6 78
q6 54 25 99q-45 27 -69 68q-24 40 -27 87q-3 45 17 96q20 50 61 96q42 47 105 84q64 38 149 62q-25 16 -40 40t-15 58q0 27 11 54q10 24 29 48q20 25 40 41q25 20 45 32q-27 11 -83 31q-42 15 -87 27q-40 11 -93 19q-45 7 -97 7q-46 0 -86 -13q-42 -13 -75 -39t-54 -63
t-21 -87q0 -38 13 -71q14 -36 37 -62t59 -43q33 -16 78 -16q6 0 6 -6t-6 -6q-46 0 -88 20q-41 20 -69 52q-29 33 -45 73q-16 39 -16 83q0 55 23 96q23 40 60 66t84 39q45 13 95 13q56 0 108 -9q51 -9 100 -24q52 -16 93 -34q30 -13 88 -39q63 34 134 48q73 14 143 14
q52 0 84 -13q33 -13 51 -33q17 -19 19 -42q2 -22 -12 -42t-42 -33q-27 -13 -72 -13q-36 0 -70 7q-39 8 -73 19q-35 11 -76 27q-8 3 -79 32q-20 -13 -39 -32t-32 -39q-12 -19 -22 -45q-9 -24 -9 -50q0 -32 9 -53t26 -35q51 12 94 12q23 0 41 -6t23 -17q4 -10 -2 -16t-16 -9
q-11 -3 -21 -3h-15q-28 0 -51 4q-29 5 -50 13q-71 -19 -122 -49q-54 -32 -90 -70q-37 -38 -58 -82q-20 -42 -25 -85q-4 -41 8 -81q12 -39 40 -67q32 60 83 117t108 101q60 46 122 80q63 35 123 54q78 25 133 19t80 -36q26 -31 20 -81q-6 -51 -48 -114zM817 617l-2 -1
q30 0 51 10q22 10 36 26q13 14 16 33q3 17 -8 33t-36 26q-24 10 -67 10q-27 0 -61 -3q-31 -3 -69 -11q-35 -8 -66 -18t-56 -26q61 -28 134 -55q65 -24 128 -24zM808 120v-1q32 58 35 99q3 42 -18 66q-21 25 -63 29q-41 4 -102 -17q-53 -19 -117 -53q-61 -33 -120 -78
t-108 -99t-81 -114q26 -22 66 -34q39 -12 90 -12q56 0 117 15q59 14 120 44q56 27 106 68q48 39 75 87z" />
    <glyph glyph-name="F" unicode="F" horiz-adv-x="828" 
d="M95 -282l-16 -27q67 0 126 33q60 34 108 85q51 54 92 117q39 60 76 129q31 57 63 122q30 60 51 95h-14q-69 0 -103 1q-46 1 -99 -2q-45 -3 -91 -14q-42 -10 -79 -35q-22 -14 -38 -39q-17 -25 -24 -54q-8 -30 -2 -57q6 -28 30 -48q3 -3 0 -6t-6 -1q-34 22 -48 56
q-14 33 -12 68q1 33 17 66q15 31 41 51q29 21 61 33q31 11 69 16q32 4 75 4q40 0 80 -3l153 -12q22 41 62 106q29 48 66 103q33 49 66 90t63 66q-50 5 -102 15q-30 6 -93 20q-48 10 -113 21q-76 13 -131 20q-67 9 -135 15t-126 6q-88 0 -146 -29q-56 -28 -85 -72
q-28 -43 -30 -95q-2 -51 21 -95q22 -43 65 -72t101 -29q6 0 6 -6t-6 -6q-63 0 -111 33t-75 82t-30 107q-3 57 26 107q28 48 92 82q63 33 167 33q65 0 129 -6q58 -5 126 -17q48 -8 122 -23q98 -20 116 -23q7 -2 22.5 -5t23.5 -5q27 -6 57 -12q20 -4 62 -12q21 -4 63 -10
q14 17 38 29q25 13 43 14q19 3 29 -5q9 -7 6 -18q-3 -18 -34 -28q-14 -5 -28 -6q-15 -2 -32 0q-28 -23 -57 -61q-25 -33 -61 -89q-28 -44 -61 -105q-30 -56 -57 -111q7 -1 23 -1h23q15 -1 54 -1q31 0 64 3q8 15 15 23q10 12 15 17q15 16 27 21t18 0q5 -4 4 -16t-15 -27
q-9 -10 -24 -18q-16 -8 -28 -12q-7 -11 -16 -30q-8 -16 -12 -33q-4 -16 -6 -32q-2 -15 0 -27q1 -7 -3 -7q-5 0 -6 7q-7 19 -1 54q6 33 23 66q-39 -4 -87 -4h-78q-3 -6 -9 -19t-10 -20q-9 -18 -19 -43q-6 -15 -18 -43q-4 -11 -17 -38q-30 -61 -55 -109q-30 -57 -61 -102
q-33 -48 -70 -88t-82 -70q-44 -29 -99 -46q-52 -16 -117 -16q-69 0 -111 21t-58 52q-17 32 -12 68q5 37 27 68t60 52q37 21 86 21q27 0 57 -6q31 -6 47 -22q4 -3 4 -7t-5 -1q-15 17 -43 21q-32 5 -54 5q-47 0 -78 -18t-49 -46q-17 -28 -19 -60t13 -60t48 -46t85 -18z" />
    <glyph glyph-name="G" unicode="G" horiz-adv-x="892" 
d="M565 673l-5 -16q92 38 188 56q98 18 195 18q94 0 136 -30q41 -30 40 -70q-2 -20 -13 -39q-12 -20 -37 -36q-26 -17 -64 -27q-37 -10 -91 -10q-44 0 -87 10q-44 10 -91 27q-46 16 -90 36q-28 12 -81 38q-90 -49 -160 -117q-69 -67 -111 -141t-57 -145q-15 -73 -2 -130
q13 -58 56 -96q42 -37 117 -42q80 -5 160 40q81 45 150 132q48 59 88 129q39 68 72 138q8 16 14 23q6 6 17 4q10 -1 0 -46q-10 -43 -42 -142q-25 -81 -54 -165q-30 -88 -61 -163q-32 -78 -75 -151t-97 -129q-56 -57 -126 -96q-69 -38 -162 -52q-83 -12 -143 0
q-59 12 -100 39q-40 26 -61 66q-20 38 -22 81q-1 41 14 84q15 41 47 75q31 33 78 54t107 21q29 0 59 -3q28 -3 55 -20q4 -3 6 -9q1 -3 0 -3t-4 2q-17 13 -42 17q-28 5 -46 5q-52 0 -93 -18q-40 -18 -70 -48q-29 -29 -46 -68q-17 -38 -18 -76q-1 -39 12 -75q13 -35 44 -61
q29 -25 77 -37q45 -12 113 -1q81 12 144 49q65 37 117 93q51 54 94 126t77 149q36 82 65 161q30 82 60 162l-16 -30q-32 -60 -76 -109q-46 -50 -97 -84t-109 -52q-57 -18 -114 -15q-82 4 -135 45q-52 40 -73 102q-21 61 -10 137t54 152q44 78 118 147q75 71 181 120
q-32 15 -98 43q-48 20 -98 36q-48 15 -96 24t-91 9q-46 0 -86 -13q-42 -14 -75 -39t-54 -63t-21 -87q0 -38 13 -71q14 -36 37 -62t59 -43q33 -16 78 -16q6 0 6 -6t-6 -6q-48 0 -90 20q-41 20 -69 52q-29 33 -45 73q-16 39 -16 83q0 55 23 96q22 41 60 66t84 39q45 13 95 13
q49 0 102 -12t105 -30t105 -42q47 -21 104 -50zM593 640h1q82 -44 165 -75q81 -31 158 -31q50 0 87 14q36 14 57 33t24 44q3 24 -12 44q-15 19 -48 33q-34 14 -86 14q-91 0 -178 -17q-81 -16 -169 -59h1z" />
    <glyph glyph-name="H" unicode="H" horiz-adv-x="850" 
d="M307 -77l-21 -11q-39 -47 -76 -80q-42 -37 -87 -62q-45 -24 -99 -40q-52 -15 -112 -15q-73 0 -120 22t-73 57q-25 34 -31 77q-6 42 6 83q12 40 41 75t72 53q20 8 50 13q27 5 54 3q25 -1 51 -11q24 -9 39 -27q3 -3 3 -9q0 -5 -4 -1q-13 18 -38 27q-24 9 -51 9
q-29 0 -54 -7q-27 -7 -48 -21q-41 -26 -63 -58t-28 -69q-6 -36 3 -72q9 -35 35 -63q26 -27 65 -44q40 -17 93 -17q62 0 111 18t91 51q41 32 79 78q37 44 73 97q19 26 32 48q28 47 35 60q6 10 43 80q39 73 58 107q-83 0 -137 -9q-55 -9 -96 -37q-19 -13 -37 -39
q-18 -25 -27 -54q-9 -27 -7 -57q1 -28 23 -48q3 -2 0 -5t-6 1q-29 23 -38 56t-3 66q6 32 24 61q18 28 43 43t54 24q31 10 62 14q33 4 72 6t86 0q30 52 63 108q27 45 68 106q34 51 69 93q36 43 66 68q-36 5 -75 12q-25 5 -64 14q-36 8 -88 21q-60 15 -100 23q-53 11 -109 18
q-61 8 -115 8q-88 0 -146 -29q-56 -28 -85 -72q-28 -43 -30 -95q-2 -51 21 -95q22 -43 65 -72t101 -29q6 0 6 -6t-6 -6q-63 0 -111 33t-75 82t-30 107q-3 57 26 107q28 48 92 82q63 33 167 33q64 0 118 -9q58 -10 102 -22q53 -15 92 -27q43 -13 87 -24q28 -6 75 -18
q52 -13 93 -20q16 17 39 30t42 15q19 3 29 -5q9 -7 6 -18q-2 -7 -11 -17t-23 -14q-16 -6 -29 -8q-15 -3 -36 0q-27 -24 -58 -64q-33 -42 -63 -91q-32 -51 -63 -108q-29 -53 -58 -112q86 -4 128 -7q63 -4 122 -6q34 72 70 135q39 67 84 129q47 64 93 116q48 54 97 94
q71 58 147 93t150 36q44 1 81 -9t69 -39q18 -16 27 -41q9 -23 7 -51q-2 -27 -12 -57q-10 -29 -32 -60q-3 -4 -6 -1t0 7q19 28 27 56t5 51q-3 26 -13 44q-10 19 -26 33q-29 26 -63 36t-72 9q-72 -3 -136 -29q-61 -24 -118 -68q-54 -41 -102 -98q-43 -52 -85 -119
q-40 -65 -71 -131q-32 -68 -57 -132h1q11 0 20 1q18 2 27 4q11 2 24 8q10 4 12 14q10 0 9 -13q-3 -7 -15 -13t-27 -9q-10 -2 -30 -4q-10 -1 -22 -1h-2q-7 -17 -19 -49q-3 -8 -16 -47q-6 -15 -15 -53q-11 -43 -17 -78q-8 -46 -11 -86q-3 -44 3 -75q6 -34 22 -49
q17 -15 36 -15t39 12q19 12 33 32q19 29 33 63q4 14 9 9t2 -15q-6 -22 -20 -49q-11 -23 -29 -42q-25 -28 -61 -31t-66 18q-29 20 -49 66q-19 44 -13 113q4 58 26 131q21 72 54 146q-82 2 -123 4q-86 4 -130 5q-19 -36 -43 -90q-28 -62 -43 -93q-21 -43 -48 -91
q-25 -45 -59 -86z" />
    <glyph glyph-name="I" unicode="I" horiz-adv-x="384" 
d="M485 -119l-10 -1q0 -28 -12 -52q-11 -22 -32 -43q-22 -22 -43 -35q-27 -17 -46 -27q-12 -7 -15 -1t15 17q16 9 36 21t36 27t27 35t11 40q0 32 -18 54q-18 23 -46 36q-29 14 -64 21q-40 8 -70 11q-34 3 -66 3q-38 0 -51 -1l-52 -6q-41 -5 -88 -9q-64 -6 -103 -8
q-54 -3 -99 0q-44 3 -73 15t-29 37q0 14 9 26t23 12q10 0 18 -5t6 -14q-4 -1 -6 -8q-1 -4 -1 -9q0 -15 15 -23q16 -8 39 -11q27 -3 54 -2q40 2 60 4q27 3 55 6q25 3 42 6q39 24 82 77q42 51 84 117q39 62 84 140q42 73 84 144t84 132q43 63 82 102q-28 6 -86 20t-87 20
q-43 9 -89 15q-45 6 -88 6q-46 0 -86 -13q-42 -13 -75 -39t-54 -63t-21 -87q0 -38 13 -71q14 -36 37 -62t59 -43q33 -16 78 -16q6 0 6 -6t-6 -6q-48 0 -90 20q-41 20 -69 52q-29 33 -45 73q-16 39 -16 83q0 55 23 96q23 40 60 66t84 39q45 13 95 13q49 0 97 -9q46 -9 94 -21
q47 -12 90 -27t87 -27q46 42 105 66t138 24q47 0 69 -19t15 -42q-8 -23 -49 -42t-125 -19q-29 0 -69 5q-35 4 -73 12q-37 -41 -73 -103q-34 -59 -70 -130q-11 -23 -34.5 -70l-35.5 -71q-35 -69 -75 -136q-40 -66 -82 -114q-43 -49 -93 -73q9 1 29 3t29 3q30 4 60 5
q41 2 77 -1q45 -3 81 -10q40 -8 72 -24t51 -42q20 -26 20 -63zM738 805l-1 -2q-66 0 -117 -24q-50 -24 -91 -63q31 -8 63 -12q35 -5 63 -5q65 0 102 17q36 16 45 36q9 19 -8 36t-56 17z" />
    <glyph glyph-name="J" unicode="J" horiz-adv-x="313" 
d="M-258 -131l-3 -3q-73 0 -120 22t-73 57q-25 34 -31 77q-6 42 6 83q12 40 41 75t72 53q20 8 50 13q27 4 54 3q25 -1 51 -11q24 -9 39 -27q3 -3 3 -9q0 -5 -4 -1q-13 18 -38 27q-24 9 -51 9q-29 0 -54 -7q-27 -8 -48 -21q-41 -26 -63 -58t-28 -69q-6 -36 3 -72
q9 -35 35 -63q26 -27 65 -44q40 -17 93 -17q74 0 141 32t123 82q57 51 104 113q45 59 84 122q41 66 81 135q34 58 80 134q38 63 77 119q36 52 74 90q-28 6 -86 20t-88 20q-45 9 -90 15t-88 6q-46 0 -86 -13q-42 -13 -75 -39t-54 -63t-21 -87q0 -38 13 -71q14 -36 37 -62
t59 -43q33 -16 78 -16q6 0 6 -6t-6 -6q-49 0 -91 21t-72 54t-48 75t-18 84q0 56 25 94q25 39 64 64q38 25 87 37q48 12 96 12q49 0 97 -9q46 -9 94 -21q37 -10 90 -26q58 -18 87 -26q15 14 52 27q36 13 78 13q24 0 36 -9t8 -21q-5 -12 -25 -21q-21 -9 -63 -9h-39
q-19 0 -33 2q-36 -39 -69 -96q-35 -61 -66 -121q-37 -72 -66 -133q-32 -66 -69 -130q-37 -66 -95 -132q-55 -62 -125 -115q-66 -50 -144 -82q-75 -31 -153 -31z" />
    <glyph glyph-name="K" unicode="K" horiz-adv-x="701" 
d="M1487 717l3 1q4 -49 -42 -115q-9 -13 -21 -27l-24 -27q-5 -3 -6 0q-2 3 1 6q28 28 40 54q20 37 18 69q-2 38 -27 60q-26 23 -61 30q-59 14 -122 6q-62 -7 -124 -30q-64 -23 -117 -55q-54 -32 -100 -69q-59 -48 -114 -105t-105 -114q-48 -55 -94 -112q-17 -21 -45 -56
t-37 -46q0 -1 1 -1q31 -28 69 -78q12 -15 38.5 -50.5t41.5 -54.5q33 -43 87 -112q45 -57 93 -102q50 -47 97 -74q50 -29 99 -29q37 0 62 14q24 14 36 36t12 51q0 30 -7 57t-21 55q-13 26 -30 46q-14 17 -9 20t15 -7q56 -53 66 -109q11 -57 -12 -104q-22 -47 -72 -75
q-49 -28 -112 -22q-39 4 -77 26q-39 22 -74 54q-34 31 -70 75q-32 39 -64 87q-30 45 -57 87t-48 78q-14 22 -21 34q-11 18 -21 33q-18 25 -19 27q-9 12 -17 20q-9 7 -9 18q0 5 2 7.5t6 1.5q39 50 84 108q34 44 95 120q50 62 105 120q52 55 116 106q45 37 104 69
q57 31 120 54q60 22 128 31q66 9 126 -1q22 -3 39 -10q20 -7 36 -18q17 -11 27 -25q11 -15 12 -33zM748 677l-7 -6q-12 -9 -28 -27q-17 -18 -30 -37l-30 -42q-12 -17 -25 -41q-54 -94 -115 -209q-51 -96 -105 -177q-55 -82 -120 -146q-67 -65 -160 -114q-20 -11 -40 -18
q-21 -8 -42 -12q-30 -4 -64 2q-32 6 -46 32q-8 14 -6 30q1 16 9 28q1 4 5 6q3 1 4 -3q6 -29 24 -46q17 -16 42 -22q23 -6 51 -1t53 15q46 20 89 63q45 45 86 102q39 54 82 126q27 45 79 135q39 67 75 129q38 65 70 108q13 17 25 30q20 22 31 33q22 22 33 32q13 12 32 27
q-68 10 -136 27q-90 22 -135 32q-75 17 -135 26q-71 11 -138 11q-88 0 -146 -29q-56 -28 -85 -72q-28 -43 -30 -95q-2 -51 21 -95q22 -43 65 -72t101 -29q6 0 6 -6t-6 -6q-63 0 -111 33t-75 82t-30 107q-3 57 26 107q28 48 92 82q63 33 167 33q68 0 141 -14q70 -14 141 -33
l141 -39q70 -20 141 -33q17 17 40 30q24 13 44 15q19 3 29 -5q9 -7 6 -18q-3 -13 -15 -21t-27 -12q-13 -4 -33 -4q-22 0 -31 1z" />
    <glyph glyph-name="L" unicode="L" horiz-adv-x="1101" 
d="M150 808v-4q66 0 129 -15t123 -36q68 -24 119 -46q54 -23 116 -48q35 39 72 72q37 32 80 57q40 23 89 37q45 13 101 13t92 -18t49 -46q14 -29 5 -60q-9 -32 -40 -60t-87 -46t-135 -18q-45 0 -97 11q-50 11 -102 27q-50 -69 -93 -150q-48 -90 -84 -160q-44 -87 -79 -151
q-40 -74 -79 -123q60 -28 132 -63q64 -31 149 -64q79 -31 152 -50q77 -20 143 -20q62 0 104 12q44 12 68 34q26 23 38 54t12 69q0 30 -12 59q-13 31 -31 53q-20 25 -43 42t-48 25q-7 3 -10 6t-1 5t6 2q6 0 9 -1q37 -9 66 -28q31 -20 51 -46q21 -27 33 -61t12 -73
q0 -55 -21 -94q-21 -38 -57 -64q-35 -25 -84 -37q-48 -12 -102 -12q-77 0 -156 24q-76 23 -156 59q-72 32 -147 74q-78 43 -129 68q-56 -64 -127 -105q-72 -42 -172 -54q-40 -4 -81 -3q-40 1 -76 12t-66 30q-29 19 -51 50q-32 47 -24 99t60 90q39 28 96 33q55 4 125 -8
q67 -12 141 -36t147 -54q41 56 82 130q41 73 81 150q36 68 86 153q44 74 98 141q-60 21 -113 42q-54 21 -116 42q-54 18 -119 31q-60 12 -121 12q-46 0 -86 -13q-42 -13 -75 -39t-54 -63t-21 -87q0 -38 13 -71q14 -36 37 -62t59 -43q33 -16 78 -16q6 0 6 -6t-6 -6
q-48 0 -90 20q-41 20 -69 52q-29 33 -45 73q-16 39 -16 83q0 55 23 96q23 40 60 66t84 39q45 13 95 13zM256 39l1 -2q-65 30 -139 58q-67 26 -134 40q-65 14 -117 11q-53 -3 -88 -30q-44 -35 -48 -79q-5 -45 21 -84q14 -21 35 -37q18 -14 42 -25q22 -10 47 -15q27 -5 47 -5
q54 -1 104 11q51 13 89 34q40 22 75 54q36 33 65 69zM968 821h-1q-45 0 -83 -13q-41 -14 -75 -37q-37 -25 -68 -57q-34 -36 -62 -72q48 -16 93 -27q43 -10 92 -10q69 0 113 16q46 17 69 40q25 25 29 52q5 29 -7 52q-12 24 -37 40t-63 16z" />
    <glyph glyph-name="M" unicode="M" horiz-adv-x="1062" 
d="M1201 603q-47 -66 -100 -178q-51 -109 -97 -247q-9 -33 -14 -53q-11 -43 -17 -78q-7 -41 -12 -86q-4 -42 2 -75q7 -33 23 -49q15 -15 35 -15q19 0 39 12t33 31q11 13 18 30q10 22 14 33q3 8 6 10q4 2 5 -1q2 -4 2 -7q0 -6 -1 -9q-6 -22 -20 -49q-11 -23 -29 -42
q-25 -28 -60 -31q-34 -3 -66 18t-51 66q-19 44 -13 113q3 38 12 75q8 33 20 71q9 29 23 60q4 9 19 45q27 66 57 120t60 99t57 81q23 31 46 66q8 11 12 5t-3 -15zM307 -77l-20 -10q-36 -41 -78 -79q-41 -36 -87 -63t-99 -42t-112 -15q-73 0 -120 22t-73 57q-25 34 -31 77
q-6 42 6 83q12 40 41 75t72 53q20 8 50 13q27 4 54 3q25 -1 51 -11q24 -9 39 -27q3 -3 3 -9q0 -5 -4 -1q-13 18 -38 27q-24 9 -51 9q-29 0 -54 -7q-27 -8 -48 -21q-41 -26 -63 -58t-28 -69q-6 -36 3 -72q9 -35 35 -63q26 -27 65 -44q40 -17 93 -17q61 0 111 18q47 17 91 50
q41 30 79 75q35 41 75 95q76 101 140 204q69 111 138 209q19 29 48 66t60 75t65 71q34 34 63 53q-37 4 -82 14l-72 16q-45 10 -102 24q-63 15 -118 27q-54 12 -125 22q-63 9 -121 9q-88 0 -146 -29q-56 -28 -85 -72q-28 -43 -30 -95q-2 -51 21 -95q22 -43 65 -72t101 -29
q6 0 6 -6t-6 -6q-63 0 -111 33t-75 82t-30 107q-3 57 26 107q28 48 92 82q63 33 167 33q79 0 158 -16t163 -39q110 -30 164 -45q80 -22 161 -36q19 18 45 32q28 16 50 17q22 3 33 -5q10 -7 7 -18q-1 -8 -12 -19t-27 -15q-15 -5 -37 -7q-21 -1 -43 0q-35 -47 -49 -108
q-13 -60 -18 -123q-3 -42 -7 -126q-3 -63 -18 -117q-10 -42 -33 -84t-54 -72q25 13 41 28q18 17 33 33q17 18 26 33l21 32q12 17 55 83q6 9 26.5 40.5t31.5 48.5q40 60 61 90q35 50 63 86q43 56 84 101q45 50 91 87q48 39 102 69t117 45q31 7 72 12q38 4 81 1t77 -16
q37 -14 59 -40q17 -21 23 -43q6 -25 2 -49q-5 -26 -18 -53q-14 -27 -34 -52q-3 -4 -6 -1t0 6q20 25 28 51t6 50q-1 24 -12 45q-11 22 -25 36q-24 24 -52 35t-63 16q-31 4 -66 1q-36 -3 -63 -10q-64 -14 -117 -45q-54 -32 -98 -75q-48 -47 -86 -97q-41 -54 -81 -114
q-64 -96 -126 -183t-126 -168q-21 -26 -39 -45t-39 -33q-20 -13 -46 -22q-24 -8 -58 -13q-6 -1 -7 3q-2 5 3 8q35 25 56 63q21 39 33 87q6 22 12 59q6 36 15 81t18 93q9 50 21 95q12 48 27 89t33 73q-23 -16 -48 -45q-26 -29 -54 -76q-12 -20 -68 -111l-72 -117
q-24 -39 -72 -115q-30 -48 -69 -106q-24 -36 -60 -88q-23 -34 -47 -61z" />
    <glyph glyph-name="N" unicode="N" horiz-adv-x="1016" 
d="M398 -77l-22 -12q-39 -47 -76 -80q-42 -37 -87 -62q-45 -24 -99 -40q-52 -15 -112 -15q-73 0 -120 22t-73 57q-25 34 -31 77q-6 42 6 83q12 40 41 75t72 53q20 8 50 13q27 4 54 3q25 -1 51 -11q24 -9 39 -27q3 -3 3 -9q0 -5 -4 -1q-13 18 -38 27q-24 9 -51 9
q-29 0 -54 -7q-27 -8 -48 -21q-41 -26 -63 -58t-28 -69q-6 -36 3 -72q9 -35 35 -63q26 -27 65 -44q40 -17 93 -17q62 0 111 18t91 51q45 35 80 76t75 95q21 30 55 87q35 60 66 118q38 72 73 133t78 133q41 68 78 119q38 52 77 90q-37 4 -80 14q-52 12 -79 18q-45 10 -102 24
q-63 15 -118 27q-54 12 -125 22q-63 9 -121 9q-88 0 -146 -29q-56 -28 -85 -72q-28 -43 -30 -95q-2 -51 21 -95q22 -43 65 -72t101 -29q6 0 6 -6t-6 -6q-63 0 -111 33t-75 82t-30 107q-3 57 26 107q28 48 92 82q63 33 167 33q79 0 158 -16t163 -39q110 -30 164 -45
q80 -22 161 -36q19 18 45 32q28 16 50 17q22 3 33 -5q10 -7 7 -18q-1 -8 -12 -19t-27 -15q-26 -10 -72 -9q-14 -20 -20 -51q-5 -28 -7 -67q-1 -32 2 -74q3 -38 9 -71q2 -10 5.5 -31t5.5 -31q8 -44 11 -72q6 -52 8 -73q3 -36 3 -64q-1 -86 -45 -157h1q19 7 42 50
q19 35 49 104q19 43 58 138q25 62 68 154q28 59 52 104q30 56 66 108q35 50 80 99q42 45 95 76q21 12 39 20t46 16q32 8 64 11q37 3 70 -4q35 -8 61 -25q28 -18 38 -51q3 -10 3 -24q0 -18 -1 -27t-5 -25q-3 -11 -9 -19q-4 -4 -9 -1q-4 3 0 9q4 7 9 27q5 21 -1 42
q-8 32 -33 48q-27 17 -57 23q-32 6 -66 3t-60 -12q-41 -13 -75 -41q-43 -33 -82 -82t-72 -102q-31 -50 -60 -104q-41 -77 -47 -89q-46 -88 -68 -132q-33 -66 -63 -123t-57 -102q-26 -43 -50 -72q-13 -16 -34 -31q-20 -14 -43 -19q-6 -2 -8 3q-1 4 3 9q28 30 39 72
q10 42 12 92q0 33 -3 72q-4 55 -7 80q-3 27 -9 79q-4 39 -9 72q-3 24 -6 51q-3 24 -1 56t7 57q6 28 18 52q-59 -84 -105 -172q-46 -90 -90 -180q-35 -72 -89 -175q-46 -87 -103 -156z" />
    <glyph glyph-name="O" unicode="O" horiz-adv-x="1060" 
d="M344 300l6 2q13 48 36 97q24 51 52 93q31 47 67 84q41 42 79 71q-35 14 -105 44q-58 25 -105 41q-53 18 -106 30q-54 12 -109 12q-46 0 -86 -13q-42 -13 -75 -39t-54 -63t-21 -87q0 -38 13 -71q14 -36 37 -62t59 -43q33 -16 78 -16q6 0 6 -6t-6 -6q-48 0 -90 20
q-41 20 -69 52q-29 33 -45 73q-16 39 -16 83q0 55 23 96q23 40 60 66t84 39q45 13 95 13q56 0 114 -14q57 -14 110 -36q60 -25 108 -49q51 -25 110 -51q40 28 83 47t87 33q46 14 87 20q43 6 82 6q51 0 87 -14q34 -13 51 -35q17 -21 15 -45t-21 -45q21 -26 34 -62
q12 -35 15 -73q3 -39 -3 -79q-6 -41 -18 -81q-26 -79 -73 -150q-47 -70 -113 -127q-65 -55 -144 -90t-165 -36q-63 -1 -112 14q-48 15 -81 42t-51 63t-24 77q-8 42 -3 87q4 41 17 88zM533 251l-10 1q0 46 11 98q10 47 32 96q21 46 50 89q28 41 65 75l-59 21q-49 -41 -86 -96
q-40 -60 -65 -109q-17 -32 -30 -72q-15 -44 -23 -84q-10 -46 -11 -87q-2 -44 6 -83q6 -33 19 -60q13 -28 36 -49q22 -21 54 -33t75 -12q81 2 153 39q70 36 130 98q59 61 101 134t63 146q10 35 14 63t4 63q0 31 -6 60q-6 31 -19 53q-22 -13 -56 -21q-35 -8 -77 -8
q-46 0 -94 8q-42 7 -89 20q-37 -36 -67 -82q-30 -47 -51 -96t-33 -99t-12 -91q0 -24 7 -42q7 -19 18 -27q15 -10 9 -12q-5 -1 -15 2q-16 4 -30 32t-14 65zM922 698l-3 -3q37 -4 69 -17q28 -11 52 -32q10 18 9 37t-15 36t-40 27t-67 10q-36 0 -75 -10t-79 -27
q-42 -18 -75 -37q-40 -23 -63 -40q16 -7 29 -11q20 -6 29 -9q49 42 106 62q60 21 123 14zM909 679q-52 6 -98 -13q-47 -20 -87 -57q44 -14 88 -21q42 -7 94 -7q39 0 66 10q29 11 47 27q-19 26 -45 41q-28 16 -65 20z" />
    <glyph glyph-name="P" unicode="P" horiz-adv-x="758" 
d="M652 702l6 -16q-52 21 -99 35q-44 13 -101 25q-49 10 -95 15q-50 5 -81 5q-130 0 -208 -30t-114 -75t-36 -96q0 -50 26 -96q26 -45 69 -75t96 -30q11 0 5 -6t-12 -6q-46 0 -85 19q-40 19 -70 51t-48 72t-18 82q0 43 19 82q20 40 63 72q44 32 112 51q67 19 170 19
q59 0 117 -9q62 -10 112 -22q59 -15 101 -31q56 -22 84 -34l18 -6t21 -9q40 39 84 72t93 57q35 16 78 30q42 13 88 16t88 -7q43 -11 78 -39q42 -34 42 -95t-40 -125q-5 -4 -9 0t0 9q19 29 25 60q6 29 1 57q-4 27 -18 48q-15 23 -31 35q-29 23 -66 30t-78 6t-81 -12t-75 -27
q-18 -8 -48 -23q-21 -11 -39 -24q-20 -15 -36 -31q-18 -18 -40 -43q25 -11 55 -30q29 -19 51 -43q23 -26 36 -55q14 -30 12 -66q-2 -66 -34 -116q-33 -52 -82 -87q-51 -37 -109 -56q-62 -20 -115 -20q-25 0 -49 3q-22 3 -47 11q-17 -42 -44 -97q-25 -49 -49 -88
q-27 -43 -51 -74q-26 -33 -48 -54q-46 -45 -104 -72q-55 -26 -119 -34q-10 -1 -34 -1q-17 0 -37 5q-17 4 -34 12q-16 7 -25 21q-10 16 -7 37t17 32q10 9 12 4q-7 -25 0 -45q7 -19 24 -31q17 -13 39 -17t45 -3q46 3 86 30q42 28 75 64q38 42 69 91q31 51 60 105q19 36 55 108
q22 44 56 103q57 98 118 189q64 96 144 177zM818 462l-2 -2q2 30 -6 60q-8 32 -22 56q-16 27 -36 47q-21 21 -46 33q-42 -45 -78 -97q-41 -58 -71 -111q-37 -63 -62 -114q-24 -48 -49 -107q47 -12 90 -11q45 1 96 20q48 18 90 50q39 30 67 77q28 46 29 99z" />
    <glyph glyph-name="Q" unicode="Q" horiz-adv-x="1039" 
d="M344 300h-5q28 96 89 189q60 91 146 156q-35 14 -105 44q-58 25 -105 41q-53 18 -106 30q-54 12 -109 12q-46 0 -86 -13q-42 -13 -75 -39t-54 -63t-21 -87q0 -38 13 -71q14 -36 37 -62t59 -43q33 -16 78 -16q6 0 6 -6t-6 -6q-48 0 -90 20q-41 20 -69 52q-29 33 -45 73
q-16 39 -16 83q0 55 23 96q23 40 60 66t84 39q45 13 95 13q56 0 114 -14q57 -14 110 -36q60 -25 108 -49q51 -25 110 -51q40 28 83 47t87 33q46 14 87 20q43 6 82 6q54 0 87 -13q35 -14 51 -34q17 -21 15 -45t-21 -45q21 -26 34 -62q12 -35 15 -73q3 -39 -3 -79
q-6 -43 -19 -81q-17 -54 -45 -104q-29 -51 -66 -96q-38 -45 -83 -83q-43 -36 -96 -64l11 -10q44 -40 86 -87q42 -46 93 -94q48 -45 96 -75q47 -30 93 -25q31 3 51 24t18 63q0 17 -4 33q-4 18 -12 36t-18 33q-12 17 -22 26q-4 5 0 6t9 -3q18 -13 29 -28q13 -18 21 -34t13 -36
q4 -16 4 -34q0 -28 -9 -51q-9 -22 -24 -37t-36 -24t-43 -12q-40 -4 -79 8q-37 12 -70 36t-63 57t-60 69q-20 24 -58 72q-25 32 -57 67q-80 -35 -163 -36q-63 -1 -112 14q-48 15 -81 42t-51 63t-24 77q-8 42 -3 87q4 41 17 88zM679 608l-11 4q-9 3 -29 9t-29 9
q-49 -41 -86 -96q-39 -57 -66 -109q-16 -31 -30 -72q-15 -44 -23 -84q-10 -46 -11 -87q-2 -44 6 -83q6 -33 19 -60q13 -28 36 -49t54 -33t75 -12q41 2 75 10q35 9 71 26q-12 12 -18 17q-12 10 -19 15q-31 22 -61 31q-31 9 -54 -1q-6 -1 -7 3t3 9q23 14 50 14q28 0 57 -13
q20 -8 44 -23q23 -13 42 -30q48 29 90 69q39 38 76 89q35 48 60 99q24 49 40 102q10 35 14 63q5 35 5 63q0 32 -6 60q-6 31 -19 53q-22 -13 -56 -21q-35 -8 -78 -8q-46 0 -94 8q-40 7 -90 20q-37 -36 -67 -82t-51 -96t-33 -99t-12 -91q0 -24 7 -42q7 -20 18 -27
q15 -11 9 -12q-5 -1 -15 2q-16 4 -30 32t-14 65q0 46 11 98q10 47 32 96q21 46 50 89q28 41 65 75zM1032 649l-1 -1q9 17 7 38q-2 20 -15 35q-14 16 -40 26t-67 10q-36 0 -75 -10t-79 -27q-42 -18 -75 -37q-37 -21 -61 -40l57 -21q49 41 105 62q58 21 122 14q37 -4 69 -17
q30 -12 53 -32zM713 612l-1 -2q38 -11 89 -19q42 -7 93 -7q39 0 66 10q29 11 47 27q-17 26 -44 41q-28 16 -65 20q-52 6 -97 -13q-46 -19 -88 -57z" />
    <glyph glyph-name="R" unicode="R" horiz-adv-x="762" 
d="M1159 -97l1 -14q8 -41 -3 -69t-30 -45q-26 -23 -62 -34q-33 -10 -72 -10q-36 0 -74 8q-33 7 -66 20q-71 29 -134 81q-60 50 -115 116q-49 59 -94 131q-40 64 -70 126q-17 -42 -44 -97q-25 -49 -49 -88q-27 -43 -51 -74q-26 -33 -48 -54q-46 -45 -104 -72
q-55 -26 -119 -34q-10 -1 -34 -1q-17 0 -37 5q-17 4 -34 12q-16 7 -25 21q-10 16 -7 37t17 32q10 9 12 4q-7 -26 0 -45t24 -31q17 -13 39 -17q22 -5 45 -3q46 3 86 30q42 28 75 64q38 42 69 91q31 51 60 105q19 36 55 108q22 44 56 103q57 98 118 189q64 96 144 177l-34 16
q-52 21 -99 35q-44 13 -101 25q-49 10 -95 15q-50 5 -81 5q-130 0 -208 -30t-114 -75t-36 -96q0 -50 26 -96q26 -45 69 -75t96 -30q11 0 5 -6t-12 -6q-46 0 -85 19q-40 19 -70 51q-30 31 -48 72t-18 82q0 43 19 82q20 41 63 72q44 32 112 51q67 19 170 19q59 0 117 -9
q62 -10 112 -22q59 -15 101 -31q56 -22 84 -34q6 -1 18 -6t21 -9q40 39 84 72t93 57q35 17 78 30q42 13 88 16t88 -7q43 -10 78 -39q42 -35 42 -95q0 -61 -40 -125q-5 -5 -9 0t0 9q19 29 25 60q6 29 1 57q-4 27 -18 48q-15 23 -31 35q-29 22 -66 30t-78 6t-81 -12t-75 -27
q-18 -8 -48 -23q-21 -10 -39 -24q-20 -15 -36 -31q-18 -17 -40 -43q25 -11 55 -30q29 -19 51 -43q23 -26 36 -55q14 -30 12 -66q-2 -66 -34 -116q-33 -52 -82 -87q-51 -37 -109 -56q-62 -20 -115 -20q-34 0 -67 6q19 -28 78 -112q42 -60 93 -117t108 -105q56 -47 121 -73
q23 -10 56 -18q28 -7 66 -10q35 -3 66 3t54 26q34 28 34 90q0 13 -3 25q-3 10 -8 23q-2 5 0 8t9 -3q7 -7 13 -22t9 -33zM813 464l-2 -2q1 30 -6 60q-8 32 -22 56q-16 27 -36 47q-21 21 -46 33q-42 -45 -78 -97q-41 -58 -71 -111q-37 -63 -62 -114q-24 -48 -49 -107
q47 -12 90 -11q45 1 96 20q48 18 90 50q39 30 67 77q28 46 29 99z" />
    <glyph glyph-name="S" unicode="S" horiz-adv-x="697" 
d="M588 656h-1q55 -27 108 -45t102 -18q51 0 76 23q24 23 21 50q-3 28 -33 50q-31 23 -84 23q-55 0 -108 -18q-52 -18 -81 -65zM601 182l4 -4q0 41 -10 80q-11 40 -24 81l-27 82q-12 37 -19 80q-6 37 -1 77q4 38 27 72q-16 7 -46 21t-44 20q-51 23 -96 38q-49 17 -102 27
q-55 11 -106 11q-46 0 -86 -13q-42 -14 -75 -39t-54 -63t-21 -87q0 -38 13 -71q14 -36 37 -62t59 -43q33 -16 78 -16q6 0 6 -6t-6 -6q-48 0 -90 20q-41 20 -69 52q-29 33 -45 73q-16 39 -16 83q0 55 23 96t60 66t84 39q45 13 95 13q59 0 111 -13q54 -14 105 -33
q47 -18 99 -44q64 -32 95 -47q41 49 99 65q60 17 117 17q46 0 78 -12q33 -13 50 -31q18 -19 21 -42q3 -22 -11 -42q-13 -19 -45 -31q-31 -12 -81 -12q-48 0 -101 17q-51 17 -108 42q-15 -33 -13 -69q1 -32 14 -70q11 -34 30 -73q16 -32 34 -76q19 -44 29 -79q12 -40 12 -81
q0 -80 -33 -146q-33 -65 -92 -114q-59 -48 -136 -75q-78 -27 -166 -27q-62 0 -111 17q-47 16 -79 45t-48 66q-16 36 -16 81q0 56 21 105t57 90t81 72q46 32 92 50q48 19 92 23q46 5 81 -7q36 -12 57 -42t21 -79q0 -34 -12 -67t-33 -63q-20 -29 -47 -54q-26 -25 -53 -41
q-29 -18 -63 -31q-31 -12 -62 -18q-28 -6 -57 -4q-26 1 -46 9q-5 2 -3 5t6 2q17 -3 45 -1q25 1 54 9q23 6 58 20q29 11 58 30q24 16 48 39q26 24 44 48q20 26 32 56t12 61q0 46 -19 71q-20 26 -51 35t-72 3q-39 -6 -81 -26q-39 -19 -81 -50q-41 -30 -72 -69q-32 -40 -51 -85
t-19 -97q0 -37 12 -70q12 -32 38 -57q25 -24 65 -39q39 -15 93 -15q79 0 144 27t111 73t72 107q25 59 25 126z" />
    <glyph glyph-name="T" unicode="T" horiz-adv-x="768" 
d="M720 301l-5 -8q-37 -83 -88 -165q-52 -84 -120 -154q-67 -69 -153 -114t-189 -45q-73 0 -120 22t-73 57q-25 34 -31 77q-6 42 6 83q12 40 41 75t72 53q20 8 50 13q27 5 54 3q25 -1 51 -11q24 -9 39 -27q3 -3 3 -9q0 -5 -4 -1q-13 18 -38 27q-24 9 -51 9q-29 0 -54 -7
q-27 -7 -48 -21q-41 -26 -63 -58t-28 -69q-6 -36 3 -72q9 -35 35 -63q26 -27 65 -44q40 -17 93 -17q84 0 149 37q68 39 119 94q54 59 95 126q39 63 78 134l45 85q24 47 51 96t57 99q27 45 62 93l18 24q-97 23 -177 48q-90 29 -156 47q-78 21 -157 36q-81 15 -178 15
q-88 0 -146 -29q-56 -28 -85 -72q-28 -43 -30 -95q-2 -51 21 -95q22 -43 65 -72t101 -29q6 0 6 -6t-6 -6q-63 0 -111 33t-75 82t-30 107q-3 57 26 107q28 48 92 82q63 33 167 33q87 0 174 -17q85 -17 167 -42q83 -26 168 -54t180 -51l13 15q40 47 83 81t87 41q7 1 7 -3
t-8 -7q-46 -15 -85 -51t-72 -84q39 -7 81 -15t90 -15q42 -7 93 -10q42 -3 85 2q25 3 48 9t41 18t30 33q13 22 14 52q0 6 6 6t6 -6q-4 -59 -45 -94q-40 -34 -99 -43q-40 -7 -90 -4q-43 3 -98 11q-44 6 -93 17q-32 7 -79 20q-23 -36 -46 -81q-14 -28 -40 -84q-20 -42 -36 -81
q-3 -6 -14 -32.5t-16 -38.5z" />
    <glyph glyph-name="U" unicode="U" horiz-adv-x="838" 
d="M467 411l-2 -10q-24 -42 -45 -91q-22 -51 -39 -102t-27 -96t-9 -75q3 -41 21 -58q19 -17 44 -17q26 0 56 12t54 27q40 25 85 70q43 43 79 96l69 108q32 50 66 110q17 28 49 87q27 50 60 102q37 58 70 105q39 54 81 98q12 13 27 27q16 14 32 26q18 13 36 20q21 8 41 8
q18 0 33 -4t28 -14q12 -9 18 -24t3 -36q-1 -13 -5 -18q-2 -3 -2 -1v4q1 19 -5 33t-17 23q-11 10 -24 14q-15 5 -27 5q-19 0 -39 -9t-37 -22q-20 -15 -33 -28q-18 -18 -24 -25q-34 -40 -66 -90t-60 -102q-33 -61 -53 -102q-9 -18 -23.5 -48.5t-19.5 -41.5q-28 -62 -51 -123
t-39 -114q-8 -22 -15 -52q-7 -31 -15 -66q-7 -34 -12 -71q-4 -32 -4 -69q0 -34 7 -58q7 -25 24 -39t44 -9q28 5 50 39q15 22 25 53q8 26 10 50q2 8 6 8q5 0 5 -8q0 -13 -3 -30q-3 -18 -9 -35q-6 -18 -15 -36t-19 -31q-22 -26 -45 -35q-25 -9 -48 -2q-35 11 -53 36
q-18 26 -24 61q-6 36 -3 76q3 37 11 80q6 34 17 74q7 28 17 57q9 28 26 77q12 33 29 77q-24 -42 -51 -84t-57 -81q-29 -37 -63 -70q-34 -32 -67 -51q-58 -33 -108 -39q-48 -6 -82 14q-31 19 -43 52t-9 75q3 44 19 93q15 47 41 105q22 50 56 108q42 72 64 107q21 36 50 69
q28 33 58 57q-61 30 -93 44q-51 23 -103 42q-55 20 -112 33q-56 13 -120 13q-46 0 -86 -13q-42 -14 -75 -39t-54 -63t-21 -87q0 -38 13 -71q14 -36 37 -62t59 -43q33 -16 78 -16q6 0 6 -6t-6 -6q-48 0 -90 20q-41 20 -69 52q-29 33 -45 73q-16 39 -16 83q0 55 23 96
q22 41 60 66t84 39q45 13 95 13q67 0 125 -16q65 -18 116 -40q58 -25 107 -51q51 -27 96 -51q39 30 79 44q42 15 90 15q41 0 60 -19q20 -19 18 -42t-24 -42t-66 -19q-31 0 -62 10t-70 27q-27 -25 -48 -52q-22 -29 -42 -57t-36 -54q-15 -24 -27 -47zM759 690l2 -1
q-33 0 -65 -19q-36 -21 -65 -49q33 -16 65 -27q29 -10 57 -10t45 17q16 17 18 36t-12 36t-45 17z" />
    <glyph glyph-name="V" unicode="V" horiz-adv-x="818" 
d="M764 709l4 -13q41 0 60 -19q20 -19 18 -42t-24 -42t-66 -19q-31 0 -62 10t-70 27q-20 -20 -38 -41q-20 -24 -38 -67q-20 -45 -33 -108q-14 -63 -18 -142q-5 -82 7 -169q2 -16 3 -37q2 -30 2 -45q0 -30 -1 -44q-2 -21 -6 -33q15 8 32 24q20 19 38 39q34 42 73 103
q36 55 75 122q31 52 66 116q25 45 47 83q9 16 44 75q24 41 51 81q23 35 56 78q26 35 56 66q63 66 121 95q60 30 110 33t86 -18q35 -21 49 -60q1 -6 0 -10q-2 -5 -4 -6q-3 -2 -6 0t-5 11q-8 27 -31 42t-60 10t-84 -31q-49 -28 -108 -82q-57 -53 -108 -116q-44 -55 -94 -128
q-49 -71 -87 -133q-42 -67 -87 -132q-34 -51 -72 -105q-39 -57 -75 -98q-32 -38 -63 -67q-28 -26 -63 -28l-6 2q-13 1 -15 11q-1 9 9 10t25 12q14 10 19 21q1 6 3 15q2 12 2 24q0 16 -3 41q-2 20 -11 65q-18 89 -21 160q-3 72 3 129q6 55 20 99q13 39 29 72q15 30 30 48
q16 20 24 26l18 16q-61 30 -93 44q-51 23 -103 42q-55 20 -112 33q-56 13 -120 13q-46 0 -86 -13q-42 -13 -75 -39t-54 -63t-21 -87q0 -38 13 -71q14 -36 37 -62t59 -43q33 -16 78 -16q6 0 6 -6t-6 -6q-48 0 -90 20q-41 20 -69 52q-29 33 -45 73q-16 39 -16 83q0 55 23 96
q23 40 60 66t84 39q45 13 95 13q67 0 125 -16q65 -18 116 -40q58 -25 107 -51q51 -27 96 -51q39 30 79 44q42 15 91 15zM765 687l2 -1q-33 0 -65 -19q-36 -21 -65 -49q33 -16 65 -27q29 -10 57 -10t45 17q16 16 18 36t-12 36q-14 17 -45 17z" />
    <glyph glyph-name="W" unicode="W" horiz-adv-x="1065" 
d="M694 663v1q43 -15 87 -25q41 -9 72 -9q32 0 51 17t20 36q2 20 -13 36q-15 17 -49 17q-47 0 -90 -20q-41 -19 -78 -53zM864 746l-7 3q46 0 69 -20t21 -44q-2 -25 -27 -44q-26 -20 -75 -20q-35 0 -78 9q-36 7 -93 23q-24 -27 -44 -63q-23 -41 -41 -84q-17 -40 -37 -99
q-12 -35 -34 -105l-10 -36q-3 -10 -9 -31.5t-9 -32.5q-13 -45 -25 -81q-18 -51 -31 -84q-18 -45 -34 -75q-18 -34 -36 -54q16 8 43 26q23 15 39 30q39 36 77 84q39 50 75 105q48 74 71 111l65 104q26 42 56 84q26 37 45 50q23 16 37 24q19 10 30 14q14 4 24 6q7 1 23 1
q6 0 6 -6q0 -5 -6 -7q-29 0 -49 -21q-20 -22 -36 -52t-21 -71q-4 -40 -6 -89q-2 -53 -3 -100q-1 -52 -12 -103q-11 -53 -34 -99q-24 -47 -69 -88q25 7 46 21q19 12 37 32t30 37q4 5 26 36q35 48 68 102q42 69 74 122q42 71 72 124q31 56 65 108q26 42 62 92q35 48 75 96
q43 50 87 92q49 46 97 77q53 34 105 53q54 19 113 21q52 1 95 -17q42 -18 63 -54t15 -89q-6 -52 -50 -120q-3 -4 -7 -1t-1 7q35 53 35 96q0 44 -22 75q-23 32 -63 50q-42 18 -87 17q-57 -2 -111 -28q-55 -27 -108 -69t-102 -96q-49 -53 -91 -109t-78 -108q-30 -44 -61 -93
q-27 -43 -60 -98q-19 -32 -55 -94q-18 -31 -56 -91q-26 -41 -60 -88q-46 -64 -93 -96t-102 -33q-5 -1 -12 3t-3 6q42 29 65 80q23 53 35 111q13 64 17 120q4 52 11 107q5 33 13 63q9 36 24 65q15 30 36 54q22 25 51 35q-26 -6 -59 -42q-35 -38 -71 -90q-34 -49 -78 -119
q-54 -86 -82 -128q-46 -69 -82 -117q-39 -53 -78 -85q-33 -27 -72 -48q-40 -22 -84 -23q-10 0 -14 3t-6 6q-1 3 2 6q4 4 9 5q11 2 23 6q13 5 23 12q18 15 39 51q19 33 40 81q17 40 34 95q15 50 21 90q14 86 22 128q11 60 29 119q17 57 42 104q26 48 63 81q-55 16 -114 36
q-64 21 -120 35q-68 17 -123 26q-64 11 -123 11q-46 0 -86 -13q-42 -13 -75 -39t-54 -63t-21 -87q0 -38 13 -71q14 -36 37 -62t59 -43q33 -16 78 -16q6 0 6 -6t-6 -6q-48 0 -90 20q-41 20 -69 52q-29 33 -45 73q-16 39 -16 83q0 55 23 96q23 40 60 66t84 39q45 13 95 13
q67 0 129 -13q65 -13 129 -33t126 -42t117 -42q44 32 101 50t114 18z" />
    <glyph glyph-name="X" unicode="X" horiz-adv-x="794" 
d="M938 -88l-5 -10q0 -35 -27 -50t-65 -15q-77 0 -137 33t-105 87q-44 53 -73 123q-28 69 -42 140q-61 -38 -112 -73q-56 -37 -108 -78q-40 -30 -71 -60q-31 -29 -58 -63q-24 -30 -40 -63q-15 -31 -15 -63q0 -25 11 -49q10 -22 24 -31q5 -4 2 -7t-9 -2q-12 1 -24 9
q-13 8 -21 19q-9 12 -15 27t-6 30q0 36 16 69q17 36 43 69q27 34 63 66q41 36 75 62q54 42 120 85q41 27 125 79q-3 19 -7 57q-3 29 -3 56q0 87 28 156q29 72 79 119q-61 30 -93 44q-51 23 -103 42q-55 20 -112 33q-56 13 -120 13q-46 0 -86 -13q-42 -13 -75 -39t-54 -63
t-21 -87q0 -38 13 -71q14 -36 37 -62t59 -43q33 -16 78 -16q6 0 6 -6t-6 -6q-48 0 -90 20q-41 20 -69 52q-29 33 -45 73q-16 39 -16 83q0 55 23 96q23 40 60 66t84 39q45 13 95 13q65 0 125 -15q61 -15 116 -39q58 -25 107 -51q51 -27 96 -51q33 27 77 43q42 15 93 15
q41 0 60 -19q20 -19 18 -42t-24 -42t-66 -19q-29 0 -67 11q-33 10 -75 29q-41 -50 -64 -123q-22 -70 -22 -150q0 -11 2 -35q1 -12 3 -38q55 33 163 99q77 47 159 107q56 40 98 75q45 38 80 74q34 35 54 71q19 34 19 68q0 16 -1 24q-2 13 -6 17q-5 5 0 9t9 0q8 -8 9 -22
q2 -20 2 -27q0 -36 -21 -75q-20 -38 -57 -79q-36 -40 -82 -79q-40 -34 -96 -76q-70 -53 -158 -106q-108 -66 -162 -100q11 -64 36 -135q26 -72 64 -129t92 -97q53 -39 120 -39q41 0 60 18q20 18 20 47q0 12 -1 15q-2 6 3 9t6 -3q3 -16 3 -30zM756 690h1q-40 0 -76 -17
q-34 -16 -63 -47q39 -19 70 -30q33 -12 62 -12q28 0 45 17t18 36t-12 36q-14 17 -45 17z" />
    <glyph glyph-name="Y" unicode="Y" horiz-adv-x="909" 
d="M826 241l-2 1q13 21 25 48q3 7 10.5 23t11.5 25q19 40 27 58q17 37 39 80q7 14 21.5 44t18.5 39q22 45 50 92t60 83q33 38 74 56q18 8 36 11q21 3 38 -1q18 -4 33 -18t24 -39q5 -14 2 -18q-3 -5 -5 3q-7 20 -21 30q-14 11 -30 14t-33 0q-18 -3 -28 -7q-29 -11 -57 -45
q-30 -36 -56 -84q-29 -54 -53 -108q-25 -58 -48 -117q-18 -47 -40 -111q-6 -18 -16.5 -48.5t-14.5 -43.5q-20 -57 -42 -131t-49 -138q-29 -69 -66 -135t-90 -120q-52 -54 -124 -94q-71 -40 -166 -58q-97 -20 -168 -3t-116 54q-44 37 -64 89q-19 51 -15 105q4 53 33 103
t81 81q48 29 97 35t96 1q23 -1 43 -8q17 -6 33 -17q5 -4 6 -12t-6 -3q-14 13 -37 17q-24 5 -46 6q-38 3 -87 -9q-51 -12 -92 -46q-48 -41 -72 -87q-24 -47 -27 -91q-3 -45 15 -86t55 -69q38 -28 93 -42q56 -14 128 -3q91 13 162 54q72 41 125 99q55 60 95 129q41 71 72 144
q29 67 55 146q31 93 44 134l-5 -10q-28 -50 -54 -92q-29 -45 -63 -81t-79 -58q-44 -22 -103 -22q-64 0 -102 35q-37 34 -49 90q-12 55 -3 126t36 141t68 137q39 64 92 112q-58 27 -95 45q-49 24 -105 45q-59 23 -115 35q-62 14 -124 14q-46 0 -86 -13q-42 -13 -75 -39
t-54 -63t-21 -87q0 -38 13 -71q14 -36 37 -62t59 -43q33 -16 78 -16q6 0 6 -6t-6 -6q-48 0 -90 20q-41 20 -69 52q-29 33 -45 73q-16 39 -16 83q0 55 23 96q23 40 60 66t84 39q45 13 95 13q69 0 129 -16q63 -17 119 -42q57 -26 108 -54q33 -19 98 -52q39 31 78 47
q42 17 82 17q41 0 60 -19q20 -19 18 -42t-24 -42t-66 -19q-29 0 -62 9q-29 8 -70 26q-40 -45 -75 -108q-33 -59 -58 -131q-23 -65 -34 -135q-11 -69 -5 -120q6 -53 30 -86t70 -33q48 0 89 21q39 20 75 56t63 76q30 44 51 82zM759 701l2 -1q-34 0 -67 -18q-32 -17 -63 -50
q33 -16 65 -27q29 -10 57 -10t45 17q16 16 18 36t-12 36q-14 17 -45 17z" />
    <glyph glyph-name="Z" unicode="Z" horiz-adv-x="737" 
d="M360 344l-2 -8q-19 -8 -35 -24q-17 -16 -27 -36q-11 -20 -9 -41q2 -22 18 -38q1 -1 -1 -4t-4 -1q-25 21 -33 47q-8 27 -2 50q6 26 22 44q17 19 39 30q30 13 62 18t65 3t66 -6q44 -6 65 -9q40 52 92 113q51 60 111 108q-66 18 -150 50q-64 24 -162 58q-83 28 -165 48
q-85 20 -157 20q-46 0 -86 -13q-42 -13 -75 -39t-54 -63t-21 -87q0 -38 13 -71q14 -36 37 -62t59 -43q33 -16 78 -16q6 0 6 -6t-6 -6q-48 0 -90 20q-41 20 -69 52q-29 33 -45 73q-16 39 -16 83q0 55 23 96q23 40 60 66t84 39q45 13 95 13q75 0 162 -23q86 -23 171 -54
q70 -26 168 -65q77 -31 156 -55q18 17 46 27q30 11 54 11q26 0 41 -12q16 -12 14 -26q0 -6 -3 -12q-2 -5 -11 -10q-6 -4 -21 -7q-13 -3 -36 -3h-15q-10 0 -16 1q-12 2 -19 3q-10 1 -25 6q-58 -49 -104 -106q-52 -65 -86 -114l69 -9q49 -6 65 -8q14 -1 53 -4q21 -1 35 2
q15 3 15 -4t-14 -9q-30 -5 -55 -5q-28 0 -58 3q-20 2 -60 8t-61 9h-1l-15 -22l-15 -21q-58 -85 -123 -156t-141 -123q43 -11 106 -33q89 -30 131 -45q92 -32 146 -50q77 -26 153 -48q21 -6 54 -15q25 -7 71 -16q25 -5 77 -13q37 -6 74 -4q18 0 36 3t33 9q16 6 26 18
q11 12 15 31q4 21 -6 39t-27 30q-18 14 -28 15q-4 1 -4 5q0 3 4 2q23 -5 44 -18q23 -15 35 -31q14 -19 17 -40q3 -22 -9 -43q-16 -30 -48 -45q-30 -14 -70 -19q-39 -4 -82 0q-47 5 -85 13q-47 10 -79 19q-38 10 -63 18q-68 22 -153 53q-70 25 -135 51t-129 48
q-79 28 -133 44q-50 -33 -96 -50q-47 -18 -98 -16q-39 2 -63 15t-34 31q-11 18 -6 38t21 35q16 14 45 22q28 7 69 0q39 -7 79 -18l78 -21q78 63 137 132q76 90 116 139q3 4 8.5 11.5t8.5 10.5q12 16 19 24q-18 2 -54 4q-19 1 -57 1q-31 0 -54 -4q-25 -4 -46 -12zM255 13
l-2 -3q-31 15 -69 28q-34 12 -69 18q-51 9 -78 -6t-30 -37q-3 -23 19 -42t70 -18q44 1 84 18t75 42z" />
    <glyph glyph-name="bracketleft" unicode="[" horiz-adv-x="212" 
d="M212 -111h-133v842h133v-26h-92v-791h92v-25z" />
    <glyph glyph-name="backslash" unicode="\" horiz-adv-x="425" 
d="M397 -35h-38l-286 709h38z" />
    <glyph glyph-name="bracketright" unicode="]" horiz-adv-x="296" 
d="M291 -111h-134v25h94v791h-94v26h134v-842z" />
    <glyph glyph-name="asciicircum" unicode="^" horiz-adv-x="314" 
d="M298 291q3 -4 -2 -9q-4 -4 -9 0l-92 116l-128 -115q-4 -4 -10 0q-5 4 -1 7l126 127q11 11 19 11q10 0 14 -7z" />
    <glyph glyph-name="underscore" unicode="_" horiz-adv-x="428" 
d="M428 -54h-428v24h428v-24z" />
    <glyph glyph-name="grave" unicode="`" horiz-adv-x="224" 
d="M215 405l2 -3q8 -5 3 -11q-4 -6 -9 -4l-126 71q-6 4 -6 12q0 6 5 13q4 6 11 9q6 3 12 -2q21 -16 55 -45q25 -22 53 -40z" />
    <glyph glyph-name="a" unicode="a" horiz-adv-x="360" 
d="M459 354v-4q-19 -12 -42 -39q-18 -22 -43 -59q-17 -26 -37 -60q-17 -28 -24 -45q-8 -18 -22 -52q-11 -28 -13 -53q-2 -20 6 -27q7 -7 18 -7q17 0 32 12q17 13 26 24q25 28 41 55q22 36 38 65q5 8 9 3t0 -12q-15 -29 -38 -66q-21 -33 -50 -62q-14 -13 -30 -24
q-16 -10 -38 -10q-26 0 -39 9t-18 24t-3 33q2 22 4 34q0 1 2 7q-14 -20 -33 -42t-39 -39q-29 -23 -53 -25q-22 -1 -37 14q-14 14 -19 42q-4 26 5 60q15 56 45 102t78 81q17 12 40 21q24 9 48 12t48 0q25 -3 44 -15q41 41 94 43zM357 300h-3q-42 16 -84 0q-43 -17 -74 -51
q-32 -35 -58 -80q-25 -43 -32 -74q-6 -27 -3 -51t22 -24q13 0 30 14q20 16 35 34q19 22 38 47q20 25 36 51q6 9 16 25.5t14 21.5q14 21 21 33q11 16 21 30t21 24z" />
    <glyph glyph-name="b" unicode="b" horiz-adv-x="344" 
d="M909 693l-14 3q-33 -32 -78 -57q-41 -23 -93 -46q-44 -19 -94 -37q-46 -16 -84 -30l-87 -30q-41 -14 -79 -30q-36 -15 -63 -30q-28 -16 -38 -31q-4 -7 -7 -3t5 15q11 15 36 30q24 14 62 30q36 15 78 30q28 10 86 32q54 20 77 29q47 17 92 39q43 21 90 50q42 26 75 62
q27 30 39 69q12 40 5 72q-8 34 -37 56q-30 22 -88 18q-78 -6 -153 -47q-76 -42 -140 -103q-67 -64 -123 -139q-60 -80 -104 -153q-46 -76 -81 -144q-36 -70 -54 -112q-21 -50 -36 -99q-15 -48 -10 -87q5 -32 27 -35t45 11q15 10 30 27q12 13 28 38q13 20 24 44q10 21 18 44
q-1 9 -3 35q-2 29 1 54q3 27 11 53q8 25 24 32q15 8 23 -3t8 -30q0 -15 -3 -33q-3 -17 -9 -37q-7 -22 -13 -37q-12 -28 -13 -31q-5 -54 9 -78t31 -24q12 0 25 8q12 8 23 20q7 8 19 26t17 27q2 3 5 5q4 2 5 -1q2 -4 -1 -12q-2 -7 -14 -27q-20 -31 -40 -45q-21 -15 -39 -15
q-16 0 -27 8t-17 20t-9 27q-3 14 -1 29q-4 -12 -12 -28q-10 -20 -16 -30q-12 -20 -18 -29q-9 -13 -18 -24q-49 -58 -105 -49q-41 8 -48 49q-8 42 9 101q11 38 24 72q22 55 62 135q37 74 89 155q49 76 113 156q60 75 134 138q72 62 153 102q81 41 169 48q71 6 109 -19t49 -66
t-6 -87t-54 -81z" />
    <glyph glyph-name="c" unicode="c" horiz-adv-x="265" 
d="M346 142l-5 -3q-14 -27 -31 -52q-18 -27 -39 -48q-22 -22 -48 -35q-28 -14 -61 -14q-42 2 -64 19q-22 18 -30 45t-3 62q4 34 18 67q10 27 29 54q17 24 41 45q24 20 51 32q28 12 62 12q25 0 39 -13q15 -13 15 -39q0 -17 -6 -35q-6 -17 -17 -33q-10 -14 -26 -24
q-15 -9 -33 -9q-17 0 -21 10q-5 11 0 18q2 -8 14 -11t23 2q23 9 35 33q13 25 14 49q1 20 -9 30t-30 9q-16 0 -29 -7q-13 -8 -27 -18t-24 -24q-14 -18 -20 -27q-11 -19 -21 -43t-18 -53q-7 -27 -9 -54q-1 -26 8 -46q14 -29 42 -33q30 -5 56 9t47 36q22 23 38 50q17 27 30 51
q5 8 9 3t0 -15z" />
    <glyph glyph-name="d" unicode="d" horiz-adv-x="385" 
d="M1098 692l-5 -4q-33 -32 -78 -57q-41 -23 -93 -46q-49 -22 -94 -36q-60 -19 -84 -28l-87 -30q-41 -14 -79 -30q-36 -15 -63 -30q-28 -16 -38 -31q-4 -7 -7 -3t5 15q11 15 36 30q24 14 62 30q36 15 78 30q28 10 86 32q54 20 77 29q47 17 92 39q43 21 90 50q44 27 74 62
q26 29 38 68q12 40 5 72q-8 33 -37 54q-31 21 -88 17q-68 -5 -132 -36q-63 -31 -124 -81q-58 -48 -112 -111q-53 -62 -98 -128q-43 -64 -81 -131q-39 -70 -62 -120q-25 -54 -45 -108q-19 -53 -30 -98q-10 -42 -7 -72q3 -28 26 -31q16 0 32 11t26 24q25 28 41 55q22 36 38 65
q4 8 9 3t0 -12q-18 -33 -39 -66q-23 -36 -49 -62q-15 -15 -39 -28q-22 -12 -51 -4q-18 4 -28 19q-11 16 -14 36q-3 21 0 45q3 21 11 48l10 29l-37 -57q-12 -21 -36 -49t-48 -47q-29 -23 -53 -25q-22 -1 -37 14q-14 14 -19 42q-4 26 5 60q15 56 45 102t78 81q14 11 33 18
t42 12q20 4 45 4q22 0 42 -6q34 65 72 131q39 66 90 136t106 129q59 63 120 110q64 49 134 80t147 39q72 6 110 -19t49 -66q10 -41 -6 -87t-54 -82zM324 306l-1 -4q-38 8 -74 -9q-37 -17 -65 -48q-34 -37 -57 -80q-21 -39 -31 -74q-2 -8 -4 -24q-2 -13 0 -24t6 -18t14 -7
q13 0 31 15t38 38q21 24 41 50q23 30 38 54q3 5 12 23q11 22 17 35l18 39z" />
    <glyph glyph-name="e" unicode="e" horiz-adv-x="262" 
d="M338 134v-4q-13 -24 -35 -54q-20 -27 -41 -47q-20 -19 -42 -30q-23 -11 -53 -9q-27 0 -48 8q-19 8 -30 21q-13 13 -18 33q-4 17 -4 42q0 22 6 45q5 18 14 42q12 28 25 51t35 46q20 21 44 35q24 13 53 15q12 1 26 -2q12 -3 21 -12q11 -11 14 -24q3 -12 1 -29
q-5 -29 -24 -56q-20 -27 -45 -45t-54 -21q-28 -3 -52 20q-8 -21 -12 -49t0 -52q4 -23 20 -39q15 -15 47 -11q20 3 40 15q21 13 36 28q22 24 38 45q19 25 35 56q5 8 6 0t-3 -18zM264 215l-5 -2q5 9 12 26q5 13 7 30q2 15 -3 27t-18 15q-18 5 -45 -18q-26 -22 -49 -60
q-8 -13 -15 -28q-10 -22 -14 -34q10 -16 29 -18q18 -1 36 6q17 7 36 23t29 33z" />
    <glyph glyph-name="f" unicode="f" horiz-adv-x="251" 
d="M973 823h-1q0 -48 -25 -86q-25 -39 -69 -72t-99 -60t-114 -51q-49 -20 -116 -43q-57 -19 -105 -39q-52 -21 -81 -37q-33 -18 -44 -38q-5 -8 -6 -2q-2 7 4 17q11 18 43 36q33 18 78 36q58 23 99 38q59 21 110 42q58 24 107 48q52 26 92 57q41 32 65 68t24 80q0 21 -8 42
q-8 20 -24 35q-17 15 -40 24q-24 9 -55 9q-80 0 -147 -27q-65 -26 -124 -74q-56 -45 -103 -108q-44 -59 -85 -129q-37 -64 -70 -138q-34 -75 -57 -133h55q8 0 3 -8t-11 -8h-52q-4 -11 -18 -46q-4 -10 -25 -66q-18 -48 -28 -73q-5 -13 -14 -35.5t-13 -31.5q11 -8 25 -12
q13 -4 31 -4q17 0 33 6q18 6 30 16q26 20 44 41q19 22 35 53q7 14 12 9t-3 -18q-16 -30 -36 -55q-19 -23 -51 -46q-23 -16 -60 -19q-35 -3 -64 14q-13 -29 -35 -71t-48 -80q-27 -40 -60 -78q-34 -39 -70 -66q-39 -30 -78 -47q-40 -18 -84 -18q-20 0 -43 9q-22 9 -33 29
q-7 14 -7 30q0 15 3 23q1 4 5 6t5 -4q7 -37 32 -54q23 -16 56 -16q66 0 117 39t90 96q40 58 68 122q34 76 50 117q-3 5 -12 23q-7 14 -7 35q0 17 4 30q4 15 16 15q8 0 12 -6t6 -15q2 -12 2 -18q0 -11 -1 -16q17 42 36 87t39 93h-91q-8 0 -3 8t11 8h88q27 64 65 140t79 141
q43 69 96 132q54 64 114 110q61 46 134 75q71 28 156 28q73 0 110 -35q36 -35 36 -84z" />
    <glyph glyph-name="g" unicode="g" horiz-adv-x="348" 
d="M449 398l-3 -5q-36 -39 -65 -94q-33 -63 -56 -118q-22 -53 -46 -120q-21 -59 -36 -96q27 13 54 35q25 21 48 45q21 21 40 48t33 52q3 7 7 9q1 1 3.5 2.5t3.5 2.5q3 1 3 -2q0 -4 -4 -12q-20 -34 -39 -62q-23 -33 -46 -56q-46 -49 -111 -79q-18 -42 -51 -96
q-35 -57 -76 -108q-43 -54 -97 -103t-114 -81q-79 -40 -129 -36q-49 4 -67 36q-18 31 -4 79q14 49 60 95l7 7q43 43 95 72q54 30 105 50q36 14 110 40q63 22 110 43l14 30q10 22 18 43l18 48l18 48q12 32 19 47l-6 -8q-6 -8 -9 -13l-9 -15l-8 -12q-34 -44 -37 -48
q-22 -28 -48 -48q-29 -23 -53 -25q-22 -1 -37 14q-14 14 -19 42q-4 26 5 60q32 116 124 183q18 13 39 20q20 7 46 10q24 3 47 0q22 -3 41 -14l3 3q22 35 45 57t54 30zM337 295l-2 -1q-19 10 -39 10q-21 0 -39 -7q-21 -8 -38 -21q-18 -14 -33 -30q-34 -37 -57 -80
q-21 -39 -31 -74q-2 -8 -4 -24q-2 -14 0 -24t6 -18q4 -7 14 -7q20 0 42 21q23 21 44 50q21 28 39 57q24 38 27 43t9.5 14.5t12 17.5t10.5 16q16 26 39 57zM173 -77l-3 -3q-42 -18 -63 -26q-42 -16 -64 -24q-44 -16 -66 -25q-30 -12 -67 -30q-50 -25 -100 -63t-78 -88
q-19 -33 -18 -61q2 -29 21 -45t55 -16t87 24q55 27 98 67q45 42 82 91q37 50 66 102q34 62 50 97z" />
    <glyph glyph-name="h" unicode="h" horiz-adv-x="331" 
d="M907 692l-2 2q-33 -32 -78 -57q-41 -23 -93 -46q-49 -22 -94 -36q-60 -19 -84 -28l-87 -30q-41 -14 -79 -30q-36 -15 -63 -30q-28 -16 -38 -31q-4 -7 -7 -3t5 15q11 15 36 30q24 14 62 30q36 15 78 30q28 10 86 32q54 20 77 29q47 17 92 39q43 21 90 50q44 27 74 62
q26 29 38 68q12 40 5 72q-8 33 -37 54q-31 21 -88 17q-83 -6 -157 -46q-76 -41 -141 -103q-67 -64 -123 -142q-59 -83 -104 -162q-47 -82 -84 -162q-39 -83 -63 -142q18 27 37 52q22 30 37 45q22 23 45 39t45 18q50 5 60 -22q10 -26 -8 -69q-15 -35 -31 -63q-18 -32 -33 -60
q-1 -3 -6 -13q-6 -12 -9 -19l-9 -21q-4 -11 -6 -21q-2 -15 4 -22t15 -7q16 0 32 11t26 24q25 28 41 55q22 36 38 65q4 8 9 3t0 -12q-18 -33 -39 -66q-23 -36 -49 -62q-15 -15 -39 -28q-22 -12 -51 -4q-17 5 -26 15t-12 24q-3 15 -2 29q2 16 6 29q6 19 20 43q8 14 26 42
l27 41q14 21 24 42q12 23 4 37q-8 13 -21 12q-20 -2 -41 -18q-24 -18 -41 -40q-19 -23 -39 -51q-16 -24 -37 -60q-4 -7 -16 -27.5t-19 -32.5q-21 -36 -29 -54q-6 -13 -12 -19q-5 -5 -12 -7q-6 -2 -12 0q-4 1 -11 1q25 69 71 184q40 98 93 202q52 102 117 198t143 173
q77 76 170 126q91 49 200 60q72 6 110 -19t49 -66t-6 -87q-16 -46 -54 -82z" />
    <glyph glyph-name="i" unicode="i" horiz-adv-x="241" 
d="M331 520l1 -1q-3 -13 -15 -24q-11 -10 -26 -10q-13 0 -21 11q-8 10 -6 24q1 13 14 24q11 10 26 10q14 0 21 -10t6 -24zM329 153l-4 -3q-12 -22 -38 -66q-19 -32 -48 -61q-16 -16 -36 -25q-19 -9 -45 -7q-22 1 -34 21t0 62q11 36 30 74q18 36 39 86q6 16 9 23q4 9 4 20
q0 9 -3 15t-13 6q-11 0 -20 -6q-8 -5 -16 -15q-5 -6 -13 -20q-6 -11 -9 -18q-22 -44 -31 -61q-13 -26 -30 -54q-7 -13 -10 -6t2 16q3 6 9.5 18t9.5 18q7 13 19 37q11 22 15 31q8 18 9 20q13 26 32 44q18 18 50 18q22 0 32 -7q11 -8 14 -18q3 -11 0 -24q-3 -16 -7 -25
q-19 -46 -41 -89q-22 -42 -38 -92q-7 -22 -4 -36q3 -13 12 -16q13 -5 33 6t33 27q24 27 42 55q21 32 39 67q5 8 8 0t-1 -15z" />
    <glyph glyph-name="j" unicode="j" horiz-adv-x="182" 
d="M331 520l1 -1q-3 -13 -15 -24q-11 -10 -26 -10q-13 0 -21 11q-8 10 -6 24q1 13 14 24q11 10 26 10q14 0 21 -10t6 -24zM268 148l-4 -1q-20 -34 -39 -62q-23 -33 -46 -56q-34 -34 -74 -60q-38 -25 -71 -36q-18 -42 -36 -78q-16 -33 -41 -64q-22 -28 -50 -48
q-27 -20 -64 -27q-38 -9 -61 2q-22 10 -28 30t6 44t41 44q23 16 42 27q13 7 41 21q19 9 47 21q25 11 60 27q33 66 53 132q19 64 47 132l18 46q10 25 22 41q13 17 33 28t51 9q-17 -16 -40 -60q-24 -46 -45 -97q-27 -64 -44 -111q-13 -37 -38 -99q14 6 30 15q19 10 35 21
q18 12 36 27q16 13 34 33q41 47 72 102q3 7 7 9q4 3 7 3t3 -3q0 -4 -4 -12zM-23 -90v1q-18 -10 -37 -18q-28 -12 -43 -18q-20 -8 -46 -21t-45 -28q-24 -19 -32 -37q-9 -20 -5 -34q5 -15 21 -21q17 -6 47 3q26 7 48 26t38 42q17 24 30 51t24 54z" />
    <glyph glyph-name="k" unicode="k" horiz-adv-x="341" 
d="M910 692l6 -9q-33 -31 -78 -57q-41 -23 -93 -46q-49 -22 -94 -36q-60 -19 -84 -28l-87 -30q-41 -14 -79 -30q-36 -15 -63 -30q-28 -16 -38 -31q-4 -7 -7 -3t5 15q10 15 36 30q24 14 62 30q36 15 78 30q28 10 86 32q54 20 77 29q47 17 92 39q43 21 90 50q44 27 74 62
q26 29 38 68q12 40 5 72q-8 33 -37 54q-31 21 -88 17q-85 -6 -163 -51t-147 -114q-67 -67 -127 -153t-105 -166q-47 -82 -81 -156q-12 -26 -31 -66t-26 -55q25 35 49 63q27 32 56 53q50 38 93 44q21 3 36 0q16 -3 23 -16q6 -11 5 -22q-1 -12 -6 -24q-5 -13 -12 -23
q-9 -12 -16 -17q-12 -9 -27 -15t-30 -9q-13 -3 -30 -1q-16 2 -26 9l-8 5q-4 -22 -6 -54q-1 -28 2 -60q2 -19 4 -27q3 -14 9 -28q6 -13 15 -22t23 -9q17 0 33 12q17 13 27 25q14 16 20 24t18 26q11 16 20 32q2 3 22 41q4 7 7 -1q3 -9 -2 -17q-16 -30 -36 -63q-20 -34 -48 -62
q-14 -14 -31 -24t-39 -10q-25 0 -42 11q-16 10 -27 29q-11 18 -15 40q-5 23 -6 43q-2 26 3 56t21 51q10 11 21 17q12 6 11 -1q-2 -6 -2 -9q0 -7 8 -12t20 -5q14 0 26 4q16 5 26 13q14 10 24 27q11 17 8 33q-3 20 -19 21q-17 1 -30 -3q-25 -8 -48 -25q-22 -17 -46 -42
q-23 -24 -42 -51t-36 -54q-7 -12 -15 -27l-15 -30q-5 -10 -13 -28q-7 -15 -9 -22q-4 -13 -12 -19q-7 -5 -16 -7q-9 -1 -18 0q-6 1 -13 1q15 47 39 112q23 62 54 138q24 57 65 135q38 72 89 149q49 75 110 146q59 69 129 127q67 55 146 94q76 37 159 45q72 6 110 -19t49 -66
q10 -41 -6 -87t-54 -82z" />
    <glyph glyph-name="l" unicode="l" horiz-adv-x="195" 
d="M917 692l-3 -8q-34 -32 -81 -57q-42 -23 -96 -46q-49 -21 -96 -36t-81 -27l-87 -30q-41 -14 -79 -30q-36 -15 -63 -30q-28 -16 -38 -31q-4 -7 -7 -3t5 15q11 15 36 30q24 14 62 30q36 15 78 30q28 10 86 32q42 16 79 30q36 13 91 38q47 21 90 48q45 28 75 58q27 27 39 64
q12 38 6 71t-33 57t-79 24q-81 0 -159 -38q-77 -38 -145 -100q-70 -64 -129 -142q-58 -77 -111 -164q-51 -84 -90 -165q-42 -86 -65 -147q-4 -11 -12 -36q-8 -28 -11 -53q-3 -27 3 -48t32 -21q16 0 32 11q15 10 27 24q22 25 40 52q20 30 35 60q4 7 6 7t2 -4q0 -6 -1 -10
t-3 -10q-5 -8 -18 -32q-5 -9 -17 -27t-19 -27q-10 -13 -24 -27q-16 -16 -38 -27q-21 -11 -50 -3q-31 7 -40 33q-9 25 -4 62q5 38 19 78q12 34 32 81q29 69 70 145q40 74 95 156q52 78 116 149q62 69 134 126q69 54 149 88q78 33 161 33q68 0 102 -27t42 -66t-10 -82
q-18 -44 -55 -78z" />
    <glyph glyph-name="m" unicode="m" horiz-adv-x="607" 
d="M693 152v-1q-12 -22 -38 -64q-19 -31 -48 -60q-13 -13 -30 -24q-16 -10 -38 -10q-38 0 -53 27q-15 28 -5 65q6 23 18 45q11 21 26 44l27 42q13 20 24 44q6 12 6 27q0 9 -4 14q-4 6 -15 6q-22 0 -45 -14q-24 -14 -45 -37q-24 -26 -44 -54q-21 -30 -39 -63t-33 -66
q-16 -34 -24 -61q-16 4 -22 12t-6 18q0 14 5 31q4 14 15 37q18 38 26 57q22 52 38 90q1 3 4 14q1 4 1 11q0 23 -19 23q-29 0 -61 -30q-32 -31 -60 -73q-28 -44 -51 -90q-21 -44 -36 -80q-11 -23 -24 -29t-27 -6h-9h-10q14 28 48 98q25 53 45 105l13 39q5 15 7 32q1 13 -2 21
t-13 8q-11 0 -20 -6q-8 -5 -16 -15q-5 -6 -13 -20q-6 -11 -9 -18q-22 -44 -31 -61q-14 -26 -30 -54q-7 -13 -10 -6t2 16q3 6 9.5 18t9.5 18q7 13 19 37q11 22 15 31q8 18 9 20q14 26 32 44t50 18q21 0 30 -12t9 -30t-6 -39q-5 -19 -12 -37q37 51 78 87t81 36q26 0 39 -11
q12 -10 12 -30t-12 -49l-7 -17q37 52 74 81q35 28 72 28q30 0 44 -13q15 -14 15 -36q0 -15 -8 -37t-19 -43q-16 -30 -25 -45q-13 -23 -24 -42q-5 -10 -10 -18q-7 -12 -12 -27q-2 -6 -4 -18q-1 -10 0 -19t6 -15t15 -6q17 0 32 12q17 14 26 25q24 27 42 55q17 27 39 65
q5 8 8 0q3 -7 -2 -15z" />
    <glyph glyph-name="n" unicode="n" horiz-adv-x="417" 
d="M504 152l-2 -6q-12 -22 -38 -64q-20 -32 -48 -60q-14 -14 -30 -24t-38 -10q-38 0 -53 28t-3 66q8 25 19 45q11 21 26 44q9 14 27 44q15 25 24 43q12 24 5 36t-21 12t-33 -10t-45 -39q-4 -5 -34 -44q-16 -21 -31 -47q-19 -34 -36 -69q-12 -26 -28 -63q-11 -23 -24 -29
t-27 -6h-9h-9h-3q14 28 48 98q25 53 45 105l13 39q5 15 7 32q1 13 -2 21t-13 8q-11 0 -20 -6q-8 -5 -16 -15q-5 -6 -13 -20q-6 -11 -9 -18q-22 -44 -31 -61q-14 -26 -30 -54q-7 -13 -10 -6t2 16q3 6 9.5 18t9.5 18q7 13 19 37q11 22 15 31q8 18 9 20q14 26 32 44t50 18
q21 0 30 -12t9 -30t-6 -39q-5 -19 -12 -37q18 24 28 36q17 20 33 35q22 22 42 35q21 14 42 15q50 5 60 -22q11 -28 -7 -69q-15 -35 -31 -63q-18 -31 -33 -60l-9 -18q-7 -15 -11 -27q-4 -9 -5 -18q-1 -10 0 -19q2 -9 6 -15t15 -6q17 0 32 12q17 14 26 25q24 27 42 55
q17 27 39 65q5 8 8 0q3 -7 -2 -15z" />
    <glyph glyph-name="o" unicode="o" horiz-adv-x="378" 
d="M229 2l-5 1q-31 -19 -64 -22t-59 12q-25 15 -37 48t0 86q4 19 14 43q10 23 18 38q15 26 30 47q16 23 36 39q20 17 43 27t52 10q31 0 51 -11q19 -10 30 -29q10 -18 12 -42t-3 -51q-5 -22 -12 -45q-8 -25 -22 -51q10 -13 26 -21q15 -8 35 -3q14 3 29 15q4 3 13 14
q10 12 14 18l12 18q6 9 9 15q7 13 13 12q6 -2 -4 -21q-4 -8 -20 -34q-12 -19 -26 -30q-18 -13 -38 -18q-21 -5 -38 1q-19 6 -29 21q-14 -26 -34 -48q-22 -25 -46 -39zM333 234l1 -3q2 34 -13 56q-15 23 -48 23q-20 0 -41 -15q-22 -16 -39 -37q-18 -22 -33 -45
q-12 -18 -22 -38q-21 -47 -27 -81q-6 -36 -2 -57q4 -22 17 -33t29 -11q23 0 47 12t47 35q14 14 26 29q11 14 21 32q-9 10 -15 26q-7 17 -8 31q-1 11 -1 31q0 14 5 27q6 18 20 27t27 2q4 -1 6 -5z" />
    <glyph glyph-name="p" unicode="p" horiz-adv-x="314" 
d="M393 139l-8 -4q-15 -27 -35 -54q-17 -23 -44 -42q-15 -10 -28 -14q-17 -5 -30 -5q-15 0 -27 6q-11 6 -16 21q-3 -3 -9.5 -8.5t-9.5 -8.5q-14 -12 -22 -17t-24 -13q-11 -5 -24 -7q-25 -3 -36 5q-10 8 -15 18q-14 -42 -42 -97q-26 -52 -65 -105q-38 -52 -85 -93
q-49 -43 -103 -62q-33 -12 -66 -11q-35 2 -62 15q-28 14 -41 39t-1 63q3 6 5 6q2 -2 2 -6q0 -31 15 -54q14 -21 38 -34q21 -11 53 -13q30 -2 59 9q42 13 74 44t54 64q35 48 64 104q27 51 48 102t39 102q19 55 39 104q21 53 45 108q23 52 59 114q5 9 26 37q18 24 42 45
q25 22 51 32q27 11 53 -3q2 -2 2 -4q0 -4 -5 -2q-20 4 -45 -14q-25 -19 -45 -46q-23 -31 -39 -58q-21 -35 -29 -51q-7 -14 -12 -23t-15 -29l-14 -30q-8 -15 -12 -27q32 46 63 63q32 17 51 17q38 0 48 -22t6 -52t-18 -63q-14 -34 -25 -52q-6 -12 -21 -31q-14 -18 -31 -37
q3 -15 14 -21t24 -5q15 2 27 7t24 14q22 20 42 45t36 54q2 5 3 3q2 -2 2 -6q0 -6 -1 -9q-2 -6 -3 -8zM244 304v-4q-13 0 -27 -10q-15 -10 -30 -27q-13 -15 -30 -38q-6 -8 -15.5 -22.5t-12.5 -18.5q-7 -11 -20 -35q-11 -21 -25 -54q-12 -28 -15 -53q-3 -24 15 -29q17 -6 39 8
q20 13 40 36q19 23 36 48q15 24 27 47q6 10 18 36q11 23 19 51q8 27 5 45q-3 20 -24 20z" />
    <glyph glyph-name="q" unicode="q" horiz-adv-x="430" 
d="M509 139l-12 -6q-13 -25 -33 -51q-19 -24 -45 -43q-22 -16 -53 -24q-29 -7 -57 2q49 -87 62 -180q13 -95 3 -183q-9 -79 -31 -140q-23 -65 -52 -108q-30 -45 -64 -70t-72 -25q-25 0 -45 9t-35 24t-24 35q-8 18 -13 42q-21 99 28 276q50 181 166 417q-16 -22 -37 -49
q-23 -29 -48 -48q-31 -24 -55 -24t-38 17q-12 15 -15 36q-3 19 -1 41q1 18 8 38q5 15 11 29q12 28 32 57q18 27 41 50q22 22 50 39q27 17 58 24q33 8 66 5q34 -3 57 -23l-8 -4q-26 14 -51 14q-24 0 -49 -11q-29 -13 -54 -36t-45 -51q-18 -26 -34 -60q-14 -29 -22 -60
q-4 -13 -5 -24q-1 -14 0 -24t6 -18q4 -7 15 -7q14 0 27 9q15 10 29 24q17 17 30 34q15 20 27 39q6 9 18 30l24 42q5 8 13 21.5t10 17.5q10 17 15 22q7 8 18 12q7 3 23 7t24 5q13 2 20 3q-35 -45 -64 -94q-28 -48 -57 -102l8 -10q10 -14 15 -22t15 -22q28 -16 61 -7t60 30
q24 17 41 39q19 24 29 45q8 14 12 9t-3 -18zM254 75h-3q-16 -29 -43 -87q-24 -51 -48 -108q-21 -49 -46 -120q-21 -60 -37 -124q-14 -58 -19 -117q-4 -55 6 -102q5 -16 12 -32q7 -15 18 -31t25 -24q15 -9 34 -9q36 0 72 37q35 36 64 99q28 59 46 141q18 80 18 162
q0 85 -22 164q-23 82 -72 146z" />
    <glyph glyph-name="r" unicode="r" horiz-adv-x="276" 
d="M361 150l-5 -8q-18 -35 -39 -68q-23 -36 -54 -63q-29 -23 -54 -26t-43 9t-24 38t6 59q14 36 39 69q34 44 50 67q7 10 11 20q5 12 5 20q0 9 -6 16q-6 8 -19 9q-14 2 -23 2h-24h-22q-12 0 -16 1q-3 -19 -12 -42q-12 -30 -19 -45q-14 -30 -22 -45q-4 -8 -12 -22t-11 -20
q-5 -6 -6 -6t-3 3q-1 2 -1 8q0 4 2 8l40 80q19 39 27 83q-9 30 -6 42t9 12t12 -10q6 -11 3 -27q6 -2 23 -4q10 -1 33 -1q12 0 36 2q16 1 31 3q24 2 32 -8q7 -9 6 -24q-1 -14 -9 -31q-9 -21 -13 -27q-13 -24 -24 -42t-24 -39q-26 -42 -35 -72q-9 -31 -3 -48t24 -15
q17 1 46 27q12 11 27 29q12 15 24 35q14 24 20 36q7 14 17 30q5 8 8 0q3 -7 -2 -15z" />
    <glyph glyph-name="s" unicode="s" horiz-adv-x="292" 
d="M372 142l-7 -4q-9 -17 -32 -54q-19 -30 -47 -58q-10 -10 -25 -19q-16 -10 -32 -14t-34 -3q-18 2 -33 15q-15 -8 -36 -13q-20 -5 -38 -3q-19 2 -33 10q-15 9 -24 28t-8 41t9 39q8 18 18 29q11 13 24 14q8 18 24 48t36 60q21 32 40 54q21 24 38 29q10 3 23 3q14 0 23 -4
q-11 -5 -23 -21t-10 -48q1 -25 12 -51t12 -57q2 -36 -10 -68q-12 -33 -35 -59l-24 -21q13 -10 30 -10t32 6t29 17q15 11 21 19q23 23 46 59q22 35 32 53q3 7 5 0q2 -6 -3 -17zM210 327l-1 -4q-16 -6 -33 -28q-20 -25 -36 -49q-18 -27 -33 -54q-11 -20 -22 -44q20 2 27 -10
q7 -11 4 -16q-10 4 -21 1t-18 -10q-12 -10 -22 -29q-9 -18 -9 -36q0 -20 9 -30q9 -11 22 -15t29 -1q13 3 28 11q23 15 33 40t15 56q4 30 6 60q2 40 2 56q0 30 1 39q1 19 6 37q5 19 13 26z" />
    <glyph glyph-name="t" unicode="t" horiz-adv-x="192" 
d="M344 506l-3 -4q-21 -14 -42 -42t-39 -57q-11 -17 -31 -53q-9 -16 -16 -30h52q3 0 3 -3q0 -2 -2 -6q-1 -2 -5 -6q-3 -3 -6 -3h-51q-18 -32 -42 -81q-20 -42 -43 -96q-1 -2 -4 -11t-6 -16q-8 -21 -11 -41q-3 -19 2 -37q4 -16 26 -16q16 0 36 12q19 12 30 26q25 28 41 55
q22 36 38 65q5 8 9 3t0 -12q-18 -33 -39 -66q-23 -36 -49 -62q-12 -12 -30 -21q-19 -10 -37 -11q-15 -2 -26 1q-13 3 -23 9t-18 18q-7 12 -9 29t3 38q4 21 12 42q7 18 17 41q3 6 8.5 18t8.5 18q10 22 21 44q13 27 30 54h-47q-5 2 -2 10q3 9 9 9h50q3 5 12 19t14 21
q8 13 24 37t25 36q12 16 33 37q23 22 45 30q23 8 32 2z" />
    <glyph glyph-name="u" unicode="u" horiz-adv-x="422" 
d="M509 155l-8 -10q-12 -22 -38 -66q-20 -34 -48 -62q-17 -17 -37 -27q-21 -10 -42 -6q-20 3 -30 12t-15 23q-4 12 -4 31q0 15 5 37q-10 -18 -24 -37q-12 -16 -30 -34q-16 -16 -36 -25q-19 -9 -45 -7q-22 1 -34 21t0 62q11 36 30 74q18 36 39 86q6 16 9 23q4 9 4 20
q0 9 -3 15t-13 6q-11 0 -20 -6q-8 -5 -16 -15q-5 -6 -13 -20q-6 -10 -9 -18q-22 -44 -31 -61q-14 -25 -30 -54q-7 -13 -10 -6t2 16q3 6 9.5 18t9.5 18q7 13 19 37q11 22 15 31q8 18 9 20q14 25 32 44q18 18 50 18q22 0 32 -7q11 -8 14 -18t0 -24q-3 -16 -7 -25
q-19 -46 -41 -89q-22 -42 -38 -92q-7 -22 -4 -36q3 -13 12 -16q14 -4 33 6t33 27q22 24 39 51q18 30 32 56q20 38 30 58t32 60q11 19 21 29q11 11 23 17q13 7 26 8q18 2 30 2q-10 -4 -28 -27q-19 -24 -36 -55q-22 -40 -35 -70q-17 -40 -26 -71q-9 -34 -8 -57q2 -25 19 -29
q12 -4 31 6q20 11 33 27q25 28 41 55q22 36 38 65q5 8 8 3t-1 -12z" />
    <glyph glyph-name="v" unicode="v" horiz-adv-x="298" 
d="M585 475l-7 -7q2 -6 -1 -9t-5 2q-10 18 -33 18t-48 -14q-24 -13 -48 -36t-45 -51t-39 -57q-14 -23 -31 -56q-14 -29 -21 -46q-27 -63 -31 -72q-18 -41 -42 -75q-24 -35 -56 -59t-72 -24q-24 0 -38 12q-14 13 -20 30q-6 18 -6 40q0 23 6 42q10 32 26 71q5 12 29 68
q3 9 6 17q5 12 6 24q1 7 -2 12t-7 6q-3 1 -9 1q-5 0 -9 -3q-7 -6 -7 2q0 7 9 12q14 6 27 6q15 0 24 -4q11 -5 17 -15t6 -25q0 -30 -13 -57l-27 -57q-7 -15 -21 -47q-11 -24 -15 -46q-3 -14 -3 -25q0 -13 4 -21q5 -10 13 -15q8 -6 24 -4q32 3 57 24t45 54t36 72q4 10 15 36
t17 39q15 37 38 89q22 50 49 86q28 39 64 64q35 25 83 25q17 0 32 -6q16 -6 23 -21z" />
    <glyph glyph-name="w" unicode="w" horiz-adv-x="492" 
d="M779 475l-14 -16q2 -6 -1 -9t-5 2q-11 18 -33 18q-23 0 -48 -14q-24 -14 -48 -36t-45 -51t-39 -57q-14 -23 -31 -56q-14 -29 -21 -46q-27 -63 -31 -72q-18 -40 -42 -75t-56 -59q-31 -24 -72 -24q-17 0 -30 7q-15 8 -23 22q-9 15 -12 36q-3 19 2 49q-10 -18 -27 -40
q-18 -23 -33 -38q-16 -16 -37 -25q-20 -9 -42 -7q-27 3 -39 20q-12 16 -12 41q0 22 8 54q6 26 20 58q12 29 24 54q11 23 21 40q11 19 21 29q11 11 23 17q13 7 26 8q18 2 30 2q-11 -3 -27 -25q-14 -19 -34 -54q-14 -25 -34 -68q-16 -35 -24 -68q-8 -32 -6 -54q1 -22 20 -27
q11 -4 31 5q19 9 33 26q21 22 40 51q17 25 33 56q20 38 30 58q14 27 32 59q11 19 21 29q11 11 23 17q13 7 26 8q18 2 30 2q-10 -3 -31 -31q-22 -30 -42 -67q-24 -44 -38 -79q-16 -40 -21 -71q-3 -22 1 -34q4 -13 12 -19q8 -7 16 -8q9 -1 16 0q32 3 57 25q26 23 45 55t36 71
q22 50 32 74q15 37 38 89q22 50 49 86q28 39 64 64q35 25 83 25q17 0 32 -6q16 -6 23 -21z" />
    <glyph glyph-name="x" unicode="x" horiz-adv-x="356" 
d="M444 155l-14 -11q-18 -33 -39 -66q-23 -36 -49 -62q-18 -18 -34 -26q-19 -9 -37 -8q-31 2 -48 18t-24 39q-8 23 -9 46q-1 16 -1 41q-19 -19 -32 -36l-30 -39q-20 -26 -31 -39q-18 -22 -36 -38q-19 -17 -37 -23q-20 -6 -24 4q17 12 39 34q33 33 51 52l54 56q8 9 24 25.5
t23 23.5v14q0 8 2 26q2 16 3 36q1 7 3 29q1 19 -2 37q-2 15 -12 18t-21 -9q-8 -10 -12 -16q-8 -12 -11 -18t-9 -16l-6 -10q-13 -23 -27 -48q-20 -37 -31 -57q-4 -7 -6 -7t-2 5q0 2 2 10q1 6 5 11q9 18 21 44q6 12 23 45l18 33q9 16 20 29t24 20q14 8 33 8q29 0 39 -19
t10 -46v-39q0 -15 -2 -33q10 11 20 26q14 20 22 30l24 30q4 4 11.5 13.5t11.5 14.5q5 7 12 15q10 10 15 14q7 6 17 9q8 3 19 1q12 -1 15 -11q3 -9 -2 -15q-16 -1 -39 -20q-25 -20 -47 -42q-24 -24 -45 -48t-33 -39q-2 -34 -2 -54q0 -31 4 -54q2 -12 4 -18q3 -8 8 -17
q4 -7 12 -13q7 -6 18 -6q13 0 30 12q15 11 27 23q24 27 42 55q17 27 39 65q5 8 9 3t0 -12z" />
    <glyph glyph-name="y" unicode="y" horiz-adv-x="396" 
d="M517 391l-9 -5q-13 -1 -33 -23t-33 -43q-15 -22 -30 -62q-15 -39 -30 -84q-10 -30 -30 -92q-11 -33 -29 -86q-15 -41 -36 -91q-19 -47 -42 -90q-22 -42 -48 -79t-55 -60q-20 -16 -45 -30q-25 -13 -57 -13q-64 0 -67 55q0 2 3 3t3 0q1 -17 15 -28q13 -10 33 -10
q36 0 70 26q32 25 61 66q27 39 51 87q23 45 45 98q17 41 37 98q22 64 30 88l-3 -3l-3 -3q-19 -28 -42 -51l-36 -36q-35 -26 -65 -31q-25 -3 -38 8t-14 27q-2 17 3 38t12 39q13 34 30 66t33 66q4 6 8 17q6 16 8 24q3 13 2 23q-2 10 -12 12q-10 1 -22 -6t-22 -19t-18 -24
l-12 -20q-14 -28 -21 -41q-18 -33 -20 -37q-11 -21 -21 -39q-5 -6 -10 -5t2 16q24 41 35 65q10 21 29 54q18 31 37 54q15 16 35 24t36 6q24 -3 33 -16q9 -14 9 -31q0 -16 -8 -37q-8 -20 -15 -33q-27 -48 -41 -77t-27 -62q-11 -24 -9 -39q2 -16 9 -20q8 -5 21 -2q14 3 27 15
q32 25 61 62q27 34 48 75q7 14 23 44q4 8 12 22t11 20q18 33 19 35l12 20q24 33 48 56q26 25 51 26q6 0 6 -3q0 -2 -5 -4z" />
    <glyph glyph-name="z" unicode="z" horiz-adv-x="348" 
d="M432 148l-4 -7q-18 -32 -37 -61q-22 -34 -46 -57q-18 -18 -50 -31q-29 -11 -63 -13q-33 -1 -64 9q-32 10 -51 36q-8 -12 -19 -21q-11 -10 -26 -18q-11 -4 -22 5q-10 9 -4 26q16 3 37 18q19 13 45 38q21 20 49 51l51 57q21 24 44 47q30 30 45 44q-7 2 -16 3q-14 2 -22 3
t-22 3q-11 2 -18 3q-30 3 -54 -3q-23 -6 -43 -33q-14 -18 -30 -48q-12 -22 -42 -73q-5 -11 -8 -4q-3 6 3 17q12 22 31 60q15 30 31 58q13 25 29 41q15 15 39 21q11 3 27 3h33q22 0 33 -1t28 -1h17h21q8 0 20 2q9 2 12 3q8 -3 8 -12t-6 -19t-18 -18t-29 -6q-12 -7 -27 -20
q-9 -8 -27 -26l-27 -27l-24 -24q-24 -26 -35 -40q-9 -11 -36 -43q-13 -14 -14 -26q-2 -12 15 -26t40 -18q22 -4 51 -1q27 3 51 12q22 8 40 23q23 20 41 47q20 29 35 56q5 8 9 5q5 -3 -1 -14z" />
    <glyph glyph-name="braceleft" unicode="{" horiz-adv-x="314" 
d="M415 613l-5 -3q-58 0 -87 -19q-30 -20 -45 -49q-15 -30 -24 -69q-10 -42 -25 -78q-9 -24 -24 -44q-16 -22 -34 -39t-42 -28q-21 -10 -48 -10h-4q39 -5 62 -28q24 -24 20 -64q-3 -29 -10 -54q-10 -38 -16 -57q-12 -38 -17 -57q-8 -28 -9 -54q-3 -27 9 -40q11 -12 29 -19
q17 -6 34 -6h26l-7 -13q-22 0 -48 3t-47 12q-22 10 -35 25q-13 16 -10 44q2 26 9 54q5 19 17 57t17 57q8 32 11 55q4 47 -15 63t-60 18l4 10q31 3 52 9t36 18q14 12 27 32q13 21 23 51q14 39 20 70q7 36 21 66q13 29 38 54q24 24 71 36q7 2 18 3q14 2 23 2l24 1h22z" />
    <glyph glyph-name="bar" unicode="|" horiz-adv-x="212" 
d="M120 -35h-26v709h26v-709z" />
    <glyph glyph-name="braceright" unicode="}" horiz-adv-x="412" 
d="M411 228l-6 -5q-30 -3 -51 -9t-36 -18q-14 -12 -27 -32q-11 -18 -22 -51q-11 -31 -19 -69q-8 -35 -21 -65q-13 -29 -38 -54q-24 -24 -70 -36q-7 -1 -18 -3q-14 -2 -22 -2l-24 -1h-22l1 10q57 0 87 18t45 48t24 69q9 41 25 79q9 23 24 45q16 23 34 39q19 17 42 27
q24 11 48 11h4q-38 3 -62 27t-20 63q3 23 11 55q5 19 17 57t17 57q8 28 9 54q3 27 -9 41q-13 15 -28 20q-16 6 -33 6h-25l6 13q22 0 48 -3t47 -12q22 -10 35 -25q14 -17 11 -43q-3 -23 -11 -55q-5 -19 -17 -57t-17 -57q-8 -32 -11 -55q-5 -47 16 -62q20 -14 63 -16z" />
    <glyph glyph-name="asciitilde" unicode="~" horiz-adv-x="278" 
d="M265 407l-4 -1q0 -21 -16 -38q-17 -18 -45 -18q-16 0 -31 3q-10 2 -28 8t-27 8q-14 3 -28 3q-24 0 -35 -7q-12 -7 -16 -13h-9q0 20 19 35t42 15q15 0 29 -3q18 -4 27 -7q11 -4 28 -7q15 -3 32 -3q29 0 40 10q12 10 15 15h7z" />
    <glyph glyph-name="exclamdown" unicode="&#xa1;" horiz-adv-x="371" 
d="M355 308l-2 -1q-1 -12 -12 -21t-22 -9q-13 -1 -21 8t-6 21q1 13 12 22q10 9 24 9q13 0 21 -8q7 -7 6 -21zM284 198l-227 -429q-1 -3 -12 -6t-24 -6q-18 -4 -27 -5q-18 -2 -24 -2q1 1 15 23q5 8 17 25.5t18 26.5l48 72l54 81q129 195 145 219z" />
    <glyph glyph-name="cent" unicode="&#xa2;" horiz-adv-x="443" 
d="M499 556l3 -4q0 -14 -7 -24t-16 -16t-18 -6t-12 8q1 4 5 24q3 15 2 23q-3 13 -14 21q-10 8 -27 9l-202 -490q31 -11 66 -3t60 30q20 17 35 42q15 26 15 51q21 5 29 -6t6 -27q-3 -29 -27 -50q-25 -22 -57 -35q-35 -14 -71 -20q-35 -6 -67 -4l-33 -80h-29l35 84l-3 2
q-56 20 -80 64q-24 45 -21 101q3 54 29 117q26 61 69 114q42 51 101 88q57 36 123 42l26 64h29l-25 -62q20 -2 29 -4q14 -3 24 -9q11 -6 17 -17t6 -27zM386 588l2 -2q-9 -2 -18 -6q-33 -14 -62 -36q-30 -22 -57 -51q-28 -30 -48 -58q-22 -31 -33 -58q-20 -48 -27 -99t0 -93
q4 -25 17 -44t30 -29z" />
    <glyph glyph-name="sterling" unicode="&#xa3;" horiz-adv-x="868" 
d="M848 133l-4 -4q10 -24 10 -53q0 -26 -9 -52q-9 -24 -26 -48q-16 -22 -41 -39q-27 -18 -55 -26q-34 -10 -61 -14q-40 -6 -91 -4q-48 1 -96 9q-54 8 -95 19q-46 12 -87 24q-13 5 -51 18t-81 27q-17 -4 -36 -6q-19 -1 -37 0h-24q-17 0 -31 8q-14 6 -15 16q-2 10 12 21
q7 5 15 5q13 0 20 -1t19 -3q9 -2 12 -3l66 -14q34 13 71 50q33 33 67 83q20 29 42 71q21 39 42 81h-106v20h116q20 41 62 123q32 61 69 114q24 33 54 62q33 31 69 50q27 14 53 20q27 6 56 3q56 -6 77 -45q21 -40 5 -92q-15 -50 -55 -84q-41 -35 -88 -51q-10 -4 -12 2
q-1 6 8 9q44 16 81 53q36 36 45 84q8 38 -7 60q-15 23 -40 33q-26 11 -57 8q-32 -3 -57 -18q-29 -17 -56 -51q-28 -36 -53 -80q-27 -48 -51 -97q-17 -35 -49 -103h115v-20h-125q-15 -33 -44 -88q-19 -37 -41 -69q-29 -42 -68 -78q-37 -35 -84 -57l107 -23q46 -10 107 -21
q57 -10 114 -15q54 -4 111 2q55 6 95 27q49 26 75 69t15 87q-3 11 -2 14q3 8 12 2q8 -6 13 -15z" />
    <glyph glyph-name="yen" unicode="&#xa5;" horiz-adv-x="614" 
d="M821 644l-2 2q0 -3 -3 -6t-6 -3q-2 0 -6 2q-3 1 -1 6q3 19 -9 36q-14 18 -30 24t-33 3t-33 -12q-14 -8 -30 -20q-30 -24 -61 -63q-33 -41 -59 -81q-25 -39 -57 -92q-11 -19 -31 -54t-24 -41h105l-13 -22h-105q-9 -17 -27 -49q-9 -16 -27 -46h115l-12 -21h-116
q-37 -59 -70 -102q-36 -47 -75 -81q-38 -34 -83 -54q-42 -19 -93 -19q-11 0 -15 7q-2 4 0 5.5t9 1.5q35 0 73 24t72 60q36 38 65 78q30 42 54 78h-144l12 21h147l11 17q0 25 -1 38l-3 39h-109l13 22h93q-5 38 -13 70q-10 39 -22 69q-13 33 -30 60q-17 28 -39 47
q-32 27 -66 26q-34 -2 -60 -36q-15 -21 -23 -45q-9 -24 -7 -42q2 -6 0 -9t-5 -3t-6 3q-2 2 -4 8q-1 16 3 42t30 57q20 23 48 35t57 12q31 0 57 -18q27 -19 47 -46q21 -28 36 -63q16 -37 26 -71q11 -36 15 -69t6 -56q42 68 62 102q32 55 63 101q32 47 72 94q39 45 89 83
q16 12 39 21q24 10 45 11q23 2 44 -6t35 -29q13 -19 10 -46z" />
    <glyph glyph-name="brokenbar" unicode="&#xa6;" horiz-adv-x="412" 
d="M364 637l-80 -363l-41 4l77 359h44zM264 184l-77 -380h-44l81 383z" />
    <glyph glyph-name="section" unicode="&#xa7;" horiz-adv-x="793" 
d="M858 666l-6 -2q0 -20 -14 -26t-24 -2q3 9 3 20q2 26 -14 38t-40 11q-28 -1 -54 -17q-25 -15 -39 -38q-20 -37 -20 -71q0 -33 11 -68q11 -34 27 -65q6 -11 16.5 -31t15.5 -29q40 -77 40 -159q0 -89 -43 -159q-44 -71 -117 -113q-26 -43 -62 -80q-36 -36 -81 -63t-99 -42
t-114 -15q-85 0 -138 32t-74 83q-21 50 -10 114q10 62 54 124q22 32 54 60q29 26 68 49q35 21 77 33t81 11q40 -2 62 -15q23 -14 29 -36t-3 -51q-10 -31 -31 -59q-22 -27 -52 -49q-29 -22 -64 -37t-70 -21q-38 -6 -69 -2q-4 0 -4 4t5 4q33 -2 66 7q38 10 68 25q34 17 62 39
q29 22 48 48q18 24 24 48t0 42q-6 19 -27 29q-22 11 -57 8t-68 -15q-31 -11 -63 -32q-31 -20 -56 -45q-27 -27 -45 -52q-37 -50 -49 -108q-12 -57 3 -105q15 -47 59 -79q43 -31 120 -31q79 0 146 35t110 91t58 129q15 72 -9 147q-11 34 -27 72q-19 42 -29 76q-12 39 -15 79
q-3 39 14 81q16 37 47 63q30 25 71 33q1 7 5 21q2 7 8 21q20 44 56 71q37 28 86 29q16 2 31 -1q18 -3 30 -10q15 -8 23 -19q9 -12 9 -30zM675 318l1 2q-10 29 -21 56q-8 19 -24 59q-13 32 -20 62q-8 32 -6 65q-21 -8 -38 -21q-18 -13 -27 -30q-20 -37 -20 -72q0 -34 11 -69
q11 -34 27 -65q6 -11 16.5 -31t15.5 -29q28 -55 36 -119q8 -63 -9 -116q31 24 48 62q17 39 23 81q6 46 2 87q-4 44 -15 78z" />
    <glyph glyph-name="dieresis" unicode="&#xa8;" horiz-adv-x="236" 
d="M236 428l-1 -1q-1 -13 -12 -22q-10 -8 -24 -10q-11 -1 -19 8t-6 21q1 13 12 22q10 8 24 10q12 0 20 -8t6 -20zM121 427v-1q-1 -13 -12 -22q-10 -8 -24 -10q-12 -2 -20 8q-7 9 -6 21q1 13 12 22q10 8 24 10q12 0 20 -8t6 -20z" />
    <glyph glyph-name="copyright" unicode="&#xa9;" horiz-adv-x="716" 
d="M675 292q-15 -62 -54 -118q-38 -54 -93 -97q-54 -42 -120 -66t-133 -24q-68 0 -122 24q-53 24 -88 66q-34 41 -46 97q-12 55 3 118q17 65 55 119q39 55 93 96q55 41 119 65q65 24 132 24q68 0 122 -24t89 -65t47 -96q12 -57 -4 -119zM633 343l-1 -1q0 58 -22 103
q-22 46 -61 76t-91 42q-51 12 -111 1q-57 -10 -111 -41q-51 -29 -91 -74q-38 -43 -61 -97q-22 -53 -22 -111q0 -55 23 -103q22 -46 61 -76t90 -42q50 -12 110 -1q57 10 111 41q51 29 91 74q40 44 62 98q23 55 23 111zM472 468l-4 -4q26 -14 27 -39q2 -26 -10 -49
q-12 -25 -31 -39q-20 -15 -38 -11q-12 1 -18 14q-6 12 14 30q12 10 21 24t12 27q3 15 2 24q-1 11 -12 15q-18 8 -46 -1q-29 -9 -52 -28q-9 -7 -27 -23q-12 -10 -25 -27q-15 -18 -31 -48q-14 -26 -25 -60q-11 -32 -12 -61t11 -51q8 -13 24 -24t42 -12q36 -2 68 12
q32 13 57 33q14 12 23 16q8 3 9 0q2 -3 -3 -11t-13 -15q-28 -25 -65 -39q-36 -13 -78 -15q-50 -2 -80 18t-42 51t-7 71q5 39 24 78q14 29 34 54q22 28 48 50q28 24 60 38q34 16 72 17q41 2 71 -15z" />
    <glyph glyph-name="ordfeminine" unicode="&#xaa;" horiz-adv-x="357" 
d="M360 415q-14 -25 -30 -51t-39 -48q-11 -11 -22 -18t-27 -10h-7q-17 0 -27 8q-9 7 -13 19q-4 11 -4 26q0 14 3 26v3v3q-9 -13 -27 -34q-15 -18 -31 -31q-24 -20 -42 -21t-30 11t-15 34q-3 23 4 49q11 44 36 80t63 63q17 13 41 20q26 8 49 8q26 0 48 -8q21 -8 29 -23
q-19 -26 -35 -54q-18 -31 -30 -57q-9 -20 -17 -41q-10 -26 -11 -43q-1 -15 5 -21t14 -6h1q13 0 25 9q13 10 21 19q17 20 32 44t30 51q4 6 7 3t-1 -10zM309 518l2 -1q-8 11 -24 17q-17 6 -33 6q-26 0 -46 -13q-21 -13 -40 -34q-27 -30 -45 -63q-19 -34 -26 -59q-2 -7 -4 -19
q-1 -10 0 -19q1 -7 5 -15q3 -6 11 -6q14 0 33 17q20 18 35 39q17 22 30 45q3 5 8 13t8 13t5 9q2 3 5.5 8t6 9t4.5 7q10 14 15 20q7 9 18 15q12 7 26 11h3h3z" />
    <glyph glyph-name="guillemotleft" unicode="&#xab;" horiz-adv-x="316" 
d="M199 191l104 -98q5 -5 0 -9q-5 -5 -9 -2l-133 89q-8 5 -6 14q2 10 15 20l168 133q5 5 8 -1t-1 -10zM58 177l106 -100q5 -5 -1 -9t-10 -3l-133 89q-8 4 -6 15t15 21l169 134q5 5 8 -1t-1 -10z" />
    <glyph glyph-name="logicalnot" unicode="&#xac;" horiz-adv-x="687" 
d="M569 235l-45 -205q-2 -8 -7 -13q-6 -6 -15 -6q-6 0 -12 6t-4 14l35 164h-444q-3 0 -11 2q-6 1 -6 9t9 18q9 11 17 11h483z" />
    <glyph glyph-name="registered" unicode="&#xae;" horiz-adv-x="474" 
d="M405 567q-7 -31 -27 -58q-20 -28 -46 -48q-27 -21 -58 -33q-32 -12 -65 -12t-60 12q-26 12 -43 33q-16 20 -22 48q-6 26 2 58q7 31 27 58q20 28 45 47q27 20 57 32q31 12 65 12q33 0 60 -12q26 -11 43 -32q17 -20 23 -47q6 -28 -1 -58zM349 496v-9q-9 -11 -21 -21
q10 4 23 17t26 32q3 5 1 5t-5 -5q-13 -19 -24 -27q17 22 26 45q9 24 9 50q0 27 -11 51q-10 22 -30 37q-19 15 -45 21q-24 6 -54 1q-27 -4 -54 -20q-26 -15 -45 -36t-30 -47q-11 -27 -11 -54q0 -41 22 -69q-4 -1 -6 -3l6 -1h3q-2 2 -2 3q0 2 -1 3q10 1 25 24q14 21 30 53
l29 58q14 31 21 41q2 5 8 8q8 4 11 6q-37 1 -67 -18q-29 -19 -40 -56q-1 -6 -3 -6q-1 0 -1 3q0 5 1 9l3 12q11 29 27 44t38 21q23 6 44 5l46 -2q29 -2 39 -16q11 -15 6 -33q-4 -17 -24 -34t-49 -21l-24 -1q9 -19 18 -35q10 -18 24 -30q13 -12 29 -15t32 10zM245 424l4 -1
q23 5 44 15q22 11 38 27q-18 -8 -34 -2t-30 20q-13 13 -24 33t-18 39q1 1 3 5q5 5 6 5q39 0 59 14t26 30q6 17 -1 30q-8 14 -22 14q-18 0 -26 -6q-9 -7 -17 -19q-19 -27 -36 -62q-11 -22 -33 -68q-9 -18 -15 -28q-5 -8 -18 -9q-4 -1 -12 -1h-8q20 -23 49 -33q30 -11 65 -3z
" />
    <glyph glyph-name="macron" unicode="&#xaf;" horiz-adv-x="252" 
d="M220 439h-178v20h178v-20z" />
    <glyph glyph-name="degree" unicode="&#xb0;" horiz-adv-x="265" 
d="M197 367q0 -23 -15 -38t-38 -15t-38 15t-15 38t15 39t38 16t38 -16t15 -39zM182 367l-1 -1q0 16 -12 28t-28 12t-28 -12t-12 -28t12 -28t28 -12q17 0 29 12t12 29z" />
    <glyph glyph-name="plusminus" unicode="&#xb1;" horiz-adv-x="285" 
d="M270 201l-1 2q0 -1 -3 -9t-4 -9h-87l-23 -65q-2 -2 -9 -2h-6q-2 0 -6 2l23 65h-86q-1 0 -1 1q0 2 3 9t5 9h87l22 63q2 2 5 2h5h6q3 0 5 -2l-22 -63h86q1 -1 1 -3zM230 95l-1 1q0 -2 -2 -12q-1 -7 -5 -9h-193v2q0 1 3 9q3 7 5 9h193z" />
    <glyph glyph-name="twosuperior" unicode="&#xb2;" horiz-adv-x="366" 
d="M329 600l-11 -1q2 -28 -10 -50t-32 -39q-15 -12 -41 -28q-15 -9 -47 -25q-16 -8 -48 -22q-23 -10 -44 -23q-1 -1 -6 -4t-8 -5q-10 -7 -15 -13q-6 -8 -6 -14t15 -10q22 -6 41 -9q13 -2 45 -4q5 0 25 2q13 1 30 8q15 6 27 15t17 23q2 10 2 15q0 8 -8 14q-1 1 -1 3t5 0
q5 0 9 -4q19 -15 16 -42q-5 -29 -22 -42t-42 -16q-24 -3 -50 0q-30 4 -44 7q-4 1 -19 5q-14 4 -21 5q-14 2 -21 2q-11 0 -19 -4q-10 -2 -15 -9q-6 3 -6 9t3 12l6 12q3 6 6 9q9 12 24 24q16 13 32 23q20 12 40 21q30 14 45 22q19 10 42 26q19 13 33 30q23 29 26 66
q2 31 -18 45t-43 15q-27 2 -53 -12q-38 -21 -44 -61q-2 -8 0 -18t6 -18q-1 -1 -3 -1q-5 0 -7 1q-10 4 -16 16q-6 11 -4 23q3 25 21 42q17 16 41 27q20 8 39 11t38 1q34 -1 61 -15q28 -14 29 -45z" />
    <glyph glyph-name="threesuperior" unicode="&#xb3;" horiz-adv-x="354" 
d="M308 588l-9 -8q-3 -14 -13 -24q-14 -14 -22 -20q-11 -8 -26 -15q-14 -6 -24 -9q32 -3 48 -15q17 -12 23 -29q6 -16 3 -34q-3 -20 -10 -33q-13 -25 -38 -46q-24 -19 -53 -30t-60 -12q-32 -2 -62 6q-26 6 -38 20q-12 13 -6 36q1 5 8 15q6 10 20 8l-3 -9q-1 -3 -1 -9
q-3 -14 5 -25t21 -17t30 -9q15 -3 31 -1q22 1 44 11q22 9 38 24t27 36q11 22 11 46q0 19 -7 30q-7 12 -18 18t-24 9t-29 3h-23h-21q-10 0 -7 8t17 8q20 0 33 1q21 2 36 7q13 5 24 13t21 20q10 11 14 24q4 14 3 27q-2 17 -16 26q-15 9 -37 9q-44 0 -72 -28q-10 -10 -15 -24
t0 -24q-19 -2 -24 12t3 29q7 13 21 22q13 9 30 15t33 9t30 3q26 0 51 -9q26 -9 33 -31q4 -15 0 -34z" />
    <glyph glyph-name="acute" unicode="&#xb4;" horiz-adv-x="214" 
d="M82 389l-1 2q-2 -2 -5 0q-3 1 -4 4q-1 2 -1 6q0 3 5 6q28 18 53 40q34 29 55 45q6 5 13 2t12 -9q5 -7 5 -13q0 -8 -6 -12z" />
    <glyph glyph-name="mu" unicode="&#xb5;" horiz-adv-x="343" 
d="M412 331l-9 -9q-12 -15 -23 -32q-12 -18 -24 -39q-8 -14 -22 -40q-7 -13 -18 -35q-6 -10 -15 -30q-12 -26 -18 -40q-10 -22 -15 -40q-5 -17 -7 -31q-1 -19 5 -27q6 -7 17 -7q13 0 27 11q14 10 24 21q18 21 32 48q5 10 15 28t14 26q2 6 3 -4q2 -11 -1 -16l-8 -15l-24 -46
q-11 -21 -32 -42q-15 -14 -28 -20q-16 -8 -34 -8q-21 0 -33 9t-18 22t-6 30t3 33q-28 -39 -61 -66q-17 -14 -31 -18q-13 -4 -28 -4q-32 2 -44 24q-2 -6 -6.5 -18t-6.5 -16q-10 -26 -14 -39q-8 -26 -11 -39q-5 -20 -6 -33q-11 -5 -33 -12t-33 -12q9 36 19 62q13 33 27 62
q15 31 33 69q14 29 37 84l4 10l-27 -52q-3 -4 -4 -3t-1 6q0 7 1 11q2 8 4 11q12 22 20 38l22 44l24 45q12 22 24 39l4 6q11 17 27 26q17 9 31 12q15 3 26 3h11q-24 -32 -36 -49q-19 -27 -33 -52q-19 -36 -29 -64t-19 -58q-2 -8 -4 -24q-2 -13 0 -24t6 -18t14 -7q22 0 52 30
q29 29 57 74q13 20 20 34l24 45q8 15 21 41q10 20 12 23q12 19 19 26q9 9 18 15t19 9l24 8q6 2 11 2t11 2z" />
    <glyph glyph-name="paragraph" unicode="&#xb6;" horiz-adv-x="343" 
d="M328 513l-17 1v-513h-57v513h-42v-513h-56v309q-58 0 -93 30t-35 90q0 38 18 68t53 47q19 7 41 9q28 2 41 2h147v-43z" />
    <glyph glyph-name="periodcentered" unicode="&#xb7;" horiz-adv-x="221" 
d="M179 207v-1q-1 -13 -12 -22q-10 -8 -24 -10q-11 0 -19 9q-7 9 -6 22t12 22q10 9 22 9q14 2 21 -7t6 -22z" />
    <glyph glyph-name="cedilla" unicode="&#xb8;" horiz-adv-x="190" 
d="M147 -154l-3 3q0 -23 -13 -39t-33 -27t-42 -15q-25 -5 -40 -5q-4 0 -5 3q-2 4 -2 6q0 4 3 6q4 2 5 3q18 5 33 5q16 0 30 3q13 3 21 14t8 36q0 10 -7 20q-5 7 -15 23l-15 24q-7 11 -7 24q0 15 4 27q5 13 12 24q8 11 18 17q11 6 26 6q4 0 6 -1t4 -6q-20 -5 -29 -21t-9 -34
q0 -8 8 -19q3 -4 8.5 -11.5t8.5 -10.5q12 -16 17 -25q8 -14 8 -30z" />
    <glyph glyph-name="onesuperior" unicode="&#xb9;" horiz-adv-x="311" 
d="M284 662l-126 -280q-9 -20 -8 -27t18 -7h35q5 0 3 -6t-6 -6h-156q-4 0 -3 6t6 6h33q16 0 27 9t18 27l113 251l-86 -66q-4 -4 -14 -9q-8 -4 -22 -4l128 106h40z" />
    <glyph glyph-name="ordmasculine" unicode="&#xba;" horiz-adv-x="348" 
d="M365 437l1 1q-4 -8 -18 -34q-10 -19 -25 -31q-9 -5 -17 -8q-9 -3 -18 -3q-15 1 -25 11l-4 4q-3 -7 -11 -19q-2 -2 -5.5 -7.5t-5.5 -8.5q-11 -14 -22 -25q-13 -13 -25 -21q-25 -16 -51 -17q-27 -2 -46 10q-20 12 -29 38t0 68q3 11 11 33q5 14 14 30q21 38 51 66
q31 29 74 29q24 0 39 -9t24 -24q8 -14 10 -34q2 -21 -1 -40q-5 -29 -21 -59l4 -5q7 -10 18 -10q15 -1 31 12q14 10 24 27q11 17 15 28q1 5 5 8q3 3 5 3t2 -3t-4 -10zM278 451l-4 -4q4 18 3 28q-1 11 -6 18l-3 3q-5 19 -15 29q-11 11 -32 11q-17 0 -33 -12q-15 -11 -30 -29
q-12 -15 -24 -35q-14 -24 -17 -30q-17 -36 -21 -63q-5 -29 -2 -45q3 -18 13 -27q11 -9 24 -9q20 0 44 15q25 15 42 37q10 10 18 23q8 14 14 26v1h1l6 14l2 -7q7 9 12 26q7 26 8 30zM268 495h-3q-8 8 -18 -4q-11 -12 -15 -27q-4 -12 -4 -27q0 -10 2 -24q2 -11 6 -18t9 -9
q-4 13 -3 25q0 10 5 12q2 1 3.5 -1t1.5 -6v-8q0 -3 2 -9l6 16q8 21 9 42q2 23 -1 38z" />
    <glyph glyph-name="guillemotright" unicode="&#xbb;" horiz-adv-x="416" 
d="M410 251v-1q8 -5 5 -15q-3 -11 -16 -21l-167 -133q-5 -5 -8 1q-3 5 2 10l145 137l-106 98q-4 3 2 9t10 3zM271 235h-1q8 -5 6 -15t-15 -21l-168 -134q-5 -5 -8 2q-3 5 2 10l146 137l-107 98q-4 3 2 9t11 3z" />
    <glyph glyph-name="onequarter" unicode="&#xbc;" horiz-adv-x="653" 
d="M294 730l-124 -280q-9 -20 -8 -27t18 -7h35q5 0 3 -6t-6 -6h-157q-5 0 -3 6t6 6h32q16 0 27 9t18 27l113 251l-86 -66q-4 -4 -14 -9q-8 -4 -22 -4l128 106h40zM622 732l-584 -763h-27l584 763h27zM526 136l52 -5q-6 -10 -18 -16t-19 -6h-25l-29 -66q-9 -22 -8 -29
q2 -8 18 -8h37q4 0 3 -7t-5 -7h-169q-4 0 -3 7t6 7h36q17 0 27 10q11 10 18 30l29 64h-131h-22q-9 0 -10 3q-2 3 6 11q7 8 27 24l213 182l6 6q3 3 9 6q4 2 17 4q14 2 30 2zM571 314l-215 -183h132z" />
    <glyph glyph-name="onehalf" unicode="&#xbd;" horiz-adv-x="643" 
d="M284 730l-126 -280q-9 -20 -8 -27t18 -7h35q5 0 3 -6t-6 -6h-156q-4 0 -3 6t6 6h33q16 0 27 9t18 27l113 251l-86 -66q-4 -4 -14 -9q-8 -4 -22 -4l128 106h40zM620 732l-584 -763h-27l584 763h27zM607 272l1 -1q1 -28 -11 -51q-12 -22 -32 -39q-19 -16 -40 -27
q-15 -8 -47 -24l-49 -23q-27 -13 -44 -24q-1 -1 -6 -4t-8 -5q-10 -7 -15 -13q-6 -7 -6 -14q0 -5 15 -10q22 -6 41 -9q13 -2 44 -4q5 0 25 2q13 1 30 8q15 6 27 15t17 23q1 8 0 15q-2 8 -9 14q-4 7 3 6q4 0 7 -4q20 -14 17 -42q-5 -29 -22 -42t-42 -16q-24 -3 -50 0
q-30 4 -44 7q-19 4 -42 9t-41 -3q-6 -2 -9 -4q-5 -3 -6 -6q-6 3 -6 9t3 12l6 12q3 6 6 9q10 13 25 24q22 16 33 23q20 12 40 21q30 14 45 22q19 10 42 26q19 14 33 30q11 15 17 30q7 18 8 36q1 32 -18 45q-20 14 -43 15q-12 1 -27 -2q-13 -3 -27 -9q-37 -21 -44 -61
q-2 -8 0 -18t6 -18q-1 -1 -3 -1q-3 0 -7 2q-10 3 -16 15q-6 13 -5 23q3 25 21 42q17 16 41 27q18 8 38 11q19 3 38 1q34 -1 61 -15q28 -14 29 -45z" />
    <glyph glyph-name="threequarters" unicode="&#xbe;" horiz-adv-x="643" 
d="M308 656l-9 -8q-3 -14 -13 -24q-14 -14 -22 -20q-11 -8 -26 -15q-14 -6 -24 -9q32 -3 48 -15q17 -12 23 -29q6 -16 3 -34q-3 -20 -10 -33q-13 -25 -38 -46q-24 -19 -53 -30t-60 -12q-32 -2 -62 6q-26 6 -38 20q-12 13 -6 36q1 5 8 15q6 10 20 8l-3 -9q-1 -3 -1 -9
q-3 -14 5 -25t21 -17t30 -9q15 -3 31 -1q22 1 44 11q22 9 38 24t27 36q11 22 11 46q0 19 -7 30q-7 12 -18 18t-24 9t-29 3h-23h-21q-10 0 -7 8t17 8q20 0 33 1q21 2 36 7q13 5 24 13t21 20q10 11 14 24q4 14 3 27q-2 17 -16 26q-15 9 -37 9q-44 0 -72 -28q-10 -10 -15 -24
t0 -24q-19 -2 -24 12t3 29q7 13 21 22q13 9 30 15t33 9t30 3q26 0 51 -9q26 -9 33 -31q4 -15 0 -34zM613 724l-584 -763h-27l584 763h27zM517 128l52 -5q-6 -10 -18 -16t-19 -6h-25l-29 -66q-9 -22 -8 -29q2 -8 18 -8h37q4 0 3 -7t-5 -7h-169q-4 0 -3 7t6 7h36q17 0 27 10
t18 30l29 64h-131h-22q-8 0 -10 3t6 11t27 24l213 182l6 6q3 3 9 6q4 2 17 4q14 2 30 2zM562 306l-215 -183h132z" />
    <glyph glyph-name="questiondown" unicode="&#xbf;" horiz-adv-x="371" 
d="M295 304q1 12 11 22q8 8 23 10q13 1 21 -8t6 -21q-1 -13 -12 -22q-10 -8 -24 -10q-11 -1 -19 8q-7 9 -6 21zM281 124l-9 -6q-21 -21 -48 -42t-57 -42q-20 -14 -58 -42q-29 -21 -51 -45t-36 -51q-13 -26 -13 -55q0 -41 25 -63q26 -23 69 -23q35 0 63 9t50 26q21 16 33 41
q12 24 12 54q0 12 -1 18q-2 11 -4 15q-1 3 3 4q5 2 9 0q14 -5 20 -18q6 -14 6 -30q0 -35 -18 -59t-46 -39q-27 -14 -61 -22q-31 -7 -63 -7q-30 0 -57 6q-28 6 -47 18q-20 12 -32 32q-12 19 -12 48q0 40 23 69q22 28 56 51q31 21 71 42t68 39q7 5 19 13.5t16 11.5
q18 13 29 27q12 15 18 33q6 19 5 42q8 13 18 14q11 1 15 0q16 -10 10 -30t-25 -39z" />
    <glyph glyph-name="Agrave" unicode="&#xc0;" 
d="M1023 611l-6 -11q-3 -16 -12 -27q-5 -5 -10 -4t0 9q7 9 9 21t-3 23q-7 18 -26 27q-19 10 -43 11q-25 1 -58 -9q-33 -11 -63 -30q-36 -24 -69 -55q-37 -35 -69 -73q-35 -41 -69 -87t-69 -96h147l18 36q6 12 20 36q34 61 77 129q70 111 71 112q4 9 9 4t0 -9
q-47 -72 -81 -148t-63 -158h49q4 0 2 -3q-2 -4 -4 -7t-8 -7q-4 -3 -9 -3h-38l-15 -47q-11 -35 -17 -61q-10 -44 -14 -67q-5 -30 -7 -63q-2 -44 13 -66q15 -23 47 -18q18 3 35 19q20 18 35 39q26 34 44 66q20 34 30 54q5 11 11 8t-1 -16l-35 -63q-20 -35 -47 -69
q-21 -25 -40 -38q-20 -14 -44 -19q-38 -6 -66 9t-39 62q-7 33 -4 69q3 35 12 71q8 33 23 69q18 44 27 65h-154q-11 -15 -31 -45t-31 -45q-30 -44 -69 -89q-42 -48 -88 -87q-49 -41 -100 -69q-52 -29 -105 -33q-19 -2 -39 0q-17 1 -37 8q-17 6 -31 18q-13 12 -19 31
q-4 16 -1 35q3 18 15 33q4 4 8 6q2 1 2.5 0t0.5 -4q3 -47 33 -68q31 -22 72 -23q42 -2 87 15q45 16 80 47q44 38 82 90q34 47 72 104l24 39q8 13 26 39h-249q-3 0 -2 3q1 2 5 8q3 5 8 8q4 3 8 3h245q44 64 92 128q44 58 95 114q57 62 123 100q64 37 117 40q28 2 51 -3
t36 -16q16 -13 22 -33t2 -39zM968 758l2 -3q8 -5 3 -11q-4 -6 -9 -4l-126 71q-6 5 -6 12q0 6 5 13q4 6 11 9q6 3 12 -2q21 -16 55 -45q25 -22 53 -40z" />
    <glyph glyph-name="Aacute" unicode="&#xc1;" 
d="M1023 611l-6 -11q-3 -16 -12 -27q-5 -5 -10 -4t0 9q7 9 9 21t-3 23q-7 18 -26 27q-19 10 -43 11q-25 1 -58 -9q-33 -11 -63 -30q-36 -24 -69 -55q-37 -35 -69 -73q-35 -41 -69 -87t-69 -96h147l18 36q6 12 20 36q34 61 77 129q70 111 71 112q4 9 9 4t0 -9
q-47 -72 -81 -148t-63 -158h49q4 0 2 -3q-2 -4 -4 -7t-8 -7q-4 -3 -9 -3h-38l-15 -47q-11 -35 -17 -61q-10 -44 -14 -67q-5 -30 -7 -63q-2 -44 13 -66q15 -23 47 -18q18 3 35 19q20 18 35 39q26 34 44 66q20 34 30 54q5 11 11 8t-1 -16l-35 -63q-20 -35 -47 -69
q-21 -25 -40 -38q-20 -14 -44 -19q-38 -6 -66 9t-39 62q-7 33 -4 69q3 35 12 71q8 33 23 69q18 44 27 65h-154q-11 -15 -31 -45t-31 -45q-30 -44 -69 -89q-42 -48 -88 -87q-49 -41 -100 -69q-52 -29 -105 -33q-19 -2 -39 0q-17 1 -37 8q-17 6 -31 18q-13 12 -19 31
q-4 16 -1 35q3 18 15 33q4 4 8 6q2 1 2.5 0t0.5 -4q3 -47 33 -68q31 -22 72 -23q42 -2 87 15q45 16 80 47q44 38 82 90q34 47 72 104l24 39q8 13 26 39h-249q-3 0 -2 3q1 2 5 8q3 5 8 8q4 3 8 3h245q44 64 92 128q44 58 95 114q57 62 123 100q64 37 117 40q28 2 51 -3
t36 -16q16 -13 22 -33t2 -39zM923 742l-1 2q-2 -2 -5 0q-3 1 -4 4q-1 2 -1 6q0 3 5 6q28 18 53 40q34 29 55 45q6 5 13 2q8 -3 12 -9q5 -7 5 -13q0 -7 -6 -12z" />
    <glyph glyph-name="Acircumflex" unicode="&#xc2;" 
d="M1023 611l-6 -11q-3 -16 -12 -27q-5 -5 -10 -4t0 9q7 9 9 21t-3 23q-7 18 -26 27q-19 10 -43 11q-25 1 -58 -9q-33 -11 -63 -30q-36 -24 -69 -55q-37 -35 -69 -73q-35 -41 -69 -87t-69 -96h147l18 36q6 12 20 36q34 61 77 129q70 111 71 112q4 9 9 4t0 -9
q-47 -72 -81 -148t-63 -158h49q4 0 2 -3q-2 -4 -4 -7t-8 -7q-4 -3 -9 -3h-38l-15 -47q-11 -35 -17 -61q-10 -44 -14 -67q-5 -30 -7 -63q-2 -44 13 -66q15 -23 47 -18q18 3 35 19q20 18 35 39q26 34 44 66q20 34 30 54q5 11 11 8t-1 -16l-35 -63q-20 -35 -47 -69
q-21 -25 -40 -38q-20 -14 -44 -19q-38 -6 -66 9t-39 62q-7 33 -4 69q3 35 12 71q8 33 23 69q18 44 27 65h-154q-11 -15 -31 -45t-31 -45q-30 -44 -69 -89q-42 -48 -88 -87q-49 -41 -100 -69q-52 -29 -105 -33q-19 -2 -39 0q-17 1 -37 8q-17 6 -31 18q-13 12 -19 31
q-4 16 -1 35q3 18 15 33q4 4 8 6q2 1 2.5 0t0.5 -4q3 -47 33 -68q31 -22 72 -23q42 -2 87 15q45 16 80 47q44 38 82 90q34 47 72 104l24 39q8 13 26 39h-249q-3 0 -2 3q1 2 5 8q3 5 8 8q4 3 8 3h245q44 64 92 128q44 58 95 114q57 62 123 100q64 37 117 40q28 2 51 -3
t36 -16q16 -13 22 -33t2 -39zM1051 746v2q3 -4 -2 -9t-9 0l-75 82l-128 -84q-4 -3 -10 0t-1 6l128 103q26 20 33 6z" />
    <glyph glyph-name="Atilde" unicode="&#xc3;" 
d="M1023 611l-6 -11q-3 -16 -12 -27q-5 -5 -10 -4t0 9q7 9 9 21t-3 23q-7 18 -26 27q-19 10 -43 11q-25 1 -58 -9q-33 -11 -63 -30q-36 -24 -69 -55q-37 -35 -69 -73q-35 -41 -69 -87t-69 -96h147l18 36q6 12 20 36q34 61 77 129q70 111 71 112q4 9 9 4t0 -9
q-47 -72 -81 -148t-63 -158h49q4 0 2 -3q-2 -4 -4 -7t-8 -7q-4 -3 -9 -3h-38l-15 -47q-11 -35 -17 -61q-10 -44 -14 -67q-5 -30 -7 -63q-2 -44 13 -66q15 -23 47 -18q18 3 35 19q20 18 35 39q26 34 44 66q20 34 30 54q5 11 11 8t-1 -16l-35 -63q-20 -35 -47 -69
q-21 -25 -40 -38q-20 -14 -44 -19q-38 -6 -66 9t-39 62q-7 33 -4 69q3 35 12 71q8 33 23 69q18 44 27 65h-154q-11 -15 -31 -45t-31 -45q-30 -44 -69 -89q-42 -48 -88 -87q-49 -41 -100 -69q-52 -29 -105 -33q-19 -2 -39 0q-17 1 -37 8q-17 6 -31 18q-13 12 -19 31
q-4 16 -1 35q3 18 15 33q4 4 8 6q2 1 2.5 0t0.5 -4q3 -47 33 -68q31 -22 72 -23q42 -2 87 15q45 16 80 47q44 38 82 90q34 47 72 104l24 39q8 13 26 39h-249q-3 0 -2 3q1 2 5 8q3 5 8 8q4 3 8 3h245q44 64 92 128q44 58 95 114q57 62 123 100q64 37 117 40q28 2 51 -3
t36 -16q16 -13 22 -33t2 -39zM1027 801h-2q0 -22 -16 -39q-17 -18 -45 -18q-17 0 -32 3q-10 2 -28 8t-27 8q-13 3 -28 3q-23 0 -36 -7t-16 -15h-9q0 20 19 35t42 15q15 0 28 -3l27 -6q9 -2 29 -6q15 -3 32 -3q29 0 40 10q13 11 14 15h8z" />
    <glyph glyph-name="Adieresis" unicode="&#xc4;" 
d="M1023 611l-6 -11q-3 -16 -12 -27q-5 -5 -10 -4t0 9q7 9 9 21t-3 23q-7 18 -26 27q-19 10 -43 11q-25 1 -58 -9q-33 -11 -63 -30q-36 -24 -69 -55q-37 -35 -69 -73q-35 -41 -69 -87t-69 -96h147l18 36q6 12 20 36q34 61 77 129q70 111 71 112q4 9 9 4t0 -9
q-47 -72 -81 -148t-63 -158h49q4 0 2 -3q-2 -4 -4 -7t-8 -7q-4 -3 -9 -3h-38l-15 -47q-11 -35 -17 -61q-10 -44 -14 -67q-5 -30 -7 -63q-2 -44 13 -66q15 -23 47 -18q18 3 35 19q20 18 35 39q26 34 44 66q20 34 30 54q5 11 11 8t-1 -16l-35 -63q-20 -35 -47 -69
q-21 -25 -40 -38q-20 -14 -44 -19q-38 -6 -66 9t-39 62q-7 33 -4 69q3 35 12 71q8 33 23 69q18 44 27 65h-154q-11 -15 -31 -45t-31 -45q-30 -44 -69 -89q-42 -48 -88 -87q-49 -41 -100 -69q-52 -29 -105 -33q-19 -2 -39 0q-17 1 -37 8q-17 6 -31 18q-13 12 -19 31
q-4 16 -1 35q3 18 15 33q4 4 8 6q2 1 2.5 0t0.5 -4q3 -47 33 -68q31 -22 72 -23q42 -2 87 15q45 16 80 47q44 38 82 90q34 47 72 104l24 39q8 13 26 39h-249q-3 0 -2 3q1 2 5 8q3 5 8 8q4 3 8 3h245q44 64 92 128q44 58 95 114q57 62 123 100q64 37 117 40q28 2 51 -3
t36 -16q16 -13 22 -33t2 -39zM1007 776l-1 -1q-1 -13 -12 -22q-10 -8 -24 -10q-11 -1 -19 8q-7 9 -6 21q1 13 12 22q10 8 24 10q12 0 20 -8t6 -20zM892 775v-1q-1 -13 -12 -22q-10 -8 -24 -10q-12 -2 -20 8q-8 9 -6 21q1 13 12 22q10 8 24 10q12 0 20 -8t6 -20z" />
    <glyph glyph-name="Aring" unicode="&#xc5;" 
d="M1023 611l-6 -11q-3 -16 -12 -27q-5 -5 -10 -4t0 9q7 9 9 21t-3 23q-7 18 -26 27q-19 10 -43 11q-25 1 -58 -9q-33 -11 -63 -30q-36 -24 -69 -55q-37 -35 -69 -73q-35 -41 -69 -87t-69 -96h147l18 36q6 12 20 36q34 61 77 129q70 111 71 112q4 9 9 4t0 -9
q-47 -72 -81 -148t-63 -158h49q4 0 2 -3q-2 -4 -4 -7t-8 -7q-4 -3 -9 -3h-38l-15 -47q-11 -35 -17 -61q-10 -44 -14 -67q-5 -30 -7 -63q-2 -44 13 -66q15 -23 47 -18q18 3 35 19q20 18 35 39q26 34 44 66q20 34 30 54q5 11 11 8t-1 -16l-35 -63q-20 -35 -47 -69
q-21 -25 -40 -38q-20 -14 -44 -19q-38 -6 -66 9t-39 62q-7 33 -4 69q3 35 12 71q8 33 23 69q18 44 27 65h-154q-11 -15 -31 -45t-31 -45q-30 -44 -69 -89q-42 -48 -88 -87q-49 -41 -100 -69q-52 -29 -105 -33q-19 -2 -39 0q-17 1 -37 8q-17 6 -31 18q-13 12 -19 31
q-4 16 -1 35q3 18 15 33q4 4 8 6q2 1 2.5 0t0.5 -4q3 -47 33 -68q31 -22 72 -23q42 -2 87 15q45 16 80 47q44 38 82 90q34 47 72 104l24 39q8 13 26 39h-249q-3 0 -2 3q1 2 5 8q3 5 8 8q4 3 8 3h245q44 64 92 128q44 58 95 114q57 62 123 100q64 37 117 40q28 2 51 -3
t36 -16q16 -13 22 -33t2 -39zM1034 792v-8q-2 -17 -7 -29q-6 -13 -18 -25q-11 -11 -27 -19q-14 -7 -33 -7q-25 -1 -40 9t-21 26q-4 7 -6 15t0 15q1 13 8 30q6 15 18 27q13 13 27 20q15 8 33 9q26 2 41 -9q14 -10 22 -24l3 -15q2 -7 0 -15zM1003 765h-3q3 11 3 24t-5 26
q-5 11 -12 17q-8 6 -21 6q-23 0 -35 -16q-13 -18 -17 -33q-3 -11 -3 -24t6 -27q4 -9 13 -16q8 -7 23 -7q22 1 34 17q13 16 17 33z" />
    <glyph glyph-name="AE" unicode="&#xc6;" horiz-adv-x="1292" 
d="M1310 149l-21 -18q-24 -56 -70 -96t-103 -67q-56 -26 -118 -37q-63 -11 -117 -5t-93 26q-38 20 -60 48t-31 63q-9 33 -4 69q3 25 15 64q12 38 35 86h-236q-22 -30 -32 -45q-20 -30 -31 -45q-30 -44 -69 -89q-42 -48 -88 -87q-49 -41 -100 -69q-53 -29 -105 -33
q-20 -2 -39 0q-17 1 -37 8q-17 6 -31 18q-13 12 -19 31q-4 16 -1 35q3 18 15 33q4 4 8 6q2 1 2.5 0t0.5 -4q3 -47 33 -68q31 -22 72 -23q42 -2 87 15q45 16 80 47q44 38 82 90q34 47 72 104l24 39q8 13 26 39h-249q-4 0 -2 3q1 2 5 8q3 5 8 8t8 3h245q39 57 92 129
q45 61 95 114q57 62 123 100q64 37 117 40q29 1 51 -3q23 -5 36 -16q20 -15 23 -41q41 25 87 39q45 13 91 13q24 0 48 -3q25 -3 45 -13q26 -12 38 -30q12 -19 11 -37q-2 -20 -13 -39q-12 -20 -34 -33q-14 -9 -31 -14q-20 -6 -40 -9q-21 -3 -41 0t-33 13q-7 6 -3 9q5 3 8 2
q28 -15 66 -12t66 21q16 10 27 26q11 15 12 31q2 17 -7 30t-30 24q-18 8 -36 11q-20 3 -39 3q-49 0 -100 -21q-52 -21 -86 -57q-14 -14 -31 -41q-15 -24 -24 -51q-8 -25 -10 -55q-1 -28 9 -52q28 10 53 14q27 4 53 6q42 2 60 -9q18 -10 16 -30q-2 -13 -9 -23t-23 -18
t-36 -11q-21 -3 -48 0q-39 4 -63 17q-20 11 -40 29q-16 -8 -25 -12q-13 -6 -27 -18q-52 -45 -78 -102t-24 -111q1 -59 32 -94q29 -34 75 -49q45 -15 96 -12q52 3 98 18q61 19 119 62q57 42 89 110q11 24 11 44q0 21 -9 36t-27 21q-19 6 -44 2q-31 -4 -52 -18t-36 -30
q-14 -16 -24 -35q-8 -16 -13 -31q-5 -11 -8 -3q-3 7 2 21q3 8 12 25q8 15 24 34q14 17 38 33q23 15 54 21q33 6 57 -1q25 -7 40 -24q15 -16 18 -42t-10 -55zM1084 328h-1q15 4 21 15q6 10 3 19q-3 8 -17 16t-39 6q-56 -2 -101 -15q14 -19 36 -30t42 -15q9 -1 29 -1
q14 0 27 5zM900 361h-2q-10 21 -15 44t-3 45q-23 -35 -38 -63q-24 -44 -35 -67q7 5 21 13t21 11q16 7 29 11q16 5 22 6zM976 631l-3 -3q-12 12 -25 17t-35 7q-25 1 -58 -9q-33 -11 -63 -30q-33 -23 -67 -55q-37 -35 -69 -73q-29 -34 -70 -87q-31 -40 -70 -96h230
q20 41 47 89q25 44 56 89q29 43 62 83q32 39 65 68z" />
    <glyph glyph-name="Ccedilla" unicode="&#xc7;" horiz-adv-x="692" 
d="M276 -197l-11 -8q0 -23 -13 -39q-14 -16 -33 -27t-42 -15q-25 -5 -40 -5q-3 0 -5 3q-2 4 -2 6q0 4 3 6q4 2 5 3q18 5 33 5q17 0 30 3t21 14t8 36q0 10 -7 20q-5 7 -15 23l-15 24q-7 11 -7 24q0 22 11 44q11 21 32 29q-41 11 -73 31q-32 21 -57 53q-23 31 -34 75t-6 99
q5 54 27 111q23 58 60 110q39 54 90 101q52 48 117 84t139 57q75 21 158 21q59 0 90 -19q32 -20 38 -48q6 -29 -13 -58q-20 -31 -60 -53q-29 -16 -65 -27q-34 -10 -69 -18q-30 -6 -65 -10q-46 -5 -52 -5q-4 -1 -3 3q2 5 7 6q66 8 129 27q61 19 108 47q26 16 42 41
q15 24 12 47q-3 22 -27 39q-25 17 -77 17q-73 0 -137 -21q-66 -22 -120 -55q-54 -34 -100 -81q-45 -47 -78 -99q-32 -51 -52 -108q-20 -56 -24 -108q-8 -76 12 -129t57 -81q38 -29 87 -38q48 -9 104 -1q53 7 106 30q54 23 95 57q43 35 71 78q28 44 33 93q5 41 -21 65t-84 20
q-58 -6 -111 -27q-51 -21 -94 -51q-42 -30 -72 -63q-29 -32 -46 -64q-3 -5 -8 -2t-3 8q16 31 48 66q33 36 75 65q43 30 96 51t114 27q41 3 69 -3q29 -6 46 -19q19 -14 26 -33q8 -19 6 -42q-5 -48 -28 -87q-24 -40 -61 -73q-38 -34 -85 -57q-51 -25 -100 -38
q-50 -13 -106 -16q-52 -3 -102 8q-16 -6 -24 -21q-8 -16 -8 -32q0 -8 8 -19q3 -4 8.5 -11.5t8.5 -10.5q12 -16 17 -25q8 -14 8 -30z" />
    <glyph glyph-name="Egrave" unicode="&#xc8;" horiz-adv-x="594" 
d="M618 149l-15 -14q-24 -56 -70 -96t-103 -67q-56 -26 -118 -37q-63 -11 -117 -5t-94 26q-38 19 -61 48q-22 28 -31 63q-9 33 -4 69q9 65 51 122q43 58 111 89q16 7 29 11q15 4 21 6q-25 47 -16 101q9 53 40 93q23 28 51 51t63 39q35 17 70 24q38 8 72 8q24 0 48 -3
q25 -3 45 -13q26 -12 38 -30q12 -19 11 -37q-2 -20 -13 -39q-12 -20 -34 -33q-14 -9 -31 -14q-20 -6 -40 -9q-21 -3 -41 0t-33 13q-7 6 -3 9q5 3 6 2q30 -15 68 -12t65 21q16 10 27 26q11 15 12 31q2 17 -7 30q-9 14 -30 24q-18 8 -36 11q-19 3 -39 3q-49 0 -100 -21
q-52 -21 -86 -57q-14 -14 -31 -41q-15 -24 -24 -51q-8 -25 -10 -55q-1 -28 9 -52q28 10 53 14q27 4 53 6q41 2 59 -9q18 -10 16 -30q-2 -13 -9 -23t-23 -18t-36 -11q-21 -3 -48 0q-39 4 -63 17q-20 11 -40 29l-25 -12q-12 -5 -27 -17q-55 -48 -80 -103q-26 -57 -24 -111
q1 -59 32 -94q29 -34 75 -49q45 -15 96 -12q52 3 98 18q61 19 119 62q57 42 89 110q11 24 11 44q0 22 -9 35t-27 21q-18 7 -43 3q-31 -4 -52 -18q-21 -13 -36 -30q-16 -17 -24 -34q-8 -16 -13 -31q-5 -11 -8 -3q-3 7 2 21q3 8 12 25q8 15 24 34q14 17 38 33q22 15 54 21
q33 6 57 -1q26 -8 41 -24t18 -42t-10 -55zM397 332q15 4 21 15q6 10 3 19q-3 8 -17 16t-39 6q-56 -2 -101 -15q12 -20 34 -30q23 -11 43 -15q10 -1 30 -1q14 0 26 5zM571 753l2 -3q8 -5 3 -11q-4 -6 -9 -4l-126 71q-6 4 -6 12q0 6 5 13q4 6 11 9q6 3 12 -2q21 -16 55 -45
q25 -22 53 -40z" />
    <glyph glyph-name="Eacute" unicode="&#xc9;" horiz-adv-x="594" 
d="M618 149l-15 -14q-24 -56 -70 -96t-103 -67q-56 -26 -118 -37q-63 -11 -117 -5t-94 26q-38 19 -61 48q-22 28 -31 63q-9 33 -4 69q9 65 51 122q43 58 111 89q16 7 29 11q15 4 21 6q-25 47 -16 101q9 53 40 93q23 28 51 51t63 39q35 17 70 24q38 8 72 8q24 0 48 -3
q25 -3 45 -13q26 -12 38 -30q12 -19 11 -37q-2 -20 -13 -39q-12 -20 -34 -33q-14 -9 -31 -14q-20 -6 -40 -9q-21 -3 -41 0t-33 13q-7 6 -3 9q5 3 6 2q30 -15 68 -12t65 21q16 10 27 26q11 15 12 31q2 17 -7 30q-9 14 -30 24q-18 8 -36 11q-19 3 -39 3q-49 0 -100 -21
q-52 -21 -86 -57q-14 -14 -31 -41q-15 -24 -24 -51q-8 -25 -10 -55q-1 -28 9 -52q28 10 53 14q27 4 53 6q41 2 59 -9q18 -10 16 -30q-2 -13 -9 -23t-23 -18t-36 -11q-21 -3 -48 0q-39 4 -63 17q-20 11 -40 29l-25 -12q-12 -5 -27 -17q-55 -48 -80 -103q-26 -57 -24 -111
q1 -59 32 -94q29 -34 75 -49q45 -15 96 -12q52 3 98 18q61 19 119 62q57 42 89 110q11 24 11 44q0 22 -9 35t-27 21q-18 7 -43 3q-31 -4 -52 -18q-21 -13 -36 -30q-16 -17 -24 -34q-8 -16 -13 -31q-5 -11 -8 -3q-3 7 2 21q3 8 12 25q8 15 24 34q14 17 38 33q22 15 54 21
q33 6 57 -1q26 -8 41 -24t18 -42t-10 -55zM397 332q15 4 21 15q6 10 3 19q-3 8 -17 16t-39 6q-56 -2 -101 -15q12 -20 34 -30q23 -11 43 -15q10 -1 30 -1q14 0 26 5zM506 737l-1 2q-2 -2 -5 0q-3 1 -4 4q-1 2 -1 6q0 3 5 6q28 18 53 40q34 29 55 45q6 5 13 2t12 -9
q5 -7 5 -13q0 -8 -6 -12z" />
    <glyph glyph-name="Ecircumflex" unicode="&#xca;" horiz-adv-x="594" 
d="M618 149l-15 -14q-24 -56 -70 -96t-103 -67q-56 -26 -118 -37q-63 -11 -117 -5t-94 26q-38 19 -61 48q-22 28 -31 63q-9 33 -4 69q9 65 51 122q43 58 111 89q16 7 29 11q15 4 21 6q-25 47 -16 101q9 53 40 93q23 28 51 51t63 39q35 17 70 24q38 8 72 8q24 0 48 -3
q25 -3 45 -13q26 -12 38 -30q12 -19 11 -37q-2 -20 -13 -39q-12 -20 -34 -33q-14 -9 -31 -14q-20 -6 -40 -9q-21 -3 -41 0t-33 13q-7 6 -3 9q5 3 6 2q30 -15 68 -12t65 21q16 10 27 26q11 15 12 31q2 17 -7 30q-9 14 -30 24q-18 8 -36 11q-19 3 -39 3q-49 0 -100 -21
q-52 -21 -86 -57q-14 -14 -31 -41q-15 -24 -24 -51q-8 -25 -10 -55q-1 -28 9 -52q28 10 53 14q27 4 53 6q41 2 59 -9q18 -10 16 -30q-2 -13 -9 -23t-23 -18t-36 -11q-21 -3 -48 0q-39 4 -63 17q-20 11 -40 29l-25 -12q-12 -5 -27 -17q-55 -48 -80 -103q-26 -57 -24 -111
q1 -59 32 -94q29 -34 75 -49q45 -15 96 -12q52 3 98 18q61 19 119 62q57 42 89 110q11 24 11 44q0 22 -9 35t-27 21q-18 7 -43 3q-31 -4 -52 -18q-21 -13 -36 -30q-16 -17 -24 -34q-8 -16 -13 -31q-5 -11 -8 -3q-3 7 2 21q3 8 12 25q8 15 24 34q14 17 38 33q22 15 54 21
q33 6 57 -1q26 -8 41 -24t18 -42t-10 -55zM397 332q15 4 21 15q6 10 3 19q-3 8 -17 16t-39 6q-56 -2 -101 -15q12 -20 34 -30q23 -11 43 -15q10 -1 30 -1q14 0 26 5zM641 749v2q3 -4 -2 -9q-5 -4 -9 0l-75 82l-128 -84q-4 -3 -10 0t-1 6l128 103q26 19 33 6z" />
    <glyph glyph-name="Edieresis" unicode="&#xcb;" horiz-adv-x="594" 
d="M618 149l-15 -14q-24 -56 -70 -96t-103 -67q-56 -26 -118 -37q-63 -11 -117 -5t-94 26q-38 19 -61 48q-22 28 -31 63q-9 33 -4 69q9 65 51 122q43 58 111 89q16 7 29 11q15 4 21 6q-25 47 -16 101q9 53 40 93q23 28 51 51t63 39q35 17 70 24q38 8 72 8q24 0 48 -3
q25 -3 45 -13q26 -12 38 -30q12 -19 11 -37q-2 -20 -13 -39q-12 -20 -34 -33q-14 -9 -31 -14q-20 -6 -40 -9q-21 -3 -41 0t-33 13q-7 6 -3 9q5 3 6 2q30 -15 68 -12t65 21q16 10 27 26q11 15 12 31q2 17 -7 30q-9 14 -30 24q-18 8 -36 11q-19 3 -39 3q-49 0 -100 -21
q-52 -21 -86 -57q-14 -14 -31 -41q-15 -24 -24 -51q-8 -25 -10 -55q-1 -28 9 -52q28 10 53 14q27 4 53 6q41 2 59 -9q18 -10 16 -30q-2 -13 -9 -23t-23 -18t-36 -11q-21 -3 -48 0q-39 4 -63 17q-20 11 -40 29l-25 -12q-12 -5 -27 -17q-55 -48 -80 -103q-26 -57 -24 -111
q1 -59 32 -94q29 -34 75 -49q45 -15 96 -12q52 3 98 18q61 19 119 62q57 42 89 110q11 24 11 44q0 22 -9 35t-27 21q-18 7 -43 3q-31 -4 -52 -18q-21 -13 -36 -30q-16 -17 -24 -34q-8 -16 -13 -31q-5 -11 -8 -3q-3 7 2 21q3 8 12 25q8 15 24 34q14 17 38 33q22 15 54 21
q33 6 57 -1q26 -8 41 -24t18 -42t-10 -55zM397 332q15 4 21 15q6 10 3 19q-3 8 -17 16t-39 6q-56 -2 -101 -15q12 -20 34 -30q23 -11 43 -15q10 -1 30 -1q14 0 26 5zM616 773l-1 -1q-1 -13 -12 -22q-10 -8 -24 -10q-11 -1 -19 8t-6 21q1 13 12 22q10 8 24 10q12 0 20 -8
t6 -20zM501 772v-1q-1 -13 -12 -22q-10 -8 -24 -10q-12 -2 -20 8q-7 9 -6 21q1 13 12 22q10 8 24 10q12 0 20 -8t6 -20z" />
    <glyph glyph-name="Igrave" unicode="&#xcc;" horiz-adv-x="341" 
d="M628 622l-11 -13q8 -5 3 -8q-4 -3 -9 0q-32 9 -62 -7t-57 -45q-25 -26 -49 -65q-23 -36 -39 -66q-20 -38 -43 -93q-28 -66 -43 -100q-21 -48 -48 -100q-24 -47 -59 -93q-34 -45 -75 -77t-96 -52q-19 -6 -33 -8q-18 -3 -36 -3q-19 0 -35 3t-27 9q-17 9 -23 27t3 30
q5 5 8 5t2 -4q-1 -8 3 -15q3 -5 11 -13q5 -5 15 -10q9 -5 16 -6q20 -4 42 -3t42 9q36 13 71 49q36 37 66 84q23 34 48 83q16 31 49 97q34 68 52 102q26 49 56 98q33 54 74 99q40 45 85 68q31 16 63 16q-13 6 -36 13q-15 5 -40 10q-21 5 -39 6q-24 2 -32 2q-88 -3 -165 -47
q-33 -17 -60 -43q-30 -28 -51 -58q-22 -31 -37 -67q-14 -35 -16 -72q-2 -24 6 -44t24 -30t36 -10q21 0 39 7q9 5 11 0q1 -2 -2 -5t-10 -6q-22 -10 -51 -9q-30 2 -51 13q-26 14 -36 37q-10 24 -12 51q-2 45 15 87q17 43 45 77q30 36 66 62q40 29 76 44q44 18 88 27q45 9 88 9
q22 0 46 -3t48 -9q25 -6 46 -16t40 -24zM575 756l2 -3q8 -5 3 -11q-4 -6 -9 -4l-126 71q-6 5 -6 12q0 6 5 13q4 6 11 9q6 3 12 -2q21 -16 55 -45q25 -22 53 -40z" />
    <glyph glyph-name="Iacute" unicode="&#xcd;" horiz-adv-x="341" 
d="M628 622l-11 -13q8 -5 3 -8q-4 -3 -9 0q-32 9 -62 -7t-57 -45q-25 -26 -49 -65q-23 -36 -39 -66q-20 -38 -43 -93q-28 -66 -43 -100q-21 -48 -48 -100q-24 -47 -59 -93q-34 -45 -75 -77t-96 -52q-19 -6 -33 -8q-18 -3 -36 -3q-19 0 -35 3t-27 9q-17 9 -23 27t3 30
q5 5 8 5t2 -4q-1 -8 3 -15q3 -5 11 -13q5 -5 15 -10q9 -5 16 -6q20 -4 42 -3t42 9q36 13 71 49q36 37 66 84q23 34 48 83q16 31 49 97q34 68 52 102q26 49 56 98q33 54 74 99q40 45 85 68q31 16 63 16q-13 6 -36 13q-15 5 -40 10q-21 5 -39 6q-24 2 -32 2q-88 -3 -165 -47
q-33 -17 -60 -43q-30 -28 -51 -58q-22 -31 -37 -67q-14 -35 -16 -72q-2 -24 6 -44t24 -30t36 -10q21 0 39 7q9 5 11 0q1 -2 -2 -5t-10 -6q-22 -10 -51 -9q-30 2 -51 13q-26 14 -36 37q-10 24 -12 51q-2 45 15 87q17 43 45 77q30 36 66 62q40 29 76 44q44 18 88 27q45 9 88 9
q22 0 46 -3t48 -9q25 -6 46 -16t40 -24zM490 740l-1 2q-2 -2 -5 0q-3 1 -4 4q-1 2 -1 6q0 3 5 6q28 18 53 40q34 29 55 45q6 5 13 2t12 -9q5 -7 5 -13q0 -7 -6 -12z" />
    <glyph glyph-name="Icircumflex" unicode="&#xce;" horiz-adv-x="341" 
d="M628 622l-11 -13q8 -5 3 -8q-4 -3 -9 0q-32 9 -62 -7t-57 -45q-25 -26 -49 -65q-23 -36 -39 -66q-20 -38 -43 -93q-28 -66 -43 -100q-21 -48 -48 -100q-24 -47 -59 -93q-34 -45 -75 -77t-96 -52q-19 -6 -33 -8q-18 -3 -36 -3q-19 0 -35 3t-27 9q-17 9 -23 27t3 30
q5 5 8 5t2 -4q-1 -8 3 -15q3 -5 11 -13q5 -5 15 -10q9 -5 16 -6q20 -4 42 -3t42 9q36 13 71 49q36 37 66 84q23 34 48 83q16 31 49 97q34 68 52 102q26 49 56 98q33 54 74 99q40 45 85 68q31 16 63 16q-13 6 -36 13q-15 5 -40 10q-21 5 -39 6q-24 2 -32 2q-88 -3 -165 -47
q-33 -17 -60 -43q-30 -28 -51 -58q-22 -31 -37 -67q-14 -35 -16 -72q-2 -24 6 -44t24 -30t36 -10q21 0 39 7q9 5 11 0q1 -2 -2 -5t-10 -6q-22 -10 -51 -9q-30 2 -51 13q-26 14 -36 37q-10 24 -12 51q-2 45 15 87q17 43 45 77q30 36 66 62q40 29 76 44q44 18 88 27q45 9 88 9
q22 0 46 -3t48 -9q25 -6 46 -16t40 -24zM628 749v2q3 -4 -2 -9q-4 -4 -9 0l-75 82l-128 -84q-4 -3 -10 0t-1 6l128 103q25 19 33 6z" />
    <glyph glyph-name="Idieresis" unicode="&#xcf;" horiz-adv-x="341" 
d="M628 622l-11 -13q8 -5 3 -8q-4 -3 -9 0q-32 9 -62 -7t-57 -45q-25 -26 -49 -65q-23 -36 -39 -66q-20 -38 -43 -93q-28 -66 -43 -100q-21 -48 -48 -100q-24 -47 -59 -93q-34 -45 -75 -77t-96 -52q-19 -6 -33 -8q-18 -3 -36 -3q-19 0 -35 3t-27 9q-17 9 -23 27t3 30
q5 5 8 5t2 -4q-1 -8 3 -15q3 -5 11 -13q5 -5 15 -10q9 -5 16 -6q20 -4 42 -3t42 9q36 13 71 49q36 37 66 84q23 34 48 83q16 31 49 97q34 68 52 102q26 49 56 98q33 54 74 99q40 45 85 68q31 16 63 16q-13 6 -36 13q-15 5 -40 10q-21 5 -39 6q-24 2 -32 2q-88 -3 -165 -47
q-33 -17 -60 -43q-30 -28 -51 -58q-22 -31 -37 -67q-14 -35 -16 -72q-2 -24 6 -44t24 -30t36 -10q21 0 39 7q9 5 11 0q1 -2 -2 -5t-10 -6q-22 -10 -51 -9q-30 2 -51 13q-26 14 -36 37q-10 24 -12 51q-2 45 15 87q17 43 45 77q30 36 66 62q40 29 76 44q44 18 88 27q45 9 88 9
q22 0 46 -3t48 -9q25 -6 46 -16t40 -24zM602 770l-1 -1q-1 -13 -12 -22q-10 -8 -24 -10q-11 -1 -19 8t-6 21q1 13 12 22q10 8 24 10q12 0 20 -8t6 -20zM487 769v-1q-1 -13 -12 -22q-10 -8 -24 -10q-12 -2 -20 8q-7 9 -6 21q1 13 12 22q10 8 24 10q12 0 20 -8t6 -20z" />
    <glyph glyph-name="Eth" unicode="&#xd0;" horiz-adv-x="865" 
d="M750 658h-2q79 -34 124 -88q46 -55 59 -117q13 -63 0 -130t-48 -129q-33 -59 -89 -112q-54 -51 -122 -81q-36 -17 -83 -28q-46 -11 -90 -14q-47 -3 -93 0q-49 3 -90 13q-8 1 -25 8q-20 8 -31 12q-24 -22 -37 -32q-21 -16 -42 -26q-15 -7 -28 -11q-20 -6 -35 -8
q-18 -3 -37 -3q-21 0 -36 4q-35 8 -48 33t-4 51t39 44t83 12q19 -2 35 -6t33 -12l51 -20q14 18 31 42q21 30 43 75l21.5 43t22.5 44h-83v20h93q17 35 53 105q27 53 57 99t66 84q35 36 77 58q46 25 90 13q5 -1 3 -6t-6 -3q-28 7 -61 -9q-32 -16 -67 -57q-55 -64 -90 -136
q-32 -64 -70 -148h71v-20h-80q-16 -36 -41 -84q-21 -40 -48 -78q-24 -34 -45 -56q9 -3 29 -9q10 -3 30 -7q45 -8 86 -8q44 0 87 6q44 6 83 18q38 12 71 29q53 29 96 75q44 47 74 104q31 58 44 119q13 60 4 120q-9 57 -44 109q-35 51 -99 84q-48 24 -106 36t-118 12
q-86 1 -167 -26q-80 -27 -131 -75q-15 -15 -31 -39q-15 -22 -24 -48t-12 -51q-3 -24 5 -48q6 -19 21 -33q14 -13 34 -19q21 -6 43 -5q24 2 48 9q3 1 4.5 0t0.5 -3q-1 -4 -6 -6q-29 -10 -63 -10q-32 0 -61 12q-28 12 -46 37t-18 64q0 30 9 57q10 29 25 50q26 38 66 65
q41 27 90 45t105 27t110 9q62 0 123 -12q64 -12 117 -34zM223 6l-1 5q-25 11 -45 17q-39 14 -66 17q-42 3 -66 -12q-25 -15 -32 -36q-7 -20 2 -40q9 -19 36 -25q13 -3 30 -3t32 3q16 3 29 9q14 6 24 12q16 11 30 24q9 9 27 29z" />
    <glyph glyph-name="Ntilde" unicode="&#xd1;" horiz-adv-x="839" 
d="M1252 717l-13 -10q6 -9 -1 -12q-8 -3 -9 1q-10 20 -30 28q-19 7 -45 -2q-25 -9 -57 -38t-66 -79q-28 -41 -61 -104q-30 -57 -57 -117t-51 -120q-20 -51 -45 -109q-11 -24 -27 -60q-17 -37 -37 -70q-21 -35 -45 -60t-51 -30q-4 -1 -6 2q-2 4 1 8q26 26 35 65q10 42 11 84
q0 30 -6 63q-8 44 -13 66q-12 52 -16 68q-8 31 -13 67q-5 35 -6 73q-2 39 6 77t27 71t57 54q-16 1 -38 -17q-19 -17 -40 -42q-22 -27 -35 -48q-16 -26 -22 -34q-37 -59 -66 -118l-61 -123q-28 -57 -63 -121q-34 -62 -73 -114q-30 -41 -66 -74q-39 -36 -79 -56
q-56 -26 -120 -23q-7 1 -23 3q-10 1 -22 8q-11 6 -17 15q-6 10 -5 23q0 11 7 18q3 5 8 5q4 0 3 -4q-4 -15 9 -28t27 -18q38 -9 69 0q32 9 59 30q28 22 50 48q22 27 42 54q38 55 69 114q21 39 63 119q34 66 64 118q33 58 72 114q15 20 31 40q18 22 39 45q19 20 44 42
q23 20 47 32q-19 1 -48 3q-38 2 -60 2h-65q-23 0 -63 -2q-82 -4 -163 -30q-80 -25 -139 -78q-33 -30 -55 -67t-24 -75q-2 -32 9 -51t30 -27q18 -7 43 -7q23 0 47 8q23 7 45 23q21 15 36 36q16 23 23 46q7 25 6 52q-2 12 -4 18q-3 9 -8 12t-3 6t6 3q13 -2 20 -10q8 -9 12 -21
q5 -12 6 -25q2 -13 0 -24q-4 -45 -36 -81t-73 -51q-30 -11 -61 -12q-32 -1 -57 9t-43 34q-17 23 -19 63q-2 45 21 86q22 41 54 72q32 32 72 55q38 22 83 36q41 13 90 19q47 6 93 6q63 0 141 -5l141 -9q11 2 20 0q9 -3 11 -4q5 -3 4 -7q-1 -6 -12 -9t-24 -3h-2
q-27 -9 -39 -39t-15 -69t0 -84q3 -40 11 -85q4 -27 12 -54q5 -18 15 -56q8 -29 12 -58q5 -33 5 -61q-2 -43 -13 -74q-13 -35 -34 -65q15 9 27 29q14 23 23 42q12 26 20 47q3 8 15 41q16 50 36 111q17 52 44 126q23 61 51 127q26 61 57 115q34 58 72 89q39 32 75 42
q36 11 68 0q31 -10 49 -39zM1031 808h-2q0 -22 -16 -39q-17 -18 -45 -18q-17 0 -32 3q-10 2 -28 8t-27 8q-13 3 -28 3q-23 0 -36 -7t-16 -15h-9q0 20 19 35t42 15q15 0 28 -3l27 -6q9 -2 29 -6q15 -3 32 -3q29 0 40 10q13 11 14 15h8z" />
    <glyph glyph-name="Ograve" unicode="&#xd2;" horiz-adv-x="706" 
d="M728 303l2 -3q-22 -70 -68 -139q-45 -67 -105 -120q-60 -52 -134 -84q-73 -31 -153 -33q-59 -1 -105 14q-45 15 -76 40t-48 59t-23 71q-6 38 -1 82q4 41 15 82q20 69 57 135q37 65 90 121q55 58 115 98q62 41 132 64q54 17 102 20t87 -8q38 -11 60 -34q23 -25 23 -58
q0 -10 -3 -22q23 -25 37 -58q14 -35 17 -70q3 -38 -3 -78t-18 -79zM684 329l-4 3q17 59 17 117q0 59 -23 105q-10 -11 -21 -16q-12 -6 -13 -3q-2 3 3 8q12 11 18 30q-16 22 -41 36q-24 13 -59 18q-47 6 -103 -14q-56 -19 -108 -63q-29 -23 -52 -60q-22 -35 -34 -70
q-12 -34 -12 -61t15 -36q12 -8 8 -12t-12 -1q-25 9 -33 38t0 65q7 35 29 74t52 65q59 51 127 72q70 21 131 14q30 -3 54 -12q27 -10 44 -22q-1 28 -21 46t-48 27q-33 9 -72 8q-41 -2 -92 -18q-39 -12 -80 -41q-44 -31 -80 -67q-37 -37 -73 -84q-34 -44 -58 -91
q-17 -31 -30 -67q-12 -34 -22 -78q-8 -38 -10 -81q-1 -40 6 -78q5 -28 18 -54q14 -26 34 -45t52 -31q31 -12 72 -12l3 1q77 2 144 37q70 37 122 91q53 55 93 125t59 137zM646 776l2 -3q8 -5 3 -11q-4 -6 -9 -4l-126 71q-6 5 -6 12q0 6 5 13q4 6 11 9q6 3 12 -2
q21 -16 55 -45q25 -22 53 -40z" />
    <glyph glyph-name="Oacute" unicode="&#xd3;" horiz-adv-x="706" 
d="M728 303l2 -3q-22 -70 -68 -139q-45 -67 -105 -120q-60 -52 -134 -84q-73 -31 -153 -33q-59 -1 -105 14q-45 15 -76 40t-48 59t-23 71q-6 38 -1 82q4 41 15 82q20 69 57 135q37 65 90 121q55 58 115 98q62 41 132 64q54 17 102 20t87 -8q38 -11 60 -34q23 -25 23 -58
q0 -10 -3 -22q23 -25 37 -58q14 -35 17 -70q3 -38 -3 -78t-18 -79zM684 329l-4 3q17 59 17 117q0 59 -23 105q-10 -11 -21 -16q-12 -6 -13 -3q-2 3 3 8q12 11 18 30q-16 22 -41 36q-24 13 -59 18q-47 6 -103 -14q-56 -19 -108 -63q-29 -23 -52 -60q-22 -35 -34 -70
q-12 -34 -12 -61t15 -36q12 -8 8 -12t-12 -1q-25 9 -33 38t0 65q7 35 29 74t52 65q59 51 127 72q70 21 131 14q30 -3 54 -12q27 -10 44 -22q-1 28 -21 46t-48 27q-33 9 -72 8q-41 -2 -92 -18q-39 -12 -80 -41q-44 -31 -80 -67q-37 -37 -73 -84q-34 -44 -58 -91
q-17 -31 -30 -67q-12 -34 -22 -78q-8 -38 -10 -81q-1 -40 6 -78q5 -28 18 -54q14 -26 34 -45t52 -31q31 -12 72 -12l3 1q77 2 144 37q70 37 122 91q53 55 93 125t59 137zM550 757l-1 2q-2 -2 -5 0q-3 1 -4 4q-1 2 -1 6q0 3 5 6q28 18 53 40q34 29 55 45q6 5 13 2t12 -9
q5 -7 5 -13q0 -8 -6 -12z" />
    <glyph glyph-name="Ocircumflex" unicode="&#xd4;" horiz-adv-x="706" 
d="M728 303l2 -3q-22 -70 -68 -139q-45 -67 -105 -120q-60 -52 -134 -84q-73 -31 -153 -33q-59 -1 -105 14q-45 15 -76 40t-48 59t-23 71q-6 38 -1 82q4 41 15 82q20 69 57 135q37 65 90 121q55 58 115 98q62 41 132 64q54 17 102 20t87 -8q38 -11 60 -34q23 -25 23 -58
q0 -10 -3 -22q23 -25 37 -58q14 -35 17 -70q3 -38 -3 -78t-18 -79zM684 329l-4 3q17 59 17 117q0 59 -23 105q-10 -11 -21 -16q-12 -6 -13 -3q-2 3 3 8q12 11 18 30q-16 22 -41 36q-24 13 -59 18q-47 6 -103 -14q-56 -19 -108 -63q-29 -23 -52 -60q-22 -35 -34 -70
q-12 -34 -12 -61t15 -36q12 -8 8 -12t-12 -1q-25 9 -33 38t0 65q7 35 29 74t52 65q59 51 127 72q70 21 131 14q30 -3 54 -12q27 -10 44 -22q-1 28 -21 46t-48 27q-33 9 -72 8q-41 -2 -92 -18q-39 -12 -80 -41q-44 -31 -80 -67q-37 -37 -73 -84q-34 -44 -58 -91
q-17 -31 -30 -67q-12 -34 -22 -78q-8 -38 -10 -81q-1 -40 6 -78q5 -28 18 -54q14 -26 34 -45t52 -31q31 -12 72 -12l3 1q77 2 144 37q70 37 122 91q53 55 93 125t59 137zM709 766v2q3 -4 -2 -9t-9 0l-75 82l-128 -84q-4 -3 -10 0t-1 6l128 103q26 20 33 6z" />
    <glyph glyph-name="Otilde" unicode="&#xd5;" horiz-adv-x="706" 
d="M728 303l2 -3q-22 -70 -68 -139q-45 -67 -105 -120q-60 -52 -134 -84q-73 -31 -153 -33q-59 -1 -105 14q-45 15 -76 40t-48 59t-23 71q-6 38 -1 82q4 41 15 82q20 69 57 135q37 65 90 121q55 58 115 98q62 41 132 64q54 17 102 20t87 -8q38 -11 60 -34q23 -25 23 -58
q0 -10 -3 -22q23 -25 37 -58q14 -35 17 -70q3 -38 -3 -78t-18 -79zM684 329l-4 3q17 59 17 117q0 59 -23 105q-10 -11 -21 -16q-12 -6 -13 -3q-2 3 3 8q12 11 18 30q-16 22 -41 36q-24 13 -59 18q-47 6 -103 -14q-56 -19 -108 -63q-29 -23 -52 -60q-22 -35 -34 -70
q-12 -34 -12 -61t15 -36q12 -8 8 -12t-12 -1q-25 9 -33 38t0 65q7 35 29 74t52 65q59 51 127 72q70 21 131 14q30 -3 54 -12q27 -10 44 -22q-1 28 -21 46t-48 27q-33 9 -72 8q-41 -2 -92 -18q-39 -12 -80 -41q-44 -31 -80 -67q-37 -37 -73 -84q-34 -44 -58 -91
q-17 -31 -30 -67q-12 -34 -22 -78q-8 -38 -10 -81q-1 -40 6 -78q5 -28 18 -54q14 -26 34 -45t52 -31q31 -12 72 -12l3 1q77 2 144 37q70 37 122 91q53 55 93 125t59 137zM762 825h-2q0 -22 -16 -39q-16 -18 -45 -18q-17 0 -32 3q-10 2 -28 8t-27 8q-14 3 -28 3q-23 0 -36 -7
t-16 -15h-9q0 20 19 35q20 15 42 15q14 0 28 -3l27 -6q9 -2 29 -6q15 -3 32 -3q29 0 40 10q13 11 14 15h8z" />
    <glyph glyph-name="Odieresis" unicode="&#xd6;" horiz-adv-x="706" 
d="M728 303l2 -3q-22 -70 -68 -139q-45 -67 -105 -120q-60 -52 -134 -84q-73 -31 -153 -33q-59 -1 -105 14q-45 15 -76 40t-48 59t-23 71q-6 38 -1 82q4 41 15 82q20 69 57 135q37 65 90 121q55 58 115 98q62 41 132 64q54 17 102 20t87 -8q38 -11 60 -34q23 -25 23 -58
q0 -10 -3 -22q23 -25 37 -58q14 -35 17 -70q3 -38 -3 -78t-18 -79zM684 329l-4 3q17 59 17 117q0 59 -23 105q-10 -11 -21 -16q-12 -6 -13 -3q-2 3 3 8q12 11 18 30q-16 22 -41 36q-24 13 -59 18q-47 6 -103 -14q-56 -19 -108 -63q-29 -23 -52 -60q-22 -35 -34 -70
q-12 -34 -12 -61t15 -36q12 -8 8 -12t-12 -1q-25 9 -33 38t0 65q7 35 29 74t52 65q59 51 127 72q70 21 131 14q30 -3 54 -12q27 -10 44 -22q-1 28 -21 46t-48 27q-33 9 -72 8q-41 -2 -92 -18q-39 -12 -80 -41q-44 -31 -80 -67q-37 -37 -73 -84q-34 -44 -58 -91
q-17 -31 -30 -67q-12 -34 -22 -78q-8 -38 -10 -81q-1 -40 6 -78q5 -28 18 -54q14 -26 34 -45t52 -31q31 -12 72 -12l3 1q77 2 144 37q70 37 122 91q53 55 93 125t59 137zM667 806l-1 -1q-1 -13 -12 -22q-10 -8 -24 -10q-11 -1 -19 8q-7 9 -6 21q1 13 12 22q10 8 24 10
q12 0 20 -8t6 -20zM552 805v-1q-1 -13 -12 -22q-10 -8 -24 -10q-12 -2 -20 8q-8 9 -6 21q1 13 12 22q10 8 24 10q12 0 20 -8t6 -20z" />
    <glyph glyph-name="multiply" unicode="&#xd7;" horiz-adv-x="391" 
d="M386 392l-117 -154l78 -152h-34l-65 125l-94 -125h-35l116 152l-79 154h34l65 -128l97 128h34z" />
    <glyph glyph-name="Oslash" unicode="&#xd8;" horiz-adv-x="706" 
d="M728 303l1 -2q-22 -70 -68 -139q-45 -68 -105 -120t-134 -84t-153 -33q-35 -1 -67 5q-33 7 -56 16l-27 -34h-32l35 46q-46 25 -72 65q-25 39 -33 86q-6 38 -1 82q4 41 15 82q19 69 57 135q37 65 90 121q55 58 115 98q62 41 132 64q54 17 102 20t87 -8q33 -9 55 -29l12 16
h32l-27 -36q12 -18 12 -44q0 -10 -3 -22q23 -25 37 -58q14 -35 17 -70q3 -38 -3 -78t-18 -79zM670 607v1q0 6 -1 9l-2 10l-10 -12zM652 652l2 7q-20 20 -51 29q-30 9 -75 7q-44 -1 -93 -18q-39 -12 -78 -40q-42 -30 -78 -67q-35 -37 -70 -84q-33 -45 -57 -90
q-17 -31 -30 -67q-14 -37 -21 -78t-9 -81q-2 -43 4 -78q4 -27 17 -54q12 -26 31 -45l478 622q-27 14 -57 17q-48 4 -103 -15q-56 -19 -108 -63q-29 -23 -52 -60q-22 -35 -34 -70q-12 -34 -12 -61t15 -36q12 -8 8 -12t-12 -1q-25 9 -33 38t0 65q7 35 29 74t52 65
q59 51 127 72q70 21 131 14q17 -2 32 -6q10 -3 28 -9zM685 338v-2q17 59 17 117q0 59 -23 105q-10 -11 -21 -16q-12 -6 -13 -3q-2 3 3 8q12 11 18 30q-8 11 -23 24l-480 -624q18 -12 45 -22q24 -9 59 -7q77 2 144 37q70 37 122 91q53 55 93 125t59 137z" />
    <glyph glyph-name="Ugrave" unicode="&#xd9;" 
d="M1138 647l-8 -3q3 -14 -1 -18q-5 -4 -6 3q-5 20 -16 30q-12 11 -28 15q-17 4 -33 3t-28 -6q-31 -13 -64 -48t-66 -84q-37 -55 -65 -109q-32 -62 -57 -121q-27 -65 -44 -122q-19 -63 -26 -110q-2 -9 -3 -24t0 -30t6 -27t18 -15q22 -4 46 15q24 20 45 48q19 26 39 59l28 48
q6 11 14 11t2 -10q-20 -38 -31 -57q-20 -35 -43 -67t-53 -57q-28 -24 -60 -24q-22 0 -37 9q-14 8 -22 23q-7 13 -9 32q-2 18 0 38q2 53 21 107q21 59 42 110q-24 -40 -51 -81q-25 -38 -57 -76t-61 -66q-30 -29 -66 -49q-58 -33 -108 -39q-49 -6 -83 14q-33 20 -41 56
q-8 37 -2 72q8 45 22 80q16 39 36 74q14 24 44 72t45 71q13 21 30 51q18 32 32 65q16 37 23 69q8 35 3 63q-6 35 -27 50q-22 16 -51 17q-35 1 -69 -9q-38 -11 -68 -28q-32 -17 -61 -42q-30 -25 -48 -49q-26 -35 -42 -70t-16 -67q0 -30 17 -55q16 -23 57 -34q22 -6 48 -4
q25 2 38 6q4 3 6 -2q1 -5 -3 -6q-14 -6 -42 -9q-26 -3 -58 2q-48 8 -72 33t-27 62t13 78q16 42 48 81q22 27 57 51q35 25 73 42q39 18 79 27q41 9 77 6q29 -3 53 -15q25 -12 41 -36q19 -28 18 -67q-2 -39 -15 -81q-13 -40 -33 -82q-20 -41 -39 -72q-41 -71 -48 -83
q-23 -39 -46 -87q-19 -40 -34 -84q-13 -40 -12 -73q3 -41 21 -58q18 -16 44 -18q25 -1 56 11q28 11 55 27q19 12 42 30q22 18 43 40q22 23 41 47q18 22 36 50q46 69 96 152q41 68 98 153q43 68 93 123q50 56 106 84q19 10 38 14q21 5 38 2q19 -3 32 -15q14 -13 20 -37z
M778 766l2 -3q8 -5 3 -11q-4 -6 -9 -4l-126 71q-6 5 -6 12q0 6 5 13q4 6 11 9q6 3 12 -2q21 -16 55 -45q25 -22 53 -40z" />
    <glyph glyph-name="Uacute" unicode="&#xda;" 
d="M1138 647l-8 -3q3 -14 -1 -18q-5 -4 -6 3q-5 20 -16 30q-12 11 -28 15q-17 4 -33 3t-28 -6q-31 -13 -64 -48t-66 -84q-37 -55 -65 -109q-32 -62 -57 -121q-27 -65 -44 -122q-19 -63 -26 -110q-2 -9 -3 -24t0 -30t6 -27t18 -15q22 -4 46 15q24 20 45 48q19 26 39 59l28 48
q6 11 14 11t2 -10q-20 -38 -31 -57q-20 -35 -43 -67t-53 -57q-28 -24 -60 -24q-22 0 -37 9q-14 8 -22 23q-7 13 -9 32q-2 18 0 38q2 53 21 107q21 59 42 110q-24 -40 -51 -81q-25 -38 -57 -76t-61 -66q-30 -29 -66 -49q-58 -33 -108 -39q-49 -6 -83 14q-33 20 -41 56
q-8 37 -2 72q8 45 22 80q16 39 36 74q14 24 44 72t45 71q13 21 30 51q18 32 32 65q16 37 23 69q8 35 3 63q-6 35 -27 50q-22 16 -51 17q-35 1 -69 -9q-38 -11 -68 -28q-32 -17 -61 -42q-30 -25 -48 -49q-26 -35 -42 -70t-16 -67q0 -30 17 -55q16 -23 57 -34q22 -6 48 -4
q25 2 38 6q4 3 6 -2q1 -5 -3 -6q-14 -6 -42 -9q-26 -3 -58 2q-48 8 -72 33t-27 62t13 78q16 42 48 81q22 27 57 51q35 25 73 42q39 18 79 27q41 9 77 6q29 -3 53 -15q25 -12 41 -36q19 -28 18 -67q-2 -39 -15 -81q-13 -40 -33 -82q-20 -41 -39 -72q-41 -71 -48 -83
q-23 -39 -46 -87q-19 -40 -34 -84q-13 -40 -12 -73q3 -41 21 -58q18 -16 44 -18q25 -1 56 11q28 11 55 27q19 12 42 30q22 18 43 40q22 23 41 47q18 22 36 50q46 69 96 152q41 68 98 153q43 68 93 123q50 56 106 84q19 10 38 14q21 5 38 2q19 -3 32 -15q14 -13 20 -37z
M735 746l-1 2q-2 -2 -5 0q-3 1 -4 4q-1 2 -1 6q0 3 5 6q28 18 53 40q34 29 55 45q6 5 13 2q8 -3 12 -9q5 -7 5 -13q0 -7 -6 -12z" />
    <glyph glyph-name="Ucircumflex" unicode="&#xdb;" 
d="M1138 647l-8 -3q3 -14 -1 -18q-5 -4 -6 3q-5 20 -16 30q-12 11 -28 15q-17 4 -33 3t-28 -6q-31 -13 -64 -48t-66 -84q-37 -55 -65 -109q-32 -62 -57 -121q-27 -65 -44 -122q-19 -63 -26 -110q-2 -9 -3 -24t0 -30t6 -27t18 -15q22 -4 46 15q24 20 45 48q19 26 39 59l28 48
q6 11 14 11t2 -10q-20 -38 -31 -57q-20 -35 -43 -67t-53 -57q-28 -24 -60 -24q-22 0 -37 9q-14 8 -22 23q-7 13 -9 32q-2 18 0 38q2 53 21 107q21 59 42 110q-24 -40 -51 -81q-25 -38 -57 -76t-61 -66q-30 -29 -66 -49q-58 -33 -108 -39q-49 -6 -83 14q-33 20 -41 56
q-8 37 -2 72q8 45 22 80q16 39 36 74q14 24 44 72t45 71q13 21 30 51q18 32 32 65q16 37 23 69q8 35 3 63q-6 35 -27 50q-22 16 -51 17q-35 1 -69 -9q-38 -11 -68 -28q-32 -17 -61 -42q-30 -25 -48 -49q-26 -35 -42 -70t-16 -67q0 -30 17 -55q16 -23 57 -34q22 -6 48 -4
q25 2 38 6q4 3 6 -2q1 -5 -3 -6q-14 -6 -42 -9q-26 -3 -58 2q-48 8 -72 33t-27 62t13 78q16 42 48 81q22 27 57 51q35 25 73 42q39 18 79 27q41 9 77 6q29 -3 53 -15q25 -12 41 -36q19 -28 18 -67q-2 -39 -15 -81q-13 -40 -33 -82q-20 -41 -39 -72q-41 -71 -48 -83
q-23 -39 -46 -87q-19 -40 -34 -84q-13 -40 -12 -73q3 -41 21 -58q18 -16 44 -18q25 -1 56 11q28 11 55 27q19 12 42 30q22 18 43 40q22 23 41 47q18 22 36 50q46 69 96 152q41 68 98 153q43 68 93 123q50 56 106 84q19 10 38 14q21 5 38 2q19 -3 32 -15q14 -13 20 -37z
M864 760v2q3 -4 -2 -9q-4 -5 -9 0l-75 82l-128 -84q-4 -3 -10 0t-1 6l128 103q25 20 33 6z" />
    <glyph glyph-name="Udieresis" unicode="&#xdc;" 
d="M1138 647l-8 -3q3 -14 -1 -18q-5 -4 -6 3q-5 20 -16 30q-12 11 -28 15q-17 4 -33 3t-28 -6q-31 -13 -64 -48t-66 -84q-37 -55 -65 -109q-32 -62 -57 -121q-27 -65 -44 -122q-19 -63 -26 -110q-2 -9 -3 -24t0 -30t6 -27t18 -15q22 -4 46 15q24 20 45 48q19 26 39 59l28 48
q6 11 14 11t2 -10q-20 -38 -31 -57q-20 -35 -43 -67t-53 -57q-28 -24 -60 -24q-22 0 -37 9q-14 8 -22 23q-7 13 -9 32q-2 18 0 38q2 53 21 107q21 59 42 110q-24 -40 -51 -81q-25 -38 -57 -76t-61 -66q-30 -29 -66 -49q-58 -33 -108 -39q-49 -6 -83 14q-33 20 -41 56
q-8 37 -2 72q8 45 22 80q16 39 36 74q14 24 44 72t45 71q13 21 30 51q18 32 32 65q16 37 23 69q8 35 3 63q-6 35 -27 50q-22 16 -51 17q-35 1 -69 -9q-38 -11 -68 -28q-32 -17 -61 -42q-30 -25 -48 -49q-26 -35 -42 -70t-16 -67q0 -30 17 -55q16 -23 57 -34q22 -6 48 -4
q25 2 38 6q4 3 6 -2q1 -5 -3 -6q-14 -6 -42 -9q-26 -3 -58 2q-48 8 -72 33t-27 62t13 78q16 42 48 81q22 27 57 51q35 25 73 42q39 18 79 27q41 9 77 6q29 -3 53 -15q25 -12 41 -36q19 -28 18 -67q-2 -39 -15 -81q-13 -40 -33 -82q-20 -41 -39 -72q-41 -71 -48 -83
q-23 -39 -46 -87q-19 -40 -34 -84q-13 -40 -12 -73q3 -41 21 -58q18 -16 44 -18q25 -1 56 11q28 11 55 27q19 12 42 30q22 18 43 40q22 23 41 47q18 22 36 50q46 69 96 152q41 68 98 153q43 68 93 123q50 56 106 84q19 10 38 14q21 5 38 2q19 -3 32 -15q14 -13 20 -37z
M838 780l-1 -1q-1 -13 -12 -22q-10 -8 -24 -10q-11 -1 -19 8t-6 21q1 13 12 22q10 8 24 10q12 0 20 -8t6 -20zM723 779v-1q-1 -13 -12 -22q-10 -8 -24 -10q-12 -2 -20 8q-7 9 -6 21q1 13 12 22q10 8 24 10q12 0 20 -8t6 -20z" />
    <glyph glyph-name="Yacute" unicode="&#xdd;" horiz-adv-x="744" 
d="M942 603l-16 -5q-34 -2 -59 -22q-25 -21 -45 -51q-20 -31 -33 -64q-4 -11 -12 -31l-12 -30q-23 -67 -42 -130q-13 -44 -41 -132q-21 -66 -48 -132q-26 -64 -66 -130q-28 -46 -60 -84t-68 -65t-78 -42t-92 -15q-15 0 -33 5q-15 4 -30 14q-13 9 -18 23t4 32l1 2l3 3
q2 2 6 4q3 2 5 0q1 -1 0 -7q-2 -14 6 -24q7 -10 20 -18t27 -11q17 -3 32 -2q34 1 74 23t77 70q35 45 69 104q31 54 61 115q25 52 52 112q8 19 22 51t20 44l25 62q-35 -57 -75 -114q-42 -59 -85 -102q-45 -44 -94 -73t-102 -30q-33 -2 -56 9q-23 10 -36 30q-14 20 -18 46
q-5 27 0 59q8 45 22 80q16 39 36 74q14 24 44 72t45 71q14 22 37 61q21 36 36 75q16 41 17 76q1 37 -21 64q-17 20 -45 29q-27 9 -66 7q-44 -2 -87 -18t-84 -42t-73 -58t-55 -70q-21 -34 -30 -72q-9 -36 -1 -72q4 -22 20 -36q15 -14 33 -18q18 -5 38 0q19 4 38 17t33 33
t21 42q8 24 8 46q0 26 -7 48q-2 8 -6 15t-9 9t-5 5q0 2 5 4q11 2 19 -4q9 -6 15 -15q4 -6 10 -20q4 -10 6 -20q3 -20 0 -41q-3 -20 -12 -40q-10 -21 -22 -36t-30 -28q-25 -17 -52 -25q-27 -7 -52 -3q-25 5 -45 21q-20 17 -29 47q-12 41 -3 81t29 77q23 41 60 76t80 59
q45 25 92 38q50 14 96 17q48 3 86 -9t60 -40q25 -33 27 -72t-12 -80q-14 -42 -34 -79q-21 -39 -39 -69q-41 -71 -48 -83q-28 -48 -47 -87q-21 -44 -33 -84q-12 -39 -10 -73q1 -41 20 -58q18 -16 44 -18q39 -2 80 21q39 22 81 62q39 38 78 89q40 53 71 102q33 53 60 102
t45 90q17 37 33 68q17 33 39 64q21 30 45 51t51 27q17 4 28 -2q10 -6 12 -15t-6 -18t-22 -9zM677 730l1 2q-2 -2 -5 0q-3 1 -4 4q-1 2 -1 6q0 3 5 6q28 18 53 40q34 29 55 45q6 5 12 2q7 -3 11 -9q5 -7 5 -13q0 -7 -6 -12z" />
    <glyph glyph-name="Thorn" unicode="&#xde;" horiz-adv-x="456" 
d="M461 321l2 -7q-15 -26 -37 -54q-24 -31 -55 -61q-33 -31 -67 -54q-35 -23 -70 -28q-42 -8 -62 9t-23 42q-1 3 -1 9v8l-24 -60q-5 -12 -12.5 -32t-9.5 -25q-10 -27 -18 -48q-6 -18 -10 -34l-73 -29q28 61 84 185q28 62 86 186q43 93 90 183q48 93 99 176q8 13 18 21
q10 7 22 10t24 3q8 0 24 2q-4 -5 -15 -18q-12 -16 -24 -34q-5 -7 -15 -22.5t-15 -23.5l-33 -51l-34 -56q28 32 62 57q33 24 69 24q38 0 56 -15t24 -39q6 -23 1 -54t-15 -62q-11 -31 -24 -60t-24 -48zM436 576l-1 -1q-19 0 -42 -16q-24 -17 -48 -42t-48 -57q-23 -30 -43 -61
q-6 -9 -18 -30q-16 -28 -26 -48q-12 -23 -25 -55q-13 -31 -17 -54q-5 -27 1 -45q6 -19 28 -25q25 -7 55 8q29 14 60 44q32 30 59 69t51 83t38 83q15 40 18 74q3 33 -6 53t-36 20z" />
    <glyph glyph-name="germandbls" unicode="&#xdf;" horiz-adv-x="519" 
d="M630 555l-9 -2q-6 -35 -25 -60q-21 -27 -46 -44q-27 -18 -60 -30q-38 -14 -64 -20q-11 -3 -16 -21q-4 -18 3 -49q6 -21 13 -38l18 -42q6 -14 16 -42q7 -20 7 -38q1 -33 -9 -66q-11 -34 -33 -59q5 -18 16 -24t25 -4q13 1 27 11q16 10 23 19q8 10 18 24q11 15 20 29
q6 10 18 28q9 13 15 24q9 15 12 11t-6 -21q-3 -6 -9.5 -17.5t-7.5 -13.5q-6 -11 -18 -31q-9 -14 -20 -29q-10 -14 -21 -24q-11 -11 -26 -17t-30 -6q-16 0 -27 7q-12 8 -18 22l-7 -7q-18 -14 -42 -23q-25 -9 -51 -9q-25 0 -46 9t-32 32q-9 18 -9 41q0 21 8 39q4 10 11 21
q5 8 14 15q16 11 30 13t23 -3t12 -13t-2 -16q-10 4 -21 1t-19 -10q-12 -10 -22 -29q-8 -17 -10 -36q0 -19 9 -31t24 -18q14 -6 33 -4q17 1 33 11q18 11 30 30t18 42q7 25 8 45q2 22 0 42q-2 48 -13 87q-12 41 -15 63q-5 40 1 60q6 22 33 29l33 11q16 5 40 17q22 11 41 27
t33 41q13 20 17 47q5 29 -1 53q-6 26 -24 44q-19 19 -51 20q-44 1 -78 -15q-35 -17 -65 -48q-29 -30 -58 -78q-25 -42 -58 -105q-36 -71 -72 -158q-46 -112 -69 -169q-21 -49 -48 -101q-29 -56 -66 -104q-36 -48 -84 -88q-46 -39 -99 -54q-12 -3 -38 -7q-20 -3 -38 0
q-17 3 -34 12t-27 27q-8 15 -10 36q-2 19 6 36q4 6 6 8q3 3 5 -3q5 -34 21 -54q16 -19 41 -27q23 -7 53 -4q28 3 57 15q27 11 54 32q25 20 45 45q15 19 34 53q14 24 31 60q15 32 27 63q20 53 23 61q14 41 44 123q21 58 50 122q27 60 60 117q32 55 74 108q17 21 39 42
q22 20 50 36q26 15 59 24t69 8q39 -2 63 -13q27 -13 41 -31q16 -20 20 -42t0 -45z" />
    <glyph glyph-name="agrave" unicode="&#xe0;" horiz-adv-x="357" 
d="M445 155l-4 -3q-15 -29 -38 -66q-21 -33 -50 -62q-6 -6 -20 -16q-11 -8 -24 -12q-11 -5 -22 -6q-12 -1 -25 3q-14 5 -21 15q-8 12 -11 24q-3 14 -3 29t3 29q0 5 1 6q-13 -20 -33 -42t-39 -39q-29 -23 -53 -25q-22 -1 -37 14q-14 14 -19 42q-4 26 5 60q28 111 125 183
q21 15 51 24t62 9q36 0 62 -10t37 -30q-10 -14 -21 -30q-7 -11 -21 -35t-20 -36l-5.5 -11t-6.5 -12.5t-5 -10.5q-15 -33 -23 -52q-13 -31 -14 -53q-1 -10 3 -22q5 -12 21 -12t31 12q17 13 26 24q25 28 41 55q22 36 38 65q4 8 9 3t0 -12zM377 281l-1 -1q-9 14 -30 21
q-20 7 -41 7q-31 0 -60 -17q-30 -17 -53 -42q-32 -35 -58 -80q-25 -43 -32 -74q-2 -9 -4 -25q-2 -14 0 -24q1 -10 8 -18q6 -7 16 -7q20 0 42 21q23 21 44 50q21 28 39 57q19 31 28 43q2 3 8.5 14t10.5 16q8 12 20 24t24 20q14 9 33 15h3h3zM361 401l2 -3q8 -5 3 -11
q-4 -6 -9 -4l-126 71q-6 4 -6 12q0 6 5 13q4 6 11 9q6 3 12 -2q21 -16 55 -45q25 -22 53 -40z" />
    <glyph glyph-name="aacute" unicode="&#xe1;" horiz-adv-x="357" 
d="M445 155l-4 -3q-15 -29 -38 -66q-21 -33 -50 -62q-6 -6 -20 -16q-11 -8 -24 -12q-11 -5 -22 -6q-12 -1 -25 3q-14 5 -21 15q-8 12 -11 24q-3 14 -3 29t3 29q0 5 1 6q-13 -20 -33 -42t-39 -39q-29 -23 -53 -25q-22 -1 -37 14q-14 14 -19 42q-4 26 5 60q28 111 125 183
q21 15 51 24t62 9q36 0 62 -10t37 -30q-10 -14 -21 -30q-7 -11 -21 -35t-20 -36l-5.5 -11t-6.5 -12.5t-5 -10.5q-15 -33 -23 -52q-13 -31 -14 -53q-1 -10 3 -22q5 -12 21 -12t31 12q17 13 26 24q25 28 41 55q22 36 38 65q4 8 9 3t0 -12zM377 281l-1 -1q-9 14 -30 21
q-20 7 -41 7q-31 0 -60 -17q-30 -17 -53 -42q-32 -35 -58 -80q-25 -43 -32 -74q-2 -9 -4 -25q-2 -14 0 -24q1 -10 8 -18q6 -7 16 -7q20 0 42 21q23 21 44 50q21 28 39 57q19 31 28 43q2 3 8.5 14t10.5 16q8 12 20 24t24 20q14 9 33 15h3h3zM309 385l-1 2q-2 -2 -5 0
q-3 1 -4 4q-1 2 -1 6q0 3 5 6q28 18 53 40q34 29 55 45q6 5 13 2q8 -3 12 -9q5 -7 5 -13q0 -8 -6 -12z" />
    <glyph glyph-name="acircumflex" unicode="&#xe2;" horiz-adv-x="357" 
d="M445 155l-4 -3q-15 -29 -38 -66q-21 -33 -50 -62q-6 -6 -20 -16q-11 -8 -24 -12q-11 -5 -22 -6q-12 -1 -25 3q-14 5 -21 15q-8 12 -11 24q-3 14 -3 29t3 29q0 5 1 6q-13 -20 -33 -42t-39 -39q-29 -23 -53 -25q-22 -1 -37 14q-14 14 -19 42q-4 26 5 60q28 111 125 183
q21 15 51 24t62 9q36 0 62 -10t37 -30q-10 -14 -21 -30q-7 -11 -21 -35t-20 -36l-5.5 -11t-6.5 -12.5t-5 -10.5q-15 -33 -23 -52q-13 -31 -14 -53q-1 -10 3 -22q5 -12 21 -12t31 12q17 13 26 24q25 28 41 55q22 36 38 65q4 8 9 3t0 -12zM377 281l-1 -1q-9 14 -30 21
q-20 7 -41 7q-31 0 -60 -17q-30 -17 -53 -42q-32 -35 -58 -80q-25 -43 -32 -74q-2 -9 -4 -25q-2 -14 0 -24q1 -10 8 -18q6 -7 16 -7q20 0 42 21q23 21 44 50q21 28 39 57q19 31 28 43q2 3 8.5 14t10.5 16q8 12 20 24t24 20q14 9 33 15h3h3zM415 391v2q3 -4 -2 -9q-5 -4 -9 0
l-75 82l-128 -84q-4 -3 -10 0t-1 6l128 103q26 19 33 6z" />
    <glyph glyph-name="atilde" unicode="&#xe3;" horiz-adv-x="357" 
d="M445 155l-4 -3q-15 -29 -38 -66q-21 -33 -50 -62q-6 -6 -20 -16q-11 -8 -24 -12q-11 -5 -22 -6q-12 -1 -25 3q-14 5 -21 15q-8 12 -11 24q-3 14 -3 29t3 29q0 5 1 6q-13 -20 -33 -42t-39 -39q-29 -23 -53 -25q-22 -1 -37 14q-14 14 -19 42q-4 26 5 60q28 111 125 183
q21 15 51 24t62 9q36 0 62 -10t37 -30q-10 -14 -21 -30q-7 -11 -21 -35t-20 -36l-5.5 -11t-6.5 -12.5t-5 -10.5q-15 -33 -23 -52q-13 -31 -14 -53q-1 -10 3 -22q5 -12 21 -12t31 12q17 13 26 24q25 28 41 55q22 36 38 65q4 8 9 3t0 -12zM377 281l-1 -1q-9 14 -30 21
q-20 7 -41 7q-31 0 -60 -17q-30 -17 -53 -42q-32 -35 -58 -80q-25 -43 -32 -74q-2 -9 -4 -25q-2 -14 0 -24q1 -10 8 -18q6 -7 16 -7q20 0 42 21q23 21 44 50q21 28 39 57q19 31 28 43q2 3 8.5 14t10.5 16q8 12 20 24t24 20q14 9 33 15h3h3zM455 480h-2q0 -22 -16 -39
q-17 -18 -45 -18q-17 0 -32 3q-10 2 -28 8t-27 8q-13 3 -28 3q-23 0 -36 -7t-16 -15h-9q0 20 19 35t42 15q15 0 28 -3l27 -6q9 -2 29 -6q15 -3 32 -3q29 0 40 10q13 11 14 15h8z" />
    <glyph glyph-name="adieresis" unicode="&#xe4;" horiz-adv-x="357" 
d="M445 155l-4 -3q-15 -29 -38 -66q-21 -33 -50 -62q-6 -6 -20 -16q-11 -8 -24 -12q-11 -5 -22 -6q-12 -1 -25 3q-14 5 -21 15q-8 12 -11 24q-3 14 -3 29t3 29q0 5 1 6q-13 -20 -33 -42t-39 -39q-29 -23 -53 -25q-22 -1 -37 14q-14 14 -19 42q-4 26 5 60q28 111 125 183
q21 15 51 24t62 9q36 0 62 -10t37 -30q-10 -14 -21 -30q-7 -11 -21 -35t-20 -36l-5.5 -11t-6.5 -12.5t-5 -10.5q-15 -33 -23 -52q-13 -31 -14 -53q-1 -10 3 -22q5 -12 21 -12t31 12q17 13 26 24q25 28 41 55q22 36 38 65q4 8 9 3t0 -12zM377 281l-1 -1q-9 14 -30 21
q-20 7 -41 7q-31 0 -60 -17q-30 -17 -53 -42q-32 -35 -58 -80q-25 -43 -32 -74q-2 -9 -4 -25q-2 -14 0 -24q1 -10 8 -18q6 -7 16 -7q20 0 42 21q23 21 44 50q21 28 39 57q19 31 28 43q2 3 8.5 14t10.5 16q8 12 20 24t24 20q14 9 33 15h3h3zM426 424l-1 -1q-1 -13 -12 -22
q-10 -8 -24 -10q-11 -1 -19 8t-6 21q1 13 12 22q10 8 24 10q12 0 20 -8t6 -20zM311 423v-1q-1 -13 -12 -22q-10 -8 -24 -10q-12 -2 -20 8q-7 9 -6 21q1 13 12 22q10 8 24 10q12 0 20 -8t6 -20z" />
    <glyph glyph-name="aring" unicode="&#xe5;" horiz-adv-x="357" 
d="M445 155l-4 -3q-15 -29 -38 -66q-21 -33 -50 -62q-6 -6 -20 -16q-11 -8 -24 -12q-11 -5 -22 -6q-12 -1 -25 3q-14 5 -21 15q-8 12 -11 24q-3 14 -3 29t3 29q0 5 1 6q-13 -20 -33 -42t-39 -39q-29 -23 -53 -25q-22 -1 -37 14q-14 14 -19 42q-4 26 5 60q28 111 125 183
q21 15 51 24t62 9q36 0 62 -10t37 -30q-10 -14 -21 -30q-7 -11 -21 -35t-20 -36l-5.5 -11t-6.5 -12.5t-5 -10.5q-15 -33 -23 -52q-13 -31 -14 -53q-1 -10 3 -22q5 -12 21 -12t31 12q17 13 26 24q25 28 41 55q22 36 38 65q4 8 9 3t0 -12zM377 281l-1 -1q-9 14 -30 21
q-20 7 -41 7q-31 0 -60 -17q-30 -17 -53 -42q-32 -35 -58 -80q-25 -43 -32 -74q-2 -9 -4 -25q-2 -14 0 -24q1 -10 8 -18q6 -7 16 -7q20 0 42 21q23 21 44 50q21 28 39 57q19 31 28 43q2 3 8.5 14t10.5 16q8 12 20 24t24 20q14 9 33 15h3h3zM428 490v-8q-2 -17 -7 -29
q-6 -13 -18 -25q-11 -11 -27 -19q-14 -7 -33 -7q-25 -1 -40 9t-21 26q-4 7 -6 15t0 15q1 13 8 30q6 15 18 27q13 13 27 20q15 8 33 9q26 2 41 -9q14 -10 22 -24l3 -15q2 -7 0 -15zM397 463h-3q3 11 3 24t-5 26q-5 11 -12 17q-8 6 -21 6q-23 0 -35 -16q-13 -18 -17 -33
q-3 -11 -3 -24t6 -27q4 -9 13 -16q8 -7 23 -7q22 1 34 17q13 16 17 33z" />
    <glyph glyph-name="ae" unicode="&#xe6;" horiz-adv-x="455" 
d="M512 110h-3q-5 -12 -15 -28q-12 -20 -19 -30q-9 -13 -24 -28q-13 -14 -30 -24q-32 -17 -70 -18q-39 -1 -67 15q-29 17 -35 53q-6 35 20 94q-7 -7 -11 -12q-8 -10 -13 -15q-12 -19 -39 -49q-26 -28 -51 -48q-29 -23 -54 -25q-23 -1 -37 14t-18 42q-4 26 5 60
q29 113 123 183q23 17 55 27q33 11 66 9q25 -2 42 -7q19 -6 39 -18q18 12 33 17q18 7 33 8q12 1 26 -2q11 -3 22 -12q11 -11 11 -27q0 -18 -4 -34q-4 -15 -14 -34q-11 -19 -16 -27q-17 -21 -36 -39t-42 -27q-7 -4 -21 -7q-12 -3 -22 -3q-11 0 -20 3t-15 9q-29 -82 -12 -111
q8 -11 19 -15t26 -4q40 0 74 20t56 51q14 22 20 33q12 22 17 33q7 13 9 3q1 -10 -8 -30zM462 239h2q4 7 9 20q5 12 6 24t-3 21t-18 12q-18 4 -45 -18q-26 -22 -52 -60q-13 -23 -24 -43q-13 -25 -24 -54q12 -8 26 -6q15 2 27 7q15 7 26 15q12 9 20 17q12 10 25 27q9 11 25 38
zM364 297l-1 -4q-25 14 -45 17q-22 3 -50 -7q-44 -15 -78 -54q-34 -37 -57 -80q-21 -39 -31 -74q-4 -13 -5 -24q-1 -13 0 -24t6 -18q4 -7 15 -7q20 0 42 21q23 21 44 50t39 57q19 31 28 43q18 28 40 54q24 29 53 50z" />
    <glyph glyph-name="ccedilla" unicode="&#xe7;" horiz-adv-x="265" 
d="M157 -154l-12 -7q0 -23 -13 -39q-14 -16 -33 -27t-42 -15q-25 -5 -40 -5q-3 0 -5 3q-2 4 -2 6q0 4 3 6q4 2 5 3q18 5 33 5q17 0 30 3t21 14t8 36q0 10 -7 20q-5 7 -15 23l-15 24q-7 11 -7 24q0 23 10 42q10 20 30 27q-23 11 -35 32t-15 48t3 57q5 27 17 57q10 26 27 52
q16 24 38 45q20 19 48 31q27 12 57 12q41 0 56 -24q15 -25 -1 -65q-8 -19 -18 -32q-11 -14 -24 -21q-11 -5 -21 -3q-10 1 -12 14q-2 17 16 36t47 21q9 22 2 41q-7 20 -33 21q-21 1 -40 -9q-20 -10 -36 -30t-30 -45q-15 -29 -23 -52q-6 -17 -13 -48q-6 -29 -3 -56
q3 -26 18 -46q15 -19 48 -19q18 0 37 8q18 8 33 21q16 15 27 28q16 20 23 30q6 9 18 29t17 29q4 7 7 1q3 -5 -2 -16q-1 -2 -7 -11.5t-10 -15.5q-12 -20 -19 -29q-17 -23 -30 -38q-17 -19 -31 -29q-16 -12 -36 -18t-45 -6q-15 0 -28 3q-14 -8 -20 -21t-6 -29q0 -8 8 -19
q3 -4 8.5 -11.5t8.5 -10.5q12 -16 17 -25q8 -14 8 -30z" />
    <glyph glyph-name="egrave" unicode="&#xe8;" horiz-adv-x="262" 
d="M338 134v-4q-13 -24 -35 -54q-20 -27 -41 -47q-20 -19 -42 -30q-23 -11 -53 -9q-27 0 -48 8q-19 8 -30 21q-13 13 -18 33q-4 17 -4 42q0 22 6 45q5 18 14 42q12 28 25 51t35 46q20 21 44 35q24 13 53 15q12 1 26 -2q12 -3 21 -12q11 -11 14 -24q3 -12 1 -29
q-5 -29 -24 -56q-20 -27 -45 -45t-54 -21q-28 -3 -52 20q-8 -21 -12 -49t0 -52q4 -23 20 -39q15 -15 47 -11q20 3 40 15q21 13 36 28q22 24 38 45q19 25 35 56q5 8 6 0t-3 -18zM264 215l-5 -2q5 9 12 26q5 13 7 30q2 15 -3 27t-18 15q-18 5 -45 -18q-26 -22 -49 -60
q-8 -13 -15 -28q-10 -22 -14 -34q10 -16 29 -18q18 -1 36 6q17 7 36 23t29 33zM320 399l2 -3q8 -5 3 -11q-4 -6 -9 -4l-126 71q-6 4 -6 12q0 6 5 13q4 6 11 9q6 3 12 -2q21 -16 55 -45q25 -22 53 -40z" />
    <glyph glyph-name="eacute" unicode="&#xe9;" horiz-adv-x="262" 
d="M338 134v-4q-13 -24 -35 -54q-20 -27 -41 -47q-20 -19 -42 -30q-23 -11 -53 -9q-27 0 -48 8q-19 8 -30 21q-13 13 -18 33q-4 17 -4 42q0 22 6 45q5 18 14 42q12 28 25 51t35 46q20 21 44 35q24 13 53 15q12 1 26 -2q12 -3 21 -12q11 -11 14 -24q3 -12 1 -29
q-5 -29 -24 -56q-20 -27 -45 -45t-54 -21q-28 -3 -52 20q-8 -21 -12 -49t0 -52q4 -23 20 -39q15 -15 47 -11q20 3 40 15q21 13 36 28q22 24 38 45q19 25 35 56q5 8 6 0t-3 -18zM264 215l-5 -2q5 9 12 26q5 13 7 30q2 15 -3 27t-18 15q-18 5 -45 -18q-26 -22 -49 -60
q-8 -13 -15 -28q-10 -22 -14 -34q10 -16 29 -18q18 -1 36 6q17 7 36 23t29 33zM260 383l-1 2q-2 -2 -5 0q-3 1 -4 4q-1 2 -1 6q0 3 5 6q28 18 53 40q34 29 55 45q6 5 13 2t12 -9q5 -7 5 -13q0 -8 -6 -12z" />
    <glyph glyph-name="ecircumflex" unicode="&#xea;" horiz-adv-x="262" 
d="M338 134v-4q-13 -24 -35 -54q-20 -27 -41 -47q-20 -19 -42 -30q-23 -11 -53 -9q-27 0 -48 8q-19 8 -30 21q-13 13 -18 33q-4 17 -4 42q0 22 6 45q5 18 14 42q12 28 25 51t35 46q20 21 44 35q24 13 53 15q12 1 26 -2q12 -3 21 -12q11 -11 14 -24q3 -12 1 -29
q-5 -29 -24 -56q-20 -27 -45 -45t-54 -21q-28 -3 -52 20q-8 -21 -12 -49t0 -52q4 -23 20 -39q15 -15 47 -11q20 3 40 15q21 13 36 28q22 24 38 45q19 25 35 56q5 8 6 0t-3 -18zM264 215l-5 -2q5 9 12 26q5 13 7 30q2 15 -3 27t-18 15q-18 5 -45 -18q-26 -22 -49 -60
q-8 -13 -15 -28q-10 -22 -14 -34q10 -16 29 -18q18 -1 36 6q17 7 36 23t29 33zM377 389v2q3 -4 -2 -9q-5 -4 -9 0l-75 82l-128 -84q-4 -3 -10 0t-1 6l128 103q26 19 33 6z" />
    <glyph glyph-name="edieresis" unicode="&#xeb;" horiz-adv-x="262" 
d="M338 134v-4q-13 -24 -35 -54q-20 -27 -41 -47q-20 -19 -42 -30q-23 -11 -53 -9q-27 0 -48 8q-19 8 -30 21q-13 13 -18 33q-4 17 -4 42q0 22 6 45q5 18 14 42q12 28 25 51t35 46q20 21 44 35q24 13 53 15q12 1 26 -2q12 -3 21 -12q11 -11 14 -24q3 -12 1 -29
q-5 -29 -24 -56q-20 -27 -45 -45t-54 -21q-28 -3 -52 20q-8 -21 -12 -49t0 -52q4 -23 20 -39q15 -15 47 -11q20 3 40 15q21 13 36 28q22 24 38 45q19 25 35 56q5 8 6 0t-3 -18zM264 215l-5 -2q5 9 12 26q5 13 7 30q2 15 -3 27t-18 15q-18 5 -45 -18q-26 -22 -49 -60
q-8 -13 -15 -28q-10 -22 -14 -34q10 -16 29 -18q18 -1 36 6q17 7 36 23t29 33zM345 425l-1 -1q-1 -13 -12 -22q-10 -8 -24 -10q-11 -1 -19 8q-7 9 -6 21q1 13 12 22q10 8 24 10q12 0 20 -8t6 -20zM230 424v-1q-1 -13 -12 -22q-10 -8 -24 -10q-12 -2 -20 8q-8 9 -6 21
q1 13 12 22q10 8 24 10q12 0 20 -8t6 -20z" />
    <glyph glyph-name="igrave" unicode="&#xec;" horiz-adv-x="172" 
d="M259 155l-4 -1q-12 -22 -38 -66q-20 -34 -48 -62q-13 -14 -30 -24q-16 -10 -38 -10q-18 0 -31 8q-12 8 -18 21t-6 32q0 15 5 37q4 17 14 42q6 15 20 47q7 16 23 46q4 8 12 22t11 20q12 19 19 26q10 10 18 14q12 6 19 8l24 8q6 2 9 2t11 2q-18 -18 -40 -48
q-21 -29 -45 -78q-9 -16 -19 -42l-18 -45q-8 -20 -13 -42q-5 -20 -6 -31q-1 -19 5 -27q6 -7 17 -7q17 0 32 12q17 13 27 25q24 27 42 55q17 27 39 65q5 8 8 3t-1 -12zM268 404l2 -3q8 -5 3 -11q-4 -6 -9 -4l-126 71q-6 5 -6 12q0 6 5 13q4 6 11 9q6 3 12 -2q21 -16 55 -45
q25 -22 53 -40z" />
    <glyph glyph-name="iacute" unicode="&#xed;" horiz-adv-x="172" 
d="M259 155l-4 -1q-12 -22 -38 -66q-20 -34 -48 -62q-13 -14 -30 -24q-16 -10 -38 -10q-18 0 -31 8q-12 8 -18 21t-6 32q0 15 5 37q4 17 14 42q6 15 20 47q7 16 23 46q4 8 12 22t11 20q12 19 19 26q10 10 18 14q12 6 19 8l24 8q6 2 9 2t11 2q-18 -18 -40 -48
q-21 -29 -45 -78q-9 -16 -19 -42l-18 -45q-8 -20 -13 -42q-5 -20 -6 -31q-1 -19 5 -27q6 -7 17 -7q17 0 32 12q17 13 27 25q24 27 42 55q17 27 39 65q5 8 8 3t-1 -12zM225 395l-1 2q-2 -2 -5 0q-3 1 -4 4q-1 2 -1 6q0 3 5 6q28 18 53 40q34 29 55 45q6 5 13 2q8 -3 12 -9
q5 -7 5 -13q0 -8 -6 -12z" />
    <glyph glyph-name="icircumflex" unicode="&#xee;" horiz-adv-x="172" 
d="M259 155l-4 -1q-12 -22 -38 -66q-20 -34 -48 -62q-13 -14 -30 -24q-16 -10 -38 -10q-18 0 -31 8q-12 8 -18 21t-6 32q0 15 5 37q4 17 14 42q6 15 20 47q7 16 23 46q4 8 12 22t11 20q12 19 19 26q10 10 18 14q12 6 19 8l24 8q6 2 9 2t11 2q-18 -18 -40 -48
q-21 -29 -45 -78q-9 -16 -19 -42l-18 -45q-8 -20 -13 -42q-5 -20 -6 -31q-1 -19 5 -27q6 -7 17 -7q17 0 32 12q17 13 27 25q24 27 42 55q17 27 39 65q5 8 8 3t-1 -12zM329 394v2q3 -4 -2 -9t-9 0l-75 82l-128 -84q-4 -3 -10 0t-1 6l128 103q26 20 33 6z" />
    <glyph glyph-name="idieresis" unicode="&#xef;" horiz-adv-x="172" 
d="M259 155l-4 -1q-12 -22 -38 -66q-20 -34 -48 -62q-13 -14 -30 -24q-16 -10 -38 -10q-18 0 -31 8q-12 8 -18 21t-6 32q0 15 5 37q4 17 14 42q6 15 20 47q7 16 23 46q4 8 12 22t11 20q12 19 19 26q10 10 18 14q12 6 19 8l24 8q6 2 9 2t11 2q-18 -18 -40 -48
q-21 -29 -45 -78q-9 -16 -19 -42l-18 -45q-8 -20 -13 -42q-5 -20 -6 -31q-1 -19 5 -27q6 -7 17 -7q17 0 32 12q17 13 27 25q24 27 42 55q17 27 39 65q5 8 8 3t-1 -12zM317 427l-1 -1q-1 -13 -12 -22q-10 -8 -24 -10q-11 -1 -19 8q-7 9 -6 21q1 13 12 22q10 8 24 10
q12 0 20 -8t6 -20zM202 426v-1q-1 -13 -12 -22q-10 -8 -24 -10q-12 -2 -20 8q-8 9 -6 21q1 13 12 22q10 8 24 10q12 0 20 -8t6 -20z" />
    <glyph glyph-name="eth" unicode="&#xf0;" horiz-adv-x="313" 
d="M383 559l-75 -36q14 -30 22 -69q7 -35 7 -75q0 -33 -5 -75q-4 -38 -12 -69q-12 -41 -28 -81q-18 -42 -45 -79q-27 -36 -63 -60t-81 -24q-17 0 -30 8q-12 8 -20 20q-8 13 -11 27q-3 15 -3 30q0 61 25 111q26 52 66 89q26 26 57 38t60 12t39 -21q11 -21 12 -46q10 58 6 124
t-30 123l-87 -43l-9 18l86 43q-12 22 -27 39q-50 59 -128 41q-2 -1 -3 0.5t-1 5.5q0 8 16 12q19 6 40 6q19 0 41 -5q20 -5 38 -15q19 -11 32 -24q20 -19 33 -40l69 34zM279 260l-3 -1q0 20 -7 35q-8 17 -30 17q-25 0 -51 -23q-26 -22 -48 -57t-39 -75q-16 -38 -22 -75
q-6 -35 0 -57q6 -23 28 -23q18 0 38 14q19 13 39 36t36 51t30 57q13 28 21 56q8 29 8 45z" />
    <glyph glyph-name="ntilde" unicode="&#xf1;" horiz-adv-x="326" 
d="M413 152l1 -5q-12 -22 -38 -64q-20 -31 -48 -60q-14 -13 -30 -24q-16 -10 -38 -10q-38 0 -53 28q-15 29 -3 66q8 25 19 45q11 21 26 44q9 14 27 44q15 25 24 43q12 24 5 36t-21 12t-33 -10q-19 -11 -45 -39q-4 -5 -34 -44q-16 -21 -31 -47q-19 -35 -36 -69
q-12 -26 -28 -63q-7 -17 -18 -25t-21 -9t-19 0q-9 2 -14 0q23 44 55 116q25 55 46 122q9 30 15 55q6 28 5 35q-1 4 2 6q3 1 6 0q14 -8 18 -22q4 -15 3 -33q-2 -19 -6 -38q-4 -16 -11 -36q18 24 28 36q17 20 33 35q22 22 42 35q21 14 42 15q50 5 60 -22q11 -28 -7 -69
q-15 -35 -31 -63q-18 -31 -33 -60l-9 -18q-7 -15 -11 -27q-4 -9 -5 -18q-1 -10 0 -19t6 -15t15 -6q17 0 32 12q17 14 26 25q24 27 42 55q17 27 39 65q5 8 8 0q3 -7 -2 -15zM430 479h-2q0 -22 -16 -39q-16 -18 -45 -18q-17 0 -32 3q-10 2 -28 8t-27 8q-14 3 -28 3
q-23 0 -36 -7t-16 -15h-9q0 20 19 35q20 15 42 15q14 0 28 -3l27 -6q9 -2 29 -6q15 -3 32 -3q29 0 40 10q13 11 14 15h8z" />
    <glyph glyph-name="ograve" unicode="&#xf2;" horiz-adv-x="378" 
d="M466 155l-1 -3q-18 -33 -39 -66q-22 -35 -49 -63q-15 -17 -34 -24t-39 -6q-22 2 -32 10q-11 9 -15 19q-5 -5 -15 -13q-5 -4 -15 -10q-31 -19 -64 -22t-59 12q-25 15 -37 48t0 86q4 19 14 43q10 23 18 38q15 26 30 47q17 23 36 39q20 17 43 27t52 10q31 0 51 -11
q19 -10 30 -29q11 -18 12 -42t-3 -51q-8 -45 -28 -84q-21 -40 -53 -74q4 -19 18 -25q13 -6 21 -6q18 0 35 10q18 11 33 27q9 9 22 27q8 11 22 33t20 33q8 14 17 29q5 8 9 3t0 -12zM328 169l-2 -1q8 26 9 51q2 27 -4 45q-6 19 -19 31q-14 12 -37 12q-20 0 -41 -15
q-22 -16 -39 -37q-18 -23 -33 -45q-12 -18 -22 -38q-21 -46 -27 -81q-6 -36 -2 -57q4 -22 17 -33t29 -11q23 0 47 12t47 35q-1 7 -3 23q-1 13 2 33t10 36q7 17 21 31q10 10 26 12q15 2 21 -3zM337 401l2 -3q8 -5 3 -11q-4 -6 -9 -4l-126 71q-6 4 -6 12q0 6 5 13q4 6 11 9
q6 3 12 -2q21 -16 55 -45q25 -22 53 -40z" />
    <glyph glyph-name="oacute" unicode="&#xf3;" horiz-adv-x="378" 
d="M466 155l-1 -3q-18 -33 -39 -66q-22 -35 -49 -63q-15 -17 -34 -24t-39 -6q-22 2 -32 10q-11 9 -15 19q-5 -5 -15 -13q-5 -4 -15 -10q-31 -19 -64 -22t-59 12q-25 15 -37 48t0 86q4 19 14 43q10 23 18 38q15 26 30 47q17 23 36 39q20 17 43 27t52 10q31 0 51 -11
q19 -10 30 -29q11 -18 12 -42t-3 -51q-8 -45 -28 -84q-21 -40 -53 -74q4 -19 18 -25q13 -6 21 -6q18 0 35 10q18 11 33 27q9 9 22 27q8 11 22 33t20 33q8 14 17 29q5 8 9 3t0 -12zM328 169l-2 -1q8 26 9 51q2 27 -4 45q-6 19 -19 31q-14 12 -37 12q-20 0 -41 -15
q-22 -16 -39 -37q-18 -23 -33 -45q-12 -18 -22 -38q-21 -46 -27 -81q-6 -36 -2 -57q4 -22 17 -33t29 -11q23 0 47 12t47 35q-1 7 -3 23q-1 13 2 33t10 36q7 17 21 31q10 10 26 12q15 2 21 -3zM280 385l-1 2q-2 -2 -5 0q-3 1 -4 4q-1 2 -1 6q0 3 5 6q28 18 53 40q34 29 55 45
q6 5 13 2t12 -9q5 -7 5 -13q0 -8 -6 -12z" />
    <glyph glyph-name="ocircumflex" unicode="&#xf4;" horiz-adv-x="378" 
d="M466 155l-1 -3q-18 -33 -39 -66q-22 -35 -49 -63q-15 -17 -34 -24t-39 -6q-22 2 -32 10q-11 9 -15 19q-5 -5 -15 -13q-5 -4 -15 -10q-31 -19 -64 -22t-59 12q-25 15 -37 48t0 86q4 19 14 43q10 23 18 38q15 26 30 47q17 23 36 39q20 17 43 27t52 10q31 0 51 -11
q19 -10 30 -29q11 -18 12 -42t-3 -51q-8 -45 -28 -84q-21 -40 -53 -74q4 -19 18 -25q13 -6 21 -6q18 0 35 10q18 11 33 27q9 9 22 27q8 11 22 33t20 33q8 14 17 29q5 8 9 3t0 -12zM328 169l-2 -1q8 26 9 51q2 27 -4 45q-6 19 -19 31q-14 12 -37 12q-20 0 -41 -15
q-22 -16 -39 -37q-18 -23 -33 -45q-12 -18 -22 -38q-21 -46 -27 -81q-6 -36 -2 -57q4 -22 17 -33t29 -11q23 0 47 12t47 35q-1 7 -3 23q-1 13 2 33t10 36q7 17 21 31q10 10 26 12q15 2 21 -3zM381 391v2q3 -4 -2 -9q-5 -4 -9 0l-75 82l-128 -84q-4 -3 -10 0t-1 6l128 103
q26 19 33 6z" />
    <glyph glyph-name="otilde" unicode="&#xf5;" horiz-adv-x="378" 
d="M466 155l-1 -3q-18 -33 -39 -66q-22 -35 -49 -63q-15 -17 -34 -24t-39 -6q-22 2 -32 10q-11 9 -15 19q-5 -5 -15 -13q-5 -4 -15 -10q-31 -19 -64 -22t-59 12q-25 15 -37 48t0 86q4 19 14 43q10 23 18 38q15 26 30 47q17 23 36 39q20 17 43 27t52 10q31 0 51 -11
q19 -10 30 -29q11 -18 12 -42t-3 -51q-8 -45 -28 -84q-21 -40 -53 -74q4 -19 18 -25q13 -6 21 -6q18 0 35 10q18 11 33 27q9 9 22 27q8 11 22 33t20 33q8 14 17 29q5 8 9 3t0 -12zM328 169l-2 -1q8 26 9 51q2 27 -4 45q-6 19 -19 31q-14 12 -37 12q-20 0 -41 -15
q-22 -16 -39 -37q-18 -23 -33 -45q-12 -18 -22 -38q-21 -46 -27 -81q-6 -36 -2 -57q4 -22 17 -33t29 -11q23 0 47 12t47 35q-1 7 -3 23q-1 13 2 33t10 36q7 17 21 31q10 10 26 12q15 2 21 -3zM432 480h-2q0 -22 -16 -39q-16 -18 -45 -18q-17 0 -32 3q-10 2 -28 8t-27 8
q-14 3 -28 3q-23 0 -36 -7t-16 -15h-9q0 20 19 35q20 15 42 15q14 0 28 -3l27 -6q9 -2 29 -6q15 -3 32 -3q29 0 40 10q13 11 14 15h8z" />
    <glyph glyph-name="odieresis" unicode="&#xf6;" horiz-adv-x="378" 
d="M466 155l-1 -3q-18 -33 -39 -66q-22 -35 -49 -63q-15 -17 -34 -24t-39 -6q-22 2 -32 10q-11 9 -15 19q-5 -5 -15 -13q-5 -4 -15 -10q-31 -19 -64 -22t-59 12q-25 15 -37 48t0 86q4 19 14 43q10 23 18 38q15 26 30 47q17 23 36 39q20 17 43 27t52 10q31 0 51 -11
q19 -10 30 -29q11 -18 12 -42t-3 -51q-8 -45 -28 -84q-21 -40 -53 -74q4 -19 18 -25q13 -6 21 -6q18 0 35 10q18 11 33 27q9 9 22 27q8 11 22 33t20 33q8 14 17 29q5 8 9 3t0 -12zM328 169l-2 -1q8 26 9 51q2 27 -4 45q-6 19 -19 31q-14 12 -37 12q-20 0 -41 -15
q-22 -16 -39 -37q-18 -23 -33 -45q-12 -18 -22 -38q-21 -46 -27 -81q-6 -36 -2 -57q4 -22 17 -33t29 -11q23 0 47 12t47 35q-1 7 -3 23q-1 13 2 33t10 36q7 17 21 31q10 10 26 12q15 2 21 -3zM378 424l-1 -1q-1 -13 -12 -22q-10 -8 -24 -10q-11 -1 -19 8t-6 21q1 13 12 22
q10 8 24 10q12 0 20 -8t6 -20zM263 423v-1q-1 -13 -12 -22q-10 -8 -24 -10q-12 -2 -20 8q-7 9 -6 21q1 13 12 22q10 8 24 10q12 0 20 -8t6 -20z" />
    <glyph glyph-name="divide" unicode="&#xf7;" horiz-adv-x="383" 
d="M292 280l-2 -1q-1 -12 -11 -22q-9 -9 -22 -9q-13 -1 -21 8q-7 9 -6 22t12 22q10 9 24 9q12 0 20 -8q8 -7 6 -21zM360 175h-237v19h237v-19zM252 92v1q-1 -13 -12 -22q-10 -8 -24 -10q-12 0 -20 9q-7 9 -6 22q2 12 12 21t24 9q12 0 20 -9t6 -21z" />
    <glyph glyph-name="oslash" unicode="&#xf8;" horiz-adv-x="348" 
d="M456 183l-8 -4q-7 -18 -21 -43q-13 -23 -33 -40q-21 -17 -47 -15q-17 1 -31 12q-2 1 -3 6q-10 -16 -15 -23l-15 -21q-13 -17 -28 -31q-16 -16 -33 -26q-33 -20 -69 -21q-35 -1 -61 17l-65 -85h-20l74 94q-17 19 -23 48q-6 31 4 74q4 19 14 43q10 23 18 38q15 26 30 47
q16 23 36 39q20 17 43 27t52 10q41 0 63 -19l50 66h20l-59 -76q17 -20 20 -46q3 -29 -1 -59q-6 -39 -25 -78l3 -3l3 -3q11 -11 24 -12q9 -1 21 2q10 3 20 11q17 14 29 35q16 28 20 36q6 13 14 16q7 3 1 -11q-1 -3 -2 -5zM305 296h1q-17 11 -36 11q-20 0 -41 -15
q-22 -16 -39 -37q-18 -23 -33 -45q-12 -18 -22 -38q-20 -44 -28 -81q-7 -35 -3 -57zM337 196h-2q6 22 3 36t-7 22l-4 5q-2 10 -4 14q-4 8 -7 12l-207 -270q13 -28 42 -28q27 0 56 19t55 48q8 9 22 29q10 14 18 32v2l8 18l3 -9q8 11 14 32q2 8 5.5 21t4.5 17zM327 259l-2 -4
q-10 6 -24 -8q-13 -13 -19 -33q-4 -16 -6 -33q-1 -15 2 -30q3 -13 9 -24t12 -12h1q-4 7 -6 15q-1 5 -1 17q1 13 6 16q2 1 3 0.5t1.5 -3t0.5 -5.5q0 -11 3 -21l8 20q11 27 14 54t-2 51z" />
    <glyph glyph-name="ugrave" unicode="&#xf9;" horiz-adv-x="360" 
d="M447 155l-8 -14q-12 -22 -38 -66q-20 -34 -48 -62q-17 -17 -37 -27q-21 -10 -42 -6q-41 8 -48 37q-7 30 3 70q-16 -26 -25 -38q-15 -20 -30 -35q-16 -16 -37 -25q-20 -9 -42 -7q-27 3 -39 20q-12 16 -12 41q0 22 8 54q6 26 20 58q12 29 24 54q11 23 21 40q11 19 21 29
q11 11 23 17q13 7 26 8q18 2 30 2q-11 -3 -27 -25q-14 -19 -34 -54q-14 -25 -34 -68q-16 -35 -24 -68q-8 -32 -6 -54q1 -22 20 -27q11 -4 31 5q19 9 33 26q21 22 40 51q17 25 33 56q20 38 30 58q14 27 32 59q11 19 21 29q11 11 23 17q13 7 26 8q18 2 30 2q-10 -4 -28 -27
q-19 -24 -36 -55q-22 -40 -35 -70q-17 -40 -26 -71q-9 -34 -8 -57q2 -25 19 -29q12 -4 31 6q20 11 33 27q25 28 41 55q22 36 38 65q5 8 8 3t-1 -12zM357 391l2 -3q8 -5 3 -11q-4 -6 -9 -4l-126 71q-6 4 -6 12q0 6 5 13q4 6 11 9q6 3 12 -2q21 -16 55 -45q25 -22 53 -40z" />
    <glyph glyph-name="uacute" unicode="&#xfa;" horiz-adv-x="360" 
d="M447 155l-8 -14q-12 -22 -38 -66q-20 -34 -48 -62q-17 -17 -37 -27q-21 -10 -42 -6q-41 8 -48 37q-7 30 3 70q-16 -26 -25 -38q-15 -20 -30 -35q-16 -16 -37 -25q-20 -9 -42 -7q-27 3 -39 20q-12 16 -12 41q0 22 8 54q6 26 20 58q12 29 24 54q11 23 21 40q11 19 21 29
q11 11 23 17q13 7 26 8q18 2 30 2q-11 -3 -27 -25q-14 -19 -34 -54q-14 -25 -34 -68q-16 -35 -24 -68q-8 -32 -6 -54q1 -22 20 -27q11 -4 31 5q19 9 33 26q21 22 40 51q17 25 33 56q20 38 30 58q14 27 32 59q11 19 21 29q11 11 23 17q13 7 26 8q18 2 30 2q-10 -4 -28 -27
q-19 -24 -36 -55q-22 -40 -35 -70q-17 -40 -26 -71q-9 -34 -8 -57q2 -25 19 -29q12 -4 31 6q20 11 33 27q25 28 41 55q22 36 38 65q5 8 8 3t-1 -12zM273 375l-1 2q-2 -2 -5 0q-3 1 -4 4q-1 2 -1 6q0 3 5 6q28 18 53 40q34 29 55 45q6 5 13 2q8 -3 12 -9q5 -7 5 -13
q0 -8 -6 -12z" />
    <glyph glyph-name="ucircumflex" unicode="&#xfb;" horiz-adv-x="360" 
d="M447 155l-8 -14q-12 -22 -38 -66q-20 -34 -48 -62q-17 -17 -37 -27q-21 -10 -42 -6q-41 8 -48 37q-7 30 3 70q-16 -26 -25 -38q-15 -20 -30 -35q-16 -16 -37 -25q-20 -9 -42 -7q-27 3 -39 20q-12 16 -12 41q0 22 8 54q6 26 20 58q12 29 24 54q11 23 21 40q11 19 21 29
q11 11 23 17q13 7 26 8q18 2 30 2q-11 -3 -27 -25q-14 -19 -34 -54q-14 -25 -34 -68q-16 -35 -24 -68q-8 -32 -6 -54q1 -22 20 -27q11 -4 31 5q19 9 33 26q21 22 40 51q17 25 33 56q20 38 30 58q14 27 32 59q11 19 21 29q11 11 23 17q13 7 26 8q18 2 30 2q-10 -4 -28 -27
q-19 -24 -36 -55q-22 -40 -35 -70q-17 -40 -26 -71q-9 -34 -8 -57q2 -25 19 -29q12 -4 31 6q20 11 33 27q25 28 41 55q22 36 38 65q5 8 8 3t-1 -12zM407 381v2q3 -4 -2 -9q-5 -4 -9 0l-75 82l-128 -84q-4 -3 -10 0t-1 6l128 103q26 19 33 6z" />
    <glyph glyph-name="udieresis" unicode="&#xfc;" horiz-adv-x="360" 
d="M447 155l-8 -14q-12 -22 -38 -66q-20 -34 -48 -62q-17 -17 -37 -27q-21 -10 -42 -6q-41 8 -48 37q-7 30 3 70q-16 -26 -25 -38q-15 -20 -30 -35q-16 -16 -37 -25q-20 -9 -42 -7q-27 3 -39 20q-12 16 -12 41q0 22 8 54q6 26 20 58q12 29 24 54q11 23 21 40q11 19 21 29
q11 11 23 17q13 7 26 8q18 2 30 2q-11 -3 -27 -25q-14 -19 -34 -54q-14 -25 -34 -68q-16 -35 -24 -68q-8 -32 -6 -54q1 -22 20 -27q11 -4 31 5q19 9 33 26q21 22 40 51q17 25 33 56q20 38 30 58q14 27 32 59q11 19 21 29q11 11 23 17q13 7 26 8q18 2 30 2q-10 -4 -28 -27
q-19 -24 -36 -55q-22 -40 -35 -70q-17 -40 -26 -71q-9 -34 -8 -57q2 -25 19 -29q12 -4 31 6q20 11 33 27q25 28 41 55q22 36 38 65q5 8 8 3t-1 -12zM406 414l-1 -1q-1 -13 -12 -22q-10 -8 -24 -10q-11 -1 -19 8t-6 21q1 13 12 22q10 8 24 10q12 0 20 -8t6 -20zM291 413v-1
q-1 -13 -12 -22q-10 -8 -24 -10q-12 -2 -20 8q-7 9 -6 21q1 13 12 22q10 8 24 10q12 0 20 -8t6 -20z" />
    <glyph glyph-name="yacute" unicode="&#xfd;" horiz-adv-x="439" 
d="M526 155l-8 -6q-12 -22 -38 -66q-20 -34 -48 -62q-38 -36 -72 -59q-37 -25 -68 -35q-19 -43 -37 -76q-19 -34 -42 -64q-22 -28 -50 -48q-27 -19 -63 -27q-38 -9 -61 2q-23 10 -27 30q-5 21 7 44q13 25 40 44q23 16 42 27q22 12 41 20q8 3 23 10t22 10q30 13 59 27
q5 11 13 31t13 29l46 120q-25 -30 -45 -50l-36 -36q-35 -26 -65 -31q-25 -3 -38 8t-14 27q-2 17 3 38t12 39q13 35 30 66t33 66q4 6 8 17q6 16 8 24q3 13 2 23q-2 11 -12 12t-22 -6t-22 -19t-18 -24l-12 -20q-14 -28 -21 -41q-18 -33 -20 -37q-11 -21 -21 -39q-5 -6 -10 -5
t2 16q24 41 35 65q10 21 29 54q18 31 37 54q15 16 35 24q20 7 36 6q24 -3 33 -16t9 -31q0 -16 -8 -37q-8 -19 -15 -33q-27 -48 -41 -77t-27 -62q-11 -24 -9 -39q2 -16 9 -20q8 -5 21 -2q14 3 27 15q53 44 86 102q35 61 63 121q8 15 18 33t24 33q13 15 32 24t40 8
q-13 -11 -27 -37q-15 -27 -33 -63t-36 -78q-24 -56 -35 -83q-6 -16 -17 -43t-14 -35q-4 -10 -25 -64q27 11 63 33q36 23 68 59q24 25 41 54q22 36 38 65q5 8 9 3t0 -12zM232 -94l2 1q-18 -10 -37 -18q-28 -12 -43 -18q-20 -8 -46 -21t-45 -28q-24 -19 -32 -37q-9 -19 -6 -34
t20 -21t47 3q26 7 48 26t38 42q16 24 30 51t24 54zM314 384l-1 2q-2 -2 -5 0q-3 1 -4 4q-1 2 -1 6q0 3 5 6q28 18 53 40q34 29 55 45q6 5 13 2t12 -9q5 -7 5 -13q0 -7 -6 -12z" />
    <glyph glyph-name="thorn" unicode="&#xfe;" horiz-adv-x="296" 
d="M354 114h-7l-24 -48t-33 -45q-12 -12 -28 -18t-31 -6t-27 9q-13 9 -17 27q-15 -12 -33 -22t-33 -11q-29 -4 -42 6t-16 29q-2 12 1 30q-23 -54 -32 -79q-16 -44 -33 -84q-13 -32 -28 -75q-10 -28 -16 -51l-15 -6l-21 -9l-21 -9q-11 -5 -16 -6l158 337q-2 -2 -3 -2t-3 2
t0 8q1 5 6 16l49 99l10 20q5 10 20 39q12 23 27 48q20 34 30 52q12 23 29 50q13 23 24 39t15 24q8 14 18 20q11 6 22 9q12 3 24 3q8 0 24 2q-4 -4 -15 -18q-9 -11 -25 -34q-2 -2 -31 -45q-14 -20 -31 -51q-10 -18 -24 -42q-10 -17 -28 -52q20 22 42 39q22 16 48 16t37 -10
t16 -27q4 -15 1 -37q-3 -23 -10 -42q-8 -24 -16 -40q-7 -14 -17 -33q-12 -19 -30 -41q-19 -24 -43 -46q3 -20 14 -28q10 -7 24 -6q14 2 27 10q13 9 24 21q18 21 32 45q15 25 27 48l3 8q2 3 3 -3q1 -1 1 -3q1 -10 -2 -17zM246 308l-2 -5q-12 0 -26 -11q-15 -12 -29 -27
q-13 -15 -30 -38q-4 -5 -14 -19l-15 -21l-7 -10q-10 -20 -14 -29q-2 -4 -5.5 -12t-5.5 -12l-9 -21q-3 -7 -9 -23q-7 -21 -7 -41q0 -19 15 -23q18 -6 38 8t39 36q21 24 36 49q14 23 27 47q6 10 18 36q11 23 19 51q8 27 5 45q-3 20 -24 20z" />
    <glyph glyph-name="ydieresis" unicode="&#xff;" horiz-adv-x="439" 
d="M449 428l-1 -1q-1 -13 -12 -22q-10 -8 -24 -10q-11 -1 -19 8q-7 9 -6 21q1 13 12 22q10 8 24 10q12 0 20 -8t6 -20zM334 427v-1q-1 -13 -12 -22q-10 -8 -24 -10q-12 -2 -20 8q-8 9 -6 21q1 13 12 22q10 8 24 10q12 0 20 -8t6 -20zM525 153l-8 -6q-12 -22 -38 -66
q-20 -34 -48 -62q-38 -36 -72 -59q-37 -25 -68 -35q-19 -43 -37 -76q-19 -34 -42 -64q-22 -28 -50 -48q-27 -19 -63 -27q-38 -9 -61 2q-22 10 -27 30q-5 21 7 44q13 25 40 44q22 16 42 27q22 12 41 20q8 3 23 10t22 10q30 13 59 27q5 11 13 31t13 29l46 120q-25 -30 -45 -50
l-36 -36q-35 -26 -65 -31q-25 -3 -38 8t-14 27q-2 17 3 38q4 21 12 39q14 35 30 66t33 66q4 6 8 17q6 16 8 24q3 13 2 23q-1 11 -12 12q-10 1 -22 -6t-22 -19q-11 -12 -18 -24l-12 -20q-14 -28 -21 -41q-18 -33 -20 -37q-10 -21 -21 -39q-5 -6 -10 -5t2 16q24 41 35 65
q10 21 29 54q18 31 37 54q15 16 35 24q19 7 36 6q24 -3 33 -16t9 -31q0 -16 -8 -37q-7 -19 -15 -33q-27 -48 -41 -77t-27 -62q-10 -24 -9 -39q2 -16 9 -20q8 -5 21 -2t27 15q53 44 86 102q35 61 63 121q7 15 18 33t24 33t32 24t40 8q-13 -11 -27 -37q-15 -27 -33 -63
t-36 -78q-24 -56 -35 -83q-6 -16 -17 -43t-14 -35q-4 -10 -25 -64q27 11 63 33q36 23 68 59q24 25 41 54q22 36 38 65q4 8 9 3t0 -12zM231 -96l2 1q-18 -10 -37 -18q-28 -12 -43 -18q-20 -8 -46 -21t-45 -28q-24 -19 -32 -37q-9 -19 -6 -34t20 -21t47 3q26 7 48 26t38 42
q17 24 30 51t24 54z" />
    <glyph glyph-name="Amacron" unicode="&#x100;" 
d="M1023 611l-6 -11q-3 -16 -12 -27q-5 -5 -10 -4t0 9q7 9 9 21t-3 23q-7 18 -26 27q-19 10 -43 11q-25 1 -58 -9q-33 -11 -63 -30q-36 -24 -69 -55q-37 -35 -69 -73q-35 -41 -69 -87t-69 -96h147l18 36q6 12 20 36q34 61 77 129q70 111 71 112q4 9 9 4t0 -9
q-47 -72 -81 -148t-63 -158h49q4 0 2 -3q-2 -4 -4 -7t-8 -7q-4 -3 -9 -3h-38l-15 -47q-11 -35 -17 -61q-10 -44 -14 -67q-5 -30 -7 -63q-2 -44 13 -66q15 -23 47 -18q18 3 35 19q20 18 35 39q26 34 44 66q20 34 30 54q5 11 11 8t-1 -16l-35 -63q-20 -35 -47 -69
q-21 -25 -40 -38q-20 -14 -44 -19q-38 -6 -66 9t-39 62q-7 33 -4 69q3 35 12 71q8 33 23 69q18 44 27 65h-154q-11 -15 -31 -45t-31 -45q-30 -44 -69 -89q-42 -48 -88 -87q-49 -41 -100 -69q-52 -29 -105 -33q-19 -2 -39 0q-17 1 -37 8q-17 6 -31 18q-13 12 -19 31
q-4 16 -1 35q3 18 15 33q4 4 8 6q2 1 2.5 0t0.5 -4q3 -47 33 -68q31 -22 72 -23q42 -2 87 15q45 16 80 47q44 38 82 90q34 47 72 104l24 39q8 13 26 39h-249q-3 0 -2 3q1 2 5 8q3 5 8 8q4 3 8 3h245q44 64 92 128q44 58 95 114q57 62 123 100q64 37 117 40q28 2 51 -3
t36 -16q16 -13 22 -33t2 -39zM974 756h-178v20h178v-20z" />
    <glyph glyph-name="amacron" unicode="&#x101;" horiz-adv-x="357" 
d="M445 155l-4 -3q-15 -29 -38 -66q-21 -33 -50 -62q-6 -6 -20 -16q-11 -8 -24 -12q-11 -5 -22 -6q-12 -1 -25 3q-14 5 -21 15q-8 12 -11 24q-3 14 -3 29t3 29q0 5 1 6q-13 -20 -33 -42t-39 -39q-29 -23 -53 -25q-22 -1 -37 14q-14 14 -19 42q-4 26 5 60q28 111 125 183
q21 15 51 24t62 9q36 0 62 -10t37 -30q-10 -14 -21 -30q-7 -11 -21 -35t-20 -36l-5.5 -11t-6.5 -12.5t-5 -10.5q-15 -33 -23 -52q-13 -31 -14 -53q-1 -10 3 -22q5 -12 21 -12t31 12q17 13 26 24q25 28 41 55q22 36 38 65q4 8 9 3t0 -12zM377 281l-1 -1q-9 14 -30 21
q-20 7 -41 7q-31 0 -60 -17q-30 -17 -53 -42q-32 -35 -58 -80q-25 -43 -32 -74q-2 -9 -4 -25q-2 -14 0 -24q1 -10 8 -18q6 -7 16 -7q20 0 42 21q23 21 44 50q21 28 39 57q19 31 28 43q2 3 8.5 14t10.5 16q8 12 20 24t24 20q14 9 33 15h3h3zM444 435h-178v20h178v-20z" />
    <glyph glyph-name="Abreve" unicode="&#x102;" 
d="M1023 611l-6 -11q-3 -16 -12 -27q-5 -5 -10 -4t0 9q7 9 9 21t-3 23q-7 18 -26 27q-19 10 -43 11q-25 1 -58 -9q-33 -11 -63 -30q-36 -24 -69 -55q-37 -35 -69 -73q-35 -41 -69 -87t-69 -96h147l18 36q6 12 20 36q34 61 77 129q70 111 71 112q4 9 9 4t0 -9
q-47 -72 -81 -148t-63 -158h49q4 0 2 -3q-2 -4 -4 -7t-8 -7q-4 -3 -9 -3h-38l-15 -47q-11 -35 -17 -61q-10 -44 -14 -67q-5 -30 -7 -63q-2 -44 13 -66q15 -23 47 -18q18 3 35 19q20 18 35 39q26 34 44 66q20 34 30 54q5 11 11 8t-1 -16l-35 -63q-20 -35 -47 -69
q-21 -25 -40 -38q-20 -14 -44 -19q-38 -6 -66 9t-39 62q-7 33 -4 69q3 35 12 71q8 33 23 69q18 44 27 65h-154q-11 -15 -31 -45t-31 -45q-30 -44 -69 -89q-42 -48 -88 -87q-49 -41 -100 -69q-52 -29 -105 -33q-19 -2 -39 0q-17 1 -37 8q-17 6 -31 18q-13 12 -19 31
q-4 16 -1 35q3 18 15 33q4 4 8 6q2 1 2.5 0t0.5 -4q3 -47 33 -68q31 -22 72 -23q42 -2 87 15q45 16 80 47q44 38 82 90q34 47 72 104l24 39q8 13 26 39h-249q-3 0 -2 3q1 2 5 8q3 5 8 8q4 3 8 3h245q44 64 92 128q44 58 95 114q57 62 123 100q64 37 117 40q28 2 51 -3
t36 -16q16 -13 22 -33t2 -39zM1072 803h-7q-16 -31 -47 -48t-60 -17q-30 0 -53 15q-22 15 -22 48q0 2 5 4q3 1 10 1t10 -1q5 -2 5 -4q0 -25 18 -36t42 -9q23 1 48 14q24 12 35 32q5 5 11 5q3 0 4.5 -1t0.5 -3z" />
    <glyph glyph-name="abreve" unicode="&#x103;" horiz-adv-x="357" 
d="M445 155l-4 -3q-15 -29 -38 -66q-21 -33 -50 -62q-6 -6 -20 -16q-11 -8 -24 -12q-11 -5 -22 -6q-12 -1 -25 3q-14 5 -21 15q-8 12 -11 24q-3 14 -3 29t3 29q0 5 1 6q-13 -20 -33 -42t-39 -39q-29 -23 -53 -25q-22 -1 -37 14q-14 14 -19 42q-4 26 5 60q28 111 125 183
q21 15 51 24t62 9q36 0 62 -10t37 -30q-10 -14 -21 -30q-7 -11 -21 -35t-20 -36l-5.5 -11t-6.5 -12.5t-5 -10.5q-15 -33 -23 -52q-13 -31 -14 -53q-1 -10 3 -22q5 -12 21 -12t31 12q17 13 26 24q25 28 41 55q22 36 38 65q4 8 9 3t0 -12zM377 281l-1 -1q-9 14 -30 21
q-20 7 -41 7q-31 0 -60 -17q-30 -17 -53 -42q-32 -35 -58 -80q-25 -43 -32 -74q-2 -9 -4 -25q-2 -14 0 -24q1 -10 8 -18q6 -7 16 -7q20 0 42 21q23 21 44 50q21 28 39 57q19 31 28 43q2 3 8.5 14t10.5 16q8 12 20 24t24 20q14 9 33 15h3h3zM436 446h-7q-16 -31 -47 -48
t-60 -17q-30 0 -53 15q-22 15 -22 48q0 2 5 4q3 1 10 1t10 -1q5 -2 5 -4q0 -26 18 -36t42 -9q23 1 48 14q24 12 35 32q5 5 11 5q3 0 4.5 -1t0.5 -3z" />
    <glyph glyph-name="Aogonek" unicode="&#x104;" 
d="M727 -157l-10 -10q-9 -13 -29 -39q-17 -21 -38 -39q-24 -19 -42 -21q-18 -1 -30 11t-15 34q-3 23 4 49q6 22 18 42q13 21 27 35q17 17 30 26q14 10 26 15q-20 5 -35 21q-15 17 -21 48q-7 33 -4 69q3 35 12 71q8 33 23 69q18 44 27 65h-154q-11 -15 -31 -45t-31 -45
q-30 -44 -69 -89q-42 -48 -88 -87q-49 -41 -100 -69q-53 -28 -105 -33q-20 -1 -39 0q-17 1 -37 8q-17 6 -31 18q-13 12 -19 31q-4 16 -1 35q3 18 15 33q4 4 8 6q2 1 2.5 0t0.5 -4q3 -47 33 -68q31 -22 72 -23q42 -1 87 15t80 47q44 38 82 90q34 47 72 104l24 39q8 13 26 39
h-249q-4 0 -2 3q1 2 5 8q3 5 8 8t8 3h245q44 64 92 128q44 58 95 114q57 62 123 100q64 37 117 40q29 1 51 -3q23 -5 36 -16q16 -13 22 -33t2 -39q-3 -16 -12 -27q-6 -5 -10 -4t0 9q8 9 9 21q2 12 -3 23q-7 18 -26 27q-19 10 -43 11q-25 1 -58 -9q-33 -11 -63 -30
q-36 -24 -69 -55q-37 -35 -69 -73q-34 -41 -69 -87t-69 -96h147l18 36q6 12 20 36q34 61 77 129q70 111 71 112q4 9 9 4q4 -5 0 -9q-47 -72 -81 -148t-63 -158h49q3 0 2 -3q-2 -4 -4 -7t-8 -7q-5 -3 -9 -3h-38l-15 -47q-11 -35 -17 -61q-10 -44 -14 -67q-5 -30 -7 -63
q-2 -44 13 -66q15 -23 47 -18q18 3 35 19q20 18 35 39q26 34 44 66q19 34 30 54q5 11 11 8t-1 -16l-35 -63q-20 -35 -47 -69q-21 -25 -40 -38q-20 -14 -44 -19q-14 -3 -34 -1l-8 -10q-9 -9 -18 -24q-12 -20 -18 -31t-16 -33q-7 -14 -10 -30q-2 -7 -4 -19q-1 -10 0 -19t6 -15
t12 -6q10 0 21 8q12 8 21 19q11 12 21 27q14 20 21 29q9 13 14 10t-4 -17z" />
    <glyph glyph-name="aogonek" unicode="&#x105;" horiz-adv-x="357" 
d="M323 -98h-5q-9 -13 -29 -39q-17 -21 -38 -39q-24 -20 -42 -21t-30 11t-15 34q-3 23 4 49q9 35 32 63q22 27 45 42q-17 14 -18 39t3 48q0 5 1 6q-13 -19 -33 -42t-39 -39q-29 -23 -53 -25q-22 -1 -37 14q-14 14 -19 42q-4 26 5 60q28 111 125 183q21 15 51 24t62 9
q36 0 62 -10t37 -30q-10 -13 -21 -30q-7 -11 -21 -35t-20 -36l-5.5 -11t-6.5 -12.5t-5 -10.5q-15 -33 -23 -52q-13 -31 -14 -53q-2 -14 4 -24q5 1 6 -0.5t-1 -5.5q4 -4 15 -4q16 0 31 12q17 13 26 24q25 28 41 55q22 36 38 65q4 7 9 3t0 -12q-15 -29 -38 -66
q-21 -33 -50 -62q-6 -6 -20 -16q-11 -8 -24 -12q-11 -4 -21 -6q-11 -2 -23 3l-16 -24q-6 -9 -16 -29q-5 -10 -13 -30q-6 -15 -9 -27q-2 -7 -4 -19q-1 -10 0 -19t6 -15t12 -6q10 0 21 8q12 8 21 19q11 12 21 27q14 20 21 29q9 13 14 10t-4 -17zM376 284l-1 -1q-9 13 -30 21
q-20 7 -41 7q-31 0 -60 -17q-30 -17 -53 -42q-32 -35 -58 -80q-25 -43 -32 -74q-2 -9 -4 -25q-1 -13 0 -24q1 -10 8 -18q6 -7 16 -7q19 0 42 21t44 50t39 57q19 31 28 43q2 3 9 14t10 16q8 12 20 24t24 20q13 9 33 15h3h3z" />
    <glyph glyph-name="Cacute" unicode="&#x106;" horiz-adv-x="692" 
d="M742 215l-8 -11q-4 -55 -38 -102q-33 -46 -83 -81t-112 -57q-61 -22 -126 -28q-63 -6 -123 6t-105 45t-69 87q-24 55 -17 133q5 54 27 111q23 58 60 110q39 54 90 101q52 48 117 84t139 57q75 21 158 21q59 0 90 -19q32 -20 38 -48q6 -29 -13 -58q-20 -31 -60 -53
q-29 -16 -65 -27q-34 -10 -69 -18q-30 -6 -65 -10q-46 -5 -52 -5q-4 -1 -3 3q2 5 7 6q66 8 129 27q61 19 108 47q26 16 42 41q15 24 12 47q-3 22 -27 39q-25 17 -77 17q-73 0 -137 -21q-66 -22 -120 -55q-54 -34 -100 -81q-45 -47 -78 -99q-32 -51 -52 -108
q-20 -56 -24 -108q-8 -76 12 -129t57 -81q38 -29 87 -38q48 -9 104 -1q53 7 106 30q54 23 95 57q43 35 71 78q28 44 33 93q5 41 -21 65t-84 20q-58 -6 -111 -27q-51 -21 -94 -51q-42 -30 -72 -63q-29 -32 -46 -64q-3 -5 -8 -2t-3 8q16 31 48 66q33 36 75 65q43 30 96 51
t114 27q41 3 69 -3q29 -6 46 -19q19 -14 26 -33q8 -19 6 -42zM620 742l-1 2q-2 -2 -5 0q-3 1 -4 4q-1 2 -1 6q0 3 5 6q28 18 53 40q34 29 55 45q6 5 13 2t12 -9q5 -7 5 -13q0 -7 -6 -12z" />
    <glyph glyph-name="cacute" unicode="&#x107;" horiz-adv-x="265" 
d="M343 137l-7 -9q-1 -2 -7 -11.5t-10 -15.5q-12 -20 -19 -29q-17 -23 -30 -38q-17 -19 -31 -29q-17 -12 -36 -18t-45 -6q-41 0 -63 19q-23 20 -30 49q-7 30 -3 66t18 69q10 26 27 52q16 24 38 45q20 19 48 31q27 12 57 12q41 0 56 -24q15 -25 -1 -65q-8 -19 -18 -32
q-11 -13 -24 -21q-11 -4 -21 -3t-12 14q-2 17 16 36t47 21q9 22 2 41t-33 21q-21 1 -40 -9q-20 -11 -36 -30t-30 -45q-15 -29 -23 -52q-6 -17 -13 -48q-6 -29 -3 -56q3 -26 18 -46q15 -19 48 -19q18 0 37 8q18 7 33 21q16 15 27 28q16 20 23 30q6 9 18 29t17 29q4 7 7 1
q3 -5 -2 -16zM259 380l-1 2q-2 -2 -5 0q-3 1 -4 4q-1 2 -1 6q0 3 5 6q28 18 53 40q34 29 55 45q6 5 13 2q8 -3 12 -9q5 -7 5 -13q0 -7 -6 -12z" />
    <glyph glyph-name="Ccircumflex" unicode="&#x108;" horiz-adv-x="692" 
d="M742 215l-8 -11q-4 -55 -38 -102q-33 -46 -83 -81t-112 -57q-61 -22 -126 -28q-63 -6 -123 6t-105 45t-69 87q-24 55 -17 133q5 54 27 111q23 58 60 110q39 54 90 101q52 48 117 84t139 57q75 21 158 21q59 0 90 -19q32 -20 38 -48q6 -29 -13 -58q-20 -31 -60 -53
q-29 -16 -65 -27q-34 -10 -69 -18q-30 -6 -65 -10q-46 -5 -52 -5q-4 -1 -3 3q2 5 7 6q66 8 129 27q61 19 108 47q26 16 42 41q15 24 12 47q-3 22 -27 39q-25 17 -77 17q-73 0 -137 -21q-66 -22 -120 -55q-54 -34 -100 -81q-45 -47 -78 -99q-32 -51 -52 -108
q-20 -56 -24 -108q-8 -76 12 -129t57 -81q38 -29 87 -38q48 -9 104 -1q53 7 106 30q54 23 95 57q43 35 71 78q28 44 33 93q5 41 -21 65t-84 20q-58 -6 -111 -27q-51 -21 -94 -51q-42 -30 -72 -63q-29 -32 -46 -64q-3 -5 -8 -2t-3 8q16 31 48 66q33 36 75 65q43 30 96 51
t114 27q41 3 69 -3q29 -6 46 -19q19 -14 26 -33q8 -19 6 -42zM758 750v2q3 -4 -2 -9q-4 -5 -9 0l-75 82l-128 -84q-4 -3 -10 0t-1 6l128 103q25 20 33 6z" />
    <glyph glyph-name="ccircumflex" unicode="&#x109;" horiz-adv-x="265" 
d="M343 137l-7 -9q-1 -2 -7 -11.5t-10 -15.5q-12 -20 -19 -29q-17 -23 -30 -38q-17 -19 -31 -29q-17 -12 -36 -18t-45 -6q-41 0 -63 19q-23 20 -30 49q-7 30 -3 66t18 69q10 26 27 52q16 24 38 45q20 19 48 31q27 12 57 12q41 0 56 -24q15 -25 -1 -65q-8 -19 -18 -32
q-11 -13 -24 -21q-11 -4 -21 -3t-12 14q-2 17 16 36t47 21q9 22 2 41t-33 21q-21 1 -40 -9q-20 -11 -36 -30t-30 -45q-15 -29 -23 -52q-6 -17 -13 -48q-6 -29 -3 -56q3 -26 18 -46q15 -19 48 -19q18 0 37 8q18 7 33 21q16 15 27 28q16 20 23 30q6 9 18 29t17 29q4 7 7 1
q3 -5 -2 -16zM374 386v2q3 -4 -2 -9q-4 -5 -9 0l-75 82l-128 -84q-4 -3 -10 0t-1 6l128 103q25 20 33 6z" />
    <glyph glyph-name="Cdotaccent" unicode="&#x10a;" horiz-adv-x="692" 
d="M742 215l-8 -11q-4 -55 -38 -102q-33 -46 -83 -81t-112 -57q-61 -22 -126 -28q-63 -6 -123 6t-105 45t-69 87q-24 55 -17 133q5 54 27 111q23 58 60 110q39 54 90 101q52 48 117 84t139 57q75 21 158 21q59 0 90 -19q32 -20 38 -48q6 -29 -13 -58q-20 -31 -60 -53
q-29 -16 -65 -27q-34 -10 -69 -18q-30 -6 -65 -10q-46 -5 -52 -5q-4 -1 -3 3q2 5 7 6q66 8 129 27q61 19 108 47q26 16 42 41q15 24 12 47q-3 22 -27 39q-25 17 -77 17q-73 0 -137 -21q-66 -22 -120 -55q-54 -34 -100 -81q-45 -47 -78 -99q-32 -51 -52 -108
q-20 -56 -24 -108q-8 -76 12 -129t57 -81q38 -29 87 -38q48 -9 104 -1q53 7 106 30q54 23 95 57q43 35 71 78q28 44 33 93q5 41 -21 65t-84 20q-58 -6 -111 -27q-51 -21 -94 -51q-42 -30 -72 -63q-29 -32 -46 -64q-3 -5 -8 -2t-3 8q16 31 48 66q33 36 75 65q43 30 96 51
t114 27q41 3 69 -3q29 -6 46 -19q19 -14 26 -33q8 -19 6 -42zM683 766l-1 -1q-2 -12 -12 -21t-24 -9q-12 0 -19 9t-6 21q1 13 12 22q10 8 24 10q13 0 20 -9t6 -22z" />
    <glyph glyph-name="cdotaccent" unicode="&#x10b;" horiz-adv-x="265" 
d="M343 137l-7 -9q-1 -2 -7 -11.5t-10 -15.5q-12 -20 -19 -29q-17 -23 -30 -38q-17 -19 -31 -29q-17 -12 -36 -18t-45 -6q-41 0 -63 19q-23 20 -30 49q-7 30 -3 66t18 69q10 26 27 52q16 24 38 45q20 19 48 31q27 12 57 12q41 0 56 -24q15 -25 -1 -65q-8 -19 -18 -32
q-11 -13 -24 -21q-11 -4 -21 -3t-12 14q-2 17 16 36t47 21q9 22 2 41t-33 21q-21 1 -40 -9q-20 -11 -36 -30t-30 -45q-15 -29 -23 -52q-6 -17 -13 -48q-6 -29 -3 -56q3 -26 18 -46q15 -19 48 -19q18 0 37 8q18 7 33 21q16 15 27 28q16 20 23 30q6 9 18 29t17 29q4 7 7 1
q3 -5 -2 -16zM300 427l-1 -1q-1 -12 -12 -21t-24 -9q-11 0 -19 9t-6 21q1 13 12 22q10 8 24 10q12 0 20 -9q7 -9 6 -22z" />
    <glyph glyph-name="Ccaron" unicode="&#x10c;" horiz-adv-x="692" 
d="M742 215l-8 -11q-4 -55 -38 -102q-33 -46 -83 -81t-112 -57q-61 -22 -126 -28q-63 -6 -123 6t-105 45t-69 87q-24 55 -17 133q5 54 27 111q23 58 60 110q39 54 90 101q52 48 117 84t139 57q75 21 158 21q59 0 90 -19q32 -20 38 -48q6 -29 -13 -58q-20 -31 -60 -53
q-29 -16 -65 -27q-34 -10 -69 -18q-30 -6 -65 -10q-46 -5 -52 -5q-4 -1 -3 3q2 5 7 6q66 8 129 27q61 19 108 47q26 16 42 41q15 24 12 47q-3 22 -27 39q-25 17 -77 17q-73 0 -137 -21q-66 -22 -120 -55q-54 -34 -100 -81q-45 -47 -78 -99q-32 -51 -52 -108
q-20 -56 -24 -108q-8 -76 12 -129t57 -81q38 -29 87 -38q48 -9 104 -1q53 7 106 30q54 23 95 57q43 35 71 78q28 44 33 93q5 41 -21 65t-84 20q-58 -6 -111 -27q-51 -21 -94 -51q-42 -30 -72 -63q-29 -32 -46 -64q-3 -5 -8 -2t-3 8q16 31 48 66q33 36 75 65q43 30 96 51
t114 27q41 3 69 -3q29 -6 46 -19q19 -14 26 -33q8 -19 6 -42zM653 753l2 -1q-25 -20 -33 -6l-64 105q-3 4 2 9q4 4 9 0l75 -82l129 84q5 3 9 0t0 -6z" />
    <glyph glyph-name="ccaron" unicode="&#x10d;" horiz-adv-x="265" 
d="M343 137l-7 -9q-1 -2 -7 -11.5t-10 -15.5q-12 -20 -19 -29q-17 -23 -30 -38q-17 -19 -31 -29q-17 -12 -36 -18t-45 -6q-41 0 -63 19q-23 20 -30 49q-7 30 -3 66t18 69q10 26 27 52q16 24 38 45q20 19 48 31q27 12 57 12q41 0 56 -24q15 -25 -1 -65q-8 -19 -18 -32
q-11 -13 -24 -21q-11 -4 -21 -3t-12 14q-2 17 16 36t47 21q9 22 2 41t-33 21q-21 1 -40 -9q-20 -11 -36 -30t-30 -45q-15 -29 -23 -52q-6 -17 -13 -48q-6 -29 -3 -56q3 -26 18 -46q15 -19 48 -19q18 0 37 8q18 7 33 21q16 15 27 28q16 20 23 30q6 9 18 29t17 29q4 7 7 1
q3 -5 -2 -16zM295 398l2 -1q-25 -19 -33 -6l-64 105q-3 4 2 9q4 5 9 0l75 -82l129 84q5 3 9 0t0 -6z" />
    <glyph glyph-name="Dcaron" unicode="&#x10e;" horiz-adv-x="887" 
d="M750 658l-5 4q79 -34 124 -88q46 -55 59 -117q13 -63 0 -130q-14 -67 -48 -129q-33 -59 -89 -112q-54 -51 -122 -81q-36 -17 -83 -28q-46 -11 -90 -14q-46 -3 -93 0q-49 3 -90 13q-5 1 -28 8q-15 4 -30 12q-24 -22 -37 -32q-21 -16 -42 -26q-31 -15 -58 -20
q-30 -6 -60 -3q-16 2 -23 4q-8 2 -22 8q-10 4 -18 14q-7 8 -7 22q0 11 6 18q5 5 9 5q5 0 3 -5q-3 -14 11 -28q13 -13 27 -18q28 -7 54 -3t48 15q21 10 42 29q18 16 36 38q-22 14 -42 30t-33 36t-18 42t3 48q11 35 43 54q12 7 28 10q13 3 30 1q15 -1 27 -6t17 -11q2 -2 -3 -5
q-4 -3 -6 -1q-7 10 -28 9q-20 -1 -40 -15q-20 -16 -26 -37q-8 -24 -6 -45q1 -20 11 -39q9 -18 24 -33t33 -27q10 14 14 21t14 21q26 39 50 86l24.5 49t25.5 50q34 68 52 102q27 51 57 96q29 43 65 81q34 36 75 57q46 25 90 13q5 -1 3 -6t-6 -3q-28 7 -61 -9q-32 -16 -67 -57
q-44 -52 -75 -111q-33 -62 -59 -119q-18 -40 -56 -120q-29 -61 -67 -115q-24 -34 -45 -56q9 -4 29 -10q7 -2 29 -7q45 -8 86 -8q44 0 87 6q44 6 83 18q38 12 71 29q53 29 96 75q44 47 74 104q31 58 44 119q13 60 4 120q-9 57 -44 109q-35 51 -99 84q-48 24 -106 36t-118 12
q-86 1 -167 -26q-80 -27 -131 -75q-15 -15 -31 -39q-15 -22 -24 -48t-12 -51q-3 -24 5 -48q6 -19 21 -33q14 -13 34 -19q21 -6 43 -5q24 2 48 9q3 1 4.5 0t0.5 -3q-1 -4 -6 -6q-29 -10 -63 -10q-32 0 -61 12q-28 12 -46 37t-18 64q0 30 9 57q10 29 25 50q26 38 66 65
q41 27 90 45t105 27t110 9q62 0 123 -12q64 -12 117 -34zM763 770l2 -1q-25 -19 -33 -6l-64 105q-3 4 2 9q4 5 9 0l75 -82l129 84q5 3 9 0t0 -6z" />
    <glyph glyph-name="dcaron" unicode="&#x10f;" horiz-adv-x="648" 
d="M699 661l-2 -2q-12 -27 -36 -57q-27 -33 -51 -59q-27 -29 -56 -56q-38 -36 -51 -49q-7 -7 -18.5 -18t-16.5 -16t-15 -14.5t-14 -13.5l-27 -27q-8 -8 -28 -30q-28 -65 -44 -109q-20 -55 -30 -97t-7 -72q3 -28 25 -31q16 0 32 11t26 24q25 28 41 55q22 36 38 65q5 7 9 3
t0 -12q-18 -33 -39 -66q-23 -36 -49 -62q-15 -15 -39 -28q-22 -12 -51 -4q-18 4 -28 19q-11 16 -14 36q-3 21 0 45q3 21 11 48l10 29l-37 -57q-12 -21 -36 -49t-48 -47q-29 -23 -53 -25q-22 -1 -37 14q-14 14 -19 42q-4 26 5 60q15 55 45 102t78 81q13 10 33 18q19 7 41 12
q19 4 44 4q23 0 42 -6q2 5 7 15t7 15l15 33q5 11 15 31q6 12 12 26q6 12 20.5 40.5t22.5 43.5q28 53 58 95q35 47 73 80q41 35 87 42q20 3 32 -3t18 -18t6 -28q0 -18 -7 -33zM671 662v1q17 32 11 50q-6 19 -32 14q-28 -5 -53 -25q-24 -20 -49 -54q-22 -30 -46 -72
q-21 -37 -40 -79q-7 -15 -18.5 -41.5t-15.5 -36.5q-5 -11 -28 -66q14 15 42 46q20 21 48 51l48 48q28 28 53 56q28 32 47 57q21 29 33 51zM327 309l-1 -4q-38 8 -74 -9q-37 -17 -65 -48q-34 -37 -57 -80q-21 -39 -31 -74q-2 -8 -4 -24q-1 -14 0 -24t6 -18q4 -7 14 -7
q13 0 31 15t38 38q21 24 41 50q23 30 38 54q3 5 12 23q11 22 17 35l18 39zM716 541l-1 -2q-2 -14 -10 -31q-10 -19 -25 -36q-16 -18 -37 -31q-21 -14 -46 -18q-10 0 -12 8q-1 4 2 6t10 2q31 7 53 29t32 39h-6q-13 0 -22 9t-7 23q1 13 14 24q12 10 26 12q13 0 21 -9
q8 -10 8 -25z" />
    <glyph glyph-name="Dcroat" unicode="&#x110;" horiz-adv-x="887" 
d="M498 296h-65q-38 -82 -57 -122q-28 -58 -66 -115q-24 -34 -45 -56q9 -4 29 -10q7 -2 29 -7q45 -8 86 -8q43 0 87 6t83 18q38 12 71 29q52 29 96 75q44 47 74 104q31 58 44 119q13 60 4 120q-9 57 -44 109q-34 51 -99 84q-48 24 -106 36q-59 12 -118 12q-86 1 -167 -26
q-80 -27 -131 -75q-15 -15 -31 -39q-15 -22 -24 -48t-12 -51q-3 -24 5 -48q6 -19 21 -33q14 -13 34 -19q21 -6 43 -5q24 2 48 9q3 1 4.5 0t0.5 -3q-2 -4 -6 -6q-29 -10 -63 -10q-33 0 -61 12t-46 37t-18 64q0 30 9 57q10 29 25 50q26 38 66 65t90 45t105 27t110 9
q61 0 123 -12q64 -12 117 -34q79 -34 124 -88q46 -55 59 -117q13 -63 0 -130q-14 -67 -48 -129q-33 -59 -89 -112q-54 -51 -122 -81q-36 -17 -83 -28q-46 -11 -90 -14q-46 -3 -93 0q-49 3 -90 13q-5 1 -28 8q-15 4 -30 12q-24 -22 -37 -32q-21 -16 -42 -26q-31 -15 -58 -20
q-30 -6 -60 -3q-16 2 -23 4q-8 2 -22 8q-10 4 -18 14q-7 8 -7 22q0 11 6 18q5 5 9 5q5 0 3 -5q-3 -14 11 -28q13 -13 27 -18q28 -7 54 -3t48 15q21 10 42 29q18 16 36 38q-22 14 -42 30t-33 36t-18 42t3 48q11 35 43 54q12 7 28 10q13 3 30 1q15 -1 27 -6t17 -11q2 -2 -3 -5
q-4 -3 -6 -1q-7 10 -28 9q-20 -1 -40 -15q-20 -16 -26 -37q-8 -24 -6 -45q1 -20 11 -39q9 -18 24 -33t33 -27q10 14 14 21t14 21q31 46 61 109q10 21 31 63t31 63h-69v20h80q26 50 46 84q25 43 51 77t57 64q29 28 64 46q46 25 90 13q4 -2 3 -6t-6 -3q-28 7 -61 -9
q-32 -16 -67 -57q-38 -45 -70 -101q-27 -48 -55 -108h48v-20z" />
    <glyph glyph-name="dcroat" unicode="&#x111;" horiz-adv-x="359" 
d="M538 466l-74 -5q-28 -42 -47 -75q-25 -44 -42 -76l-36 -72q-6 -13 -16 -34t-12 -26q-14 -32 -23 -57q-11 -31 -15 -55t-1 -42q3 -16 21 -18q17 -2 33 9q18 11 29 24q24 27 42 55q17 27 39 65q5 8 8 3t-1 -12q-12 -22 -38 -66q-20 -34 -48 -62q-23 -23 -49 -30
q-27 -8 -48 3t-30 39t3 78q-6 -9 -18 -25l-21 -27q-7 -9 -21 -25q-12 -13 -21 -20q-29 -23 -53 -25q-22 -1 -37 14q-14 14 -19 42q-4 26 5 60q32 113 124 183q14 10 35 18q19 7 42 12q20 4 45 4q24 0 42 -7q20 40 34 66q23 43 49 81h-60v19h74q23 31 45 56q24 27 51 48
t57 33t63 12q8 0 9 -4q1 -2 -1.5 -3t-7.5 -1q-18 0 -40 -11q-20 -10 -42 -29q-20 -17 -42 -44q-21 -25 -42 -54h55v-19zM326 305v-1q-38 9 -75 -9q-38 -18 -66 -49q-34 -37 -57 -80q-21 -39 -31 -74q-2 -8 -4 -24q-1 -14 0 -24t6 -18q4 -7 14 -7q20 0 47 27q23 23 55 65
q31 41 60 95q29 52 51 99z" />
    <glyph glyph-name="Emacron" unicode="&#x112;" horiz-adv-x="594" 
d="M618 149l-15 -14q-24 -56 -70 -96t-103 -67q-56 -26 -118 -37q-63 -11 -117 -5t-94 26q-38 19 -61 48q-22 28 -31 63q-9 33 -4 69q9 65 51 122q43 58 111 89q16 7 29 11q15 4 21 6q-25 47 -16 101q9 53 40 93q23 28 51 51t63 39q35 17 70 24q38 8 72 8q24 0 48 -3
q25 -3 45 -13q26 -12 38 -30q12 -19 11 -37q-2 -20 -13 -39q-12 -20 -34 -33q-14 -9 -31 -14q-20 -6 -40 -9q-21 -3 -41 0t-33 13q-7 6 -3 9q5 3 6 2q30 -15 68 -12t65 21q16 10 27 26q11 15 12 31q2 17 -7 30q-9 14 -30 24q-18 8 -36 11q-19 3 -39 3q-49 0 -100 -21
q-52 -21 -86 -57q-14 -14 -31 -41q-15 -24 -24 -51q-8 -25 -10 -55q-1 -28 9 -52q28 10 53 14q27 4 53 6q41 2 59 -9q18 -10 16 -30q-2 -13 -9 -23t-23 -18t-36 -11q-21 -3 -48 0q-39 4 -63 17q-20 11 -40 29l-25 -12q-12 -5 -27 -17q-55 -48 -80 -103q-26 -57 -24 -111
q1 -59 32 -94q29 -34 75 -49q45 -15 96 -12q52 3 98 18q61 19 119 62q57 42 89 110q11 24 11 44q0 22 -9 35t-27 21q-18 7 -43 3q-31 -4 -52 -18q-21 -13 -36 -30q-16 -17 -24 -34q-8 -16 -13 -31q-5 -11 -8 -3q-3 7 2 21q3 8 12 25q8 15 24 34q14 17 38 33q22 15 54 21
q33 6 57 -1q26 -8 41 -24t18 -42t-10 -55zM397 332q15 4 21 15q6 10 3 19q-3 8 -17 16t-39 6q-56 -2 -101 -15q12 -20 34 -30q23 -11 43 -15q10 -1 30 -1q14 0 26 5zM618 755h-178v20h178v-20z" />
    <glyph glyph-name="emacron" unicode="&#x113;" horiz-adv-x="262" 
d="M338 134v-4q-13 -24 -35 -54q-20 -27 -41 -47q-20 -19 -42 -30q-23 -11 -53 -9q-27 0 -48 8q-19 8 -30 21q-13 13 -18 33q-4 17 -4 42q0 22 6 45q5 18 14 42q12 28 25 51t35 46q20 21 44 35q24 13 53 15q12 1 26 -2q12 -3 21 -12q11 -11 14 -24q3 -12 1 -29
q-5 -29 -24 -56q-20 -27 -45 -45t-54 -21q-28 -3 -52 20q-8 -21 -12 -49t0 -52q4 -23 20 -39q15 -15 47 -11q20 3 40 15q21 13 36 28q22 24 38 45q19 25 35 56q5 8 6 0t-3 -18zM264 215l-5 -2q5 9 12 26q5 13 7 30q2 15 -3 27t-18 15q-18 5 -45 -18q-26 -22 -49 -60
q-8 -13 -15 -28q-10 -22 -14 -34q10 -16 29 -18q18 -1 36 6q17 7 36 23t29 33zM371 406h-178v20h178v-20z" />
    <glyph glyph-name="Ebreve" unicode="&#x114;" horiz-adv-x="594" 
d="M618 149l-15 -14q-24 -56 -70 -96t-103 -67q-56 -26 -118 -37q-63 -11 -117 -5t-94 26q-38 19 -61 48q-22 28 -31 63q-9 33 -4 69q9 65 51 122q43 58 111 89q16 7 29 11q15 4 21 6q-25 47 -16 101q9 53 40 93q23 28 51 51t63 39q35 17 70 24q38 8 72 8q24 0 48 -3
q25 -3 45 -13q26 -12 38 -30q12 -19 11 -37q-2 -20 -13 -39q-12 -20 -34 -33q-14 -9 -31 -14q-20 -6 -40 -9q-21 -3 -41 0t-33 13q-7 6 -3 9q5 3 6 2q30 -15 68 -12t65 21q16 10 27 26q11 15 12 31q2 17 -7 30q-9 14 -30 24q-18 8 -36 11q-19 3 -39 3q-49 0 -100 -21
q-52 -21 -86 -57q-14 -14 -31 -41q-15 -24 -24 -51q-8 -25 -10 -55q-1 -28 9 -52q28 10 53 14q27 4 53 6q41 2 59 -9q18 -10 16 -30q-2 -13 -9 -23t-23 -18t-36 -11q-21 -3 -48 0q-39 4 -63 17q-20 11 -40 29l-25 -12q-12 -5 -27 -17q-55 -48 -80 -103q-26 -57 -24 -111
q1 -59 32 -94q29 -34 75 -49q45 -15 96 -12q52 3 98 18q61 19 119 62q57 42 89 110q11 24 11 44q0 22 -9 35t-27 21q-18 7 -43 3q-31 -4 -52 -18q-21 -13 -36 -30q-16 -17 -24 -34q-8 -16 -13 -31q-5 -11 -8 -3q-3 7 2 21q3 8 12 25q8 15 24 34q14 17 38 33q22 15 54 21
q33 6 57 -1q26 -8 41 -24t18 -42t-10 -55zM397 332q15 4 21 15q6 10 3 19q-3 8 -17 16t-39 6q-56 -2 -101 -15q12 -20 34 -30q23 -11 43 -15q10 -1 30 -1q14 0 26 5zM641 824h-7q-16 -31 -47 -48t-60 -17q-31 0 -53 15t-22 48q0 2 5 4q3 1 10 1t10 -1q5 -2 5 -4
q0 -26 18 -36t42 -9q23 1 48 14q24 12 35 32q5 5 11 5q3 0 4.5 -1t0.5 -3z" />
    <glyph glyph-name="ebreve" unicode="&#x115;" horiz-adv-x="262" 
d="M338 134v-4q-13 -24 -35 -54q-20 -27 -41 -47q-20 -19 -42 -30q-23 -11 -53 -9q-27 0 -48 8q-19 8 -30 21q-13 13 -18 33q-4 17 -4 42q0 22 6 45q5 18 14 42q12 28 25 51t35 46q20 21 44 35q24 13 53 15q12 1 26 -2q12 -3 21 -12q11 -11 14 -24q3 -12 1 -29
q-5 -29 -24 -56q-20 -27 -45 -45t-54 -21q-28 -3 -52 20q-8 -21 -12 -49t0 -52q4 -23 20 -39q15 -15 47 -11q20 3 40 15q21 13 36 28q22 24 38 45q19 25 35 56q5 8 6 0t-3 -18zM264 215l-5 -2q5 9 12 26q5 13 7 30q2 15 -3 27t-18 15q-18 5 -45 -18q-26 -22 -49 -60
q-8 -13 -15 -28q-10 -22 -14 -34q10 -16 29 -18q18 -1 36 6q17 7 36 23t29 33zM375 454h-7q-16 -31 -47 -48t-60 -17q-31 0 -53 15t-22 48q0 2 5 4q3 1 10 1t10 -1q5 -2 5 -4q0 -26 18 -36t42 -9q23 1 48 14q24 12 35 32q5 5 11 5q3 0 4.5 -1t0.5 -3z" />
    <glyph glyph-name="Edotaccent" unicode="&#x116;" horiz-adv-x="594" 
d="M618 149l-15 -14q-24 -56 -70 -96t-103 -67q-56 -26 -118 -37q-63 -11 -117 -5t-94 26q-38 19 -61 48q-22 28 -31 63q-9 33 -4 69q9 65 51 122q43 58 111 89q16 7 29 11q15 4 21 6q-25 47 -16 101q9 53 40 93q23 28 51 51t63 39q35 17 70 24q38 8 72 8q24 0 48 -3
q25 -3 45 -13q26 -12 38 -30q12 -19 11 -37q-2 -20 -13 -39q-12 -20 -34 -33q-14 -9 -31 -14q-20 -6 -40 -9q-21 -3 -41 0t-33 13q-7 6 -3 9q5 3 6 2q30 -15 68 -12t65 21q16 10 27 26q11 15 12 31q2 17 -7 30q-9 14 -30 24q-18 8 -36 11q-19 3 -39 3q-49 0 -100 -21
q-52 -21 -86 -57q-14 -14 -31 -41q-15 -24 -24 -51q-8 -25 -10 -55q-1 -28 9 -52q28 10 53 14q27 4 53 6q41 2 59 -9q18 -10 16 -30q-2 -13 -9 -23t-23 -18t-36 -11q-21 -3 -48 0q-39 4 -63 17q-20 11 -40 29l-25 -12q-12 -5 -27 -17q-55 -48 -80 -103q-26 -57 -24 -111
q1 -59 32 -94q29 -34 75 -49q45 -15 96 -12q52 3 98 18q61 19 119 62q57 42 89 110q11 24 11 44q0 22 -9 35t-27 21q-18 7 -43 3q-31 -4 -52 -18q-21 -13 -36 -30q-16 -17 -24 -34q-8 -16 -13 -31q-5 -11 -8 -3q-3 7 2 21q3 8 12 25q8 15 24 34q14 17 38 33q22 15 54 21
q33 6 57 -1q26 -8 41 -24t18 -42t-10 -55zM397 332q15 4 21 15q6 10 3 19q-3 8 -17 16t-39 6q-56 -2 -101 -15q12 -20 34 -30q23 -11 43 -15q10 -1 30 -1q14 0 26 5zM576 770l-1 -1q-1 -12 -12 -21t-24 -9q-11 0 -19 9t-6 21q1 13 12 22q10 8 24 10q12 0 20 -9q7 -9 6 -22z
" />
    <glyph glyph-name="edotaccent" unicode="&#x117;" horiz-adv-x="262" 
d="M338 134v-4q-13 -24 -35 -54q-20 -27 -41 -47q-20 -19 -42 -30q-23 -11 -53 -9q-27 0 -48 8q-19 8 -30 21q-13 13 -18 33q-4 17 -4 42q0 22 6 45q5 18 14 42q12 28 25 51t35 46q20 21 44 35q24 13 53 15q12 1 26 -2q12 -3 21 -12q11 -11 14 -24q3 -12 1 -29
q-5 -29 -24 -56q-20 -27 -45 -45t-54 -21q-28 -3 -52 20q-8 -21 -12 -49t0 -52q4 -23 20 -39q15 -15 47 -11q20 3 40 15q21 13 36 28q22 24 38 45q19 25 35 56q5 8 6 0t-3 -18zM264 215l-5 -2q5 9 12 26q5 13 7 30q2 15 -3 27t-18 15q-18 5 -45 -18q-26 -22 -49 -60
q-8 -13 -15 -28q-10 -22 -14 -34q10 -16 29 -18q18 -1 36 6q17 7 36 23t29 33zM296 430l-1 -1q-1 -12 -12 -21t-24 -9q-11 0 -19 9t-6 21q1 13 12 22q10 8 24 10q12 0 20 -9q7 -9 6 -22z" />
    <glyph glyph-name="Eogonek" unicode="&#x118;" horiz-adv-x="594" 
d="M618 149l-15 -14q-24 -56 -70 -96t-103 -67q-56 -26 -118 -37q-63 -11 -117 -5t-94 26q-38 19 -61 48q-22 28 -31 63q-9 33 -4 69q9 65 51 122q43 58 111 89q16 7 29 11q15 4 21 6q-25 47 -16 101q9 53 40 93q23 28 51 51t63 39q35 17 70 24q38 8 72 8q24 0 48 -3
q25 -3 45 -13q26 -12 38 -30q12 -19 11 -37q-2 -20 -13 -39q-12 -20 -34 -33q-14 -9 -31 -14q-20 -6 -40 -9q-21 -3 -41 0t-33 13q-7 6 -3 9q5 3 6 2q30 -15 68 -12t65 21q16 10 27 26q11 15 12 31q2 17 -7 30q-9 14 -30 24q-18 8 -36 11q-19 3 -39 3q-49 0 -100 -21
q-52 -21 -86 -57q-14 -14 -31 -41q-15 -24 -24 -51q-8 -25 -10 -55q-1 -28 9 -52q28 10 53 14q27 4 53 6q41 2 59 -9q18 -10 16 -30q-2 -13 -9 -23t-23 -18t-36 -11q-21 -3 -48 0q-39 4 -63 17q-20 11 -40 29l-25 -12q-12 -5 -27 -17q-55 -48 -80 -103q-26 -57 -24 -111
q1 -59 32 -94q29 -34 75 -49q45 -15 96 -12q52 3 98 18q61 19 119 62q57 42 89 110q11 24 11 44q0 22 -9 35t-27 21q-18 7 -43 3q-31 -4 -52 -18q-21 -13 -36 -30q-16 -17 -24 -34q-8 -16 -13 -31q-5 -11 -8 -3q-3 7 2 21q3 8 12 25q8 15 24 34q14 17 38 33q22 15 54 21
q33 6 57 -1q26 -8 41 -24t18 -42t-10 -55zM397 332q15 4 21 15q6 10 3 19q-3 8 -17 16t-39 6q-56 -2 -101 -15q12 -20 34 -30q23 -11 43 -15q10 -1 30 -1q14 0 26 5zM230 -190l-2 1q-9 -13 -29 -39q-17 -21 -38 -39q-24 -19 -42 -21q-18 -1 -30 11t-15 34q-3 23 4 49
q6 22 18 42q13 21 27 35q17 17 30 26q14 10 26 15q8 4 12 4q3 0 3 -2t-3 -6q-4 -6 -7 -9q-9 -9 -18 -24q-12 -20 -18 -31t-16 -33q-7 -14 -10 -30q-2 -7 -4 -19q-1 -10 0 -19q2 -9 6 -15t12 -6q10 0 21 8q12 8 21 19q10 12 21 27q14 20 21 29q9 13 14 10t-4 -17z" />
    <glyph glyph-name="eogonek" unicode="&#x119;" horiz-adv-x="262" 
d="M186 -119l-7 -7q-9 -13 -29 -39q-17 -21 -38 -39q-24 -20 -42 -21t-30 11t-15 34q-3 23 4 49q6 23 18 42q13 21 27 35q17 17 30 26q14 10 26 15q-16 5 -27 12q-12 8 -18 16q-13 16 -17 35q-4 20 -3 42q2 25 7 45q5 18 14 42q12 28 25 51t35 46q20 21 44 35q24 13 53 15
q12 1 26 -2q12 -3 21 -12q11 -11 14 -24q3 -12 1 -29q-5 -29 -24 -56t-45 -45t-54 -21t-52 20q-8 -21 -12 -49t0 -52q4 -23 20 -39q16 -15 47 -11q20 3 40 15q21 13 36 28q22 24 38 45q19 25 35 56q4 8 6 0t-3 -18q-13 -24 -35 -54q-20 -27 -41 -47q-19 -19 -42 -30t-53 -9
h-9h-9l-8 -10q-9 -9 -18 -24q-12 -20 -18 -31t-16 -33q-7 -14 -10 -30q-2 -7 -4 -19q-1 -10 0 -19q2 -9 6 -15t12 -6q10 0 21 8q12 8 21 19q10 12 21 27q14 20 21 29q9 13 14 10t-4 -17zM257 212l-5 -2q5 9 12 26q5 13 7 30q1 15 -3 27t-18 15q-18 4 -45 -18
q-26 -22 -49 -60q-8 -13 -15 -28q-10 -22 -14 -34q10 -16 29 -18q18 -2 36 6q17 7 36 23t29 33z" />
    <glyph glyph-name="Ecaron" unicode="&#x11a;" horiz-adv-x="594" 
d="M618 149l-15 -14q-24 -56 -70 -96t-103 -67q-56 -26 -118 -37q-63 -11 -117 -5t-94 26q-38 19 -61 48q-22 28 -31 63q-9 33 -4 69q9 65 51 122q43 58 111 89q16 7 29 11q15 4 21 6q-25 47 -16 101q9 53 40 93q23 28 51 51t63 39q35 17 70 24q38 8 72 8q24 0 48 -3
q25 -3 45 -13q26 -12 38 -30q12 -19 11 -37q-2 -20 -13 -39q-12 -20 -34 -33q-14 -9 -31 -14q-20 -6 -40 -9q-21 -3 -41 0t-33 13q-7 6 -3 9q5 3 6 2q30 -15 68 -12t65 21q16 10 27 26q11 15 12 31q2 17 -7 30q-9 14 -30 24q-18 8 -36 11q-19 3 -39 3q-49 0 -100 -21
q-52 -21 -86 -57q-14 -14 -31 -41q-15 -24 -24 -51q-8 -25 -10 -55q-1 -28 9 -52q28 10 53 14q27 4 53 6q41 2 59 -9q18 -10 16 -30q-2 -13 -9 -23t-23 -18t-36 -11q-21 -3 -48 0q-39 4 -63 17q-20 11 -40 29l-25 -12q-12 -5 -27 -17q-55 -48 -80 -103q-26 -57 -24 -111
q1 -59 32 -94q29 -34 75 -49q45 -15 96 -12q52 3 98 18q61 19 119 62q57 42 89 110q11 24 11 44q0 22 -9 35t-27 21q-18 7 -43 3q-31 -4 -52 -18q-21 -13 -36 -30q-16 -17 -24 -34q-8 -16 -13 -31q-5 -11 -8 -3q-3 7 2 21q3 8 12 25q8 15 24 34q14 17 38 33q22 15 54 21
q33 6 57 -1q26 -8 41 -24t18 -42t-10 -55zM397 332q15 4 21 15q6 10 3 19q-3 8 -17 16t-39 6q-56 -2 -101 -15q12 -20 34 -30q23 -11 43 -15q10 -1 30 -1q14 0 26 5zM549 750l2 -1q-25 -19 -33 -6l-64 105q-3 4 2 9q4 5 9 0l75 -82l129 84q5 3 9 0t0 -6z" />
    <glyph glyph-name="ecaron" unicode="&#x11b;" horiz-adv-x="262" 
d="M338 134v-4q-13 -24 -35 -54q-20 -27 -41 -47q-20 -19 -42 -30q-23 -11 -53 -9q-27 0 -48 8q-19 8 -30 21q-13 13 -18 33q-4 17 -4 42q0 22 6 45q5 18 14 42q12 28 25 51t35 46q20 21 44 35q24 13 53 15q12 1 26 -2q12 -3 21 -12q11 -11 14 -24q3 -12 1 -29
q-5 -29 -24 -56q-20 -27 -45 -45t-54 -21q-28 -3 -52 20q-8 -21 -12 -49t0 -52q4 -23 20 -39q15 -15 47 -11q20 3 40 15q21 13 36 28q22 24 38 45q19 25 35 56q5 8 6 0t-3 -18zM264 215l-5 -2q5 9 12 26q5 13 7 30q2 15 -3 27t-18 15q-18 5 -45 -18q-26 -22 -49 -60
q-8 -13 -15 -28q-10 -22 -14 -34q10 -16 29 -18q18 -1 36 6q17 7 36 23t29 33zM293 391l2 -1q-25 -20 -33 -6l-64 105q-3 4 2 9q4 4 9 0l75 -82l129 84q5 3 9 0t0 -6z" />
    <glyph glyph-name="Gcircumflex" unicode="&#x11c;" horiz-adv-x="705" 
d="M892 473l-3 -3q5 -2 3 -6t-6 -3q-27 7 -60 -9q-32 -16 -67 -57q-44 -53 -75 -115q-33 -66 -60 -130q-38 -90 -58 -136q-28 -65 -71 -133q-37 -57 -84 -102q-48 -46 -106 -68q-15 -6 -34 -9t-39 -3q-19 0 -37 3t-30 9q-23 12 -27 33q-5 21 6 35q5 5 9 5t3 -4q-2 -9 3 -18
q4 -8 12 -16q7 -7 16 -13q10 -7 17 -8q21 -7 46 -4q23 3 44 11q39 15 77 59q37 43 69 99q21 34 42 75q25 48 41 84q2 4 41 88q18 38 44 87q-60 -80 -126 -141q-65 -60 -134 -91q-28 -14 -63 -21q-32 -7 -67 -7q-34 0 -65 9q-30 9 -57 29q-26 20 -39 48t-18 60q-4 30 -1 65
t10 61q12 49 36 97t57 93q30 41 74 85q39 39 87 73q75 52 154 80q82 29 170 29q26 0 48 -3q24 -3 42 -10q28 -10 42 -27t17 -36q3 -18 -5 -42q-8 -23 -24 -42q-20 -25 -48 -40q-25 -14 -54 -22q-27 -7 -53 -9q-23 -1 -45 2q-5 1 -7.5 3t-1.5 5q1 6 12 4q22 -3 44 -2
q23 1 49 9q23 7 49 23q24 15 44 41q11 12 15 27q5 16 2 30q-3 15 -13 28t-30 22q-18 8 -38 11q-24 3 -44 2q-64 -1 -130 -27t-126 -66q-61 -41 -110 -93q-50 -54 -84 -106q-15 -26 -29 -57q-16 -37 -26 -74q-10 -39 -15 -81q-4 -40 2 -78q6 -36 27 -63q21 -26 60 -37
q29 -8 68 0q41 8 84 28q39 19 81 50q39 29 78 68q38 38 71 80t60 84q19 31 30 31q31 47 63 80q33 34 71 54q46 24 90 13zM782 762v2q3 -4 -2 -9q-4 -5 -9 0l-75 82l-128 -84q-4 -3 -10 0t-1 6l128 103q25 20 33 6z" />
    <glyph glyph-name="gcircumflex" unicode="&#x11d;" horiz-adv-x="348" 
d="M422 395v2q3 -4 -2 -9q-4 -4 -9 0l-75 82l-128 -84q-4 -3 -10 0t-1 6l128 103q25 19 33 6zM433 152l-8 -7q-20 -34 -39 -62q-23 -33 -46 -56q-23 -24 -50 -44q-29 -21 -60 -35q-19 -45 -37 -79q-19 -36 -42 -67q-23 -30 -51 -51q-28 -20 -66 -28q-40 -9 -63 2
q-22 10 -28 30t6 44t41 44q22 17 42 27q22 12 41 20l46 20q30 13 59 27q12 24 24 54q16 40 23 60q14 40 21 59q10 28 21 51l-6 -8q-6 -8 -9 -13l-9 -15l-8 -12q-34 -44 -37 -48q-22 -29 -48 -48q-29 -23 -53 -25q-22 -1 -37 14q-14 14 -19 42q-4 26 5 60q32 116 124 183
q18 13 39 20q20 7 46 10q24 3 47 0q22 -3 41 -14l3 3q4 4 13 10q6 4 18 10q9 4 18 6t15 -3q-17 -10 -34 -35q-14 -21 -31 -56q-17 -36 -29 -69q-22 -63 -26 -73q-12 -36 -24 -69q-14 -39 -22 -58q55 28 100 75q43 45 76 104q3 6 7 9q1 1 3.5 2.5t3.5 2.5q3 2 3 -2t-4 -12z
M332 295l-2 -1q-19 10 -39 10q-21 0 -39 -7q-21 -8 -38 -21q-18 -14 -33 -30q-34 -37 -57 -80q-21 -39 -31 -74q-2 -8 -4 -24q-1 -14 0 -24t6 -18q4 -7 14 -7q19 0 42 21t44 50q21 28 39 57q24 38 27 43t9.5 14.5t12 17.5t10.5 16q17 26 39 57zM165 -85l1 -2q-6 -3 -37 -16
q-28 -12 -43 -19q-30 -14 -46 -22q-26 -13 -45 -28q-23 -17 -32 -36q-9 -20 -5 -33q5 -14 21 -20q17 -6 47 3q25 7 47 26t38 42q17 24 30 51t24 54z" />
    <glyph glyph-name="Gbreve" unicode="&#x11e;" horiz-adv-x="705" 
d="M892 473l-3 -3q5 -2 3 -6t-6 -3q-27 7 -60 -9q-32 -16 -67 -57q-44 -53 -75 -115q-33 -66 -60 -130q-38 -90 -58 -136q-28 -65 -71 -133q-37 -57 -84 -102q-48 -46 -106 -68q-15 -6 -34 -9t-39 -3q-19 0 -37 3t-30 9q-23 12 -27 33q-5 21 6 35q5 5 9 5t3 -4q-2 -9 3 -18
q4 -8 12 -16q7 -7 16 -13q10 -7 17 -8q21 -7 46 -4q23 3 44 11q39 15 77 59q37 43 69 99q21 34 42 75q25 48 41 84q2 4 41 88q18 38 44 87q-60 -80 -126 -141q-65 -60 -134 -91q-28 -14 -63 -21q-32 -7 -67 -7q-34 0 -65 9q-30 9 -57 29q-26 20 -39 48t-18 60q-4 30 -1 65
t10 61q12 49 36 97t57 93q30 41 74 85q39 39 87 73q75 52 154 80q82 29 170 29q26 0 48 -3q24 -3 42 -10q28 -10 42 -27t17 -36q3 -18 -5 -42q-8 -23 -24 -42q-20 -25 -48 -40q-25 -14 -54 -22q-27 -7 -53 -9q-23 -1 -45 2q-5 1 -7.5 3t-1.5 5q1 6 12 4q22 -3 44 -2
q23 1 49 9q23 7 49 23q24 15 44 41q11 12 15 27q5 16 2 30q-3 15 -13 28t-30 22q-18 8 -38 11q-24 3 -44 2q-64 -1 -130 -27t-126 -66q-61 -41 -110 -93q-50 -54 -84 -106q-15 -26 -29 -57q-16 -37 -26 -74q-10 -39 -15 -81q-4 -40 2 -78q6 -36 27 -63q21 -26 60 -37
q29 -8 68 0q41 8 84 28q39 19 81 50q39 29 78 68q38 38 71 80t60 84q19 31 30 31q31 47 63 80q33 34 71 54q46 24 90 13zM795 834h-7q-16 -31 -47 -48t-60 -17q-31 0 -53 15t-22 48q0 2 5 4q3 1 10 1t10 -1q5 -2 5 -4q0 -26 18 -36t42 -9q23 1 48 14q24 12 35 32q5 5 11 5
q3 0 4.5 -1t0.5 -3z" />
    <glyph glyph-name="gbreve" unicode="&#x11f;" horiz-adv-x="348" 
d="M407 459h-7q-16 -31 -47 -48t-60 -17q-31 0 -53 15t-22 48q0 2 5 4q3 1 10 1t10 -1q5 -2 5 -4q0 -25 18 -36t42 -9q23 1 48 14q24 12 35 32q5 5 11 5q3 0 4.5 -1t0.5 -3zM426 150l-8 -7q-20 -34 -39 -62q-23 -33 -46 -56q-23 -24 -50 -44q-29 -21 -60 -35
q-19 -45 -37 -79q-19 -36 -42 -67q-22 -30 -51 -51q-28 -20 -66 -28q-40 -9 -63 2q-22 10 -28 30t6 44t41 44q23 17 42 27q22 12 41 20l46 20q30 13 59 27q12 24 24 54q16 40 23 60q14 40 21 59q11 28 21 51l-6 -8q-6 -8 -9 -13l-9 -15l-8 -12q-34 -44 -37 -48
q-23 -29 -48 -48q-29 -23 -53 -25q-22 -1 -37 14q-14 14 -19 42q-4 26 5 60q32 116 124 183q18 13 39 20q20 7 46 10q24 3 47 0q22 -3 41 -14l3 3q4 4 13 10q6 4 18 10q9 4 18 6t15 -3q-17 -10 -34 -35q-14 -21 -31 -56q-17 -36 -29 -69q-23 -63 -26 -73q-12 -36 -24 -69
q-14 -39 -22 -58q55 28 100 75q43 45 76 104q3 6 7 9q1 1 3.5 2.5t3.5 2.5q3 2 3 -2t-4 -12zM325 293l-2 -1q-19 10 -39 10q-21 0 -39 -7q-21 -8 -38 -21q-18 -14 -33 -30q-34 -37 -57 -80q-21 -39 -31 -74q-2 -8 -4 -24q-2 -14 0 -24t6 -18q4 -7 14 -7q20 0 42 21
q23 21 44 50q21 28 39 57q24 38 27 43t9.5 14.5t12 17.5t10.5 16q16 26 39 57zM158 -87l1 -2q-5 -3 -37 -16q-28 -12 -43 -19q-30 -14 -46 -22q-26 -13 -45 -28q-23 -17 -32 -36q-9 -20 -5 -33q5 -14 21 -20q17 -6 47 3q25 7 47 26t38 42q16 24 30 51t24 54z" />
    </font>
</defs>
</svg>
