<svg viewBox="0 0 28 28" fill="none" xmlns="http://www.w3.org/2000/svg">
<mask id="path-1-inside-1_214_303" fill="white">
<path d="M15.3707 0.666992C16.8707 0.670992 17.632 0.678992 18.2893 0.697659L18.548 0.706992C18.8467 0.717659 19.1413 0.730992 19.4973 0.746992C20.916 0.813659 21.884 1.03766 22.7333 1.36699C23.6133 1.70566 24.3547 2.16433 25.096 2.90433C25.7742 3.57064 26.2989 4.37695 26.6333 5.26699C26.9627 6.11632 27.1867 7.08432 27.2533 8.50432C27.2693 8.85899 27.2827 9.15366 27.2933 9.45366L27.3013 9.71233C27.3213 10.3683 27.3293 11.1297 27.332 12.6297L27.3333 13.6243V15.371C27.3366 16.3435 27.3263 17.3161 27.3027 18.2883L27.2947 18.547C27.284 18.847 27.2707 19.1417 27.2547 19.4963C27.188 20.9163 26.9613 21.883 26.6333 22.7337C26.2989 23.6237 25.7742 24.43 25.096 25.0963C24.4297 25.7746 23.6234 26.2992 22.7333 26.6337C21.884 26.963 20.916 27.187 19.4973 27.2537L18.548 27.2937L18.2893 27.3017C17.632 27.3203 16.8707 27.3297 15.3707 27.3323L14.376 27.3337H12.6307C11.6577 27.3371 10.6847 27.3269 9.71199 27.303L9.45332 27.295C9.1368 27.283 8.82035 27.2692 8.50399 27.2537C7.08532 27.187 6.11732 26.963 5.26665 26.6337C4.37709 26.2991 3.57124 25.7744 2.90532 25.0963C2.22658 24.4301 1.70146 23.6238 1.36665 22.7337C1.03732 21.8843 0.813319 20.9163 0.746652 19.4963L0.706652 18.547L0.699985 18.2883C0.675407 17.3161 0.664294 16.3435 0.666652 15.371V12.6297C0.662961 11.6571 0.67274 10.6846 0.695985 9.71233L0.705319 9.45366C0.715985 9.15366 0.729319 8.85899 0.745319 8.50432C0.811985 7.08432 1.03599 6.11766 1.36532 5.26699C1.70091 4.37659 2.22695 3.57024 2.90665 2.90433C3.57219 2.22639 4.37757 1.70176 5.26665 1.36699C6.11732 1.03766 7.08399 0.813659 8.50399 0.746992C8.85865 0.730992 9.15465 0.717659 9.45332 0.706992L9.71199 0.698992C10.6842 0.675302 11.6568 0.665079 12.6293 0.668325L15.3707 0.666992ZM14 7.33366C12.2319 7.33366 10.5362 8.03604 9.28594 9.28628C8.0357 10.5365 7.33332 12.2322 7.33332 14.0003C7.33332 15.7684 8.0357 17.4641 9.28594 18.7144C10.5362 19.9646 12.2319 20.667 14 20.667C15.7681 20.667 17.4638 19.9646 18.714 18.7144C19.9643 17.4641 20.6667 15.7684 20.6667 14.0003C20.6667 12.2322 19.9643 10.5365 18.714 9.28628C17.4638 8.03604 15.7681 7.33366 14 7.33366ZM14 10.0003C14.5253 10.0002 15.0454 10.1036 15.5308 10.3046C16.0161 10.5055 16.4571 10.8001 16.8286 11.1714C17.2001 11.5428 17.4948 11.9837 17.6959 12.469C17.897 12.9542 18.0006 13.4744 18.0007 13.9997C18.0007 14.5249 17.8974 15.0451 17.6964 15.5304C17.4955 16.0158 17.2009 16.4568 16.8296 16.8283C16.4582 17.1998 16.0173 17.4945 15.532 17.6956C15.0467 17.8967 14.5266 18.0002 14.0013 18.0003C12.9405 18.0003 11.923 17.5789 11.1729 16.8288C10.4227 16.0786 10.0013 15.0612 10.0013 14.0003C10.0013 12.9395 10.4227 11.922 11.1729 11.1719C11.923 10.4218 12.9405 10.0003 14.0013 10.0003M21.0013 5.33366C20.5593 5.33366 20.1354 5.50925 19.8228 5.82181C19.5102 6.13437 19.3347 6.5583 19.3347 7.00033C19.3347 7.44235 19.5102 7.86628 19.8228 8.17884C20.1354 8.4914 20.5593 8.66699 21.0013 8.66699C21.4433 8.66699 21.8673 8.4914 22.1798 8.17884C22.4924 7.86628 22.668 7.44235 22.668 7.00033C22.668 6.5583 22.4924 6.13437 22.1798 5.82181C21.8673 5.50925 21.4433 5.33366 21.0013 5.33366Z"/>
</mask>
<path d="M15.3707 0.666992L15.3733 -0.333009L15.3702 -0.333008L15.3707 0.666992ZM18.2893 0.697659L18.3254 -0.30172L18.3177 -0.301938L18.2893 0.697659ZM18.548 0.706992L18.5119 1.70634L18.5123 1.70635L18.548 0.706992ZM19.4973 0.746992L19.5443 -0.251908L19.5422 -0.251999L19.4973 0.746992ZM22.7333 1.36699L22.3718 2.29936L22.3741 2.30026L22.7333 1.36699ZM25.096 2.90433L24.3895 3.61209L24.3952 3.61769L25.096 2.90433ZM26.6333 5.26699L25.6972 5.61874L25.701 5.62852L26.6333 5.26699ZM27.2533 8.50432L28.2523 8.45926L28.2522 8.45743L27.2533 8.50432ZM27.2933 9.45366L28.2929 9.42274L28.2927 9.41813L27.2933 9.45366ZM27.3013 9.71233L28.3009 9.68185L28.3008 9.68141L27.3013 9.71233ZM27.332 12.6297L28.332 12.6283V12.6279L27.332 12.6297ZM27.3333 13.6243H28.3333L28.3333 13.623L27.3333 13.6243ZM27.3333 15.371H26.3333L26.3333 15.3743L27.3333 15.371ZM27.3027 18.2883L28.3022 18.3192L28.3024 18.3127L27.3027 18.2883ZM27.2947 18.547L28.294 18.5825L28.2942 18.5779L27.2947 18.547ZM27.2547 19.4963L28.2536 19.5432L28.2536 19.5414L27.2547 19.4963ZM26.6333 22.7337L25.7002 22.3739L25.6972 22.3819L26.6333 22.7337ZM25.096 25.0963L24.3952 24.383L24.3889 24.3892L24.3826 24.3955L25.096 25.0963ZM22.7333 26.6337L22.3816 25.6975L22.3718 25.7013L22.7333 26.6337ZM19.4973 27.2537L19.5394 28.2528L19.5443 28.2526L19.4973 27.2537ZM18.548 27.2937L18.5789 28.2932L18.5901 28.2928L18.548 27.2937ZM18.2893 27.3017L18.3177 28.3013L18.3202 28.3012L18.2893 27.3017ZM15.3707 27.3323L15.372 28.3323H15.3724L15.3707 27.3323ZM14.376 27.3337V28.3337L14.3773 28.3337L14.376 27.3337ZM12.6307 27.3337V26.3337L12.6271 26.3337L12.6307 27.3337ZM9.71199 27.303L9.68108 28.3025L9.68745 28.3027L9.71199 27.303ZM9.45332 27.295L9.41547 28.2943L9.42241 28.2945L9.45332 27.295ZM8.50399 27.2537L8.55313 26.2549L8.55093 26.2548L8.50399 27.2537ZM5.26665 26.6337L5.6277 25.7011L5.6187 25.6977L5.26665 26.6337ZM2.90532 25.0963L3.6188 24.3957L3.61236 24.3891L3.60579 24.3826L2.90532 25.0963ZM1.36665 22.7337L2.30268 22.3816L2.29901 22.3721L1.36665 22.7337ZM0.746652 19.4963L-0.252473 19.5384L-0.252248 19.5432L0.746652 19.4963ZM0.706652 18.547L-0.293016 18.5728L-0.292806 18.5809L-0.292462 18.5891L0.706652 18.547ZM0.699985 18.2883L-0.299695 18.3136L-0.299683 18.3141L0.699985 18.2883ZM0.666652 15.371L1.66665 15.3734V15.371H0.666652ZM0.666652 12.6297H1.66666L1.66664 12.6259L0.666652 12.6297ZM0.695985 9.71233L-0.303438 9.67626L-0.303729 9.68842L0.695985 9.71233ZM0.705319 9.45366L1.70467 9.48972L1.70469 9.48919L0.705319 9.45366ZM0.745319 8.50432L-0.253583 8.45743L-0.253665 8.45926L0.745319 8.50432ZM1.36532 5.26699L2.29791 5.62804L2.30106 5.61967L1.36532 5.26699ZM2.90665 2.90433L3.60648 3.61864L3.61343 3.61183L3.62025 3.60488L2.90665 2.90433ZM5.26665 1.36699L5.61904 2.30289L5.62769 2.29954L5.26665 1.36699ZM8.50399 0.746992L8.45892 -0.251994L8.45709 -0.251908L8.50399 0.746992ZM9.45332 0.706992L9.42241 -0.292541L9.41763 -0.292371L9.45332 0.706992ZM9.71199 0.698992L9.68763 -0.300733L9.68107 -0.30053L9.71199 0.698992ZM12.6293 0.668325L12.626 1.66833L12.6298 1.66833L12.6293 0.668325ZM14 7.33366V6.33366V7.33366ZM7.33332 14.0003H6.33332H7.33332ZM14 20.667V19.667V20.667ZM20.6667 14.0003L19.6667 14.0003L20.6667 14.0003ZM14.0013 18.0003V19.0003H14.0015L14.0013 18.0003ZM15.3707 0.666992L15.368 1.66699C16.8674 1.67099 17.6176 1.67899 18.2609 1.69726L18.2893 0.697659L18.3177 -0.301938C17.6464 -0.321001 16.8739 -0.329003 15.3733 -0.333004L15.3707 0.666992ZM18.2893 0.697659L18.2533 1.69701L18.5119 1.70634L18.548 0.706992L18.584 -0.292358L18.3254 -0.301691L18.2893 0.697659ZM18.548 0.706992L18.5123 1.70635C18.8054 1.71682 19.0952 1.72993 19.4524 1.74598L19.4973 0.746992L19.5422 -0.251999C19.1875 -0.267943 18.8879 -0.281507 18.5837 -0.292371L18.548 0.706992ZM19.4973 0.746992L19.4504 1.74589C20.7756 1.80817 21.6356 2.0139 22.3718 2.29935L22.7333 1.36699L23.0948 0.434631C22.1324 0.0614213 21.0563 -0.180849 19.5443 -0.251906L19.4973 0.746992ZM22.7333 1.36699L22.3741 2.30026C23.1297 2.59102 23.7512 2.97491 24.3895 3.61207L25.096 2.90433L25.8025 2.19658C24.9581 1.35374 24.097 0.820296 23.0925 0.43372L22.7333 1.36699ZM25.096 2.90433L24.3952 3.61769C24.9696 4.18201 25.414 4.86491 25.6972 5.61872L26.6333 5.26699L27.5694 4.91526C27.1838 3.889 26.5789 2.95926 25.7968 2.19096L25.096 2.90433ZM26.6333 5.26699L25.701 5.62852C25.9864 6.36464 26.1921 7.2246 26.2544 8.55122L27.2533 8.50432L28.2522 8.45743C28.1812 6.94405 27.9389 5.86801 27.5657 4.90546L26.6333 5.26699ZM27.2533 8.50432L26.2543 8.54939C26.2704 8.90515 26.2835 9.19485 26.2939 9.48919L27.2933 9.45366L28.2927 9.41813C28.2818 9.11247 28.2683 8.81283 28.2523 8.45926L27.2533 8.50432ZM27.2933 9.45366L26.2938 9.48457L26.3018 9.74324L27.3013 9.71233L28.3008 9.68141L28.2928 9.42274L27.2933 9.45366ZM27.3013 9.71233L26.3018 9.7428C26.3213 10.3832 26.3293 11.132 26.332 12.6314L27.332 12.6297L28.332 12.6279C28.3293 11.1273 28.3213 10.3534 28.3009 9.68185L27.3013 9.71233ZM27.332 12.6297L26.332 12.631L26.3333 13.6257L27.3333 13.6243L28.3333 13.623L28.332 12.6283L27.332 12.6297ZM27.3333 13.6243H26.3333V15.371H27.3333H28.3333V13.6243H27.3333ZM27.3333 15.371L26.3333 15.3743C26.3365 16.3376 26.3264 17.3009 26.3029 18.264L27.3027 18.2883L28.3024 18.3127C28.3263 17.3312 28.3366 16.3494 28.3333 15.3677L27.3333 15.371ZM27.3027 18.2883L26.3031 18.2574L26.2951 18.5161L27.2947 18.547L28.2942 18.5779L28.3022 18.3192L27.3027 18.2883ZM27.2947 18.547L26.2953 18.5115C26.2848 18.8058 26.2717 19.0955 26.2557 19.4513L27.2547 19.4963L28.2536 19.5414C28.2696 19.1878 28.2832 18.8882 28.294 18.5825L27.2947 18.547ZM27.2547 19.4963L26.2558 19.4494C26.1936 20.7739 25.9857 21.6336 25.7003 22.3739L26.6333 22.7337L27.5664 23.0934C27.9369 22.1323 28.1824 21.0587 28.2536 19.5432L27.2547 19.4963ZM26.6333 22.7337L25.6972 22.3819C25.414 23.1357 24.9696 23.8186 24.3952 24.383L25.096 25.0963L25.7968 25.8097C26.5789 25.0414 27.1838 24.1117 27.5694 23.0854L26.6333 22.7337ZM25.096 25.0963L24.3826 24.3955C23.8183 24.97 23.1354 25.4143 22.3816 25.6976L22.7333 26.6337L23.085 27.5698C24.1113 27.1842 25.0411 26.5792 25.8093 25.7971L25.096 25.0963ZM22.7333 26.6337L22.3718 25.7013C21.6356 25.9868 20.7756 26.1925 19.4504 26.2548L19.4973 27.2537L19.5443 28.2526C21.0563 28.1815 22.1324 27.9392 23.0948 27.566L22.7333 26.6337ZM19.4973 27.2537L19.4552 26.2545L18.5059 26.2945L18.548 27.2937L18.5901 28.2928L19.5394 28.2528L19.4973 27.2537ZM18.548 27.2937L18.5171 26.2941L18.2584 26.3021L18.2893 27.3017L18.3202 28.3012L18.5789 28.2932L18.548 27.2937ZM18.2893 27.3017L18.2609 26.3021C17.6172 26.3203 16.8665 26.3297 15.3689 26.3323L15.3707 27.3323L15.3724 28.3323C16.8748 28.3297 17.6468 28.3203 18.3177 28.3013L18.2893 27.3017ZM15.3707 27.3323L15.3693 26.3323L14.3746 26.3337L14.376 27.3337L14.3773 28.3337L15.372 28.3323L15.3707 27.3323ZM14.376 27.3337V26.3337H12.6307V27.3337V28.3337H14.376V27.3337ZM12.6307 27.3337L12.6271 26.3337C11.6635 26.3371 10.6999 26.3269 9.73652 26.3033L9.71199 27.303L9.68745 28.3027C10.6695 28.3268 11.6518 28.3371 12.6342 28.3337L12.6307 27.3337ZM9.71199 27.303L9.74289 26.3035L9.48423 26.2955L9.45332 27.295L9.42241 28.2945L9.68108 28.3025L9.71199 27.303ZM9.45332 27.295L9.49117 26.2957C9.17841 26.2839 8.86573 26.2702 8.55313 26.2549L8.50399 27.2537L8.45484 28.2524C8.77497 28.2682 9.09518 28.2821 9.41547 28.2943L9.45332 27.295ZM8.50399 27.2537L8.55093 26.2548C7.22579 26.1925 6.36558 25.9868 5.62769 25.7011L5.26665 26.6337L4.90562 27.5662C5.86906 27.9392 6.94484 28.1815 8.45704 28.2526L8.50399 27.2537ZM5.26665 26.6337L5.6187 25.6977C4.8653 25.4143 4.1828 24.97 3.6188 24.3957L2.90532 25.0963L2.19184 25.797C2.95969 26.5789 3.88888 27.1838 4.9146 27.5696L5.26665 26.6337ZM2.90532 25.0963L3.60579 24.3826C3.03094 23.8184 2.5862 23.1355 2.30263 22.3816L1.36665 22.7337L0.43067 23.0857C0.816728 24.1121 1.42222 25.0419 2.20485 25.81L2.90532 25.0963ZM1.36665 22.7337L2.29901 22.3721C2.01358 21.636 1.80783 20.776 1.74555 19.4494L0.746652 19.4963L-0.252248 19.5432C-0.181197 21.0566 0.0610578 22.1326 0.434291 23.0952L1.36665 22.7337ZM0.746652 19.4963L1.74577 19.4542L1.70577 18.5049L0.706652 18.547L-0.292462 18.5891L-0.252462 19.5384L0.746652 19.4963ZM0.706652 18.547L1.70632 18.5212L1.69965 18.2626L0.699985 18.2883L-0.299683 18.3141L-0.293016 18.5728L0.706652 18.547ZM0.699985 18.2883L1.69967 18.2631C1.67532 17.3 1.66431 16.3367 1.66665 15.3734L0.666652 15.371L-0.333345 15.3686C-0.335725 16.3504 -0.324507 17.3321 -0.299695 18.3136L0.699985 18.2883ZM0.666652 15.371H1.66665V12.6297H0.666652H-0.333348V15.371H0.666652ZM0.666652 12.6297L1.66664 12.6259C1.66299 11.6626 1.67268 10.6993 1.6957 9.73623L0.695985 9.71233L-0.303729 9.68842C-0.327195 10.6699 -0.337066 11.6517 -0.333341 12.6335L0.666652 12.6297ZM0.695985 9.71233L1.69534 9.74838L1.70467 9.48972L0.705319 9.45366L-0.294031 9.4176L-0.303364 9.67627L0.695985 9.71233ZM0.705319 9.45366L1.70469 9.48919C1.71515 9.19485 1.72825 8.90515 1.7443 8.54939L0.745319 8.50432L-0.253665 8.45926C-0.269616 8.81283 -0.283182 9.11247 -0.29405 9.41813L0.705319 9.45366ZM0.745319 8.50432L1.74422 8.55122C1.80649 7.22489 2.01216 6.36601 2.29787 5.62803L1.36532 5.26699L0.432766 4.90596C0.0598063 5.86931 -0.182517 6.94376 -0.253581 8.45743L0.745319 8.50432ZM1.36532 5.26699L2.30106 5.61967C2.58529 4.86556 3.03081 4.18263 3.60648 3.61864L2.90665 2.90433L2.20683 2.19001C1.42309 2.95785 0.816534 3.88762 0.429575 4.91431L1.36532 5.26699ZM2.90665 2.90433L3.62025 3.60488C4.18392 3.03071 4.86603 2.58638 5.61903 2.30285L5.26665 1.36699L4.91428 0.431134C3.88911 0.817138 2.96046 1.42207 2.19305 2.20377L2.90665 2.90433ZM5.26665 1.36699L5.62769 2.29954C6.36567 2.01384 7.22455 1.80816 8.55088 1.74589L8.50399 0.746992L8.45709 -0.251908C6.94342 -0.180843 5.86897 0.0614801 4.90562 0.43444L5.26665 1.36699ZM8.50399 0.746992L8.54905 1.74598C8.90463 1.72994 9.19586 1.71682 9.48901 1.70635L9.45332 0.706992L9.41763 -0.292371C9.11345 -0.281507 8.81268 -0.267951 8.45892 -0.251992L8.50399 0.746992ZM9.45332 0.706992L9.48423 1.70651L9.7429 1.69851L9.71199 0.698992L9.68107 -0.30053L9.42241 -0.29253L9.45332 0.706992ZM9.71199 0.698992L9.73634 1.6987C10.6994 1.67523 11.6627 1.6651 12.626 1.66832L12.6293 0.668325L12.6327 -0.331669C11.6509 -0.334946 10.6691 -0.324626 9.68763 -0.300711L9.71199 0.698992ZM12.6293 0.668325L12.6298 1.66833L15.3711 1.66699L15.3707 0.666992L15.3702 -0.333008L12.6288 -0.331674L12.6293 0.668325ZM14 7.33366V6.33366C11.9667 6.33366 10.0166 7.14139 8.57883 8.57917L9.28594 9.28628L9.99305 9.99339C11.0558 8.93068 12.4971 8.33366 14 8.33366V7.33366ZM9.28594 9.28628L8.57883 8.57917C7.14105 10.017 6.33332 11.967 6.33332 14.0003H7.33332H8.33332C8.33332 12.4974 8.93034 11.0561 9.99305 9.99339L9.28594 9.28628ZM7.33332 14.0003H6.33332C6.33332 16.0337 7.14105 17.9837 8.57883 19.4215L9.28594 18.7144L9.99305 18.0073C8.93034 16.9446 8.33332 15.5032 8.33332 14.0003H7.33332ZM9.28594 18.7144L8.57883 19.4215C10.0166 20.8593 11.9667 21.667 14 21.667V20.667V19.667C12.4971 19.667 11.0558 19.07 9.99305 18.0073L9.28594 18.7144ZM14 20.667V21.667C16.0333 21.667 17.9834 20.8593 19.4211 19.4215L18.714 18.7144L18.0069 18.0073C16.9442 19.07 15.5029 19.667 14 19.667V20.667ZM18.714 18.7144L19.4211 19.4215C20.8589 17.9837 21.6667 16.0337 21.6667 14.0003H20.6667L19.6667 14.0003C19.6667 15.5032 19.0696 16.9446 18.0069 18.0073L18.714 18.7144ZM20.6667 14.0003L21.6667 14.0003C21.6667 11.967 20.8589 10.017 19.4211 8.57917L18.714 9.28628L18.0069 9.99339C19.0696 11.0561 19.6667 12.4974 19.6667 14.0003H20.6667ZM18.714 9.28628L19.4211 8.57917C17.9834 7.14139 16.0333 6.33366 14 6.33366V7.33366V8.33366C15.5029 8.33366 16.9442 8.93068 18.0069 9.99339L18.714 9.28628ZM14 10.0003L14.0002 11.0003C14.3941 11.0003 14.7842 11.0778 15.1482 11.2285L15.5308 10.3046L15.9133 9.38061C15.3066 9.12944 14.6564 9.00022 13.9998 9.00033L14 10.0003ZM15.5308 10.3046L15.1482 11.2285C15.5122 11.3792 15.843 11.6001 16.1216 11.8787L16.8286 11.1714L17.5356 10.4642C17.0712 9.99999 16.52 9.63178 15.9133 9.38061L15.5308 10.3046ZM16.8286 11.1714L16.1216 11.8787C16.4002 12.1572 16.6213 12.4879 16.7721 12.8518L17.6959 12.469L18.6197 12.0861C18.3684 11.4796 18 10.9284 17.5356 10.4642L16.8286 11.1714ZM17.6959 12.469L16.7721 12.8518C16.9229 13.2158 17.0006 13.6059 17.0007 13.9998L18.0007 13.9997L19.0007 13.9995C19.0005 13.3429 18.8711 12.6927 18.6197 12.0861L17.6959 12.469ZM18.0007 13.9997L17.0007 13.9998C17.0007 14.3938 16.9232 14.7839 16.7725 15.1479L17.6964 15.5304L18.6204 15.913C18.8715 15.3063 19.0008 14.6561 19.0007 13.9995L18.0007 13.9997ZM17.6964 15.5304L16.7725 15.1479C16.6218 15.5119 16.4009 15.8427 16.1223 16.1213L16.8296 16.8283L17.5368 17.5353C18.001 17.0709 18.3692 16.5196 18.6204 15.913L17.6964 15.5304ZM16.8296 16.8283L16.1223 16.1213C15.8438 16.3999 15.5131 16.6209 15.1492 16.7718L15.532 17.6956L15.9148 18.6194C16.5214 18.368 17.0726 17.9996 17.5368 17.5353L16.8296 16.8283ZM15.532 17.6956L15.1492 16.7718C14.7852 16.9226 14.3951 17.0003 14.0012 17.0003L14.0013 18.0003L14.0015 19.0003C14.6581 19.0002 15.3083 18.8708 15.9148 18.6194L15.532 17.6956ZM14.0013 18.0003V17.0003C13.2057 17.0003 12.4426 16.6843 11.88 16.1216L11.1729 16.8288L10.4658 17.5359C11.4035 18.4735 12.6752 19.0003 14.0013 19.0003V18.0003ZM11.1729 16.8288L11.88 16.1216C11.3174 15.559 11.0013 14.796 11.0013 14.0003H10.0013H9.00132C9.00132 15.3264 9.5281 16.5982 10.4658 17.5359L11.1729 16.8288ZM10.0013 14.0003H11.0013C11.0013 13.2047 11.3174 12.4416 11.88 11.879L11.1729 11.1719L10.4658 10.4648C9.5281 11.4025 9.00132 12.6742 9.00132 14.0003H10.0013ZM11.1729 11.1719L11.88 11.879C12.4426 11.3164 13.2057 11.0003 14.0013 11.0003V10.0003V9.00033C12.6752 9.00033 11.4035 9.52711 10.4658 10.4648L11.1729 11.1719ZM21.0013 5.33366V4.33366C20.2941 4.33366 19.6158 4.61461 19.1157 5.11471L19.8228 5.82181L20.5299 6.52892C20.6549 6.4039 20.8245 6.33366 21.0013 6.33366V5.33366ZM19.8228 5.82181L19.1157 5.11471C18.6156 5.6148 18.3347 6.29308 18.3347 7.00033H19.3347H20.3347C20.3347 6.82352 20.4049 6.65395 20.5299 6.52892L19.8228 5.82181ZM19.3347 7.00033H18.3347C18.3347 7.70757 18.6156 8.38585 19.1157 8.88594L19.8228 8.17884L20.5299 7.47173C20.4049 7.3467 20.3347 7.17713 20.3347 7.00033H19.3347ZM19.8228 8.17884L19.1157 8.88594C19.6158 9.38604 20.2941 9.66699 21.0013 9.66699V8.66699V7.66699C20.8245 7.66699 20.6549 7.59675 20.5299 7.47173L19.8228 8.17884ZM21.0013 8.66699V9.66699C21.7086 9.66699 22.3868 9.38604 22.8869 8.88594L22.1798 8.17884L21.4727 7.47173C21.3477 7.59675 21.1781 7.66699 21.0013 7.66699V8.66699ZM22.1798 8.17884L22.8869 8.88594C23.387 8.38584 23.668 7.70757 23.668 7.00033H22.668H21.668C21.668 7.17714 21.5977 7.34671 21.4727 7.47173L22.1798 8.17884ZM22.668 7.00033H23.668C23.668 6.29308 23.387 5.61481 22.8869 5.11471L22.1798 5.82181L21.4727 6.52892C21.5977 6.65394 21.668 6.82351 21.668 7.00033H22.668ZM22.1798 5.82181L22.8869 5.11471C22.3868 4.61461 21.7086 4.33366 21.0013 4.33366V5.33366V6.33366C21.1781 6.33366 21.3477 6.4039 21.4727 6.52892L22.1798 5.82181Z" fill="#C2A568" mask="url(#path-1-inside-1_214_303)"/>
</svg>
