<svg width="74" height="74" viewBox="0 0 74 74" fill="none" xmlns="http://www.w3.org/2000/svg">
<rect x="0.5" y="0.5" width="73" height="73" rx="36.5" fill="#012210" stroke="#B2985A"/>
<path d="M37.5526 57.2088C37.5526 57.1982 37.55 57.1863 37.5487 57.1757C37.5367 57.0499 37.5209 56.9228 37.4997 56.7983C37.2878 55.4769 36.6907 54.3236 36.5 54.3236C36.3093 54.3236 35.7122 55.4769 35.5003 56.7983C35.4804 56.9241 35.4632 57.0525 35.4513 57.1796C35.4513 57.1889 35.4487 57.1995 35.4487 57.2088C35.3785 57.9648 35.5625 59.1393 36.5013 59.1393C37.4401 59.1393 37.6228 57.9635 37.554 57.2088" fill="#B2985A"/>
<path d="M36.7396 26.5802C37.2176 25.8201 38.0187 24.275 38.0187 22.4689C38.0187 20.1399 36.6562 18.2147 36.4987 18.0002C36.3385 18.2173 34.9799 20.12 34.9799 22.4689C34.9799 24.275 35.781 25.8201 36.259 26.5802C36.259 26.5802 36.2603 26.5828 36.263 26.5815C36.263 26.4319 36.267 26.2862 36.2683 26.1684C36.2683 26.1075 36.2709 26.0532 36.2709 26.0095C36.2749 24.9648 36.3292 23.413 36.4378 22.4755C36.4391 22.461 36.4536 22.4252 36.5 22.4252C36.5437 22.4252 36.5596 22.4583 36.5609 22.4755C36.6681 23.413 36.7224 24.9648 36.7277 26.0095C36.7277 26.0545 36.7277 26.1088 36.7304 26.1697C36.733 26.2862 36.7357 26.4332 36.733 26.5788L36.7555 26.5908L36.7396 26.5802Z" fill="#B2985A"/>
<path d="M38.3458 25.8173C38.555 25.7048 39.9691 24.9024 40.8522 23.4525C41.7394 21.9947 41.799 20.3608 41.8016 20.1357C41.5964 20.2072 40.1545 20.758 39.1733 22.4462C38.3193 23.916 38.3378 25.5777 38.3458 25.8187" fill="#B2985A"/>
<path d="M43.0237 22.9231C42.5722 23.9294 42.8066 25.0483 42.8476 25.2217C43.0052 25.137 43.9969 24.5689 44.4484 23.5626C44.8999 22.5563 44.6656 21.4375 44.6245 21.264C44.467 21.3488 43.4752 21.9168 43.0237 22.9231Z" fill="#B2985A"/>
<path d="M52.5478 35.433C51.3839 35.6581 50.5538 36.5294 50.4293 36.6671C50.6001 36.7465 51.7176 37.243 52.8815 37.0193C54.0453 36.7942 54.8742 35.9229 55 35.7852C54.8292 35.7045 53.7117 35.2079 52.5478 35.433Z" fill="#B2985A"/>
<path d="M52.0725 43.6993C53.0457 43.6993 53.8613 43.1286 53.9963 43.028C53.8613 42.9287 53.0457 42.358 52.0725 42.358C51.0993 42.358 50.2836 42.93 50.1486 43.0293C50.2836 43.1286 51.0993 43.6993 52.0711 43.6993H52.0725Z" fill="#B2985A"/>
<path d="M53.0404 38.3061C51.9837 37.8943 50.8225 38.1989 50.6477 38.2492C50.7378 38.4041 51.3455 39.3972 52.4008 39.8089C53.4574 40.2221 54.6187 39.9162 54.7934 39.8659C54.7047 39.711 54.0956 38.7179 53.0404 38.3061Z" fill="#B2985A"/>
<path d="M47.8262 23.1017C47.6448 23.1521 46.4253 23.5162 45.6931 24.4947C44.9608 25.4732 44.9556 26.7469 44.9582 26.935C45.1396 26.8846 46.3591 26.5205 47.0913 25.542C47.8235 24.5635 47.8288 23.2898 47.8262 23.1017Z" fill="#B2985A"/>
<path d="M48.4498 35.5679C47.6765 36.0168 47.2939 36.8536 47.2316 37.0019C47.3905 37.0204 48.3068 37.1038 49.0801 36.655C49.8533 36.2061 50.236 35.3693 50.2982 35.221C50.1393 35.2025 49.2231 35.1191 48.4498 35.5692" fill="#B2985A"/>
<path d="M49.5514 41.4376C48.9503 41.8719 48.6987 42.5909 48.6563 42.7286C48.8007 42.7286 49.5633 42.7206 50.1645 42.2863C50.7656 41.852 51.0158 41.1331 51.0595 40.994C50.9152 40.9914 50.1526 41.0033 49.5514 41.4363" fill="#B2985A"/>
<path d="M46.4782 42.9511C46.6279 42.9219 47.4488 42.7405 47.9996 42.1368C48.5504 41.533 48.6563 40.6988 48.6709 40.5466C48.5213 40.5757 47.7004 40.7571 47.1495 41.3609C46.5987 41.9646 46.4928 42.7988 46.4782 42.9511Z" fill="#B2985A"/>
<path d="M44.8536 41.7593C44.4008 42.4398 44.422 43.2793 44.4312 43.4316C44.5755 43.3799 45.3581 43.0767 45.8109 42.3975C46.2637 41.7169 46.2426 40.8774 46.2333 40.7252C46.0903 40.7768 45.3064 41.08 44.8536 41.7593Z" fill="#B2985A"/>
<path d="M48.6206 43.5787C48.6921 43.7044 49.092 44.3532 49.7725 44.6485C50.4531 44.9438 51.1999 44.7902 51.3402 44.7571C51.2674 44.6313 50.8689 43.9825 50.1883 43.6886C49.5077 43.3946 48.7609 43.5469 48.6206 43.58" fill="#B2985A"/>
<path d="M46.363 43.9587C46.4385 44.0978 46.8635 44.826 47.6143 45.2087C48.3651 45.5913 49.2032 45.5053 49.3608 45.4841C49.284 45.3451 48.8603 44.6168 48.1095 44.2355C47.3588 43.8528 46.5206 43.9389 46.363 43.9587Z" fill="#B2985A"/>
<path d="M47.9387 47.711C47.1734 47.2568 46.2611 47.331 46.1022 47.3469C46.1631 47.4938 46.5352 48.3306 47.3005 48.7848C48.0658 49.239 48.9781 49.1661 49.137 49.1489C49.0761 49.0006 48.704 48.1651 47.9387 47.711Z" fill="#B2985A"/>
<path d="M45.4839 45.8018C46.1313 46.2335 46.9298 46.2149 47.078 46.207C47.0277 46.0666 46.7391 45.3225 46.0929 44.8908C45.4455 44.4592 44.647 44.4777 44.4987 44.4857C44.5491 44.626 44.8377 45.3702 45.4839 45.8018Z" fill="#B2985A"/>
<path d="M45.6136 30.755C45.7619 30.7854 46.5206 30.9165 47.2343 30.6199C47.948 30.3233 48.3889 29.6931 48.4723 29.566C48.324 29.5355 47.5653 29.4044 46.8516 29.701C46.1379 29.9976 45.697 30.6279 45.6136 30.7537" fill="#B2985A"/>
<path d="M43.5626 46.8889C43.5163 47.0174 43.3004 47.6715 43.4924 48.3136C43.6844 48.9571 44.222 49.3848 44.3319 49.4682C44.3782 49.3398 44.5941 48.6857 44.4021 48.0435C44.2101 47.4 43.6725 46.971 43.5626 46.8889Z" fill="#B2985A"/>
<path d="M45.1939 47.425C45.1528 47.5482 44.9741 48.14 45.1581 48.7147C45.3435 49.2907 45.8334 49.6667 45.9393 49.7422C45.9804 49.619 46.1591 49.0272 45.9751 48.4525C45.7897 47.8779 45.2998 47.5005 45.1952 47.425" fill="#B2985A"/>
<path d="M49.1423 38.6557C48.3571 38.3736 47.5309 38.6014 47.3839 38.6477C47.4687 38.7761 47.9612 39.4779 48.7464 39.7599C49.5316 40.042 50.3578 39.8129 50.5048 39.7692C50.42 39.6408 49.9275 38.939 49.1423 38.657" fill="#B2985A"/>
<path d="M50.6252 29.0072C49.4746 29.3819 48.7782 30.514 48.6881 30.6703C48.8536 30.7431 50.0824 31.2489 51.233 30.8742C52.3836 30.4995 53.0788 29.3674 53.1701 29.2125C53.0046 29.1396 51.7759 28.6338 50.6252 29.0086" fill="#B2985A"/>
<path d="M51.8831 32.1465H51.8738C50.5908 32.1505 49.5183 32.9198 49.3634 33.0376C49.5196 33.1541 50.5908 33.9142 51.8699 33.9142H51.8791C53.1622 33.9102 54.2347 33.1409 54.3896 33.0231C54.2334 32.9065 53.1622 32.1465 51.8831 32.1465Z" fill="#B2985A"/>
<path d="M51.6077 37.5449C51.2171 37.4654 50.7987 37.4138 50.3644 37.3926C50.1658 37.382 49.9698 37.378 49.7778 37.378C48.7941 37.378 47.9069 37.5078 47.1323 37.7673C45.995 38.1473 45.0999 38.8557 44.1426 40.1321C44.124 40.1573 44.1307 40.1758 44.1426 40.1864C44.1571 40.1983 44.1836 40.1996 44.2048 40.1758C45.0244 39.2635 46.0638 38.5644 47.2105 38.1513C47.2568 38.1354 47.3018 38.1182 47.3482 38.1023C48.5637 37.6839 49.995 37.5117 51.6024 37.5925C51.6024 37.5925 51.6024 37.5925 51.6037 37.5925C51.6223 37.5925 51.6263 37.5753 51.6263 37.5713C51.6263 37.5674 51.6276 37.5488 51.6077 37.5449Z" fill="#B2985A"/>
<path d="M46.9814 28.5784V28.585L46.9734 28.589C46.9522 28.6035 46.9297 28.6221 46.9086 28.6406C46.8887 28.6578 46.8688 28.6737 46.8503 28.687C46.7894 28.7293 46.7325 28.769 46.6795 28.8048C46.5232 28.912 46.3895 29.0061 46.2108 29.1398C45.464 29.6999 44.8549 30.4308 44.4074 31.0054C44.2061 31.2636 44.0485 31.4966 43.9228 31.7178C43.8857 31.7826 43.8446 31.8793 43.8367 31.9535C43.8248 32.0779 43.8804 32.1627 43.985 32.1812C44.1584 32.213 44.2935 31.9786 44.3756 31.8409L44.3928 31.8118C44.4405 31.7323 44.4855 31.6502 44.5292 31.5721C44.5927 31.4569 44.6589 31.3391 44.7304 31.2265C45.3819 30.207 46.1538 29.3503 47.0251 28.6803L47.0304 28.6764H47.037C47.3812 28.6896 48.5756 28.6737 49.472 27.9799C50.4518 27.2225 50.7391 25.9037 50.7735 25.7223C50.7418 25.721 50.6742 25.7171 50.5802 25.7171C50.1327 25.7171 49.0708 25.7899 48.2618 26.4148C47.3746 27.1007 47.0568 28.2447 46.9801 28.5784" fill="#B2985A"/>
<path d="M49.4084 43.1071C49.4084 43.1005 49.4044 43.078 49.3753 43.078C49.2204 43.074 49.0655 43.0727 48.9145 43.0727C46.6437 43.0727 44.7675 43.4712 43.3296 44.2577C41.6401 45.1833 40.4762 46.5074 39.4368 48.6855C38.6145 50.4094 38.171 52.0341 38.0836 53.6507C37.9273 56.5121 38.98 57.9487 39.8896 58.6505C40.1889 58.8809 40.5715 59.053 40.9396 59.1218C41.3104 59.192 41.6732 59.1973 42.0134 59.1973H43.7586C43.8049 59.1973 43.8288 59.1642 43.8314 59.1311C43.8341 59.098 43.8168 59.0596 43.7705 59.0517C43.5308 59.008 43.3389 58.9669 43.1826 58.9285C42.6437 58.7948 42.216 58.6584 41.8334 58.4969C41.0601 58.1711 40.4338 57.6296 40.0207 56.9318C39.3031 55.7163 39.3057 54.2519 39.3706 53.2549C39.4434 52.14 39.6513 51.0132 39.9903 49.9036C40.4047 48.5478 40.9449 47.6249 41.6414 47.0833C42.0452 46.7695 42.5378 46.5908 43.1469 46.5352C43.168 46.5338 43.1879 46.5312 43.2091 46.5299C43.2435 46.5272 43.2779 46.5246 43.3137 46.5232C43.3481 46.5219 43.3825 46.5206 43.417 46.5193C43.4845 46.5179 43.5534 46.5166 43.6209 46.5193C43.6553 46.5193 43.6884 46.5219 43.7228 46.5232C43.7559 46.5246 43.7904 46.5272 43.8235 46.5299C43.8566 46.5325 43.891 46.5352 43.9241 46.5391C43.9572 46.5431 43.9903 46.5458 44.0234 46.5511C44.0565 46.555 44.0896 46.5603 44.1227 46.5643C44.1558 46.5696 44.1889 46.5749 44.2207 46.5802C44.2538 46.5868 44.2856 46.5921 44.3187 46.5987C44.3518 46.6053 44.3835 46.612 44.4166 46.6199C44.4498 46.6278 44.4815 46.6345 44.5133 46.6437C44.5451 46.6517 44.5782 46.6609 44.61 46.6689C44.6417 46.6782 44.6748 46.6874 44.7066 46.6967C44.7384 46.706 44.7715 46.7166 44.8033 46.7272C44.8351 46.7377 44.8668 46.7483 44.8986 46.7603C44.9304 46.7708 44.9622 46.7828 44.9939 46.7947C45.0257 46.8066 45.0575 46.8185 45.0893 46.8318C45.1211 46.845 45.1528 46.8582 45.1846 46.8715C45.2164 46.8847 45.2482 46.8993 45.2799 46.9125C45.3117 46.9271 45.3435 46.9417 45.3753 46.9562C45.4071 46.9708 45.4388 46.9867 45.4693 47.0026C45.5011 47.0184 45.5328 47.0343 45.5633 47.0502C45.5951 47.0661 45.6269 47.0833 45.6573 47.1005C45.6891 47.1178 45.7209 47.135 45.7513 47.1535C45.7672 47.1628 45.7831 47.1707 45.799 47.18C45.8056 47.184 45.8083 47.1853 45.8109 47.1866C45.8162 47.1866 45.8202 47.1866 45.8241 47.1866C45.8294 47.184 45.8347 47.18 45.8387 47.1747C45.8453 47.1654 45.8466 47.1509 45.8374 47.1429C45.1727 46.6053 44.3782 46.1128 43.0661 46.1538C42.5868 46.1697 42.0691 46.3021 41.6083 46.5299L41.5368 46.5656L41.5858 46.5021C42.3564 45.4905 43.2952 44.7172 44.3001 44.267C45.6878 43.6447 47.3468 43.2806 49.3727 43.1508C49.3965 43.1482 49.4058 43.1283 49.4058 43.1124" fill="#B2985A"/>
<path d="M31.1984 20.1359C31.2024 20.361 31.2606 21.9949 32.1477 23.4527C33.0309 24.9039 34.445 25.7049 34.6542 25.8175C34.6622 25.5765 34.6794 23.9148 33.8267 22.4451C32.8455 20.7569 31.4036 20.2061 31.1984 20.1346" fill="#B2985A"/>
<path d="M28.3755 21.264C28.3344 21.4375 28.1001 22.5563 28.5516 23.5626C29.0031 24.5689 29.9948 25.137 30.1524 25.2217C30.1934 25.0483 30.4278 23.9294 29.9763 22.9231C29.5248 21.9168 28.533 21.3488 28.3755 21.264Z" fill="#B2985A"/>
<path d="M20.4522 35.433C19.2883 35.2079 18.1695 35.7045 18 35.7852C18.1258 35.9229 18.956 36.7942 20.1185 37.0193C21.2824 37.243 22.4012 36.7478 22.5707 36.6671C22.4449 36.5294 21.6147 35.6581 20.4522 35.433Z" fill="#B2985A"/>
<path d="M20.9262 42.358C19.9543 42.358 19.1387 42.9273 19.0023 43.028C19.1374 43.1286 19.953 43.6993 20.9262 43.6993H20.9275C21.8994 43.6993 22.715 43.1299 22.8514 43.0293C22.7164 42.9287 21.9007 42.358 20.9275 42.358H20.9262Z" fill="#B2985A"/>
<path d="M19.9596 38.3061C18.9043 38.7179 18.2966 39.7123 18.2066 39.8659C18.3813 39.9162 19.5426 40.222 20.5992 39.8089C21.6545 39.3971 22.2622 38.4028 22.3522 38.2492C22.1775 38.1989 21.0162 37.893 19.9596 38.3061Z" fill="#B2985A"/>
<path d="M28.5926 31.0051C28.1451 30.4305 27.5347 29.6996 26.7892 29.1395C26.6118 29.0058 26.4767 28.9131 26.3205 28.8059C26.2675 28.7688 26.2119 28.7304 26.1497 28.688C26.1312 28.6748 26.1113 28.6589 26.0914 28.6417C26.0703 28.6231 26.0477 28.6046 26.0266 28.59L26.0199 28.5861V28.5794C25.9418 28.2458 25.6227 27.1018 24.7356 26.4159C23.7558 25.6585 22.4079 25.7115 22.2238 25.7234C22.2596 25.9035 22.5469 27.2236 23.5254 27.9796C24.4218 28.6734 25.6161 28.688 25.9604 28.6761H25.967L25.9723 28.6801C26.8435 29.35 27.6168 30.2067 28.2669 31.2263C28.3384 31.3388 28.4046 31.458 28.4682 31.5732C28.5119 31.6526 28.5582 31.7334 28.6045 31.8128L28.6218 31.842C28.7025 31.981 28.8389 32.2127 29.0124 32.1822C29.117 32.1637 29.1726 32.079 29.1607 31.9545C29.154 31.8804 29.1117 31.7837 29.0746 31.7188C28.9488 31.4977 28.7912 31.2647 28.59 31.0065" fill="#B2985A"/>
<path d="M25.1738 23.1017C25.1699 23.2898 25.1765 24.5635 25.9074 25.542C26.6396 26.5205 27.8591 26.886 28.0405 26.935C28.0444 26.7469 28.0378 25.4745 27.3056 24.4947C26.5734 23.5162 25.3539 23.1507 25.1725 23.1017" fill="#B2985A"/>
<path d="M24.5502 35.5681C23.777 35.1192 22.8607 35.2013 22.7018 35.2198C22.764 35.3668 23.1467 36.2036 23.92 36.6538C24.6932 37.1027 25.6095 37.0206 25.7684 37.0007C25.7061 36.8538 25.3235 36.0169 24.5502 35.5668" fill="#B2985A"/>
<path d="M32.8641 35.2421C32.9091 35.3997 33.1845 36.2577 33.881 36.8191C34.5788 37.3818 35.4752 37.4679 35.638 37.4785C35.593 37.3223 35.3176 36.4629 34.6211 35.9015C33.9233 35.3388 33.0269 35.2527 32.8641 35.2421Z" fill="#B2985A"/>
<path d="M23.4473 41.4377C22.8461 41.0034 22.0835 40.9915 21.9391 40.9954C21.9828 41.1331 22.2331 41.8534 22.8342 42.2877C23.4367 42.722 24.198 42.7326 24.3423 42.73C24.2986 42.5923 24.0484 41.872 23.4473 41.439" fill="#B2985A"/>
<path d="M24.3291 40.5466C24.3436 40.6988 24.4496 41.5317 25.0004 42.1368C25.5512 42.7405 26.3721 42.9219 26.5218 42.9511C26.5072 42.7988 26.4013 41.966 25.8504 41.3609C25.2996 40.7571 24.4787 40.5757 24.3291 40.5466Z" fill="#B2985A"/>
<path d="M26.7654 40.7252C26.7574 40.8774 26.7349 41.7169 27.1878 42.3975C27.6406 43.078 28.4245 43.3813 28.5675 43.4316C28.5754 43.2793 28.5979 42.4398 28.1451 41.7593C27.6922 41.0787 26.9084 40.7755 26.7654 40.7252Z" fill="#B2985A"/>
<path d="M22.8104 43.6872C22.1298 43.9824 21.7299 44.6312 21.6584 44.7557C21.7988 44.7888 22.5456 44.9424 23.2261 44.6471C23.9067 44.3518 24.3053 43.703 24.3781 43.5773C24.2377 43.5442 23.4909 43.3906 22.8104 43.6858" fill="#B2985A"/>
<path d="M24.8905 44.2354C24.1397 44.6181 23.7147 45.345 23.6392 45.4853C23.7968 45.5052 24.6349 45.5912 25.3857 45.2086C26.1364 44.8273 26.5615 44.099 26.6369 43.96C26.4794 43.9388 25.6412 43.8541 24.8905 44.2354Z" fill="#B2985A"/>
<path d="M25.0613 47.711C24.296 48.1651 23.9239 49.0019 23.863 49.1489C24.0219 49.1661 24.9342 49.239 25.6995 48.7848C26.4648 48.3306 26.8369 47.4938 26.8978 47.3469C26.7389 47.3296 25.8266 47.2568 25.0613 47.711Z" fill="#B2985A"/>
<path d="M25.9219 46.207C26.0702 46.2149 26.8687 46.2335 27.5161 45.8018C28.1636 45.3702 28.4523 44.6247 28.5012 44.4857C28.3529 44.4777 27.5545 44.4592 26.9071 44.8908C26.2596 45.3225 25.9709 46.068 25.9219 46.207Z" fill="#B2985A"/>
<path d="M25.7657 30.6201C26.4781 30.9167 27.2368 30.7856 27.3864 30.7551C27.303 30.628 26.8607 29.9991 26.1484 29.7025C25.436 29.4059 24.6773 29.537 24.5277 29.5674C24.6111 29.6946 25.0534 30.3235 25.7657 30.6201Z" fill="#B2985A"/>
<path d="M29.4374 46.8889C29.3275 46.971 28.7899 47.4 28.5979 48.0435C28.4059 48.687 28.6217 49.3398 28.6681 49.4682C28.778 49.3861 29.3156 48.9571 29.5075 48.3136C29.6995 47.6701 29.4837 47.0174 29.4374 46.8889Z" fill="#B2985A"/>
<path d="M27.8061 47.425C27.7015 47.5005 27.2103 47.8779 27.0249 48.4525C26.8395 49.0272 27.0196 49.6204 27.0607 49.7422C27.1653 49.6667 27.6565 49.2893 27.8419 48.7147C28.0272 48.14 27.8472 47.5469 27.8061 47.425Z" fill="#B2985A"/>
<path d="M23.8577 38.6558C23.0725 38.9378 22.58 39.6395 22.4952 39.768C22.6422 39.813 23.4698 40.0421 24.2536 39.7587C25.0388 39.4767 25.53 38.7749 25.6161 38.6465C25.4691 38.6015 24.6416 38.3737 23.8577 38.6544" fill="#B2985A"/>
<path d="M22.3734 29.0071C21.2228 28.6324 19.9941 29.1382 19.8286 29.211C19.9199 29.3672 20.6151 30.4993 21.7657 30.8727C22.9163 31.2474 24.145 30.7416 24.3106 30.6688C24.2192 30.5126 23.5241 29.3805 22.3734 29.0058" fill="#B2985A"/>
<path d="M21.1169 32.1465C19.8378 32.1465 18.7666 32.9079 18.6104 33.0231C18.7653 33.1409 19.8378 33.9102 21.1208 33.9142H21.1301C22.4092 33.9142 23.4803 33.1528 23.6366 33.0376C23.4817 32.9198 22.4092 32.1505 21.1261 32.1465H21.1182H21.1169Z" fill="#B2985A"/>
<path d="M25.8677 37.7659C24.9421 37.456 23.8551 37.3303 22.6356 37.3912C22.2013 37.4123 21.7829 37.464 21.3923 37.5448C21.3724 37.5487 21.3737 37.5673 21.3737 37.5712C21.3737 37.5752 21.3777 37.5951 21.3976 37.5911C21.6558 37.5779 21.91 37.5712 22.1589 37.5712C23.4592 37.5712 24.6323 37.7487 25.6518 38.0995C25.6982 38.1154 25.7432 38.1313 25.7895 38.1485C26.9349 38.5616 27.9743 39.2621 28.7952 40.173C28.8164 40.1969 28.8429 40.1969 28.8574 40.1836C28.8693 40.173 28.876 40.1545 28.8574 40.1294C27.9001 38.8516 27.005 38.1446 25.8677 37.7632" fill="#B2985A"/>
<path d="M37.3593 37.48C37.5222 37.4694 38.4199 37.382 39.1164 36.8206C39.8142 36.2579 40.0882 35.3999 40.1333 35.2436C39.9704 35.2555 39.0727 35.3416 38.3762 35.903C37.6784 36.4657 37.4043 37.3237 37.3593 37.48Z" fill="#B2985A"/>
<path d="M29.2427 59.1974H30.9879C31.3282 59.1974 31.6896 59.1921 32.0617 59.1219C32.4298 59.0517 32.8124 58.8809 33.1117 58.6505C34.0213 57.9488 35.0726 56.5135 34.9164 53.6508C34.8277 52.0328 34.3855 50.4095 33.5632 48.6855C32.5238 46.5074 31.3586 45.1833 29.6691 44.2578C28.1358 43.4183 26.102 43.0211 23.6234 43.0781C23.5942 43.0781 23.5916 43.1006 23.5916 43.1072C23.5916 43.1244 23.6008 43.1429 23.626 43.1456C25.6518 43.2753 27.3109 43.6408 28.6972 44.2631C29.7022 44.7133 30.641 45.4866 31.4116 46.4981L31.4606 46.5617L31.3891 46.526C30.9283 46.2982 30.4106 46.1658 29.9313 46.1499C28.6204 46.1075 27.8247 46.6001 27.16 47.139C27.1494 47.1469 27.152 47.1615 27.1573 47.1708C27.1613 47.1761 27.1666 47.1814 27.1719 47.1827C27.1759 47.184 27.1798 47.1853 27.1825 47.1853C27.1878 47.1827 27.1904 47.1814 27.1944 47.18C27.2143 47.1695 27.2288 47.1602 27.2447 47.1509C27.2765 47.1337 27.3069 47.1165 27.3387 47.0993C27.3705 47.0821 27.4009 47.0662 27.4327 47.049C27.4645 47.0331 27.495 47.0172 27.5267 47.0013C27.5585 46.9854 27.589 46.9708 27.6207 46.955C27.6525 46.9404 27.6843 46.9258 27.7161 46.9113C27.7479 46.8967 27.7796 46.8835 27.8114 46.8702C27.8432 46.857 27.875 46.8437 27.9067 46.8305C27.9385 46.8173 27.9703 46.8053 28.0021 46.7934C28.0339 46.7815 28.0656 46.7696 28.0974 46.759C28.1292 46.7484 28.161 46.7365 28.1927 46.7259C28.2245 46.7153 28.2563 46.7047 28.2894 46.6954C28.3212 46.6862 28.353 46.6769 28.3861 46.6676C28.4178 46.6584 28.4509 46.6504 28.4827 46.6425C28.5145 46.6345 28.5476 46.6266 28.5794 46.6186C28.6112 46.612 28.6443 46.6041 28.6774 46.5975C28.7105 46.5908 28.7422 46.5855 28.7753 46.5789C28.8084 46.5736 28.8415 46.5683 28.8733 46.563C28.9064 46.5577 28.9395 46.5538 28.9726 46.5498C29.0057 46.5458 29.0388 46.5418 29.0719 46.5379C29.105 46.5352 29.1395 46.5312 29.1726 46.5286C29.2057 46.526 29.2401 46.5246 29.2732 46.522C29.3076 46.5207 29.3407 46.5193 29.3751 46.518C29.4096 46.518 29.4427 46.518 29.4771 46.518C29.5115 46.518 29.546 46.518 29.5791 46.5193C29.6135 46.5193 29.6479 46.522 29.6823 46.5233C29.7168 46.526 29.7512 46.5273 29.7869 46.5299C29.8081 46.5312 29.828 46.5326 29.8478 46.5352C30.4582 46.5895 30.9508 46.7696 31.3546 47.0834C32.0511 47.6249 32.5913 48.5478 33.0058 49.9037C33.3447 51.0132 33.5539 52.14 33.6254 53.2549C33.7605 55.335 33.3196 56.3493 32.9753 56.9319C32.5635 57.631 31.9359 58.1712 31.1626 58.4969C30.7813 58.6571 30.3523 58.7948 29.8134 58.9286C29.6572 58.967 29.4652 59.008 29.2255 59.0517C29.1792 59.0597 29.162 59.0981 29.1659 59.1312C29.1686 59.1643 29.1924 59.1974 29.2388 59.1974" fill="#B2985A"/>
<path d="M41.0813 33.0815V33.1437L41.8347 33.4072C42.1128 33.5038 42.3392 33.7144 42.4557 33.9832C42.5735 34.2533 42.5722 34.5618 42.4544 34.8306L36.4987 48.3812L36.4815 48.3414L30.543 34.8306C30.4251 34.5618 30.4238 34.2533 30.5416 33.9832C30.6595 33.7144 30.8846 33.5038 31.1626 33.4072L31.916 33.1437V33.0815H25.0083V33.1437L25.816 33.3714C26.3999 33.5528 26.9229 33.8918 27.3294 34.3499C27.5135 34.5578 27.6711 34.7882 27.7982 35.0358L36.4973 51.9337L45.1965 35.0358C45.2985 34.8385 45.4203 34.6505 45.5593 34.477C45.9777 33.954 46.5378 33.5714 47.1787 33.3714L47.9877 33.1437V33.0815H41.08H41.0813Z" fill="#B2985A"/>
<path d="M30.065 28.283C29.2811 28.0248 28.4721 28.2724 28.3265 28.3214C28.4139 28.4472 28.9197 29.1265 29.7022 29.3847C30.486 29.6428 31.295 29.3952 31.4407 29.3463C31.3533 29.2205 30.8475 28.5399 30.065 28.283Z" fill="#B2985A"/>
<path d="M33.3672 29.0986C33.2467 29.8481 33.5884 30.5485 33.6559 30.6783C33.7605 30.5763 34.3034 30.0175 34.4238 29.2681C34.5443 28.5187 34.2027 27.8183 34.1352 27.6885C34.0306 27.7904 33.4877 28.3492 33.3672 29.0986Z" fill="#B2985A"/>
<path d="M29.4572 30.5432C29.5579 30.6531 30.1206 31.2357 30.8939 31.3853C31.6685 31.5336 32.406 31.2013 32.541 31.1364C32.4404 31.0252 31.8777 30.4439 31.1031 30.2943C30.3285 30.146 29.591 30.4783 29.4559 30.5432" fill="#B2985A"/>
<path d="M30.9534 25.7804C30.9481 26.5113 31.3613 27.1296 31.4447 27.2475C31.5307 27.131 31.9518 26.5192 31.9571 25.7884C31.9624 25.0575 31.5493 24.4391 31.4659 24.3213C31.3798 24.4378 30.9587 25.0495 30.9534 25.7804Z" fill="#B2985A"/>
<path d="M32.1954 27.4674C32.0882 28.1917 32.4245 28.8643 32.4933 28.9914C32.5953 28.8895 33.1117 28.3426 33.2176 27.6183C33.3249 26.8941 32.9872 26.2214 32.9197 26.0943C32.8177 26.1963 32.3014 26.7418 32.1954 27.4674Z" fill="#B2985A"/>
<path d="M29.8981 26.4266C29.3632 26.0215 28.676 25.9923 28.5396 25.991C28.578 26.1221 28.7899 26.7775 29.3248 27.1827C29.8584 27.5878 30.5469 27.617 30.6833 27.6183C30.6449 27.4872 30.4331 26.8318 29.8981 26.4266Z" fill="#B2985A"/>
<path d="M42.935 28.283C42.1512 28.5412 41.6467 29.2205 41.5593 29.3463C41.7049 29.3952 42.5153 29.6415 43.2978 29.3847C44.0817 29.1265 44.5861 28.4472 44.6735 28.3214C44.5279 28.2724 43.7175 28.0262 42.935 28.283Z" fill="#B2985A"/>
<path d="M38.8648 27.6897C38.7973 27.8194 38.4557 28.5199 38.5761 29.2693C38.6966 30.0187 39.2382 30.5775 39.3441 30.6794C39.4116 30.5497 39.7519 29.8492 39.6328 29.0998C39.5123 28.3517 38.9707 27.7916 38.8648 27.6897Z" fill="#B2985A"/>
<path d="M41.8956 30.2943C41.121 30.4426 40.5596 31.0252 40.4577 31.1364C40.5927 31.2013 41.3302 31.5349 42.1048 31.3853C42.8794 31.237 43.4408 30.6544 43.5428 30.5432C43.4077 30.4783 42.6702 30.146 41.8956 30.2943Z" fill="#B2985A"/>
<path d="M41.554 27.2463C41.6374 27.1285 42.0505 26.5101 42.0452 25.7792C42.0399 25.0483 41.6189 24.4366 41.5328 24.3201C41.4494 24.4379 41.0363 25.0563 41.0416 25.7872C41.0469 26.5181 41.4679 27.1298 41.554 27.2463Z" fill="#B2985A"/>
<path d="M40.079 26.0943C40.0114 26.2214 39.6738 26.8928 39.7811 27.6183C39.8883 28.3426 40.4047 28.8895 40.5053 28.9914C40.5729 28.8643 40.9105 28.193 40.8032 27.4674C40.696 26.7431 40.1796 26.1963 40.079 26.0943Z" fill="#B2985A"/>
<path d="M42.3167 27.6183C42.4531 27.617 43.1416 27.5878 43.6752 27.1827C44.2101 26.7775 44.422 26.1221 44.4604 25.991C44.324 25.9923 43.6355 26.0215 43.1018 26.4266C42.5669 26.8318 42.3551 27.4872 42.3167 27.6183Z" fill="#B2985A"/>
<path d="M36.6311 42.0611L36.6456 41.7499C36.6708 41.2243 36.6946 40.6986 36.7185 40.173C36.7595 39.2501 36.8058 38.265 36.88 37.2693C36.8853 37.207 36.8893 37.1448 36.8946 37.0826C36.9872 36.0273 37.1872 35.2209 37.5222 34.547C37.8876 33.8134 38.4133 33.1382 38.923 32.4854L38.9628 32.4351C39.0727 32.2934 39.1839 32.153 39.2938 32.0127C39.3957 31.8843 39.4964 31.7545 39.597 31.6261C39.9995 31.111 40.4232 30.5509 40.79 29.9551C41.5315 28.7502 42.13 27.4076 42.5682 25.967V25.9643C42.5682 25.9643 42.5656 25.9537 42.5603 25.9497C42.5537 25.9458 42.5457 25.9458 42.5404 25.9484C42.5378 25.9484 42.5365 25.9511 42.5365 25.9524C41.7288 27.7651 40.9303 29.1699 40.022 30.3748C39.687 30.8197 39.311 31.2447 38.9469 31.6565C38.2968 32.3927 37.6255 33.1527 37.1647 34.0491C37.0707 34.2332 36.9859 34.4199 36.9131 34.6039C36.8641 34.7297 36.8191 34.8581 36.7701 35.0064L36.7344 35.1137L36.7291 34.7178C36.7158 33.6214 36.7026 32.4894 36.7502 31.4407C36.7714 30.9601 36.7953 30.6026 36.827 30.2808C36.8323 30.2292 36.8376 30.1775 36.8429 30.1272C36.8535 30.0253 36.8668 29.9246 36.88 29.8266C36.8866 29.7777 36.8932 29.7287 36.9012 29.6797C36.9316 29.4771 36.9674 29.2917 37.0084 29.1116C37.0402 28.9713 37.0773 28.8349 37.117 28.7051C37.3183 28.0484 37.6188 27.4843 38.0664 26.9269C38.0664 26.9269 38.069 26.9216 38.0703 26.9163C38.0703 26.9097 38.0703 26.9044 38.0637 26.8991C38.0624 26.8978 38.0598 26.8965 38.0584 26.8951C38.0558 26.8938 38.0531 26.8925 38.0492 26.8938C38.0412 26.8938 38.0333 26.9004 38.0306 26.9018C37.8625 27.0156 37.7009 27.16 37.546 27.3347C37.5209 27.3625 37.497 27.3903 37.4732 27.4181C37.3818 27.528 37.2931 27.6485 37.2097 27.7756C37.113 27.9226 37.023 28.0789 36.9409 28.243C36.733 28.6575 36.5966 29.1196 36.5132 29.6942L36.4947 29.8227L36.4762 29.6942C36.4364 29.4228 36.3861 29.1805 36.3226 28.9567C36.3053 28.8958 36.2868 28.8349 36.267 28.7753C36.206 28.59 36.1319 28.4099 36.0485 28.243C35.9664 28.0802 35.8763 27.9226 35.7797 27.7756C35.6963 27.6485 35.6076 27.528 35.5162 27.4181C35.4924 27.3903 35.4685 27.3612 35.4447 27.3347C35.2898 27.16 35.1269 27.0156 34.9614 26.9031C34.9574 26.9004 34.9495 26.8938 34.9415 26.8938C34.9389 26.8938 34.9363 26.8938 34.9336 26.8951C34.9323 26.8951 34.9296 26.8978 34.9283 26.8991C34.9257 26.9018 34.9177 26.9084 34.9243 26.9243C35.3719 27.483 35.6738 28.0484 35.8737 28.7038C35.9134 28.8336 35.9505 28.9713 35.9823 29.1103C36.0233 29.2904 36.0591 29.4758 36.0895 29.6783C36.0975 29.7273 36.1041 29.7763 36.1107 29.8253C36.1239 29.922 36.1359 30.0226 36.1478 30.1259C36.1531 30.1775 36.1584 30.2278 36.1637 30.2795C36.1941 30.6012 36.218 30.9587 36.2405 31.4394C36.2881 32.488 36.2749 33.6214 36.2617 34.7165L36.2577 35.1124L36.2219 35.0051C36.1729 34.8568 36.1279 34.7284 36.0789 34.6026C36.0061 34.4172 35.9227 34.2305 35.8274 34.0478C35.3666 33.1514 34.6939 32.3914 34.0451 31.6552C33.6824 31.2434 33.3063 30.8184 32.9713 30.3735C32.063 29.1686 31.2646 27.7624 30.4569 25.9511C30.4569 25.9497 30.4543 25.9484 30.4529 25.9471C30.4476 25.9444 30.4397 25.9444 30.4331 25.9484C30.4278 25.9524 30.4225 25.9577 30.4238 25.963V25.9656C30.8634 27.4076 31.4619 28.7488 32.2034 29.9551C32.5701 30.5509 32.9938 31.111 33.3964 31.6261C33.4983 31.7558 33.6003 31.8856 33.7022 32.0153C33.8121 32.1557 33.9233 32.2947 34.0319 32.4351L34.0716 32.4854C34.5814 33.1382 35.1071 33.8134 35.4725 34.547C35.8075 35.2209 36.0074 36.0273 36.1001 37.0826C36.1054 37.1448 36.1107 37.207 36.1147 37.2693C36.1902 38.265 36.2365 39.2488 36.2762 40.173C36.3001 40.6986 36.3239 41.2243 36.349 41.7499L36.3636 42.0611C36.3782 42.3723 36.406 43.1588 36.4245 43.6791C36.4311 43.8738 36.4364 44.03 36.4391 44.1095V44.128C36.4391 44.1426 36.4417 44.1558 36.4431 44.169L36.4245 44.1743H36.4431C36.4457 44.1849 36.4483 44.1929 36.4523 44.1982V44.2008C36.4642 44.2154 36.4709 44.2207 36.4748 44.2233C36.4775 44.2233 36.4788 44.2246 36.4801 44.2246L36.4881 44.222L36.4987 44.2246C36.4987 44.2246 36.5053 44.2246 36.5079 44.2246C36.5132 44.222 36.5212 44.2154 36.5304 44.1995C36.5304 44.1995 36.5371 44.1863 36.5397 44.177L36.5424 44.1704C36.5437 44.1571 36.545 44.1439 36.5463 44.128C36.549 44.0565 36.5556 43.8897 36.5622 43.6805C36.5808 43.1601 36.6086 42.3736 36.6231 42.0611" fill="#B2985A"/>
</svg>
