<svg width="145" height="161" viewBox="0 0 145 161" fill="none" xmlns="http://www.w3.org/2000/svg">
<path d="M74.9906 92.5519C74.9906 92.5269 74.9844 92.4987 74.9812 92.4737C74.9531 92.1768 74.9155 91.8768 74.8655 91.583C74.3648 88.4637 72.9537 85.7414 72.5031 85.7414C72.0526 85.7414 70.6414 88.4637 70.1408 91.583C70.0939 91.8799 70.0532 92.1831 70.025 92.4831C70.025 92.505 70.0188 92.53 70.0188 92.5519C69.8529 94.3365 70.2879 97.1088 72.5063 97.1088C74.7246 97.1088 75.1564 94.3334 74.9937 92.5519" fill="#C2A568"/>
<path d="M73.0695 20.2531C74.199 18.4591 76.092 14.8117 76.092 10.5485C76.092 5.05078 72.8723 0.506329 72.5 0C72.1214 0.51258 68.9111 5.0039 68.9111 10.5485C68.9111 14.8117 70.8041 18.4591 71.9337 20.2531C71.9337 20.2531 71.9368 20.2594 71.943 20.2563C71.943 19.9031 71.9524 19.5593 71.9556 19.2811C71.9556 19.1373 71.9618 19.0092 71.9618 18.9061C71.9712 16.4401 72.0995 12.777 72.3561 10.5641C72.3592 10.5298 72.3936 10.4454 72.5031 10.4454C72.6064 10.4454 72.6439 10.5235 72.647 10.5641C72.9005 12.777 73.0288 16.4401 73.0413 18.9061C73.0413 19.0123 73.0413 19.1405 73.0476 19.2842C73.0538 19.5593 73.0601 19.9062 73.0538 20.25L73.107 20.2781L73.0695 20.2531Z" fill="#C2A568"/>
<path d="M76.8648 18.4529C77.3592 18.1872 80.7009 16.2932 82.7879 12.8707C84.8842 9.42959 85.025 5.57274 85.0313 5.04141C84.5463 5.21018 81.1389 6.51039 78.8204 10.4954C76.8022 13.9647 76.8461 17.8872 76.8648 18.456" fill="#C2A568"/>
<path d="M87.9193 11.6206C86.8523 13.9959 87.4061 16.637 87.5031 17.0464C87.8755 16.8464 90.219 15.5055 91.286 13.1302C92.3529 10.7548 91.7991 8.11376 91.7021 7.70432C91.3298 7.90435 88.9862 9.24519 87.9193 11.6206Z" fill="#C2A568"/>
<path d="M110.426 41.1501C107.675 41.6815 105.713 43.738 105.419 44.0631C105.823 44.2506 108.464 45.4227 111.214 44.8945C113.964 44.3631 115.923 42.3066 116.22 41.9815C115.817 41.7909 113.176 40.6188 110.426 41.1501Z" fill="#C2A568"/>
<path d="M109.302 60.6625C111.602 60.6625 113.529 59.3155 113.849 59.0779C113.529 58.8435 111.602 57.4964 109.302 57.4964C107.002 57.4964 105.075 58.8466 104.756 59.0811C105.075 59.3155 107.003 60.6625 109.299 60.6625H109.302Z" fill="#C2A568"/>
<path d="M111.589 47.9324C109.093 46.9604 106.349 47.6793 105.936 47.798C106.148 48.1637 107.584 50.5078 110.078 51.4799C112.575 52.455 115.319 51.733 115.732 51.6143C115.523 51.2486 114.083 48.9045 111.589 47.9324Z" fill="#C2A568"/>
<path d="M99.2678 12.0425C98.8392 12.1613 95.9574 13.0208 94.2271 15.3305C92.4969 17.6402 92.4844 20.647 92.4906 21.0908C92.9193 20.972 95.801 20.1125 97.5313 17.8028C99.2616 15.493 99.2741 12.4863 99.2678 12.0425Z" fill="#C2A568"/>
<path d="M100.742 41.4689C98.9143 42.5285 98.01 44.5038 97.8629 44.8538C98.2384 44.8976 100.404 45.0945 102.231 44.035C104.058 42.9754 104.962 41.0001 105.11 40.6501C104.734 40.6063 102.569 40.4094 100.742 41.4721" fill="#C2A568"/>
<path d="M103.345 55.3242C101.924 56.3494 101.33 58.0465 101.23 58.3716C101.571 58.3716 103.373 58.3528 104.793 57.3277C106.214 56.3025 106.805 54.6054 106.909 54.2772C106.568 54.2709 104.765 54.2991 103.345 55.3211" fill="#C2A568"/>
<path d="M96.0826 58.8966C96.4362 58.8279 98.3761 58.3997 99.6777 56.9745C100.979 55.5493 101.23 53.5802 101.264 53.2208C100.911 53.2895 98.9706 53.7177 97.669 55.1429C96.3673 56.5682 96.117 58.5372 96.0826 58.8966Z" fill="#C2A568"/>
<path d="M92.2434 56.0837C91.1733 57.6902 91.2234 59.6718 91.2453 60.0312C91.5863 59.9093 93.4355 59.1936 94.5056 57.5902C95.5757 55.9837 95.5257 54.0021 95.5038 53.6427C95.1658 53.7646 93.3135 54.4803 92.2434 56.0837Z" fill="#C2A568"/>
<path d="M101.145 60.3781C101.314 60.675 102.259 62.2065 103.867 62.9035C105.476 63.6005 107.24 63.2379 107.572 63.1598C107.4 62.8629 106.458 61.3314 104.85 60.6375C103.242 59.9437 101.477 60.3031 101.145 60.3813" fill="#C2A568"/>
<path d="M95.8104 61.2751C95.9887 61.6033 96.9931 63.3223 98.7672 64.2256C100.541 65.1289 102.522 64.9257 102.894 64.8757C102.713 64.5475 101.712 62.8285 99.9374 61.9284C98.1633 61.0251 96.1827 61.2283 95.8104 61.2751Z" fill="#C2A568"/>
<path d="M99.5338 70.1328C97.7253 69.0607 95.5695 69.2358 95.194 69.2733C95.3379 69.6202 96.2171 71.5955 98.0257 72.6675C99.8342 73.7396 101.99 73.5677 102.365 73.527C102.222 73.177 101.342 71.2048 99.5338 70.1328Z" fill="#C2A568"/>
<path d="M93.7328 65.6258C95.2628 66.6447 97.1496 66.601 97.5 66.5822C97.3811 66.2509 96.699 64.4944 95.1721 63.4755C93.6421 62.4566 91.7553 62.5003 91.4049 62.5191C91.5238 62.8504 92.2059 64.6069 93.7328 65.6258Z" fill="#C2A568"/>
<path d="M94.0394 30.1078C94.3899 30.1797 96.1827 30.4891 97.8692 29.789C99.5557 29.0889 100.598 27.6012 100.795 27.3011C100.444 27.2292 98.6514 26.9198 96.965 27.6199C95.2785 28.32 94.2365 29.8078 94.0394 30.1047" fill="#C2A568"/>
<path d="M89.1927 68.1918C89.0832 68.495 88.5732 70.039 89.0269 71.5549C89.4806 73.0739 90.7509 74.0834 91.0106 74.2803C91.1201 73.9771 91.6302 72.4331 91.1765 70.9173C90.7228 69.3983 89.4524 68.3856 89.1927 68.1918Z" fill="#C2A568"/>
<path d="M93.0476 69.4577C92.9506 69.7483 92.5282 71.1454 92.9631 72.5019C93.4011 73.8615 94.5588 74.7491 94.8091 74.9273C94.9061 74.6366 95.3285 73.2395 94.8936 71.883C94.4556 70.5266 93.2979 69.6358 93.0507 69.4577" fill="#C2A568"/>
<path d="M102.378 48.7576C100.523 48.0918 98.5701 48.6294 98.2228 48.7388C98.423 49.042 99.587 50.6985 101.442 51.3642C103.298 52.03 105.25 51.4893 105.598 51.3861C105.397 51.0829 104.233 49.4264 102.378 48.7607" fill="#C2A568"/>
<path d="M105.882 25.9822C103.163 26.8667 101.518 29.539 101.305 29.9078C101.696 30.0797 104.599 31.2736 107.319 30.3891C110.038 29.5046 111.68 26.8323 111.896 26.4666C111.505 26.2947 108.601 25.1008 105.882 25.9853" fill="#C2A568"/>
<path d="M108.855 33.3927H108.833C105.801 33.4021 103.267 35.218 102.9 35.4961C103.27 35.7712 105.801 37.5652 108.824 37.5652H108.845C111.877 37.5558 114.412 35.7399 114.778 35.4618C114.409 35.1867 111.877 33.3927 108.855 33.3927Z" fill="#C2A568"/>
<path d="M108.204 46.1353C107.281 45.9478 106.292 45.8259 105.266 45.7759C104.797 45.7509 104.334 45.7415 103.88 45.7415C101.555 45.7415 99.4587 46.0478 97.6283 46.6604C94.9405 47.5574 92.8254 49.2295 90.5632 52.2425C90.5194 52.3019 90.535 52.3456 90.5632 52.3706C90.5976 52.3988 90.6602 52.4019 90.7103 52.3456C92.6471 50.1922 95.1032 48.5419 97.8129 47.5668C97.9224 47.5293 98.0288 47.4886 98.1383 47.4511C101.011 46.4635 104.393 46.0572 108.191 46.2478C108.191 46.2478 108.191 46.2478 108.195 46.2478C108.238 46.2478 108.248 46.2072 108.248 46.1978C108.248 46.1884 108.251 46.1447 108.204 46.1353Z" fill="#C2A568"/>
<path d="M97.2716 24.9695V24.9851L97.2528 24.9945C97.2028 25.0289 97.1496 25.0726 97.0995 25.1164C97.0526 25.157 97.0056 25.1945 96.9618 25.2258C96.8179 25.3258 96.6833 25.4196 96.5582 25.504C96.189 25.7571 95.873 25.979 95.4506 26.2947C93.6859 27.6168 92.2466 29.3421 91.189 30.6985C90.7134 31.308 90.341 31.8581 90.0438 32.38C89.9562 32.5332 89.8592 32.7613 89.8404 32.9364C89.8123 33.2302 89.9437 33.4302 90.1909 33.4739C90.6007 33.549 90.9199 32.9958 91.1139 32.6707L91.1546 32.6019C91.2672 32.4144 91.3736 32.2206 91.4768 32.0362C91.627 31.7643 91.7835 31.4861 91.9524 31.2205C93.4919 28.8139 95.316 26.7917 97.3748 25.2102L97.3874 25.2008H97.403C98.2165 25.232 101.039 25.1945 103.157 23.5568C105.472 21.769 106.151 18.656 106.233 18.2278C106.158 18.2247 105.998 18.2153 105.776 18.2153C104.718 18.2153 102.209 18.3872 100.297 19.8625C98.2009 21.4815 97.4499 24.1819 97.2685 24.9695" fill="#C2A568"/>
<path d="M103.007 59.2655C103.007 59.2498 102.997 59.1967 102.929 59.1967C102.563 59.1873 102.196 59.1842 101.84 59.1842C96.4737 59.1842 92.04 60.125 88.642 61.9815C84.6496 64.1662 81.8992 67.2917 79.443 72.4331C77.5 76.5025 76.4518 80.3375 76.2453 84.1537C75.8761 90.9079 78.3636 94.299 80.5131 95.9555C81.2203 96.4994 82.1245 96.9057 82.9944 97.0682C83.8705 97.2339 84.7278 97.2464 85.5319 97.2464H89.6558C89.7653 97.2464 89.8216 97.1682 89.8279 97.0901C89.8342 97.0119 89.7935 96.9213 89.684 96.9026C89.1176 96.7994 88.6639 96.7025 88.2947 96.6119C87.0213 96.2962 86.0106 95.9743 85.1064 95.593C83.2791 94.8241 81.7991 93.5458 80.8229 91.8987C79.127 89.0295 79.1333 85.5727 79.2866 83.2192C79.4587 80.5875 79.9499 77.9277 80.7509 75.3086C81.7303 72.1081 83.0069 69.9296 84.6527 68.6513C85.607 67.9105 86.771 67.4886 88.2103 67.3573C88.2603 67.3542 88.3073 67.348 88.3573 67.3448C88.4387 67.3386 88.52 67.3323 88.6045 67.3292C88.6859 67.3261 88.7672 67.323 88.8486 67.3198C89.0081 67.3167 89.1708 67.3136 89.3304 67.3198C89.4118 67.3198 89.49 67.3261 89.5713 67.3292C89.6496 67.3323 89.7309 67.3386 89.8091 67.3448C89.8874 67.3511 89.9687 67.3573 90.0469 67.3667C90.1252 67.3761 90.2034 67.3823 90.2816 67.3948C90.3598 67.4042 90.438 67.4167 90.5163 67.4261C90.5945 67.4386 90.6727 67.4511 90.7478 67.4636C90.826 67.4792 90.9011 67.4917 90.9793 67.5074C91.0576 67.523 91.1327 67.5386 91.2109 67.5574C91.2891 67.5761 91.3642 67.5918 91.4393 67.6136C91.5144 67.6324 91.5926 67.6543 91.6677 67.673C91.7428 67.6949 91.821 67.7168 91.8961 67.7386C91.9712 67.7605 92.0494 67.7855 92.1245 67.8105C92.1996 67.8355 92.2747 67.8605 92.3498 67.8887C92.4249 67.9137 92.5 67.9418 92.5751 67.9699C92.6502 67.9981 92.7253 68.0262 92.8004 68.0574C92.8755 68.0887 92.9506 68.12 93.0257 68.1512C93.1007 68.1825 93.1758 68.2168 93.2509 68.2481C93.326 68.2825 93.4011 68.3169 93.4762 68.3512C93.5513 68.3856 93.6264 68.4231 93.6984 68.4606C93.7735 68.4981 93.8486 68.5356 93.9205 68.5732C93.9956 68.6107 94.0707 68.6513 94.1427 68.6919C94.2178 68.7326 94.2929 68.7732 94.3648 68.8169C94.4024 68.8388 94.4399 68.8576 94.4775 68.8794C94.4931 68.8888 94.4994 68.8919 94.5056 68.8951C94.5181 68.8951 94.5275 68.8951 94.5369 68.8951C94.5494 68.8888 94.562 68.8794 94.5713 68.8669C94.587 68.8451 94.5901 68.8107 94.5682 68.7919C92.9975 67.523 91.1201 66.3603 88.0194 66.4572C86.8867 66.4947 85.6633 66.8073 84.5745 67.3448L84.4055 67.4292L84.5213 67.2792C86.3423 64.8913 88.5607 63.066 90.9355 62.0034C94.2146 60.5344 98.1352 59.6749 102.922 59.3686C102.979 59.3623 103.001 59.3155 103.001 59.278" fill="#C2A568"/>
<path d="M59.975 5.04141C59.9843 5.57274 60.122 9.42959 62.2184 12.8707C64.3054 16.2963 67.6471 18.1872 68.1414 18.4529C68.1602 17.884 68.2009 13.9615 66.1859 10.4923C63.8673 6.50726 60.4599 5.20706 59.975 5.03828" fill="#C2A568"/>
<path d="M53.3041 7.70432C53.2071 8.11376 52.6533 10.7548 53.7203 13.1302C54.7872 15.5055 57.1308 16.8464 57.5031 17.0464C57.6001 16.637 58.1539 13.9959 57.087 11.6206C56.02 9.24519 53.6765 7.90435 53.3041 7.70432Z" fill="#C2A568"/>
<path d="M34.5807 41.1501C31.8304 40.6188 29.1865 41.7909 28.786 41.9815C29.0832 42.3066 31.0451 44.3631 33.7922 44.8945C36.5426 45.4227 39.1865 44.2538 39.587 44.0631C39.2897 43.738 37.3279 41.6815 34.5807 41.1501Z" fill="#C2A568"/>
<path d="M35.7009 57.4964C33.4043 57.4964 31.4768 58.8404 31.1546 59.0779C31.4737 59.3155 33.4011 60.6625 35.7009 60.6625H35.704C38.0006 60.6625 39.928 59.3186 40.2503 59.0811C39.9312 58.8435 38.0038 57.4964 35.704 57.4964H35.7009Z" fill="#C2A568"/>
<path d="M33.4168 47.9324C30.923 48.9045 29.4869 51.2517 29.2741 51.6143C29.6871 51.733 32.4312 52.455 34.928 51.4799C37.4218 50.5078 38.8579 48.1606 39.0707 47.798C38.6577 47.6793 35.9136 46.9573 33.4168 47.9324Z" fill="#C2A568"/>
<path d="M53.8173 30.6985C52.7597 29.3421 51.3173 27.6168 49.5557 26.2947C49.1364 25.979 48.8173 25.7603 48.4481 25.5071C48.3229 25.4196 48.1915 25.3289 48.0444 25.2289C48.0006 25.1977 47.9537 25.1602 47.9068 25.1195C47.8567 25.0758 47.8035 25.032 47.7534 24.9976L47.7378 24.9883V24.9726C47.5532 24.185 46.7991 21.4846 44.7028 19.8656C42.3874 18.0778 39.2021 18.2028 38.7672 18.231C38.8517 18.656 39.5307 21.7721 41.8429 23.5568C43.9612 25.1945 46.7835 25.2289 47.597 25.2008H47.6126L47.6252 25.2102C49.684 26.7917 51.5113 28.8139 53.0476 31.2205C53.2165 31.4861 53.373 31.7674 53.5232 32.0394C53.6264 32.2269 53.7359 32.4175 53.8454 32.6051L53.8861 32.6738C54.077 33.002 54.3992 33.549 54.8091 33.4771C55.0563 33.4333 55.1877 33.2333 55.1596 32.9395C55.1439 32.7645 55.0438 32.5363 54.9562 32.3832C54.6589 31.8612 54.2866 31.3111 53.811 30.7016" fill="#C2A568"/>
<path d="M45.7384 12.0425C45.729 12.4863 45.7447 15.493 47.4718 17.8028C49.2021 20.1125 52.0839 20.9751 52.5125 21.0908C52.5219 20.647 52.5063 17.6434 50.776 15.3305C49.0457 13.0208 46.164 12.1581 45.7353 12.0425" fill="#C2A568"/>
<path d="M44.2647 41.4689C42.4374 40.4094 40.2722 40.6032 39.8967 40.6469C40.0438 40.9939 40.9481 42.9692 42.7753 44.0318C44.6026 45.0914 46.7678 44.8976 47.1433 44.8507C46.9962 44.5038 46.092 42.5285 44.2647 41.4658" fill="#C2A568"/>
<path d="M63.9111 40.7001C64.0175 41.072 64.6683 43.0973 66.3141 44.4225C67.9631 45.7509 70.0814 45.954 70.4662 45.979C70.3598 45.6102 69.709 43.5818 68.0632 42.2566C66.4143 40.9282 64.296 40.7251 63.9111 40.7001Z" fill="#C2A568"/>
<path d="M41.6583 55.3242C40.2378 54.2991 38.4355 54.2709 38.0945 54.2803C38.1977 54.6054 38.7891 56.3056 40.2096 57.3308C41.6333 58.3559 43.4324 58.3809 43.7735 58.3747C43.6702 58.0496 43.0788 56.3494 41.6583 55.3273" fill="#C2A568"/>
<path d="M43.7422 53.2208C43.7766 53.5802 44.0269 55.5461 45.3285 56.9745C46.6302 58.3997 48.5701 58.8279 48.9237 58.8966C48.8892 58.5372 48.6389 56.5713 47.3373 55.1429C46.0357 53.7177 44.0957 53.2895 43.7422 53.2208Z" fill="#C2A568"/>
<path d="M49.4994 53.6427C49.4806 54.0021 49.4274 55.9837 50.4975 57.5902C51.5676 59.1967 53.4199 59.9124 53.7578 60.0312C53.7766 59.6718 53.8298 57.6902 52.7597 56.0837C51.6896 54.4772 49.8373 53.7615 49.4994 53.6427Z" fill="#C2A568"/>
<path d="M40.1533 60.6344C38.5451 61.3314 37.6001 62.8629 37.4312 63.1567C37.7628 63.2348 39.5275 63.5974 41.1358 62.9004C42.7441 62.2034 43.6859 60.6719 43.8579 60.375C43.5263 60.2969 41.7616 59.9343 40.1533 60.6313" fill="#C2A568"/>
<path d="M45.0688 61.9284C43.2947 62.8316 42.2904 64.5475 42.112 64.8788C42.4844 64.9257 44.465 65.1289 46.239 64.2256C48.0131 63.3255 49.0175 61.6064 49.1959 61.2783C48.8235 61.2283 46.8429 61.0282 45.0688 61.9284Z" fill="#C2A568"/>
<path d="M45.4725 70.1328C43.664 71.2048 42.7847 73.1801 42.6408 73.527C43.0163 73.5677 45.1721 73.7396 46.9806 72.6675C48.7891 71.5955 49.6683 69.6202 49.8123 69.2733C49.4368 69.2326 47.281 69.0607 45.4725 70.1328Z" fill="#C2A568"/>
<path d="M47.5063 66.5822C47.8567 66.601 49.7434 66.6447 51.2735 65.6258C52.8035 64.6069 53.4856 62.8473 53.6014 62.5191C53.2509 62.5003 51.3642 62.4566 49.8342 63.4755C48.3041 64.4944 47.622 66.254 47.5063 66.5822Z" fill="#C2A568"/>
<path d="M47.137 29.789C48.8204 30.4891 50.6133 30.1797 50.9668 30.1078C50.7697 29.8078 49.7247 28.3231 48.0413 27.623C46.3579 26.9229 44.5651 27.2324 44.2115 27.3042C44.4086 27.6043 45.4537 29.0889 47.137 29.789Z" fill="#C2A568"/>
<path d="M55.8135 68.1918C55.5538 68.3856 54.2835 69.3983 53.8298 70.9173C53.3761 72.4362 53.8861 73.9771 53.9956 74.2803C54.2553 74.0865 55.5257 73.0739 55.9793 71.5549C56.433 70.0359 55.923 68.495 55.8135 68.1918Z" fill="#C2A568"/>
<path d="M51.9587 69.4577C51.7115 69.6358 50.5507 70.5266 50.1126 71.883C49.6746 73.2395 50.1001 74.6397 50.1971 74.9273C50.4443 74.7491 51.6051 73.8583 52.0432 72.5019C52.4812 71.1454 52.0557 69.7452 51.9587 69.4577Z" fill="#C2A568"/>
<path d="M42.6283 48.7576C40.7728 49.4233 39.6089 51.0798 39.4086 51.383C39.7559 51.4892 41.7115 52.03 43.5638 51.3611C45.4193 50.6954 46.5801 49.0389 46.7835 48.7357C46.4362 48.6294 44.4806 48.0918 42.6283 48.7544" fill="#C2A568"/>
<path d="M39.1208 25.9822C36.4017 25.0976 33.4981 26.2916 33.107 26.4635C33.3229 26.8323 34.9656 29.5046 37.6846 30.386C40.4036 31.2705 43.3073 30.0765 43.6984 29.9046C43.4825 29.5358 41.8398 26.8635 39.1208 25.979" fill="#C2A568"/>
<path d="M36.1514 33.3927C33.1289 33.3927 30.5976 35.1898 30.2284 35.4618C30.5945 35.7399 33.1289 37.5558 36.1608 37.5652H36.1827C39.2053 37.5652 41.7365 35.7681 42.1058 35.4961C41.7397 35.218 39.2053 33.4021 36.1733 33.3927H36.1514Z" fill="#C2A568"/>
<path d="M47.378 46.6572C45.1909 45.9259 42.622 45.629 39.7403 45.7727C38.714 45.8227 37.7253 45.9446 36.8022 46.1353C36.7553 46.1447 36.7584 46.1884 36.7584 46.1978C36.7584 46.2072 36.7678 46.2541 36.8148 46.2447C37.4249 46.2134 38.0257 46.1978 38.6139 46.1978C41.6865 46.1978 44.4587 46.6166 46.868 47.4449C46.9775 47.4824 47.0839 47.5199 47.1934 47.5605C49.8999 48.5357 52.3561 50.189 54.296 52.3394C54.3461 52.3956 54.4086 52.3956 54.4431 52.3644C54.4712 52.3394 54.4869 52.2956 54.4431 52.2362C52.1808 49.2201 50.0657 47.5511 47.378 46.651" fill="#C2A568"/>
<path d="M74.5338 45.9821C74.9186 45.9571 77.04 45.7509 78.6859 44.4257C80.3348 43.0973 80.9825 41.072 81.0889 40.7032C80.704 40.7313 78.5826 40.9345 76.9368 42.2597C75.2879 43.588 74.6402 45.6133 74.5338 45.9821Z" fill="#C2A568"/>
<path d="M55.3536 97.2464H59.4775C60.2816 97.2464 61.1358 97.2339 62.015 97.0682C62.8849 96.9026 63.7891 96.4994 64.4962 95.9555C66.6458 94.299 69.1302 90.911 68.7609 84.1537C68.5513 80.3344 67.5062 76.5025 65.5632 72.4331C63.107 67.2917 60.3536 64.1662 56.3611 61.9815C52.7378 59.9999 47.9318 59.0623 42.0745 59.1967C42.0056 59.1967 41.9994 59.2498 41.9994 59.2655C41.9994 59.3061 42.0213 59.3498 42.0807 59.3561C46.868 59.6624 50.7885 60.525 54.0644 61.994C56.4393 63.0567 58.6577 64.882 60.4787 67.2698L60.5945 67.4198L60.4255 67.3355C59.3367 66.7979 58.1133 66.4853 56.9806 66.4478C53.883 66.3478 52.0025 67.5105 50.4318 68.7826C50.4068 68.8013 50.413 68.8357 50.4255 68.8576C50.4349 68.8701 50.4474 68.8826 50.4599 68.8857C50.4693 68.8888 50.4787 68.892 50.485 68.892C50.4975 68.8857 50.5038 68.8826 50.5131 68.8794C50.5601 68.8544 50.5945 68.8326 50.632 68.8107C50.7071 68.7701 50.7791 68.7294 50.8542 68.6888C50.9293 68.6482 51.0013 68.6107 51.0763 68.57C51.1514 68.5325 51.2234 68.495 51.2985 68.4575C51.3736 68.42 51.4456 68.3856 51.5206 68.3481C51.5957 68.3137 51.6708 68.2794 51.7459 68.245C51.821 68.2106 51.8961 68.1793 51.9712 68.1481C52.0463 68.1168 52.1214 68.0856 52.1965 68.0543C52.2716 68.0231 52.3467 67.9949 52.4218 67.9668C52.4969 67.9387 52.572 67.9105 52.6471 67.8855C52.7221 67.8605 52.7972 67.8324 52.8723 67.8074C52.9474 67.7824 53.0225 67.7574 53.1007 67.7355C53.1758 67.7136 53.2509 67.6918 53.3292 67.6699C53.4043 67.648 53.4825 67.6293 53.5576 67.6105C53.6327 67.5918 53.7109 67.573 53.786 67.5542C53.8611 67.5386 53.9393 67.5199 54.0175 67.5042C54.0957 67.4886 54.1708 67.4761 54.2491 67.4605C54.3273 67.448 54.4055 67.4355 54.4806 67.423C54.5588 67.4105 54.637 67.4011 54.7153 67.3917C54.7935 67.3823 54.8717 67.373 54.9499 67.3636C55.0282 67.3573 55.1095 67.348 55.1877 67.3417C55.266 67.3355 55.3473 67.3323 55.4255 67.3261C55.5069 67.323 55.5851 67.3198 55.6665 67.3167C55.7478 67.3167 55.826 67.3167 55.9074 67.3167C55.9887 67.3167 56.0701 67.3167 56.1483 67.3198C56.2297 67.3198 56.311 67.3261 56.3924 67.3292C56.4737 67.3355 56.5551 67.3386 56.6395 67.3448C56.6896 67.348 56.7365 67.3511 56.7835 67.3573C58.2259 67.4855 59.3899 67.9105 60.3442 68.6513C61.99 69.9296 63.2666 72.1081 64.2459 75.3086C65.0469 77.9277 65.5413 80.5875 65.7103 83.2192C66.0294 88.1293 64.9875 90.5234 64.174 91.8987C63.2009 93.5489 61.7178 94.8241 59.8905 95.593C58.9894 95.9712 57.9756 96.2962 56.7021 96.6119C56.3329 96.7025 55.8792 96.7994 55.3129 96.9026C55.2034 96.9213 55.1627 97.0119 55.1721 97.0901C55.1783 97.1682 55.2347 97.2464 55.3442 97.2464" fill="#C2A568"/>
<path d="M83.3292 35.5993V35.7462L85.1095 36.3681C85.7666 36.5963 86.3016 37.0933 86.577 37.7277C86.8554 38.3653 86.8523 39.0936 86.5738 39.728L72.5 71.7143L72.4593 71.6205L58.4262 39.728C58.1477 39.0936 58.1446 38.3653 58.423 37.7277C58.7015 37.0933 59.2334 36.5963 59.8905 36.3681L61.6708 35.7462V35.5993H45.3473V35.7462L47.2559 36.2838C48.6358 36.712 49.8717 37.5121 50.8323 38.5935C51.2672 39.0842 51.6395 39.628 51.9399 40.2125L72.4969 80.0999L93.0538 40.2125C93.2947 39.7468 93.5826 39.303 93.9111 38.8935C94.8999 37.659 96.2234 36.7557 97.7378 36.2838L99.6496 35.7462V35.5993H83.326H83.3292Z" fill="#C2A568"/>
<path d="M57.2966 24.2725C55.4443 23.6631 53.5325 24.2475 53.1884 24.3632C53.3949 24.6601 54.5901 26.2635 56.4393 26.8729C58.2916 27.4824 60.2034 26.8979 60.5476 26.7823C60.341 26.4854 59.1458 24.8789 57.2966 24.2725Z" fill="#C2A568"/>
<path d="M65.1001 26.1978C64.8154 27.9668 65.6227 29.6202 65.7822 29.9265C66.0294 29.6859 67.3123 28.3669 67.597 26.5979C67.8817 24.8289 67.0745 23.1755 66.9149 22.8692C66.6677 23.1098 65.3848 24.4288 65.1001 26.1978Z" fill="#C2A568"/>
<path d="M55.8604 29.6077C56.0982 29.8671 57.428 31.2424 59.2553 31.5955C61.0857 31.9456 62.8285 31.1611 63.1477 31.0079C62.9099 30.7454 61.5801 29.3733 59.7497 29.0201C57.9193 28.6701 56.1765 29.4546 55.8573 29.6077" fill="#C2A568"/>
<path d="M59.3961 18.3654C59.3836 20.0906 60.3598 21.5502 60.5569 21.8284C60.7603 21.5533 61.7553 20.1094 61.7678 18.3841C61.7803 16.6588 60.8041 15.1992 60.607 14.9211C60.4036 15.1961 59.4086 16.6401 59.3961 18.3654Z" fill="#C2A568"/>
<path d="M62.331 22.3472C62.0776 24.0569 62.8723 25.6446 63.035 25.9447C63.276 25.704 64.4962 24.4132 64.7466 22.7035C65 20.9939 64.2021 19.4061 64.0425 19.1061C63.8016 19.3468 62.5813 20.6345 62.331 22.3472Z" fill="#C2A568"/>
<path d="M56.9024 19.8906C55.6383 18.9342 54.0144 18.8654 53.6921 18.8623C53.7829 19.1717 54.2835 20.7188 55.5476 21.6752C56.8085 22.6316 58.4355 22.7004 58.7578 22.7035C58.6671 22.3941 58.1665 20.847 56.9024 19.8906Z" fill="#C2A568"/>
<path d="M87.7096 24.2725C85.8573 24.882 84.6652 26.4854 84.4587 26.7823C84.8029 26.8979 86.7178 27.4793 88.567 26.8729C90.4193 26.2635 91.6114 24.6601 91.8179 24.3632C91.4737 24.2475 89.5588 23.6662 87.7096 24.2725Z" fill="#C2A568"/>
<path d="M78.0914 22.8723C77.9318 23.1786 77.1245 24.832 77.4093 26.601C77.694 28.37 78.9737 29.689 79.224 29.9296C79.3836 29.6234 80.1877 27.97 79.9061 26.2009C79.6214 24.435 78.3417 23.113 78.0914 22.8723Z" fill="#C2A568"/>
<path d="M85.2534 29.0201C83.423 29.3702 82.0964 30.7454 81.8554 31.0079C82.1746 31.1611 83.9174 31.9487 85.7478 31.5955C87.5782 31.2455 88.9049 29.8703 89.1458 29.6077C88.8267 29.4546 87.0838 28.6701 85.2534 29.0201Z" fill="#C2A568"/>
<path d="M84.4462 21.8253C84.6433 21.5471 85.6195 20.0875 85.607 18.3622C85.5945 16.637 84.5995 15.193 84.3961 14.9179C84.199 15.1961 83.2228 16.6557 83.2353 18.381C83.2478 20.1062 84.2428 21.5502 84.4462 21.8253Z" fill="#C2A568"/>
<path d="M80.9606 19.1061C80.801 19.4061 80.0031 20.9908 80.2566 22.7035C80.51 24.4132 81.7303 25.704 81.9681 25.9447C82.1277 25.6446 82.9255 24.06 82.6721 22.3472C82.4186 20.6376 81.1984 19.3468 80.9606 19.1061Z" fill="#C2A568"/>
<path d="M86.2484 22.7035C86.5707 22.7004 88.1977 22.6316 89.4587 21.6752C90.7228 20.7188 91.2234 19.1717 91.3141 18.8623C90.9919 18.8654 89.3648 18.9342 88.1039 19.8906C86.8398 20.847 86.3392 22.3941 86.2484 22.7035Z" fill="#C2A568"/>
<path d="M72.8129 56.7963L72.8473 56.0618C72.9068 54.821 72.9631 53.5802 73.0194 52.3394C73.1164 50.1609 73.2259 47.8356 73.4011 45.4852C73.4136 45.3383 73.423 45.1914 73.4355 45.0445C73.6546 42.5535 74.127 40.6501 74.9186 39.0592C75.7822 37.3277 77.0244 35.7337 78.229 34.1928L78.3229 34.074C78.5826 33.7396 78.8454 33.4083 79.1051 33.077C79.3461 32.7738 79.5838 32.4675 79.8216 32.1644C80.7728 30.9486 81.7741 29.6265 82.6408 28.22C84.393 25.3758 85.8073 22.2066 86.8429 18.806V18.7998C86.8429 18.7998 86.8367 18.7748 86.8242 18.7654C86.8085 18.756 86.7897 18.756 86.7772 18.7623C86.771 18.7623 86.7678 18.7685 86.7678 18.7717C84.8592 23.0505 82.9725 26.3666 80.826 29.2108C80.0344 30.261 79.1458 31.2642 78.2854 32.2363C76.7491 33.974 75.1627 35.7681 74.0738 37.884C73.8517 38.3185 73.6514 38.7591 73.4793 39.1936C73.3636 39.4905 73.2572 39.7937 73.1414 40.1437L73.0569 40.3969L73.0444 39.4624C73.0131 36.8745 72.9818 34.2022 73.0945 31.7268C73.1446 30.5923 73.2009 29.7484 73.276 28.9889C73.2885 28.867 73.301 28.7451 73.3135 28.6263C73.3385 28.3857 73.3698 28.1481 73.4011 27.9168C73.4168 27.8012 73.4324 27.6856 73.4512 27.5699C73.5231 27.0917 73.6076 26.6541 73.7046 26.2291C73.7797 25.8978 73.8673 25.5758 73.9612 25.2696C74.4368 23.7193 75.1471 22.3879 76.2046 21.072C76.2046 21.072 76.2109 21.0595 76.214 21.047C76.214 21.0314 76.214 21.0189 76.1984 21.0064C76.1952 21.0033 76.189 21.0001 76.1859 20.997C76.1796 20.9939 76.1733 20.9908 76.1639 20.9939C76.1452 20.9939 76.1264 21.0095 76.1201 21.0126C75.7228 21.2814 75.341 21.6221 74.975 22.0347C74.9155 22.1003 74.8592 22.1659 74.8029 22.2316C74.587 22.491 74.3773 22.7754 74.1802 23.0755C73.9518 23.4224 73.739 23.7912 73.5451 24.1788C73.0538 25.157 72.7315 26.2478 72.5344 27.6043L72.4906 27.9075L72.4468 27.6043C72.3529 26.9636 72.234 26.3916 72.0839 25.8634C72.0432 25.7196 71.9994 25.5758 71.9524 25.4352C71.8085 24.9976 71.6333 24.5726 71.4362 24.1788C71.2422 23.7943 71.0294 23.4224 70.801 23.0755C70.6039 22.7754 70.3942 22.491 70.1783 22.2316C70.122 22.1659 70.0657 22.0972 70.0094 22.0347C69.6433 21.6221 69.2584 21.2814 68.8673 21.0158C68.8579 21.0095 68.8392 20.9939 68.8204 20.9939C68.8141 20.9939 68.8079 20.9939 68.8016 20.997C68.7985 20.997 68.7922 21.0033 68.7891 21.0064C68.7829 21.0126 68.7641 21.0283 68.7797 21.0658C69.8373 22.3847 70.5507 23.7193 71.0232 25.2664C71.117 25.5727 71.2046 25.8978 71.2797 26.226C71.3767 26.651 71.4612 27.0886 71.5332 27.5668C71.5519 27.6824 71.5676 27.7981 71.5832 27.9137C71.6145 28.1419 71.6427 28.3794 71.6708 28.6232C71.6833 28.7451 71.6959 28.8639 71.7084 28.9858C71.7803 29.7452 71.8367 30.5891 71.8899 31.7237C72.0025 34.1991 71.9712 36.8745 71.9399 39.4593L71.9305 40.3938L71.8461 40.1406C71.7303 39.7906 71.6239 39.4874 71.5081 39.1905C71.336 38.7529 71.1389 38.3122 70.9136 37.8809C69.8248 35.7649 68.2353 33.9709 66.7021 32.2331C65.8448 31.2611 64.9562 30.2578 64.1646 29.2077C62.0181 26.3635 60.1314 23.0442 58.2228 18.7685C58.2228 18.7654 58.2165 18.7623 58.2134 18.7592C58.2009 18.7529 58.1821 18.7529 58.1665 18.7623C58.1539 18.7717 58.1414 18.7842 58.1446 18.7967V18.8029C59.1833 22.2066 60.5976 25.3727 62.3498 28.22C63.2165 29.6265 64.2178 30.9486 65.169 32.1644C65.4099 32.4707 65.6508 32.777 65.8917 33.0833C66.1514 33.4146 66.4143 33.7427 66.6708 34.074L66.7647 34.1928C67.9693 35.7337 69.2115 37.3277 70.0751 39.0592C70.8667 40.6501 71.3392 42.5535 71.5582 45.0445C71.5707 45.1914 71.5832 45.3383 71.5926 45.4852C71.771 47.8356 71.8805 50.1578 71.9743 52.3394C72.0307 53.5802 72.087 54.821 72.1464 56.0618L72.1808 56.7963C72.2153 57.5308 72.281 59.3874 72.3248 60.6157C72.3404 61.0751 72.3529 61.4439 72.3592 61.6315V61.6752C72.3592 61.7096 72.3654 61.7408 72.3686 61.7721L72.3248 61.7846H72.3686C72.3748 61.8096 72.3811 61.8284 72.3905 61.8409V61.8471C72.4186 61.8815 72.4343 61.894 72.4437 61.9002C72.4499 61.9002 72.4531 61.9034 72.4562 61.9034L72.475 61.8971L72.5 61.9034C72.5 61.9034 72.5156 61.9034 72.5219 61.9034C72.5344 61.8971 72.5532 61.8815 72.5751 61.844C72.5751 61.844 72.5907 61.8127 72.597 61.7908L72.6032 61.7752C72.6064 61.744 72.6095 61.7127 72.6126 61.6752C72.6189 61.5064 72.6345 61.1126 72.6502 60.6188C72.694 59.3905 72.7597 57.5339 72.7941 56.7963" fill="#C2A568"/>
<path d="M38.7985 157.934L37.8692 157.662C37.6126 157.581 37.4186 157.462 37.2966 157.312C37.1715 157.162 37.1089 156.987 37.1089 156.793C37.1089 156.627 37.1496 156.484 37.2278 156.365C37.306 156.246 37.4186 156.152 37.5657 156.087C37.7128 156.021 37.8849 155.99 38.0788 155.99C38.3949 155.99 38.6702 156.068 38.9049 156.224C39.1364 156.381 39.3148 156.612 39.4305 156.912L39.4399 156.94L40.1158 156.662L40.1064 156.637C40.0156 156.381 39.8748 156.146 39.684 155.946C39.4931 155.746 39.2584 155.584 38.9862 155.465C38.714 155.346 38.4043 155.287 38.0726 155.287C37.7409 155.287 37.4343 155.352 37.1715 155.484C36.9086 155.615 36.699 155.799 36.5519 156.03C36.4049 156.262 36.3267 156.534 36.3267 156.837C36.3267 157.184 36.4362 157.496 36.6521 157.765C36.868 158.034 37.184 158.231 37.5876 158.356L38.6076 158.665C38.8548 158.734 39.0457 158.834 39.1708 158.962C39.296 159.09 39.3586 159.268 39.3586 159.49C39.3586 159.65 39.3148 159.79 39.2272 159.912C39.1395 160.034 39.0144 160.128 38.8548 160.194C38.6952 160.259 38.5075 160.294 38.2916 160.294C37.9412 160.294 37.6345 160.2 37.3748 160.015C37.1151 159.831 36.918 159.562 36.7866 159.215L36.7772 159.19L36.0951 159.469L36.1045 159.494C36.1952 159.775 36.3454 160.034 36.5488 160.262C36.7553 160.491 37.0088 160.672 37.3029 160.803C37.597 160.934 37.9255 161 38.2822 161C38.6389 161 38.9737 160.934 39.2491 160.803C39.5275 160.672 39.7497 160.487 39.9061 160.253C40.0657 160.019 40.1439 159.747 40.1439 159.444C40.1439 159.075 40.0282 158.762 39.8029 158.512C39.5776 158.265 39.2397 158.071 38.8016 157.937" fill="#C2A568"/>
<path d="M45.5695 155.374L43.5763 160.872L43.5638 160.909H44.4055L44.8592 159.622H47.184L47.6377 160.909H48.4793L46.48 155.393L46.4737 155.374H45.5695ZM45.1064 158.903L46.02 156.302L46.9337 158.903H45.1064Z" fill="#C2A568"/>
<path d="M55.5976 159.359L52.7409 155.384L52.7315 155.374H52.0807V160.906H52.8661V156.865L55.729 160.897L55.7384 160.906H56.3892V155.374H55.5976V159.359Z" fill="#C2A568"/>
<path d="M63.8611 159.018C63.8611 159.262 63.8048 159.481 63.6984 159.672C63.5889 159.859 63.4387 160.009 63.2478 160.112C63.0569 160.219 62.8317 160.272 62.5813 160.272C62.331 160.272 62.1058 160.219 61.9149 160.112C61.724 160.006 61.5738 159.859 61.4643 159.672C61.3548 159.484 61.3016 159.265 61.3016 159.018V155.371H60.51V159.031C60.51 159.406 60.5976 159.747 60.7697 160.04C60.9418 160.334 61.189 160.572 61.5019 160.737C61.8148 160.906 62.1777 160.991 62.5813 160.991C62.985 160.991 63.3542 160.906 63.6671 160.737C63.9768 160.569 64.224 160.334 64.3961 160.04C64.5682 159.747 64.6558 159.406 64.6558 159.031V155.371H63.8642V159.018H63.8611Z" fill="#C2A568"/>
<path d="M72.3279 158.093C72.5282 157.821 72.6314 157.484 72.6314 157.09C72.6314 156.743 72.5501 156.437 72.3936 156.177C72.2372 155.921 72.0119 155.718 71.7303 155.577C71.4487 155.44 71.1201 155.368 70.7509 155.368H68.7672V160.903H69.5526V158.806H70.7322L71.918 160.887L71.9243 160.903H72.8379L71.5425 158.668C71.868 158.55 72.1339 158.353 72.3279 158.09M71.8398 157.093C71.8398 157.293 71.796 157.471 71.7053 157.624C71.6176 157.778 71.4925 157.893 71.3329 157.975C71.1733 158.056 70.9856 158.096 70.7728 158.096H69.5526V156.093H70.7728C70.9856 156.093 71.1733 156.134 71.3329 156.215C71.4925 156.296 71.6176 156.412 71.7053 156.562C71.7929 156.712 71.8398 156.89 71.8398 157.096" fill="#C2A568"/>
<path d="M88.8204 158.134C88.7359 158.056 88.642 157.987 88.5357 157.925C88.6671 157.828 88.7766 157.712 88.8642 157.581C89.0081 157.359 89.0801 157.109 89.0801 156.834C89.0801 156.537 89.0113 156.274 88.8798 156.059C88.7453 155.843 88.5544 155.671 88.3104 155.552C88.0663 155.434 87.7753 155.374 87.4405 155.374H85.0845V160.909H87.4468C88.0163 160.909 88.4731 160.762 88.8048 160.469C89.1364 160.175 89.3054 159.769 89.3054 159.256C89.3054 159.043 89.2647 158.837 89.1833 158.647C89.102 158.456 88.98 158.284 88.8235 158.137M85.8667 158.325H87.475C87.7879 158.325 88.0413 158.409 88.229 158.578C88.4168 158.747 88.5106 158.975 88.5106 159.259C88.5106 159.544 88.4168 159.772 88.229 159.937C88.0413 160.103 87.7879 160.187 87.475 160.187H85.8667V158.325ZM88.0507 157.399C87.8942 157.549 87.6815 157.624 87.4218 157.624H85.8667V156.084H87.4218C87.6815 156.084 87.8942 156.149 88.0507 156.274C88.2071 156.399 88.2854 156.587 88.2854 156.827C88.2854 157.068 88.204 157.249 88.0476 157.399" fill="#C2A568"/>
<path d="M95.5632 155.374H94.6621L92.669 160.872L92.6564 160.909H93.495L93.9487 159.622H96.2735L96.7272 160.909H97.5688L95.5695 155.393L95.5632 155.374ZM94.199 158.903L95.1126 156.302L96.0263 158.903H94.199Z" fill="#C2A568"/>
<path d="M101.959 155.374H101.173V160.906H104.39V160.191H101.959V155.374Z" fill="#C2A568"/>
<path d="M108.911 155.374H108.126V160.909H108.911V155.374Z" fill="#C2A568"/>
<path d="M13.2728 111.227H13.7703C14.296 111.227 14.6433 111.349 14.8373 111.599C15.1095 111.949 15.1158 112.586 14.8623 113.527L10.5507 125.841L5.47247 113.43C5.13767 112.567 5.10012 111.942 5.36295 111.574C5.52879 111.342 5.81977 111.224 6.2234 111.224H6.64894V110.477H0V111.224H0.312891C1.02628 111.224 1.58323 111.805 2.23091 113.224L8.76408 129.226L8.83917 129.408H10.4568L16.092 113.261C16.5426 112.002 17.0275 111.224 18.035 111.224H18.5169V110.477H13.2697V111.224L13.2728 111.227Z" fill="#C2A568"/>
<path d="M34.9312 125.613C34.9312 125.613 34.6089 126.338 34.5964 126.37C33.8736 127.832 32.7065 128.432 30.5632 128.432H26.8461V119.647H29.2084C31.1546 119.647 32.0588 120.078 32.5501 121.238L32.6877 121.55H33.3698V116.978H32.6877L32.5532 117.265C32.0682 118.268 31.1295 118.659 29.2084 118.659H26.8461V111.458H29.9906C32.3342 111.458 33.6264 112.18 34.321 113.874L34.3961 114.055H35.0814V110.48H22.0839V111.227H22.4656C22.8254 111.227 23.0882 111.317 23.2947 111.514C23.6233 111.833 23.7735 112.408 23.7735 113.33V126.557C23.7735 127.479 23.6233 128.057 23.301 128.376C23.0945 128.57 22.8191 128.667 22.4593 128.667H22.087V129.414H35.6665V125.504H34.9844L34.9343 125.616L34.9312 125.613Z" fill="#C2A568"/>
<path d="M54.7466 126.798L54.6934 126.735C54.0144 125.938 53.3886 125.051 52.8379 124.266L51.9743 123.06C51.8461 122.878 51.7084 122.703 51.5551 122.528C50.9512 121.806 50.3191 121.253 49.6245 120.834C49.5807 120.806 49.5181 120.769 49.4399 120.716L49.3523 120.662C49.3523 120.662 49.3335 120.65 49.3242 120.644C52.9599 120.197 55.0407 118.318 55.0407 115.471C55.0407 112.302 52.597 110.483 48.3323 110.483H39.9499V111.23H40.3348C40.6821 111.23 40.9512 111.327 41.1577 111.52C41.4831 111.836 41.6333 112.414 41.6333 113.339V126.563C41.6333 127.489 41.4831 128.067 41.1608 128.382C40.9449 128.586 40.6571 128.676 40.2441 128.667H39.9531V129.414H46.3986V128.667H46.0138C45.6446 128.667 45.3817 128.576 45.1877 128.382C44.8623 128.061 44.7121 127.482 44.7121 126.557V120.744H46.5238C46.5832 120.778 46.6458 120.816 46.6927 120.844L46.7678 120.891C46.7929 120.909 46.8148 120.922 46.8335 120.931C47.1277 121.1 47.3999 121.294 47.6408 121.503C48.2384 122.01 48.7484 122.65 49.1614 123.41C49.4556 123.944 49.709 124.447 50.025 125.079L50.0501 125.132C51.2359 127.517 52.1715 129.401 54.9937 129.401H55.4099C55.9512 129.408 57.2747 129.408 57.2747 129.408H57.4624V128.689L57.2247 128.648C56.1546 128.457 55.2753 127.414 54.7497 126.792M51.8179 115.474C51.8179 118.162 50.2472 119.769 47.6189 119.769H44.7059V111.47H48.3323C50.5788 111.47 51.8179 112.893 51.8179 115.477" fill="#C2A568"/>
<path d="M68.2509 110.48H61.0732V111.227H61.4518C61.8116 111.227 62.0807 111.32 62.281 111.514C62.6001 111.82 62.7566 112.414 62.7566 113.33V126.557C62.7566 127.479 62.6064 128.061 62.281 128.376C62.0745 128.573 61.8148 128.664 61.4581 128.664H61.0732V129.411H69.2772C75.1189 129.411 78.4668 125.96 78.4668 119.944C78.4668 113.927 74.7434 110.48 68.2478 110.48M75.388 119.944C75.3848 125.338 73.1571 128.432 69.2803 128.432H65.8385V111.461H68.2572C72.791 111.461 75.3911 114.552 75.3911 119.944" fill="#C2A568"/>
<path d="M99.8216 128.617C99.7716 128.611 99.7278 128.601 99.684 128.589C98.9581 128.398 98.3917 127.789 97.8504 126.623L90.9043 110.652L90.826 110.477H89.4712L83.4856 126.61C82.9193 128.029 82.2528 128.661 81.3267 128.661H80.9731V129.408H86.1796V128.661H85.7947C85.2441 128.661 84.8999 128.539 84.7059 128.276C84.4462 127.929 84.4681 127.307 84.7685 126.382L86.239 122.338H92.6533L94.5807 126.923C94.831 127.598 94.8561 128.061 94.6589 128.332C94.5307 128.507 94.3179 128.611 94.0081 128.651C93.9487 128.657 93.6546 128.661 93.4637 128.661H93.276V129.408H100.447V128.676L100.275 128.661C100.275 128.661 99.9218 128.629 99.8185 128.614M92.2466 121.359H86.6083L89.2178 114.18L92.2434 121.359H92.2466Z" fill="#C2A568"/>
<path d="M117.153 111.227H117.534C117.9 111.227 118.163 111.317 118.36 111.514C118.686 111.833 118.836 112.408 118.836 113.327L118.845 124.719L108.536 110.598L108.448 110.483H104.074V111.23H104.452C104.815 111.23 105.078 111.32 105.282 111.514C105.607 111.833 105.757 112.411 105.757 113.336V126.563C105.757 127.473 105.601 128.07 105.282 128.382C105.069 128.586 104.778 128.67 104.368 128.67H104.077V129.417H108.554V128.67H108.179C107.832 128.67 107.559 128.57 107.35 128.37C107.021 128.051 106.871 127.479 106.871 126.573V113.305L117.497 127.776L118.655 129.42H119.959V113.333C119.981 112.458 120.156 111.761 120.422 111.511C120.62 111.324 120.885 111.236 121.261 111.236H121.646V110.489H117.159V111.236L117.153 111.227Z" fill="#C2A568"/>
<path d="M144.834 128.664C144.834 128.664 144.481 128.632 144.377 128.617C144.327 128.611 144.283 128.601 144.24 128.589C143.514 128.398 142.947 127.789 142.406 126.623L135.46 110.652L135.382 110.477H134.027L128.041 126.61C127.475 128.029 126.809 128.661 125.882 128.661H125.529V129.408H130.735V128.661H130.35C129.8 128.661 129.456 128.539 129.262 128.276C129.002 127.929 129.024 127.307 129.324 126.382L130.795 122.338H137.209L139.136 126.923C139.387 127.598 139.412 128.061 139.215 128.332C139.086 128.507 138.874 128.611 138.564 128.651C138.504 128.657 138.21 128.661 138.019 128.661H137.829V129.408H145V128.676L144.828 128.661L144.834 128.664ZM136.802 121.359H131.167L133.777 114.18L136.802 121.359Z" fill="#C2A568"/>
<path d="M28.7922 145.523L28.7703 145.494C28.4793 145.154 28.2134 144.776 27.9787 144.441L27.6095 143.925C27.5532 143.844 27.4937 143.769 27.428 143.697C27.1683 143.388 26.8961 143.147 26.5957 142.966C26.5801 142.957 26.5613 142.944 26.5363 142.928C28.0569 142.716 28.9268 141.91 28.9268 140.697C28.9268 139.322 27.8692 138.534 26.0263 138.534H22.4093V138.915H22.6033C22.7472 138.915 22.8504 138.953 22.9349 139.031C23.0663 139.159 23.1289 139.406 23.1289 139.787V145.441C23.1289 145.829 23.0663 146.07 22.9349 146.198C22.8473 146.279 22.7315 146.316 22.5657 146.31H22.4093V146.692H25.2284V146.31H25.0344C24.8842 146.31 24.781 146.276 24.7028 146.198C24.5713 146.066 24.5088 145.82 24.5088 145.438V142.985H25.2472C25.2691 142.997 25.291 143.01 25.3098 143.022L25.3849 143.072H25.3911C25.5069 143.141 25.6164 143.216 25.7134 143.304C25.9668 143.519 26.1827 143.791 26.3579 144.11C26.4831 144.338 26.5926 144.551 26.7272 144.826L26.7365 144.848C27.2497 145.876 27.6533 146.688 28.8767 146.688H29.0551C29.2866 146.692 29.8529 146.692 29.8529 146.692H29.9656V146.329L29.8373 146.307C29.3899 146.229 29.0206 145.788 28.7985 145.523M27.4844 140.7C27.4844 141.831 26.8242 142.507 25.7196 142.507H24.5056V139.018H26.0263C26.9806 139.018 27.4875 139.6 27.4875 140.7" fill="#C2A568"/>
<path d="M39.3711 145.026C39.3711 145.026 39.2334 145.335 39.2272 145.348C38.9237 145.96 38.4324 146.213 37.5282 146.213H35.97V142.516H36.9493C37.766 142.516 38.1477 142.694 38.3511 143.178L38.4199 143.332H38.7609V141.316H38.4199L38.3542 141.456C38.1508 141.878 37.7691 142.035 36.9524 142.035H35.9731V139.015H37.2872C38.2885 139.015 38.8173 139.309 39.1114 140.031L39.1521 140.125H39.4962V138.534H33.8767V138.915H34.0707C34.2178 138.915 34.321 138.953 34.4024 139.031C34.5338 139.159 34.5995 139.406 34.5995 139.784V145.441C34.5995 145.82 34.5369 146.07 34.4055 146.198C34.3242 146.276 34.2115 146.313 34.0676 146.313H33.8767V146.695H39.7434V144.96H39.4024L39.3742 145.026H39.3711Z" fill="#C2A568"/>
<path d="M47.5438 141.847L47.3467 141.781C46.8179 141.6 45.582 141.178 45.582 140.187C45.582 139.534 46.1295 139.106 46.6364 138.981C46.9368 138.909 47.2653 138.906 47.6408 138.975C48.0257 139.047 48.3542 139.215 48.567 139.45C48.8548 139.765 49.1927 140.419 49.2991 140.731L49.3367 140.834H49.684V138.734H49.3742L49.3085 138.75L49.2741 138.79C49.2741 138.79 49.2178 138.837 49.0551 138.79C48.4574 138.565 47.791 138.44 47.1683 138.44C46.5175 138.44 45.9512 138.575 45.4881 138.84C45.2409 138.981 45 139.181 44.8154 139.4C44.2365 140.091 44.1896 141.156 44.7059 141.825C45.2503 142.528 46.1984 142.86 47.0369 143.157L47.3936 143.285C47.7065 143.394 48.0601 143.516 48.373 143.722C48.9362 144.088 49.3304 144.772 48.9424 145.479C48.5732 146.141 47.669 146.363 46.9368 146.291C46.6865 146.266 46.433 146.201 46.2015 146.098C45.535 145.801 45.0594 145.151 44.7497 144.11L44.7153 144.001H44.3711V146.282H44.7309L44.7622 146.245C44.7622 146.245 44.8091 146.195 44.9061 146.207C44.9186 146.207 44.9625 146.22 44.9781 146.229C45.1627 146.307 45.6508 146.51 46.214 146.654C46.5551 146.742 46.9118 146.788 47.2747 146.788C47.8692 146.788 48.4481 146.66 48.9456 146.423C49.2897 146.254 49.9061 145.879 50.1815 145.251C50.3098 144.957 50.3692 144.676 50.3692 144.385C50.3692 143.85 50.1596 143.366 49.7622 142.982C49.1427 142.385 48.326 142.113 47.5344 141.85" fill="#C2A568"/>
<path d="M54.6652 138.915H54.8561C55.0031 138.915 55.1095 138.953 55.1877 139.028C55.3191 139.156 55.3817 139.403 55.3817 139.784V145.441C55.3817 145.823 55.3191 146.073 55.1877 146.198C55.1064 146.276 54.9937 146.31 54.8185 146.31H54.6621V146.692H57.475V146.31H57.281C57.1308 146.31 57.0275 146.276 56.9493 146.198C56.8179 146.07 56.7553 145.829 56.7553 145.441V139.784C56.7553 139.403 56.8179 139.156 56.9493 139.028C57.0275 138.953 57.1402 138.912 57.2778 138.912H57.475V138.531H54.6621V138.912L54.6652 138.915Z" fill="#C2A568"/>
<path d="M64.6339 138.534H61.5332V138.912H61.724C61.8711 138.912 61.9775 138.95 62.0588 139.028C62.1902 139.153 62.2528 139.4 62.2528 139.781V145.438C62.2528 145.826 62.1902 146.066 62.0588 146.195C61.9775 146.273 61.8711 146.31 61.7272 146.31H61.5332V146.692H65.072C67.5876 146.692 69.0332 145.204 69.0332 142.613C69.0332 140.022 67.428 138.534 64.6339 138.534ZM67.6564 142.613C67.6564 144.901 66.7146 146.213 65.0751 146.213H63.6327V139.015H64.637C66.5582 139.015 67.6564 140.328 67.6564 142.613Z" fill="#C2A568"/>
<path d="M78.4856 145.026C78.4856 145.026 78.3479 145.335 78.3417 145.348C78.0382 145.96 77.5469 146.213 76.6427 146.213H75.0845V142.516H76.0638C76.8805 142.516 77.2622 142.694 77.4656 143.178L77.5344 143.332H77.8755V141.316H77.5344L77.4687 141.456C77.2653 141.878 76.8836 142.035 76.067 142.035H75.0876V139.015H76.4017C77.403 139.015 77.9318 139.309 78.2259 140.031L78.2666 140.125H78.6108V138.534H72.9912V138.915H73.1852C73.3323 138.915 73.4355 138.953 73.5169 139.031C73.6483 139.159 73.714 139.406 73.714 139.784V145.441C73.714 145.82 73.6514 146.07 73.52 146.198C73.4387 146.276 73.326 146.313 73.1821 146.313H72.9912V146.695H78.8611V144.96H78.52L78.4919 145.026H78.4856Z" fill="#C2A568"/>
<path d="M88.8454 138.915C88.9925 138.915 89.0989 138.953 89.1771 139.031C89.3085 139.162 89.3711 139.4 89.3711 139.784V144.563L85.0219 138.6L84.975 138.537H83.0601V138.918H83.2509C83.398 138.918 83.5044 138.956 83.5826 139.031C83.714 139.162 83.7766 139.403 83.7766 139.787V145.444C83.7766 145.826 83.714 146.073 83.5826 146.201C83.4981 146.282 83.3886 146.316 83.2134 146.316H83.0569V146.698H85.0313V146.316H84.8404C84.6996 146.316 84.5901 146.276 84.5088 146.195C84.3742 146.066 84.3116 145.829 84.3116 145.448V139.865L88.7985 145.979L89.3022 146.695H89.9061V139.784C89.9155 139.425 89.9875 139.125 90.0939 139.025C90.1721 138.95 90.2785 138.915 90.4318 138.915H90.6258V138.534H88.6452V138.915H88.8454Z" fill="#C2A568"/>
<path d="M101.621 144.96C101.539 145.107 101.452 145.238 101.361 145.351C101.189 145.569 101.004 145.745 100.817 145.873C100.591 146.023 100.382 146.123 100.178 146.179C99.5432 146.351 98.8047 146.32 98.2103 146.098C98.0382 146.032 97.8755 145.948 97.719 145.851C97.2653 145.566 96.8961 145.116 96.6176 144.507C96.3705 143.969 96.214 143.213 96.1952 142.488C96.1639 141.347 96.4987 140.328 97.1183 139.69C97.6095 139.184 98.2572 138.928 99.0363 138.928C99.49 138.928 99.9624 139.059 100.372 139.294C100.817 139.553 101.117 140.106 101.355 140.612L101.364 140.634C101.395 140.7 101.424 140.762 101.449 140.828L101.486 140.931H101.834V138.775H101.558L101.492 138.79L101.458 138.831C101.424 138.872 101.324 138.875 101.183 138.834C101.139 138.822 101.095 138.812 101.054 138.8L100.929 138.765C100.751 138.715 100.566 138.662 100.391 138.625C100.066 138.547 99.7309 138.49 99.3899 138.459C99.224 138.447 99.0613 138.437 98.908 138.437C98.3385 138.437 97.5156 138.525 96.8085 138.943C95.5507 139.694 94.7716 141.019 94.7246 142.485C94.6902 143.51 95.0125 144.551 95.5851 145.276C95.9011 145.673 96.2891 146.001 96.7053 146.226C97.5594 146.685 98.5795 146.782 99.2866 146.782C99.3899 146.782 99.4931 146.782 99.587 146.776C100.066 146.754 100.523 146.651 100.992 146.535C101.133 146.501 101.389 146.416 101.643 146.323L101.724 146.298L102.068 144.916L102.103 144.769L101.758 144.676L101.618 144.951L101.621 144.96Z" fill="#C2A568"/>
<path d="M111.583 145.026C111.583 145.026 111.446 145.335 111.439 145.348C111.136 145.96 110.645 146.213 109.74 146.213H108.182V142.516H109.161C109.978 142.516 110.36 142.694 110.563 143.178L110.632 143.332H110.973V141.316H110.632L110.566 141.456C110.363 141.878 109.981 142.035 109.165 142.035H108.185V139.015H109.499C110.501 139.015 111.029 139.309 111.324 140.031L111.364 140.125H111.708V138.534H106.089V138.915H106.283C106.43 138.915 106.533 138.953 106.615 139.031C106.746 139.159 106.812 139.406 106.812 139.784V145.441C106.812 145.82 106.749 146.07 106.618 146.198C106.536 146.276 106.424 146.313 106.28 146.313H106.089V146.695H111.956V144.96H111.615L111.586 145.026H111.583Z" fill="#C2A568"/>
<path d="M121.987 142.978C121.367 142.381 120.551 142.11 119.759 141.847L119.562 141.781C119.033 141.6 117.797 141.178 117.797 140.187C117.797 139.534 118.345 139.106 118.852 138.981C119.152 138.909 119.481 138.906 119.856 138.975C120.241 139.047 120.569 139.215 120.782 139.453C121.07 139.769 121.408 140.422 121.514 140.734L121.552 140.837H121.899V138.737H121.589L121.524 138.753L121.489 138.793C121.489 138.793 121.433 138.84 121.27 138.793C120.673 138.568 120.006 138.443 119.384 138.443C118.733 138.443 118.166 138.578 117.707 138.843C117.459 138.984 117.222 139.184 117.034 139.403C116.455 140.094 116.408 141.159 116.924 141.828C117.469 142.532 118.417 142.863 119.255 143.16L119.612 143.288C119.925 143.397 120.278 143.519 120.591 143.725C121.155 144.091 121.549 144.776 121.161 145.482C120.792 146.145 119.887 146.366 119.155 146.295C118.905 146.27 118.651 146.204 118.42 146.101C117.753 145.804 117.278 145.154 116.968 144.113L116.934 144.004H116.589V146.285H116.949L116.981 146.248C116.981 146.248 117.028 146.201 117.125 146.21C117.137 146.21 117.181 146.223 117.196 146.232C117.381 146.31 117.869 146.513 118.432 146.657C118.773 146.745 119.13 146.792 119.493 146.792C120.088 146.792 120.666 146.663 121.164 146.423C121.508 146.254 122.125 145.879 122.4 145.251C122.528 144.957 122.588 144.676 122.588 144.385C122.588 143.85 122.378 143.366 121.981 142.982" fill="#C2A568"/>
</svg>
