<svg viewBox="0 0 27 27" fill="none" xmlns="http://www.w3.org/2000/svg">
<mask id="path-1-inside-1_214_305" fill="white">
<path d="M26.4165 13.4997C26.4165 20.6335 20.6337 26.4163 13.4998 26.4163C6.36592 26.4163 0.58313 20.6335 0.58313 13.4997C0.58313 6.3658 6.36592 0.583008 13.4998 0.583008C20.6337 0.583008 26.4165 6.3658 26.4165 13.4997ZM13.9622 10.1181C12.7067 10.6408 10.1961 11.7228 6.4305 13.364C5.81825 13.6069 5.49792 13.8445 5.4695 14.077C5.42042 14.4697 5.91255 14.6247 6.58292 14.8353L6.8645 14.9257C7.52325 15.1401 8.41192 15.3907 8.87305 15.401C9.29155 15.4096 9.75827 15.2374 10.2732 14.8843C13.7917 12.5077 15.6078 11.3069 15.7215 11.2819C15.8028 11.2638 15.9139 11.2406 15.9888 11.3077C16.065 11.3749 16.0573 11.5015 16.0495 11.5363C16.0005 11.7443 14.0681 13.541 13.0684 14.4697C12.7722 14.7487 12.4781 15.0299 12.1862 15.3132C11.5739 15.9035 11.1141 16.3465 12.212 17.0698C13.3241 17.8035 14.4466 18.5346 15.5316 19.3083C16.0663 19.6906 16.5468 20.0316 17.141 19.9787C17.4859 19.9464 17.8424 19.6222 18.0232 18.6534C18.452 16.3672 19.2929 11.4098 19.4867 9.36634C19.4979 9.19684 19.4906 9.02661 19.4647 8.85872C19.4494 8.72359 19.384 8.59912 19.2813 8.50997C19.1263 8.38338 18.8873 8.35755 18.7814 8.35884C18.2958 8.36788 17.5505 8.62622 13.9635 10.1181"/>
</mask>
<path d="M6.4305 13.364L6.79919 14.2936L6.81473 14.2874L6.83006 14.2808L6.4305 13.364ZM5.4695 14.077L6.46179 14.2011L6.46212 14.1984L5.4695 14.077ZM6.58292 14.8353L6.88865 13.8831L6.88256 13.8812L6.58292 14.8353ZM6.8645 14.9257L7.17401 13.9748L7.17023 13.9736L6.8645 14.9257ZM8.87305 15.401L8.85064 16.4008L8.85248 16.4008L8.87305 15.401ZM10.2732 14.8843L9.71346 14.0557L9.70774 14.0596L10.2732 14.8843ZM15.7215 11.2819L15.936 12.2586L15.9384 12.2581L15.7215 11.2819ZM15.9888 11.3077L15.3213 12.0523L15.3276 12.0579L15.9888 11.3077ZM16.0495 11.5363L17.0229 11.7661L17.0257 11.7533L16.0495 11.5363ZM13.0684 14.4697L12.3878 13.737L12.3828 13.7418L13.0684 14.4697ZM12.1862 15.3132L12.8803 16.0331L12.8826 16.0308L12.1862 15.3132ZM12.212 17.0698L12.7627 16.2351L12.7622 16.2348L12.212 17.0698ZM15.5316 19.3083L16.1132 18.4948L16.1122 18.4941L15.5316 19.3083ZM17.141 19.9787L17.2298 20.9747L17.2342 20.9743L17.141 19.9787ZM18.0232 18.6534L17.0404 18.4691L17.0402 18.4699L18.0232 18.6534ZM19.4867 9.36634L20.4822 9.46073L20.4835 9.44666L20.4845 9.43255L19.4867 9.36634ZM19.4647 8.85872L18.471 8.97098L18.4733 8.99096L18.4764 9.01084L19.4647 8.85872ZM19.2813 8.50997L19.9369 7.75484L19.9255 7.74496L19.9138 7.73543L19.2813 8.50997ZM18.7814 8.35884L18.7692 7.3589L18.7628 7.35901L18.7814 8.35884ZM26.4165 13.4997H25.4165C25.4165 20.0813 20.0814 25.4163 13.4998 25.4163V26.4163V27.4163C21.186 27.4163 27.4165 21.1858 27.4165 13.4997H26.4165ZM13.4998 26.4163V25.4163C6.91821 25.4163 1.58313 20.0813 1.58313 13.4997H0.58313H-0.41687C-0.41687 21.1858 5.81364 27.4163 13.4998 27.4163V26.4163ZM0.58313 13.4997H1.58313C1.58313 6.91808 6.91821 1.58301 13.4998 1.58301V0.583008V-0.416992C5.81364 -0.416992 -0.41687 5.81351 -0.41687 13.4997H0.58313ZM13.4998 0.583008V1.58301C20.0814 1.58301 25.4165 6.91808 25.4165 13.4997H26.4165H27.4165C27.4165 5.81351 21.186 -0.416992 13.4998 -0.416992V0.583008ZM13.9622 10.1181L13.5779 9.1949C12.3135 9.72131 9.79529 10.8066 6.03095 12.4473L6.4305 13.364L6.83006 14.2808C10.597 12.6389 13.1 11.5603 14.3466 11.0413L13.9622 10.1181ZM6.4305 13.364L6.06182 12.4345C5.71997 12.5701 5.39578 12.728 5.13522 12.9213C4.90098 13.0951 4.54134 13.4284 4.47689 13.9557L5.4695 14.077L6.46212 14.1984C6.44358 14.35 6.38287 14.4514 6.34872 14.4975C6.3169 14.5404 6.29923 14.5481 6.32691 14.5275C6.35236 14.5086 6.40161 14.4766 6.48407 14.4342C6.56531 14.3923 6.66925 14.3451 6.79919 14.2936L6.4305 13.364ZM5.4695 14.077L4.47723 13.953C4.43523 14.289 4.51316 14.617 4.70179 14.8942C4.87105 15.1429 5.09315 15.2976 5.26201 15.3937C5.57717 15.5729 5.98905 15.6969 6.28329 15.7893L6.58292 14.8353L6.88256 13.8812C6.71005 13.827 6.57445 13.7842 6.45797 13.7423C6.3393 13.6996 6.27823 13.6708 6.25082 13.6552C6.21899 13.6371 6.28536 13.6663 6.3552 13.7689C6.3935 13.8252 6.42831 13.8971 6.44849 13.9818C6.4686 14.0661 6.46917 14.142 6.46178 14.2011L5.4695 14.077ZM6.58292 14.8353L6.2772 15.7874L6.55878 15.8778L6.8645 14.9257L7.17023 13.9736L6.88865 13.8831L6.58292 14.8353ZM6.8645 14.9257L6.555 15.8766C6.89855 15.9884 7.30861 16.1119 7.69984 16.2099C8.06795 16.3021 8.49926 16.3929 8.85064 16.4008L8.87305 15.401L8.89545 14.4013C8.7857 14.3988 8.54212 14.3591 8.18593 14.2699C7.85286 14.1864 7.48921 14.0774 7.17401 13.9748L6.8645 14.9257ZM8.87305 15.401L8.85248 16.4008C9.55963 16.4153 10.2317 16.1253 10.8387 15.7091L10.2732 14.8843L9.70774 14.0596C9.28482 14.3495 9.02346 14.4039 8.89362 14.4012L8.87305 15.401ZM10.2732 14.8843L10.833 15.713C12.5915 14.5251 13.9219 13.633 14.8257 13.0354C15.2783 12.7361 15.6198 12.5134 15.8532 12.3652C15.9708 12.2905 16.0544 12.2389 16.1081 12.2071C16.1359 12.1906 16.1469 12.1848 16.1462 12.1851C16.1453 12.1856 16.1424 12.1871 16.1377 12.1894C16.1333 12.1916 16.1252 12.1956 16.1142 12.2005C16.1102 12.2023 16.0378 12.2362 15.936 12.2586L15.7215 11.2819L15.5069 10.3052C15.3981 10.3291 15.3152 10.3669 15.2974 10.3749C15.2637 10.3899 15.2345 10.4049 15.2142 10.4156C15.1727 10.4374 15.1296 10.4622 15.09 10.4856C15.0089 10.5336 14.9044 10.5985 14.7808 10.677C14.5317 10.8352 14.1781 11.0659 13.7226 11.3671C12.8103 11.9703 11.4734 12.8669 9.71347 14.0557L10.2732 14.8843ZM15.7215 11.2819L15.9384 12.2581C15.9898 12.2466 15.9326 12.2634 15.8507 12.2628C15.7535 12.2621 15.528 12.2376 15.3213 12.0523L15.9888 11.3077L16.6564 10.5631C16.3747 10.3106 16.0562 10.2642 15.8644 10.2629C15.6879 10.2616 15.5345 10.299 15.5045 10.3057L15.7215 11.2819ZM15.9888 11.3077L15.3276 12.0579C15.118 11.8731 15.0727 11.6561 15.0616 11.5816C15.0545 11.5342 15.0535 11.4934 15.0547 11.4603C15.0556 11.4329 15.0589 11.3843 15.0734 11.3194L16.0495 11.5363L17.0257 11.7533C17.0563 11.6159 17.0644 11.452 17.0397 11.2867C17.0154 11.1234 16.9359 10.8095 16.65 10.5575L15.9888 11.3077ZM16.0495 11.5363L15.0763 11.3066C15.1037 11.1907 15.146 11.1106 15.1589 11.0866C15.1767 11.0536 15.1912 11.0322 15.1955 11.026C15.2039 11.0138 15.2026 11.017 15.1825 11.0409C15.1441 11.0867 15.0785 11.159 14.9822 11.2593C14.7924 11.457 14.5264 11.7192 14.2219 12.0123C13.6152 12.5964 12.8887 13.2717 12.3878 13.7371L13.0684 14.4697L13.749 15.2024C14.2478 14.739 14.9873 14.0516 15.609 13.4532C15.9187 13.155 16.2075 12.871 16.4251 12.6443C16.5325 12.5324 16.6336 12.423 16.7142 12.327C16.7536 12.2801 16.7999 12.2225 16.8424 12.1607C16.8596 12.1358 16.9723 11.98 17.0228 11.7661L16.0495 11.5363ZM13.0684 14.4697L12.3828 13.7418C12.0829 14.0242 11.7852 14.3088 11.4897 14.5956L12.1862 15.3132L12.8826 16.0308C13.1709 15.751 13.4614 15.4733 13.754 15.1977L13.0684 14.4697ZM12.1862 15.3132L11.4921 14.5933C11.3504 14.7299 11.1617 14.91 11.0061 15.0987C10.853 15.2842 10.651 15.5712 10.5767 15.948C10.3931 16.8787 11.0656 17.5121 11.6618 17.9049L12.212 17.0698L12.7622 16.2348C12.6564 16.1651 12.586 16.1096 12.541 16.0689C12.4955 16.0278 12.4852 16.0103 12.4906 16.0183C12.4974 16.0285 12.5213 16.0682 12.5362 16.1351C12.5516 16.2048 12.5508 16.2749 12.5389 16.3352C12.5279 16.3908 12.5108 16.4217 12.5097 16.4237C12.5092 16.4247 12.5185 16.4082 12.549 16.3713C12.5791 16.3348 12.6206 16.2894 12.6786 16.2305C12.7371 16.1712 12.8018 16.1087 12.8802 16.0331L12.1862 15.3132ZM12.212 17.0698L11.6613 17.9046C12.7812 18.6433 13.8846 19.362 14.951 20.1225L15.5316 19.3083L16.1122 18.4941C15.0086 17.7071 13.8671 16.9637 12.7627 16.2351L12.212 17.0698ZM15.5316 19.3083L14.95 20.1218C15.4135 20.4532 16.2024 21.0663 17.2298 20.9747L17.141 19.9787L17.0522 18.9826C16.9844 18.9887 16.8988 18.9788 16.7496 18.9066C16.579 18.824 16.3956 18.6967 16.1132 18.4948L15.5316 19.3083ZM17.141 19.9787L17.2342 20.9743C18.2944 20.8751 18.8075 19.9018 19.0062 18.8369L18.0232 18.6534L17.0402 18.4699C16.9649 18.8732 16.8714 19.0302 16.844 19.0667C16.8344 19.0795 16.8469 19.0588 16.8902 19.0333C16.9355 19.0065 16.991 18.9883 17.0478 18.983L17.141 19.9787ZM18.0232 18.6534L19.0061 18.8378C19.4343 16.5545 20.2836 11.5553 20.4822 9.46073L19.4867 9.36634L18.4911 9.27195C18.3022 11.2642 17.4697 16.1798 17.0404 18.4691L18.0232 18.6534ZM19.4867 9.36634L20.4845 9.43255C20.5006 9.19014 20.49 8.9467 20.4531 8.70659L19.4647 8.85872L18.4764 9.01084C18.4911 9.10652 18.4953 9.20354 18.4889 9.30013L19.4867 9.36634ZM19.4647 8.85872L20.4584 8.74645C20.415 8.36223 20.2289 8.00833 19.9369 7.75484L19.2813 8.50997L18.6257 9.26509C18.5391 9.18991 18.4839 9.08494 18.471 8.97098L19.4647 8.85872ZM19.2813 8.50997L19.9138 7.73543C19.6768 7.54185 19.419 7.45542 19.2459 7.41396C19.0661 7.37089 18.897 7.35736 18.7692 7.35892L18.7814 8.35884L18.7936 9.35877C18.7781 9.35896 18.7734 9.35816 18.7768 9.35852C18.7793 9.35878 18.781 9.35917 18.78 9.35895C18.7796 9.35885 18.7686 9.35631 18.7495 9.34789C18.7308 9.33965 18.6934 9.32099 18.6488 9.2845L19.2813 8.50997ZM18.7814 8.35884L18.7628 7.35901C18.3411 7.36687 17.8983 7.48707 17.1945 7.74232C16.4738 8.00371 15.3694 8.45031 13.5795 9.19477L13.9635 10.1181L14.3475 11.0414C16.1446 10.294 17.2063 9.86549 17.8764 9.62249C18.5634 9.37334 18.7361 9.35986 18.8 9.35867L18.7814 8.35884Z" fill="#C2A568" mask="url(#path-1-inside-1_214_305)"/>
</svg>
